G04 #@! TF.GenerationSoftware,KiCad,Pcbnew,no-vcs-found-2237de0~58~ubuntu16.04.1*
G04 #@! TF.CreationDate,2017-06-29T19:32:17-03:00*
G04 #@! TF.ProjectId,mateboard,6D617465626F6172642E6B696361645F,rev?*
G04 #@! TF.SameCoordinates,Original
G04 #@! TF.FileFunction,Copper,L5,Inr,Plane*
G04 #@! TF.FilePolarity,Positive*
%FSLAX46Y46*%
G04 Gerber Fmt 4.6, Leading zero omitted, Abs format (unit mm)*
G04 Created by KiCad (PCBNEW no-vcs-found-2237de0~58~ubuntu16.04.1) date Thu Jun 29 19:32:17 2017*
%MOMM*%
%LPD*%
G01*
G04 APERTURE LIST*
%ADD10C,0.100000*%
%ADD11C,0.457200*%
%ADD12C,0.300000*%
%ADD13C,0.500000*%
%ADD14C,0.200000*%
G04 APERTURE END LIST*
D10*
D11*
X152395000Y-109850000D03*
X151795000Y-109850000D03*
X151195000Y-109850000D03*
X105113000Y-156285500D03*
X122639000Y-109994000D03*
X123401000Y-109994000D03*
X121750000Y-109994000D03*
X147518000Y-122300000D03*
X94800000Y-116200000D03*
X158552424Y-124162697D03*
X155416280Y-128993952D03*
X154994801Y-120342812D03*
X115916922Y-157016922D03*
X111100000Y-156700000D03*
X109400000Y-150400000D03*
X135400000Y-118550009D03*
X93375684Y-147412316D03*
X93556000Y-144281591D03*
X122131000Y-151523000D03*
X107843500Y-153936000D03*
X131300000Y-123598890D03*
X114003000Y-153682000D03*
X127973000Y-155079000D03*
X155786000Y-134505000D03*
X151188600Y-129042279D03*
X154595000Y-138750000D03*
X131135000Y-119760000D03*
X148735000Y-153060000D03*
X92735000Y-128421620D03*
X92735000Y-127720580D03*
X92735000Y-136117820D03*
X92735000Y-131220700D03*
X92735000Y-130519660D03*
X97809660Y-126760000D03*
X99209200Y-126760000D03*
X102835000Y-133318740D03*
X102835000Y-134017240D03*
X105748000Y-141363000D03*
X146460000Y-111360000D03*
X146435000Y-112060000D03*
X150040000Y-114575000D03*
X150980000Y-114575000D03*
X150040000Y-113735000D03*
X121369000Y-129928600D03*
X137095000Y-155250000D03*
X144152000Y-119950000D03*
X142616000Y-122224000D03*
X95397000Y-119791000D03*
X93197000Y-116191000D03*
X114597006Y-144991000D03*
X114000000Y-140650000D03*
X97397000Y-148991000D03*
X101197000Y-148191000D03*
X101197000Y-153391000D03*
X99947000Y-137090994D03*
X100608740Y-137100000D03*
X97797000Y-135791000D03*
X97797000Y-134341000D03*
X97797000Y-132941000D03*
X97797000Y-130891000D03*
X97797000Y-129441000D03*
X97797000Y-128091000D03*
X99200000Y-142150000D03*
X103335000Y-141744000D03*
X112077400Y-121213000D03*
X110866000Y-124896000D03*
X106000000Y-123327000D03*
X106002000Y-119392000D03*
X108961000Y-121400000D03*
X106256000Y-110629000D03*
X106255994Y-111264000D03*
X109723000Y-113080000D03*
X125941000Y-111942000D03*
X125941000Y-112661000D03*
X131656000Y-115709000D03*
X122258000Y-111264000D03*
X122258000Y-111899000D03*
X136986749Y-126888251D03*
X148420000Y-122186000D03*
X148928000Y-121932000D03*
X148928000Y-122440000D03*
X142616000Y-123710000D03*
X142070000Y-155460000D03*
X134450000Y-137045000D03*
X142070000Y-140855000D03*
X143340000Y-140855000D03*
X142070000Y-139585000D03*
X126830000Y-139585000D03*
X128100000Y-138315000D03*
X129370000Y-149745000D03*
X112077400Y-131525000D03*
X150960000Y-149745000D03*
X126830000Y-131965000D03*
X126830000Y-134505000D03*
X136990000Y-137045000D03*
X139530000Y-139585000D03*
X140800000Y-140855000D03*
X138260000Y-142125000D03*
X128100000Y-128155000D03*
X129370000Y-126885000D03*
X131910000Y-126885000D03*
X134450000Y-126885000D03*
X135400000Y-116500000D03*
X140800000Y-135775000D03*
X139530000Y-135775000D03*
X138260000Y-134505000D03*
X143340000Y-135775000D03*
X143340000Y-126885000D03*
X144610000Y-126885000D03*
X148420000Y-126885000D03*
X101307411Y-139478610D03*
X116708000Y-119943000D03*
X102008280Y-139458000D03*
X112600000Y-124980000D03*
X113495000Y-132854000D03*
X104732000Y-111518000D03*
X104732000Y-110756000D03*
X152484000Y-119999600D03*
X157056000Y-119884620D03*
X121369000Y-115709000D03*
X121369000Y-115074000D03*
X121350000Y-114400000D03*
X145245000Y-124599000D03*
X145245000Y-125107000D03*
X155090819Y-128046411D03*
X155000000Y-119499988D03*
X123909000Y-154698000D03*
X123000000Y-122694000D03*
X121995000Y-148850000D03*
X120295000Y-148850000D03*
X139650000Y-115850000D03*
X139650000Y-121558000D03*
X124582000Y-109100000D03*
X108072000Y-109100000D03*
X134107000Y-109100000D03*
X134996000Y-109100000D03*
X135969000Y-109100000D03*
X150579000Y-119773000D03*
X132164000Y-111645000D03*
X130900000Y-116300000D03*
X132200022Y-114003954D03*
X94953000Y-144950000D03*
X108669000Y-132727000D03*
X95711620Y-138950000D03*
X109300000Y-125234000D03*
X112352000Y-153809000D03*
X121400000Y-117800000D03*
X122258000Y-128663000D03*
X140800000Y-125615000D03*
X157246500Y-116344000D03*
X118400000Y-137800000D03*
X125000000Y-137800000D03*
X120000000Y-143200000D03*
X125200000Y-143200000D03*
X155445000Y-143050000D03*
X150395004Y-123550000D03*
X140800000Y-121400000D03*
X141943000Y-153047000D03*
X145880000Y-134505000D03*
X144610000Y-133235000D03*
X143340000Y-133235000D03*
X108605500Y-157174500D03*
X135466000Y-155142500D03*
X129814500Y-155142500D03*
X145245000Y-151523000D03*
X142070000Y-145935000D03*
X140800000Y-148475000D03*
X145880000Y-149745000D03*
X159532500Y-126758000D03*
X159469000Y-131965000D03*
X159469000Y-132727002D03*
X159469002Y-133489000D03*
X159469000Y-128663001D03*
X159469000Y-128027998D03*
X159469000Y-127393002D03*
X159469000Y-130060000D03*
X142070000Y-144665000D03*
X140800000Y-149745000D03*
X144610000Y-149745000D03*
X158834000Y-128456600D03*
X158151390Y-131838000D03*
X138260000Y-149745000D03*
X139657000Y-156222000D03*
X136990000Y-149745000D03*
X114257000Y-157111000D03*
X135720000Y-149745000D03*
X106954500Y-157047500D03*
X134450000Y-149745000D03*
X112225000Y-156857000D03*
X131910000Y-149745000D03*
X115781000Y-150253000D03*
X130640000Y-149745000D03*
X145880000Y-147205000D03*
X128100000Y-149745000D03*
X127243575Y-151514857D03*
X136228000Y-153503000D03*
X126830000Y-148475000D03*
X145880000Y-148475000D03*
X158861321Y-126544224D03*
X144610000Y-148475000D03*
X157691000Y-128086642D03*
X158707000Y-130822000D03*
X121242000Y-156285500D03*
X139530000Y-148475000D03*
X139127736Y-156581736D03*
X138260000Y-148475000D03*
X136990000Y-148475000D03*
X131211500Y-152412000D03*
X114892000Y-156984000D03*
X135720000Y-148475000D03*
X116924000Y-157111000D03*
X134450000Y-148475000D03*
X111957999Y-154203001D03*
X131910000Y-148475000D03*
X116289000Y-149745000D03*
X130640000Y-148475000D03*
X144610000Y-147205000D03*
X128100000Y-145935000D03*
X156395000Y-140850000D03*
X158306324Y-127229430D03*
X143340000Y-147205000D03*
X155813093Y-140684328D03*
X158961000Y-129552000D03*
X142070000Y-147205000D03*
X155162997Y-140640379D03*
X140800000Y-147205000D03*
X158072000Y-132806400D03*
X139149000Y-155841000D03*
X138260000Y-147205000D03*
X116416000Y-154202632D03*
X136990000Y-147205000D03*
X107970500Y-157111000D03*
X135720000Y-147205000D03*
X116965502Y-156443527D03*
X134450000Y-147205000D03*
X109939000Y-153809000D03*
X133180000Y-147205000D03*
X124417000Y-146951000D03*
X110701000Y-153809000D03*
X125065000Y-148970000D03*
X131910000Y-147205000D03*
X111336000Y-153936000D03*
X128100000Y-147205000D03*
X130640000Y-147205000D03*
X129800000Y-152400000D03*
X129370000Y-147205000D03*
X153395000Y-147650000D03*
X137395000Y-111850000D03*
X138895000Y-152350000D03*
X140800000Y-144665000D03*
X131910000Y-134505000D03*
X131910000Y-131965000D03*
X115240078Y-156340078D03*
X136990000Y-145935000D03*
X135085000Y-151903996D03*
X135720000Y-145935000D03*
X133815000Y-151904000D03*
X134450000Y-145935000D03*
X133180000Y-145935000D03*
X131910000Y-145935000D03*
X113241000Y-156730000D03*
X130640000Y-145935000D03*
X113701402Y-156349000D03*
X129370000Y-145935000D03*
X108859500Y-153936000D03*
X143340000Y-144665000D03*
X125433000Y-151015000D03*
X133180000Y-144665000D03*
X124798000Y-150761000D03*
X131910000Y-144665000D03*
X144610000Y-143395000D03*
X139530000Y-143395000D03*
X148335000Y-111460000D03*
X133180000Y-143395000D03*
X112860000Y-147840000D03*
X130640000Y-143395000D03*
X113114000Y-148475000D03*
X129370000Y-143395000D03*
X112733000Y-149110000D03*
X133180000Y-142125000D03*
X113495000Y-148983000D03*
X131910000Y-142125000D03*
X111971000Y-146951000D03*
X130640000Y-142125000D03*
X112479000Y-147332000D03*
X129370000Y-142125000D03*
X145880000Y-140855000D03*
X117795000Y-128250000D03*
X131910000Y-140855000D03*
X117295000Y-139250000D03*
X129370000Y-140855000D03*
X117795000Y-130650000D03*
X131910000Y-139585000D03*
X117795000Y-124650000D03*
X130640000Y-139585000D03*
X117795000Y-125850000D03*
X129370000Y-139585000D03*
X117795000Y-127050000D03*
X133180000Y-138315000D03*
X117195000Y-135950000D03*
X130640000Y-138315000D03*
X117195000Y-134750000D03*
X129370000Y-138315000D03*
X117795000Y-129450000D03*
X133180000Y-137045000D03*
X115195000Y-133750000D03*
X131910000Y-137045000D03*
X115895000Y-137950000D03*
X130640000Y-137045000D03*
X109595000Y-141350000D03*
X129370000Y-137045000D03*
X115702199Y-137350000D03*
X130640000Y-135775000D03*
X115913781Y-138588308D03*
X129370000Y-135775000D03*
X158428066Y-125319920D03*
X157945000Y-120789000D03*
X157691000Y-120280996D03*
X158580000Y-121042998D03*
X133200000Y-133200000D03*
X124400000Y-128800000D03*
X113241000Y-149999000D03*
X124544000Y-132727000D03*
X131910000Y-133235000D03*
X130600000Y-133200000D03*
X124400000Y-129800000D03*
X155147131Y-126286709D03*
X151081602Y-133166811D03*
X155138894Y-125729558D03*
X152484000Y-133869990D03*
X155161271Y-125172795D03*
X151744610Y-134460000D03*
X148420000Y-131965000D03*
X151744610Y-135260000D03*
X147150000Y-131965000D03*
X145880000Y-131965000D03*
X144610000Y-131965000D03*
X155366306Y-131275845D03*
X143340000Y-131965000D03*
X125306000Y-116979000D03*
X142070000Y-131965000D03*
X133942000Y-123583000D03*
X140800000Y-131965000D03*
X104287500Y-156920500D03*
X120162500Y-150253000D03*
X136990000Y-131965000D03*
X151318390Y-137965827D03*
X135720000Y-131965000D03*
X141943000Y-119900000D03*
X134450000Y-131965000D03*
X155151157Y-124615674D03*
X155138185Y-124058613D03*
X151095000Y-131950000D03*
X155203017Y-123505185D03*
X151607820Y-131662820D03*
X148420000Y-130695000D03*
X154811247Y-122459178D03*
X150935000Y-130660000D03*
X147150000Y-130695000D03*
X154999984Y-121100000D03*
X151341002Y-137172000D03*
X145880000Y-130695000D03*
X155199990Y-130100000D03*
X144610000Y-130695000D03*
X155207099Y-130741861D03*
X143340000Y-130695000D03*
X127426240Y-119773000D03*
X142070000Y-130695000D03*
X124798000Y-115455000D03*
X140800000Y-130695000D03*
X139530000Y-130695000D03*
X138260000Y-130695000D03*
X136990000Y-130695000D03*
X159469000Y-125869000D03*
X135672400Y-130695000D03*
X152230000Y-137934000D03*
X150891400Y-134505000D03*
X134450000Y-130695000D03*
X108732498Y-148602000D03*
X133180000Y-130695000D03*
X149817000Y-117487000D03*
X131910000Y-130695000D03*
X130640000Y-130695000D03*
X151785500Y-119392000D03*
X129370000Y-130695000D03*
X151286444Y-130060000D03*
X152103000Y-125424500D03*
X151291390Y-128160000D03*
X148420000Y-129425000D03*
X154900000Y-121800000D03*
X147150000Y-129425000D03*
X152503000Y-120664000D03*
X155143070Y-126843906D03*
X145880000Y-129425000D03*
X155269202Y-129531403D03*
X144610000Y-129425000D03*
X126830000Y-117999240D03*
X143340000Y-129425000D03*
X127214380Y-118499620D03*
X142070000Y-129425000D03*
X136885643Y-114981469D03*
X140800000Y-129425000D03*
X155181516Y-131801523D03*
X139530000Y-129425000D03*
X154516001Y-134378000D03*
X136990000Y-129425000D03*
X159079856Y-125328423D03*
X135720000Y-129425000D03*
X155263331Y-132352695D03*
X134450000Y-129425000D03*
X107526000Y-150253000D03*
X133180000Y-125551500D03*
X133180000Y-129425000D03*
X131910000Y-129425000D03*
X130640000Y-129425000D03*
X129370000Y-129425000D03*
X152004061Y-122770147D03*
X152365331Y-121838085D03*
X148420000Y-128155000D03*
X151935000Y-121350000D03*
X155299994Y-127400000D03*
X145880000Y-128155000D03*
X144610000Y-128155000D03*
X143340000Y-128155000D03*
X127465000Y-117498860D03*
X130005000Y-120281000D03*
X142070000Y-128155000D03*
X137197580Y-115502420D03*
X140800000Y-128155000D03*
X136990000Y-128155000D03*
X135720000Y-128155000D03*
X107780000Y-148602000D03*
X133180000Y-128155000D03*
X132481500Y-125297500D03*
X108605500Y-149745000D03*
X131959066Y-128105934D03*
X150960000Y-126885000D03*
X150960000Y-125615000D03*
X157056000Y-121170000D03*
X148420000Y-125615000D03*
X149690000Y-125615000D03*
X125941000Y-151396000D03*
X126576000Y-151523000D03*
X133053000Y-117360001D03*
X138100000Y-120500000D03*
X90545000Y-131599998D03*
X90508000Y-139839000D03*
X93595000Y-143350000D03*
X90550578Y-132620922D03*
X90544994Y-133650000D03*
X94953000Y-139585000D03*
X107272000Y-142887000D03*
X94312080Y-142373080D03*
X97197000Y-137191000D03*
X112397000Y-143791000D03*
X103997000Y-147191000D03*
X97797000Y-136791000D03*
X112397000Y-144991000D03*
X103997000Y-152391000D03*
X98397000Y-138991000D03*
X99197000Y-138791000D03*
X105049500Y-132600000D03*
X104922500Y-131901500D03*
X104795500Y-131203000D03*
X104922500Y-129806000D03*
X154896996Y-139712000D03*
X109500000Y-151300000D03*
X140292000Y-157492000D03*
X155151000Y-136791000D03*
X109748500Y-157238000D03*
X111764610Y-136156000D03*
X104605000Y-143776000D03*
X109119873Y-156721078D03*
X106129000Y-156984000D03*
X106764000Y-129679000D03*
X101600000Y-122610000D03*
X106764000Y-128917000D03*
X100160000Y-122567000D03*
X106510000Y-128282000D03*
X94953000Y-121805000D03*
X106637000Y-127647000D03*
X96388000Y-122567000D03*
X106764000Y-127012000D03*
X97576000Y-122567000D03*
X106764000Y-125615000D03*
X98801000Y-122567000D03*
X109397000Y-139991000D03*
X109397000Y-131591000D03*
X106743406Y-139310406D03*
X91396984Y-124791000D03*
X109325264Y-138082264D03*
X106834723Y-135337723D03*
X106891000Y-136791000D03*
X109304000Y-138823000D03*
X134450000Y-128155000D03*
X108097500Y-156412500D03*
X104668500Y-151078500D03*
X130640000Y-128155000D03*
X144610000Y-137045000D03*
X138894986Y-125234000D03*
X113185715Y-151482085D03*
X130640000Y-134505000D03*
X113636285Y-151031515D03*
X129370000Y-134505000D03*
X158357278Y-122466154D03*
X130640000Y-131965000D03*
X158807848Y-122916724D03*
X129370000Y-131965000D03*
D12*
X103017500Y-111200500D02*
X104224000Y-109994000D01*
X102999830Y-156285500D02*
X92984500Y-146270170D01*
X93895000Y-135666150D02*
X103017500Y-126543650D01*
X92984500Y-146270170D02*
X92984500Y-137610500D01*
X105113000Y-156285500D02*
X102999830Y-156285500D01*
X92984500Y-137610500D02*
X93895000Y-136700000D01*
X93895000Y-136700000D02*
X93895000Y-135666150D01*
X103017500Y-126543650D02*
X103017500Y-111200500D01*
X104224000Y-109994000D02*
X121750000Y-109994000D01*
D13*
X140563000Y-109850000D02*
X147595000Y-109850000D01*
X147595000Y-109850000D02*
X152071711Y-109850000D01*
X147518000Y-122300000D02*
X147518000Y-109927000D01*
X147518000Y-109927000D02*
X147595000Y-109850000D01*
X152071711Y-109850000D02*
X152395000Y-109850000D01*
X140419000Y-109994000D02*
X140563000Y-109850000D01*
X140419000Y-109994000D02*
X136355000Y-109994000D01*
X136355000Y-109994000D02*
X123401000Y-109994000D01*
X123401000Y-109994000D02*
X121750000Y-109994000D01*
D12*
X101630700Y-139478610D02*
X101307411Y-139478610D01*
X103441390Y-139478610D02*
X101630700Y-139478610D01*
X110066000Y-132854000D02*
X103441390Y-139478610D01*
X113495000Y-132854000D02*
X110066000Y-132854000D01*
X112606000Y-119392000D02*
X116157000Y-119392000D01*
X116157000Y-119392000D02*
X116708000Y-119943000D01*
X113495000Y-132854000D02*
X112606000Y-132854000D01*
X105621000Y-113169000D02*
X104732000Y-112280000D01*
X112606000Y-132854000D02*
X112606000Y-119392000D01*
X112606000Y-119392000D02*
X106383000Y-113169000D01*
X106383000Y-113169000D02*
X105621000Y-113169000D01*
X104732000Y-112280000D02*
X104732000Y-110756000D01*
D13*
X152484000Y-119999600D02*
X152145400Y-119999600D01*
X150833000Y-121312000D02*
X150833000Y-121477670D01*
X152145400Y-119999600D02*
X150833000Y-121312000D01*
X150711000Y-121477670D02*
X147589670Y-124599000D01*
X150833000Y-121477670D02*
X150711000Y-121477670D01*
X147589670Y-124599000D02*
X145568289Y-124599000D01*
X145568289Y-124599000D02*
X145245000Y-124599000D01*
X149436000Y-118757000D02*
X149436000Y-120080670D01*
X149436000Y-120080670D02*
X150833000Y-121477670D01*
X150833000Y-117360000D02*
X149436000Y-118757000D01*
X154135000Y-117360000D02*
X150833000Y-117360000D01*
X156659620Y-119884620D02*
X154135000Y-117360000D01*
X157056000Y-119884620D02*
X156659620Y-119884620D01*
X138883000Y-110883000D02*
X145245000Y-117245000D01*
X121369000Y-115074000D02*
X121369000Y-114439000D01*
X121369000Y-114439000D02*
X124925000Y-110883000D01*
X124925000Y-110883000D02*
X138883000Y-110883000D01*
X145245000Y-117245000D02*
X145245000Y-124599000D01*
X145245000Y-124599000D02*
X145245000Y-125107000D01*
X121369000Y-115709000D02*
X121369000Y-114419000D01*
X121369000Y-114419000D02*
X121350000Y-114400000D01*
D12*
X155000000Y-119499988D02*
X155786000Y-120285988D01*
X155786000Y-127722331D02*
X155489661Y-128018670D01*
X155118560Y-128018670D02*
X155090819Y-128046411D01*
X155786000Y-120285988D02*
X155786000Y-127722331D01*
X155489661Y-128018670D02*
X155118560Y-128018670D01*
X151468000Y-118884000D02*
X154384012Y-118884000D01*
X154384012Y-118884000D02*
X154771401Y-119271389D01*
X150579000Y-119773000D02*
X151468000Y-118884000D01*
X154771401Y-119271389D02*
X155000000Y-119499988D01*
X123909000Y-154698000D02*
X107589500Y-154698000D01*
X107589500Y-154698000D02*
X107208500Y-154317000D01*
X107208500Y-154317000D02*
X107208500Y-153862670D01*
X116733000Y-152412000D02*
X120295000Y-148850000D01*
X107208500Y-153862670D02*
X108659170Y-152412000D01*
X108659170Y-152412000D02*
X116733000Y-152412000D01*
X121995000Y-148850000D02*
X121995000Y-137290000D01*
X120353000Y-135648000D02*
X120353000Y-125341000D01*
X121995000Y-137290000D02*
X120353000Y-135648000D01*
X120353000Y-125341000D02*
X123000000Y-122694000D01*
X132200022Y-114003954D02*
X131329046Y-114003954D01*
X131329046Y-114003954D02*
X130767000Y-114566000D01*
X130767000Y-114566000D02*
X130767000Y-116167000D01*
X130767000Y-116167000D02*
X130900000Y-116300000D01*
X139650000Y-121558000D02*
X139650000Y-115850000D01*
D13*
X135969000Y-109100000D02*
X124582000Y-109100000D01*
X124582000Y-109100000D02*
X108072000Y-109100000D01*
D12*
X132164000Y-111645000D02*
X132164000Y-113967932D01*
X132164000Y-113967932D02*
X132200022Y-114003954D01*
X108050601Y-132710399D02*
X102573000Y-138188000D01*
X95715000Y-138950000D02*
X95711620Y-138950000D01*
X102573000Y-138188000D02*
X96477000Y-138188000D01*
X96477000Y-138188000D02*
X95715000Y-138950000D01*
X95711620Y-138950000D02*
X95711620Y-144191380D01*
X95711620Y-144191380D02*
X94953000Y-144950000D01*
X108050601Y-132710399D02*
X108652399Y-132710399D01*
X108652399Y-132710399D02*
X108669000Y-132727000D01*
X109300000Y-125234000D02*
X108050601Y-126483399D01*
X108050601Y-126483399D02*
X108050601Y-132710399D01*
X112352000Y-153809000D02*
X112352000Y-153735670D01*
X112352000Y-153735670D02*
X112913670Y-153174000D01*
X112913670Y-153174000D02*
X119337000Y-153174000D01*
X119337000Y-153174000D02*
X122893000Y-149618000D01*
X122893000Y-149618000D02*
X122893000Y-133577000D01*
X122893000Y-133577000D02*
X122258000Y-132942000D01*
X122258000Y-132942000D02*
X122258000Y-128663000D01*
X124671000Y-126250000D02*
X124671000Y-121071000D01*
X124671000Y-121071000D02*
X121400000Y-117800000D01*
X124671000Y-126250000D02*
X122258000Y-128663000D01*
X130386000Y-126250000D02*
X124671000Y-126250000D01*
X140165000Y-126250000D02*
X130386000Y-126250000D01*
X140800000Y-125615000D02*
X140165000Y-126250000D01*
X146600000Y-137400000D02*
X146600000Y-143050000D01*
X146600000Y-143050000D02*
X146600000Y-151400000D01*
D14*
X155445000Y-143050000D02*
X146600000Y-143050000D01*
D12*
X145880000Y-134505000D02*
X145800000Y-134585000D01*
X146600000Y-151400000D02*
X144953000Y-153047000D01*
X145800000Y-134585000D02*
X145800000Y-136600000D01*
X145800000Y-136600000D02*
X146600000Y-137400000D01*
X144953000Y-153047000D02*
X141943000Y-153047000D01*
X144610000Y-133235000D02*
X145880000Y-134505000D01*
X143340000Y-133235000D02*
X144610000Y-133235000D01*
D13*
X142070000Y-145935000D02*
X142705000Y-146570000D01*
X142705000Y-147840000D02*
X141435000Y-147840000D01*
X142705000Y-146570000D02*
X142705000Y-147840000D01*
X141435000Y-147840000D02*
X144991000Y-147840000D01*
X144991000Y-147840000D02*
X145245000Y-148094000D01*
X145245000Y-148094000D02*
X145245000Y-149110000D01*
X145245000Y-149110000D02*
X145880000Y-149745000D01*
X140800000Y-148475000D02*
X141435000Y-147840000D01*
D14*
X134450000Y-149745000D02*
X133053000Y-149745000D01*
X133053000Y-149745000D02*
X130449500Y-152348500D01*
X130449500Y-152348500D02*
X130449500Y-152983500D01*
X130449500Y-152983500D02*
X129289010Y-154143990D01*
X129289010Y-154143990D02*
X125669510Y-154143990D01*
X106954500Y-155841000D02*
X106954500Y-157047500D01*
X125669510Y-154143990D02*
X124671000Y-155142500D01*
X124671000Y-155142500D02*
X107653000Y-155142500D01*
X107653000Y-155142500D02*
X106954500Y-155841000D01*
X135291399Y-150173601D02*
X134974569Y-150490431D01*
X134974569Y-150490431D02*
X133767399Y-150490431D01*
X135291399Y-147633601D02*
X135291399Y-150173601D01*
X135720000Y-147205000D02*
X135291399Y-147633601D01*
X107970500Y-155523500D02*
X107526000Y-155968000D01*
X133767399Y-150490431D02*
X129813830Y-154444000D01*
X124861500Y-155523500D02*
X107970500Y-155523500D01*
X129813830Y-154444000D02*
X125941000Y-154444000D01*
X125941000Y-154444000D02*
X124861500Y-155523500D01*
X107526000Y-155968000D02*
X107526000Y-156666500D01*
X107526000Y-156666500D02*
X107970500Y-157111000D01*
X153395000Y-147650000D02*
X152420670Y-147650000D01*
X152420670Y-147650000D02*
X146170670Y-153900000D01*
X146170670Y-153900000D02*
X139795000Y-153900000D01*
X139795000Y-153900000D02*
X138895000Y-153000000D01*
X138895000Y-153000000D02*
X138895000Y-152350000D01*
X131910000Y-131965000D02*
X131195000Y-131250000D01*
X131195000Y-131250000D02*
X128995000Y-131250000D01*
X128795000Y-128250000D02*
X129595000Y-127450000D01*
X128995000Y-131250000D02*
X128795000Y-131050000D01*
X128795000Y-131050000D02*
X128795000Y-128250000D01*
X129595000Y-127450000D02*
X140195000Y-127450000D01*
X140195000Y-127450000D02*
X141795000Y-125850000D01*
X141795000Y-125850000D02*
X141795000Y-124250000D01*
X141795000Y-124250000D02*
X140195000Y-122650000D01*
X140195000Y-122650000D02*
X138395000Y-122650000D01*
X138395000Y-122650000D02*
X135995000Y-120250000D01*
X135995000Y-120250000D02*
X135995000Y-113250000D01*
X135995000Y-113250000D02*
X137395000Y-111850000D01*
D12*
X140800000Y-142155000D02*
X133150000Y-134505000D01*
X133150000Y-134505000D02*
X131910000Y-134505000D01*
X140800000Y-144665000D02*
X140800000Y-142155000D01*
X138895000Y-152350000D02*
X138895000Y-146570000D01*
X138895000Y-146570000D02*
X140800000Y-144665000D01*
D14*
X131910000Y-131965000D02*
X132545000Y-132600000D01*
X132545000Y-132600000D02*
X132545000Y-133870000D01*
X132545000Y-133870000D02*
X131910000Y-134505000D01*
X153309500Y-121678000D02*
X153309500Y-120188690D01*
X153309500Y-120188690D02*
X152512810Y-119392000D01*
X152512810Y-119392000D02*
X151785500Y-119392000D01*
X152720814Y-122266686D02*
X153309500Y-121678000D01*
X146578500Y-129488500D02*
X146578500Y-126732174D01*
X146578500Y-126732174D02*
X151043988Y-122266686D01*
X151043988Y-122266686D02*
X152720814Y-122266686D01*
X145943500Y-130123500D02*
X146578500Y-129488500D01*
X129941500Y-130123500D02*
X145943500Y-130123500D01*
X129370000Y-130695000D02*
X129941500Y-130123500D01*
D12*
X153925013Y-128525013D02*
X155320549Y-128525013D01*
X151493601Y-126093601D02*
X153925013Y-128525013D01*
X149690000Y-125615000D02*
X150168601Y-126093601D01*
X157056000Y-121493289D02*
X157056000Y-121170000D01*
X150168601Y-126093601D02*
X151493601Y-126093601D01*
X155320549Y-128525013D02*
X155417106Y-128428456D01*
X155766544Y-128428456D02*
X157056000Y-127139000D01*
X155417106Y-128428456D02*
X155766544Y-128428456D01*
X157056000Y-127139000D02*
X157056000Y-121493289D01*
X148420000Y-125615000D02*
X149690000Y-125615000D01*
M02*
