G04 #@! TF.FileFunction,Copper,L6,Bot,Signal*
%FSLAX46Y46*%
G04 Gerber Fmt 4.6, Leading zero omitted, Abs format (unit mm)*
G04 Created by KiCad (PCBNEW 4.0.6-e0-6349~53~ubuntu16.04.1) date Sat May  6 10:48:22 2017*
%MOMM*%
%LPD*%
G01*
G04 APERTURE LIST*
%ADD10C,0.100000*%
%ADD11C,1.500000*%
%ADD12R,0.198120X1.137920*%
%ADD13R,0.350000X1.137920*%
%ADD14R,1.137920X0.198120*%
%ADD15R,1.137920X0.350000*%
%ADD16C,0.457200*%
%ADD17C,0.200000*%
%ADD18C,0.150000*%
%ADD19C,0.500000*%
%ADD20C,0.300000*%
G04 APERTURE END LIST*
D10*
D11*
X103505000Y-128905000D03*
X103505000Y-130810000D03*
X103568500Y-132715000D03*
X92075000Y-141541500D03*
X107442000Y-133350000D03*
X94043500Y-141478000D03*
X95948500Y-141541500D03*
X101805000Y-145750000D03*
X99805000Y-144750000D03*
X148082000Y-147955000D03*
X148082000Y-143637000D03*
X137795000Y-144399000D03*
X148105000Y-145850000D03*
D12*
X119341920Y-153373480D03*
X119341920Y-156010000D03*
X118940600Y-153373480D03*
X118940600Y-156010000D03*
X118541820Y-153373480D03*
X118541820Y-156010000D03*
X118140500Y-153373480D03*
X118140500Y-156010000D03*
X117741720Y-153373480D03*
X117741720Y-156010000D03*
X117340400Y-153373480D03*
X117340400Y-156010000D03*
X116941620Y-153373480D03*
X116941620Y-156010000D03*
X116540300Y-153373480D03*
X116540300Y-156010000D03*
X116141520Y-153373480D03*
X116141520Y-156010000D03*
X115740200Y-153373480D03*
X115740200Y-156010000D03*
X115341420Y-153373480D03*
X115341420Y-156010000D03*
X114940100Y-153373480D03*
X114940100Y-156010000D03*
X114541320Y-153373480D03*
X114541320Y-156010000D03*
X114140000Y-153373480D03*
X114140000Y-156010000D03*
X113741220Y-153373480D03*
X113741220Y-156010000D03*
X113339900Y-153373480D03*
X113339900Y-156010000D03*
X112941120Y-153373480D03*
X112941120Y-156010000D03*
X112542340Y-153373480D03*
X112542340Y-156010000D03*
X112143560Y-153373480D03*
X112143560Y-156010000D03*
X111744780Y-153373480D03*
X111744780Y-156010000D03*
X111343460Y-153373480D03*
X111343460Y-156010000D03*
X110944680Y-153373480D03*
X110944680Y-156010000D03*
X110543360Y-153373480D03*
X110543360Y-156010000D03*
X110144580Y-153373480D03*
X110144580Y-156010000D03*
X109743260Y-153373480D03*
X109743260Y-156010000D03*
X109344480Y-153373480D03*
X109344480Y-156010000D03*
X108943160Y-153373480D03*
X108943160Y-156010000D03*
X108544380Y-153373480D03*
X108544380Y-156010000D03*
X108143060Y-153373480D03*
X108143060Y-156010000D03*
X107744280Y-153373480D03*
X107744280Y-156010000D03*
X107342960Y-153373480D03*
X107342960Y-156010000D03*
X106944180Y-153373480D03*
X106944180Y-156010000D03*
X106542860Y-153373480D03*
X106542860Y-156010000D03*
X106144080Y-153373480D03*
X106144080Y-156010000D03*
X105742760Y-153373480D03*
X105742760Y-156010000D03*
D13*
X105342760Y-153373480D03*
X105342760Y-156010000D03*
X119742760Y-156010000D03*
X119742760Y-153373480D03*
D14*
X156972000Y-134063740D03*
X154335480Y-134063740D03*
X156972000Y-133662420D03*
X154335480Y-133662420D03*
X156972000Y-133263640D03*
X154335480Y-133263640D03*
X156972000Y-132862320D03*
X154335480Y-132862320D03*
X156972000Y-132463540D03*
X154335480Y-132463540D03*
X156972000Y-132062220D03*
X154335480Y-132062220D03*
X156972000Y-131663440D03*
X154335480Y-131663440D03*
X156972000Y-131262120D03*
X154335480Y-131262120D03*
X156972000Y-130863340D03*
X154335480Y-130863340D03*
X156972000Y-130462020D03*
X154335480Y-130462020D03*
X156972000Y-130063240D03*
X154335480Y-130063240D03*
X156972000Y-129661920D03*
X154335480Y-129661920D03*
X156972000Y-129263140D03*
X154335480Y-129263140D03*
X156972000Y-128861820D03*
X154335480Y-128861820D03*
X156972000Y-128463040D03*
X154335480Y-128463040D03*
X156972000Y-128061720D03*
X154335480Y-128061720D03*
X156972000Y-127662940D03*
X154335480Y-127662940D03*
X156972000Y-127264160D03*
X154335480Y-127264160D03*
X156972000Y-126865380D03*
X154335480Y-126865380D03*
X156972000Y-126466600D03*
X154335480Y-126466600D03*
X156972000Y-126065280D03*
X154335480Y-126065280D03*
X156972000Y-125666500D03*
X154335480Y-125666500D03*
X156972000Y-125265180D03*
X154335480Y-125265180D03*
X156972000Y-124866400D03*
X154335480Y-124866400D03*
X156972000Y-124465080D03*
X154335480Y-124465080D03*
X156972000Y-124066300D03*
X154335480Y-124066300D03*
X156972000Y-123664980D03*
X154335480Y-123664980D03*
X156972000Y-123266200D03*
X154335480Y-123266200D03*
X156972000Y-122864880D03*
X154335480Y-122864880D03*
X156972000Y-122466100D03*
X154335480Y-122466100D03*
X156972000Y-122064780D03*
X154335480Y-122064780D03*
X156972000Y-121666000D03*
X154335480Y-121666000D03*
X156972000Y-121264680D03*
X154335480Y-121264680D03*
X156972000Y-120865900D03*
X154335480Y-120865900D03*
X156972000Y-120464580D03*
X154335480Y-120464580D03*
D15*
X156972000Y-120064580D03*
X154335480Y-120064580D03*
X154335480Y-134464580D03*
X156972000Y-134464580D03*
D11*
X138430000Y-125222000D03*
D16*
X153200000Y-110600000D03*
X152600000Y-110600000D03*
X152000000Y-110600000D03*
X105918000Y-157035500D03*
X123444000Y-110744000D03*
X124206000Y-110744000D03*
X122555000Y-110744000D03*
X148323000Y-123050000D03*
X151587797Y-114645506D03*
X122936000Y-152273000D03*
X116713000Y-157734000D03*
X108648500Y-154686000D03*
X132105000Y-124348890D03*
X114808000Y-154432000D03*
X112141000Y-157353000D03*
X128778000Y-155829000D03*
X155952528Y-129635875D03*
X159385000Y-124841000D03*
X156591000Y-135255000D03*
X151993600Y-129792279D03*
X155800000Y-121100000D03*
X155400000Y-139500000D03*
X131940000Y-120510000D03*
X149540000Y-153810000D03*
X93540000Y-129171620D03*
X93540000Y-128470580D03*
X93540000Y-136867820D03*
X93540000Y-131970700D03*
X93540000Y-131269660D03*
X98614660Y-127510000D03*
X100014200Y-127510000D03*
X103640000Y-134068740D03*
X103640000Y-134767240D03*
X106553000Y-142113000D03*
X147265000Y-112110000D03*
X147240000Y-112810000D03*
X150845000Y-115325000D03*
X151785000Y-115325000D03*
X150845000Y-114485000D03*
X121793000Y-132969000D03*
X122174000Y-130678600D03*
X94361000Y-145034000D03*
X137900000Y-156000000D03*
X144957000Y-120700000D03*
X143421000Y-122974000D03*
X96202000Y-120541000D03*
X94002000Y-116941000D03*
X115402006Y-145741000D03*
X114805000Y-141400000D03*
X94202000Y-148141000D03*
X98202000Y-149741000D03*
X102002000Y-148941000D03*
X102002000Y-154141000D03*
X100752000Y-137840994D03*
X101413740Y-137850000D03*
X98602000Y-136541000D03*
X98602000Y-135091000D03*
X98602000Y-133691000D03*
X98602000Y-131641000D03*
X98602000Y-130191000D03*
X98602000Y-128841000D03*
X100005000Y-142900000D03*
X104140000Y-142494000D03*
X112882400Y-121963000D03*
X111671000Y-125646000D03*
X106805000Y-124077000D03*
X106807000Y-120142000D03*
X109766000Y-122150000D03*
X107061000Y-111379000D03*
X107060994Y-112014000D03*
X110528000Y-113830000D03*
X126746000Y-112692000D03*
X126746000Y-113411000D03*
X132461000Y-116459000D03*
X123063000Y-112014000D03*
X123063000Y-112649000D03*
X137791749Y-127638251D03*
X149225000Y-122936000D03*
X149733000Y-122682000D03*
X149733000Y-123190000D03*
X143421000Y-124460000D03*
X142875000Y-156210000D03*
X135255000Y-137795000D03*
X142875000Y-141605000D03*
X144145000Y-141605000D03*
X142875000Y-140335000D03*
X127635000Y-140335000D03*
X128905000Y-139065000D03*
X130175000Y-150495000D03*
X112882400Y-132275000D03*
X151765000Y-150495000D03*
X127635000Y-132715000D03*
X127635000Y-135255000D03*
X137795000Y-137795000D03*
X140335000Y-140335000D03*
X141605000Y-141605000D03*
X139065000Y-142875000D03*
X128905000Y-128905000D03*
X130175000Y-127635000D03*
X132715000Y-127635000D03*
X135255000Y-127635000D03*
X136205000Y-119250000D03*
X136205000Y-117250000D03*
X141605000Y-136525000D03*
X140335000Y-136525000D03*
X139065000Y-135255000D03*
X144145000Y-136525000D03*
X144145000Y-127635000D03*
X145415000Y-127635000D03*
X149225000Y-127635000D03*
X102112411Y-140228610D03*
X117513000Y-120693000D03*
X102813280Y-140208000D03*
X113405000Y-125730000D03*
X114300000Y-133604000D03*
X105537000Y-112268000D03*
X105537000Y-111506000D03*
X153289000Y-120749600D03*
X157861000Y-120634620D03*
X122174000Y-116459000D03*
X122174000Y-115824000D03*
X122155000Y-115150000D03*
X146050000Y-125349000D03*
X146050000Y-125857000D03*
X124714000Y-155448000D03*
X155957342Y-128678664D03*
X123805000Y-123444000D03*
X122800000Y-149600000D03*
X121100000Y-149600000D03*
X140455000Y-116600000D03*
X140455000Y-122308000D03*
X125387000Y-109850000D03*
X108877000Y-109850000D03*
X134912000Y-109850000D03*
X135801000Y-109850000D03*
X136774000Y-109850000D03*
X151384000Y-120523000D03*
X155340000Y-120271000D03*
X132969000Y-112395000D03*
X131705000Y-117050000D03*
X133005022Y-114753954D03*
X95758000Y-145700000D03*
X109474000Y-133477000D03*
X96516620Y-139700000D03*
X110105000Y-125984000D03*
X113157000Y-154559000D03*
X122005000Y-134750000D03*
X122205000Y-118550000D03*
X123063000Y-129413000D03*
X141605000Y-126365000D03*
X158051500Y-117094000D03*
X123761500Y-133159500D03*
X119205000Y-138550000D03*
X125805000Y-138550000D03*
X120805000Y-143950000D03*
X126005000Y-143950000D03*
X156250000Y-143800000D03*
X151200004Y-124300000D03*
X141605000Y-122150000D03*
X142748000Y-153797000D03*
X146685000Y-135255000D03*
X145415000Y-133985000D03*
X144145000Y-133985000D03*
X109410500Y-157924500D03*
X136271000Y-155892500D03*
X130619500Y-155892500D03*
X146050000Y-152273000D03*
X142875000Y-146685000D03*
X141605000Y-149225000D03*
X146685000Y-150495000D03*
X160337500Y-127508000D03*
X160274000Y-132715000D03*
X160274000Y-133477002D03*
X160274002Y-134239000D03*
X160274000Y-129413001D03*
X160274000Y-128777998D03*
X160274000Y-128143002D03*
X160274000Y-130810000D03*
X142875000Y-145415000D03*
X141605000Y-150495000D03*
X145415000Y-150495000D03*
X159639000Y-129206600D03*
X158956390Y-132588000D03*
X139065000Y-150495000D03*
X140462000Y-156972000D03*
X137795000Y-150495000D03*
X115062000Y-157861000D03*
X136525000Y-150495000D03*
X107759500Y-157797500D03*
X135255000Y-150495000D03*
X113030000Y-157607000D03*
X132715000Y-150495000D03*
X116586000Y-151003000D03*
X131445000Y-150495000D03*
X146685000Y-147955000D03*
X128905000Y-150495000D03*
X128048575Y-152264857D03*
X137033000Y-154253000D03*
X127635000Y-149225000D03*
X146685000Y-149225000D03*
X159666321Y-127294224D03*
X145415000Y-149225000D03*
X158496000Y-128836642D03*
X159512000Y-131572000D03*
X122047000Y-157035500D03*
X140335000Y-149225000D03*
X139954000Y-157353000D03*
X139065000Y-149225000D03*
X137795000Y-149225000D03*
X132016500Y-153162000D03*
X115697000Y-157734000D03*
X136525000Y-149225000D03*
X117729000Y-157861000D03*
X135255000Y-149225000D03*
X112762999Y-154953001D03*
X132715000Y-149225000D03*
X117094000Y-150495000D03*
X131445000Y-149225000D03*
X145415000Y-147955000D03*
X128905000Y-146685000D03*
X157200000Y-141600000D03*
X159111324Y-127979430D03*
X144145000Y-147955000D03*
X156618093Y-141434328D03*
X159766000Y-130302000D03*
X142875000Y-147955000D03*
X155967997Y-141390379D03*
X141605000Y-147955000D03*
X158877000Y-133556400D03*
X139954000Y-156591000D03*
X139065000Y-147955000D03*
X117221000Y-154952632D03*
X137795000Y-147955000D03*
X108775500Y-157861000D03*
X136525000Y-147955000D03*
X117770502Y-157193527D03*
X135255000Y-147955000D03*
X110744000Y-154559000D03*
X133985000Y-147955000D03*
X125222000Y-147701000D03*
X111506000Y-154559000D03*
X125870000Y-149720000D03*
X132715000Y-147955000D03*
X112141000Y-154686000D03*
X128905000Y-147955000D03*
X131445000Y-147955000D03*
X130605000Y-153150000D03*
X130175000Y-147955000D03*
X154200000Y-148400000D03*
X138200000Y-112600000D03*
X139700000Y-153100000D03*
X141605000Y-145415000D03*
X132715000Y-135255000D03*
X132715000Y-132715000D03*
X115951000Y-157099000D03*
X137795000Y-146685000D03*
X135890000Y-152653996D03*
X136525000Y-146685000D03*
X134620000Y-152654000D03*
X135255000Y-146685000D03*
X133985000Y-146685000D03*
X132715000Y-146685000D03*
X114046000Y-157480000D03*
X131445000Y-146685000D03*
X114506402Y-157099000D03*
X130175000Y-146685000D03*
X109664500Y-154686000D03*
X144145000Y-145415000D03*
X126238000Y-151765000D03*
X133985000Y-145415000D03*
X125603000Y-151511000D03*
X132715000Y-145415000D03*
X145415000Y-144145000D03*
X140335000Y-144145000D03*
X149140000Y-112210000D03*
X133985000Y-144145000D03*
X113665000Y-148590000D03*
X131445000Y-144145000D03*
X113919000Y-149225000D03*
X130175000Y-144145000D03*
X113538000Y-149860000D03*
X133985000Y-142875000D03*
X114300000Y-149733000D03*
X132715000Y-142875000D03*
X112776000Y-147701000D03*
X131445000Y-142875000D03*
X113284000Y-148082000D03*
X130175000Y-142875000D03*
X146685000Y-141605000D03*
X118600000Y-129000000D03*
X132715000Y-141605000D03*
X118100000Y-140000000D03*
X130175000Y-141605000D03*
X118600000Y-131400000D03*
X132715000Y-140335000D03*
X118600000Y-125400000D03*
X131445000Y-140335000D03*
X118600000Y-126600000D03*
X130175000Y-140335000D03*
X118600000Y-127800000D03*
X133985000Y-139065000D03*
X118000000Y-136700000D03*
X131445000Y-139065000D03*
X118000000Y-135500000D03*
X130175000Y-139065000D03*
X118600000Y-130200000D03*
X133985000Y-137795000D03*
X116000000Y-134500000D03*
X132715000Y-137795000D03*
X116700000Y-138700000D03*
X131445000Y-137795000D03*
X110400000Y-142100000D03*
X130175000Y-137795000D03*
X116507199Y-138100000D03*
X131445000Y-136525000D03*
X116718781Y-139338308D03*
X130175000Y-136525000D03*
X113792000Y-154559000D03*
X125349000Y-135001000D03*
X131445000Y-135255000D03*
X114147384Y-151629462D03*
X125349000Y-134239000D03*
X130175000Y-135255000D03*
X134005000Y-133950000D03*
X125205000Y-129550000D03*
X114046000Y-150749000D03*
X125349000Y-133477000D03*
X132715000Y-133985000D03*
X131405000Y-133950000D03*
X125205000Y-130550000D03*
X155951694Y-127007090D03*
X151886602Y-133916811D03*
X155945085Y-126449917D03*
X153289000Y-134619990D03*
X155965732Y-125893088D03*
X152549610Y-135210000D03*
X149225000Y-132715000D03*
X152549610Y-136010000D03*
X147955000Y-132715000D03*
X146685000Y-132715000D03*
X145415000Y-132715000D03*
X155956595Y-131864598D03*
X144145000Y-132715000D03*
X126111000Y-117729000D03*
X142875000Y-132715000D03*
X134747000Y-124333000D03*
X141605000Y-132715000D03*
X105092500Y-157670500D03*
X120967500Y-151003000D03*
X137795000Y-132715000D03*
X152123390Y-138715827D03*
X136525000Y-132715000D03*
X142748000Y-120650000D03*
X135255000Y-132715000D03*
X159750000Y-124000000D03*
X125349000Y-132715000D03*
X131445000Y-132715000D03*
X159350000Y-123600000D03*
X130175000Y-132715000D03*
X125349000Y-132080000D03*
X155955466Y-125335970D03*
X155946674Y-124778828D03*
X151900000Y-132700000D03*
X156000563Y-124224228D03*
X152412820Y-132412820D03*
X149225000Y-131445000D03*
X155475982Y-123179154D03*
X151740000Y-131410000D03*
X147955000Y-131445000D03*
X152146002Y-137922000D03*
X155568252Y-122066511D03*
X146685000Y-131445000D03*
X155959019Y-130750192D03*
X145415000Y-131445000D03*
X155954885Y-131307389D03*
X144145000Y-131445000D03*
X128231240Y-120523000D03*
X142875000Y-131445000D03*
X125603000Y-116205000D03*
X141605000Y-131445000D03*
X140335000Y-131445000D03*
X139065000Y-131445000D03*
X137795000Y-131445000D03*
X160274000Y-126619000D03*
X136477400Y-131445000D03*
X153035000Y-138684000D03*
X151696400Y-135255000D03*
X135255000Y-131445000D03*
X109537498Y-149352000D03*
X133985000Y-131445000D03*
X150622000Y-118237000D03*
X132715000Y-131445000D03*
X131445000Y-131445000D03*
X152590500Y-120142000D03*
X130175000Y-131445000D03*
X152091444Y-130810000D03*
X152908000Y-126174500D03*
X152096390Y-128910000D03*
X149225000Y-130175000D03*
X155509107Y-122620575D03*
X153308000Y-121414000D03*
X147955000Y-130175000D03*
X155948285Y-127564292D03*
X146685000Y-130175000D03*
X155948797Y-130193074D03*
X145415000Y-130175000D03*
X127635000Y-118749240D03*
X144145000Y-130175000D03*
X128019380Y-119249620D03*
X142875000Y-130175000D03*
X137690643Y-115731469D03*
X141605000Y-130175000D03*
X155953444Y-132421801D03*
X140335000Y-130175000D03*
X155321001Y-135128000D03*
X137795000Y-130175000D03*
X159884856Y-126078423D03*
X136525000Y-130175000D03*
X156004531Y-132976666D03*
X135255000Y-130175000D03*
X108331000Y-151003000D03*
X133985000Y-126301500D03*
X133985000Y-130175000D03*
X132715000Y-130175000D03*
X131445000Y-130175000D03*
X130175000Y-130175000D03*
X152809061Y-123520147D03*
X153170331Y-122588085D03*
X149225000Y-128905000D03*
X152740000Y-122100000D03*
X155949843Y-128121502D03*
X146685000Y-128905000D03*
X145415000Y-128905000D03*
X144145000Y-128905000D03*
X128270000Y-118248860D03*
X130810000Y-121031000D03*
X142875000Y-128905000D03*
X138002580Y-116252420D03*
X141605000Y-128905000D03*
X137795000Y-128905000D03*
X159233066Y-126038456D03*
X136525000Y-128905000D03*
X108585000Y-149352000D03*
X133985000Y-128905000D03*
X133286500Y-126047500D03*
X109410500Y-150495000D03*
X132764066Y-128855934D03*
X158821390Y-122206565D03*
X151765000Y-127635000D03*
X158821390Y-121649352D03*
X151765000Y-126365000D03*
X157861000Y-121920000D03*
X149225000Y-126365000D03*
X150495000Y-126365000D03*
X126746000Y-152146000D03*
X127381000Y-152273000D03*
X133858000Y-118110001D03*
X138905000Y-121250000D03*
X91376500Y-132715000D03*
X91313000Y-140589000D03*
X94389808Y-143925692D03*
X91355578Y-133370922D03*
X91366406Y-134058594D03*
X95758000Y-140335000D03*
X108077000Y-143637000D03*
X95117080Y-143123080D03*
X98002000Y-137941000D03*
X113202000Y-144541000D03*
X104802000Y-147941000D03*
X98602000Y-137541000D03*
X113202000Y-145741000D03*
X104802000Y-153141000D03*
X99202000Y-139741000D03*
X100002000Y-139541000D03*
X105854500Y-133350000D03*
X105727500Y-132651500D03*
X105600500Y-131953000D03*
X105727500Y-130556000D03*
X155701996Y-140462000D03*
X159200000Y-122850000D03*
X109855000Y-152146000D03*
X141097000Y-158242000D03*
X155956000Y-137541000D03*
X110553500Y-157988000D03*
X112569610Y-136906000D03*
X105410000Y-144526000D03*
X109924873Y-157471078D03*
X106934000Y-157734000D03*
X107569000Y-130429000D03*
X102405000Y-123360000D03*
X107569000Y-129667000D03*
X100965000Y-123317000D03*
X107315000Y-129032000D03*
X95758000Y-122555000D03*
X107442000Y-128397000D03*
X97193000Y-123317000D03*
X107569000Y-127762000D03*
X98381000Y-123317000D03*
X107569000Y-126365000D03*
X99606000Y-123317000D03*
X110202000Y-140741000D03*
X110202000Y-132341000D03*
X92201984Y-125541000D03*
X107569000Y-140081000D03*
X107639723Y-136087723D03*
X110109000Y-138811000D03*
X107696000Y-137541000D03*
X110109000Y-139573000D03*
X135255000Y-128905000D03*
X108902500Y-157162500D03*
X105473500Y-151828500D03*
X131445000Y-128905000D03*
X139446000Y-124587000D03*
D17*
X106144080Y-156010000D02*
X106144080Y-156809420D01*
X106144080Y-156809420D02*
X105918000Y-157035500D01*
X105742760Y-156010000D02*
X105742760Y-156860260D01*
X105742760Y-156860260D02*
X105918000Y-157035500D01*
X122707401Y-152501599D02*
X122936000Y-152273000D01*
X120904000Y-154305000D02*
X122707401Y-152501599D01*
X118999000Y-154305000D02*
X120904000Y-154305000D01*
X116540300Y-156010000D02*
X116540300Y-157561300D01*
X116540300Y-157561300D02*
X116713000Y-157734000D01*
X107342960Y-153373480D02*
X107342960Y-154686000D01*
X107342960Y-154686000D02*
X107886520Y-154686000D01*
X106542860Y-156010000D02*
X106542860Y-154696140D01*
X106542860Y-154696140D02*
X106553000Y-154686000D01*
X105742760Y-153373480D02*
X105742760Y-154510760D01*
X105742760Y-154510760D02*
X105918000Y-154686000D01*
X105918000Y-154686000D02*
X106553000Y-154686000D01*
X106553000Y-154686000D02*
X107886520Y-154686000D01*
X107886520Y-154686000D02*
X108325211Y-154686000D01*
X108325211Y-154686000D02*
X108648500Y-154686000D01*
X108877099Y-154914599D02*
X108648500Y-154686000D01*
X108943160Y-154980660D02*
X108877099Y-154914599D01*
X108943160Y-156010000D02*
X108943160Y-154980660D01*
X109344480Y-154142440D02*
X108800920Y-154686000D01*
X109344480Y-153373480D02*
X109344480Y-154142440D01*
X108800920Y-154686000D02*
X108648500Y-154686000D01*
X110944680Y-156010000D02*
X110944680Y-156778960D01*
X110944680Y-156778960D02*
X111518720Y-157353000D01*
X111518720Y-157353000D02*
X112141000Y-157353000D01*
X114541320Y-153373480D02*
X114541320Y-154165320D01*
X114541320Y-154165320D02*
X114579401Y-154203401D01*
X114541320Y-155067000D02*
X114541320Y-154698680D01*
X114579401Y-154660599D02*
X114808000Y-154432000D01*
X114541320Y-154698680D02*
X114579401Y-154660599D01*
X114579401Y-154203401D02*
X114808000Y-154432000D01*
X112143560Y-157350440D02*
X112141000Y-157353000D01*
X112143560Y-156010000D02*
X112143560Y-157350440D01*
X114541320Y-156010000D02*
X114541320Y-155067000D01*
X113339900Y-156010000D02*
X113339900Y-155241040D01*
X113339900Y-155241040D02*
X113513940Y-155067000D01*
X113513940Y-155067000D02*
X114541320Y-155067000D01*
X118541820Y-153373480D02*
X118541820Y-154254180D01*
X118541820Y-154254180D02*
X118491000Y-154305000D01*
X118491000Y-154305000D02*
X118999000Y-154305000D01*
X118140500Y-153373480D02*
X118140500Y-154142440D01*
X118140500Y-154142440D02*
X118303060Y-154305000D01*
X118303060Y-154305000D02*
X118999000Y-154305000D01*
X155926483Y-129661920D02*
X155952528Y-129635875D01*
X154335480Y-129661920D02*
X155926483Y-129661920D01*
X156972000Y-124866400D02*
X159359600Y-124866400D01*
X159359600Y-124866400D02*
X159385000Y-124841000D01*
X156203040Y-123266200D02*
X155996854Y-123060014D01*
X156972000Y-123266200D02*
X156203040Y-123266200D01*
X155996854Y-123060014D02*
X155996854Y-121620143D01*
X155800000Y-121423289D02*
X155800000Y-121100000D01*
X155996854Y-121620143D02*
X155800000Y-121423289D01*
D18*
X155964680Y-121264680D02*
X155800000Y-121100000D01*
X156972000Y-121264680D02*
X155964680Y-121264680D01*
X155635320Y-121264680D02*
X155800000Y-121100000D01*
X154335480Y-121264680D02*
X155635320Y-121264680D01*
X153431100Y-120680480D02*
X153358120Y-120680480D01*
X153358120Y-120680480D02*
X153289000Y-120749600D01*
X157861000Y-120634620D02*
X157861000Y-120695860D01*
X157861000Y-120695860D02*
X157690960Y-120865900D01*
X157690960Y-120865900D02*
X156972000Y-120865900D01*
X156972000Y-120464580D02*
X157690960Y-120464580D01*
X157690960Y-120464580D02*
X157861000Y-120634620D01*
X154335480Y-120865900D02*
X153616520Y-120865900D01*
X153616520Y-120865900D02*
X153431100Y-120680480D01*
X153431100Y-120680480D02*
X153431100Y-120650000D01*
X154335480Y-120464580D02*
X153616520Y-120464580D01*
X153616520Y-120464580D02*
X153431100Y-120650000D01*
D17*
X119341920Y-151358080D02*
X120078000Y-150622000D01*
X120078000Y-150622000D02*
X120523000Y-150622000D01*
X120523000Y-150622000D02*
X121100000Y-150045000D01*
X121100000Y-150045000D02*
X121100000Y-149600000D01*
X118940600Y-153373480D02*
X118940600Y-151759400D01*
X118940600Y-151759400D02*
X119341920Y-151358080D01*
D19*
X121100000Y-149600000D02*
X122047000Y-149600000D01*
X122047000Y-149600000D02*
X122800000Y-149600000D01*
D17*
X119341920Y-153373480D02*
X119341920Y-151358080D01*
X112941120Y-153373480D02*
X112941120Y-154343120D01*
X112941120Y-154343120D02*
X113157000Y-154559000D01*
D20*
X125805000Y-138550000D02*
X119205000Y-138550000D01*
X126005000Y-143950000D02*
X120805000Y-143950000D01*
X144145000Y-133985000D02*
X144800000Y-133330000D01*
X144800000Y-133330000D02*
X144800000Y-132314000D01*
X144800000Y-132314000D02*
X145034000Y-132080000D01*
X145669000Y-132080000D02*
X145943601Y-131805399D01*
X145034000Y-132080000D02*
X145669000Y-132080000D01*
X145943601Y-131805399D02*
X145943601Y-126532931D01*
X145943601Y-126532931D02*
X145205000Y-125794330D01*
X145205000Y-125794330D02*
X145205000Y-122150000D01*
X150876715Y-124300000D02*
X151200004Y-124300000D01*
X147355000Y-124300000D02*
X150876715Y-124300000D01*
X145205000Y-122150000D02*
X147355000Y-124300000D01*
X141605000Y-122150000D02*
X145205000Y-122150000D01*
D17*
X109743260Y-157020910D02*
X109410500Y-157353670D01*
X109743260Y-156010000D02*
X109743260Y-157020910D01*
X109410500Y-157353670D02*
X109410500Y-157601211D01*
X109410500Y-157601211D02*
X109410500Y-157924500D01*
X130619500Y-155892500D02*
X136271000Y-155892500D01*
X158262609Y-146156391D02*
X152146000Y-152273000D01*
X152146000Y-152273000D02*
X146050000Y-152273000D01*
X158262609Y-134161111D02*
X158262609Y-146156391D01*
X156972000Y-133662420D02*
X157763918Y-133662420D01*
X157763918Y-133662420D02*
X158262609Y-134161111D01*
X156972000Y-129263140D02*
X157740960Y-129263140D01*
X157740960Y-129263140D02*
X157743064Y-129265244D01*
X157743064Y-129265244D02*
X158834256Y-129265244D01*
X158834256Y-129265244D02*
X159321502Y-128777998D01*
X159321502Y-128777998D02*
X159950711Y-128777998D01*
X159950711Y-128777998D02*
X160274000Y-128777998D01*
X156972000Y-128463040D02*
X157740960Y-128463040D01*
X157740960Y-128463040D02*
X157795968Y-128408032D01*
X160045401Y-128371601D02*
X160274000Y-128143002D01*
X157795968Y-128408032D02*
X160008970Y-128408032D01*
X160008970Y-128408032D02*
X160045401Y-128371601D01*
X156972000Y-130063240D02*
X159179260Y-130063240D01*
X159179260Y-130063240D02*
X159512000Y-129730500D01*
X159512000Y-129730500D02*
X159956501Y-129730500D01*
X159956501Y-129730500D02*
X160274000Y-129413001D01*
X158916626Y-127539788D02*
X159277829Y-127539788D01*
X159474640Y-127736599D02*
X160108901Y-127736599D01*
X158793474Y-127662940D02*
X158916626Y-127539788D01*
X160108901Y-127736599D02*
X160337500Y-127508000D01*
X159277829Y-127539788D02*
X159474640Y-127736599D01*
X156972000Y-127662940D02*
X158793474Y-127662940D01*
X156972000Y-133263640D02*
X157901640Y-133263640D01*
X157901640Y-133263640D02*
X158877000Y-134239000D01*
X158877000Y-134239000D02*
X160274002Y-134239000D01*
X158197598Y-132463540D02*
X158750660Y-133016602D01*
X158750660Y-133016602D02*
X159813600Y-133016602D01*
X156972000Y-132463540D02*
X158197598Y-132463540D01*
X159813600Y-133016602D02*
X160045401Y-133248403D01*
X160045401Y-133248403D02*
X160274000Y-133477002D01*
X156972000Y-131663440D02*
X158841440Y-131663440D01*
X158841440Y-131663440D02*
X159258000Y-132080000D01*
X159258000Y-132080000D02*
X159639000Y-132080000D01*
X159639000Y-132080000D02*
X160274000Y-132715000D01*
X160220660Y-130863340D02*
X160274000Y-130810000D01*
X156972000Y-130863340D02*
X160220660Y-130863340D01*
X156972000Y-129661920D02*
X159009080Y-129661920D01*
X159009080Y-129661920D02*
X159235801Y-129435199D01*
X159235801Y-129435199D02*
X159410401Y-129435199D01*
X159410401Y-129435199D02*
X159639000Y-129206600D01*
X158430610Y-132062220D02*
X158727791Y-132359401D01*
X158727791Y-132359401D02*
X158956390Y-132588000D01*
X156972000Y-132062220D02*
X158430610Y-132062220D01*
X139065000Y-150495000D02*
X139065000Y-154200670D01*
X139065000Y-154200670D02*
X136801670Y-156464000D01*
X136801670Y-156464000D02*
X123063000Y-156464000D01*
X123063000Y-156464000D02*
X121539000Y-154940000D01*
X121539000Y-154940000D02*
X118042760Y-154940000D01*
X118042760Y-154940000D02*
X117741720Y-155241040D01*
X117741720Y-155241040D02*
X117741720Y-156010000D01*
X118140500Y-156778960D02*
X118199104Y-156837564D01*
X118872000Y-158242000D02*
X139699330Y-158242000D01*
X140462000Y-157295289D02*
X140462000Y-156972000D01*
X118199104Y-157569104D02*
X118872000Y-158242000D01*
X118199104Y-156837564D02*
X118199104Y-157569104D01*
X118140500Y-156010000D02*
X118140500Y-156778960D01*
X139699330Y-158242000D02*
X140462000Y-157479330D01*
X140462000Y-157479330D02*
X140462000Y-157295289D01*
X114940100Y-156010000D02*
X114940100Y-157739100D01*
X114940100Y-157739100D02*
X115062000Y-157861000D01*
X107744280Y-156010000D02*
X107744280Y-157782280D01*
X107744280Y-157782280D02*
X107759500Y-157797500D01*
X113030000Y-156972000D02*
X113030000Y-157283711D01*
X113030000Y-157283711D02*
X113030000Y-157607000D01*
X112941120Y-156883120D02*
X113030000Y-156972000D01*
X112941120Y-156010000D02*
X112941120Y-156883120D01*
X112941120Y-156756120D02*
X112941120Y-156883120D01*
X116141520Y-153373480D02*
X116141520Y-151447480D01*
X116141520Y-151447480D02*
X116586000Y-151003000D01*
X130036718Y-154253000D02*
X128277174Y-152493456D01*
X137033000Y-154253000D02*
X130036718Y-154253000D01*
X128277174Y-152493456D02*
X128048575Y-152264857D01*
X130834729Y-153628601D02*
X131779931Y-152683399D01*
X146913599Y-149453599D02*
X146685000Y-149225000D01*
X136144000Y-153289000D02*
X137160000Y-152273000D01*
X127635000Y-151216952D02*
X130046649Y-153628601D01*
X137160000Y-152273000D02*
X137160000Y-149098000D01*
X127635000Y-149225000D02*
X127635000Y-151216952D01*
X139446000Y-149860000D02*
X139700000Y-150114000D01*
X138811000Y-149860000D02*
X139446000Y-149860000D01*
X132851830Y-153289000D02*
X136144000Y-153289000D01*
X147163601Y-149703601D02*
X146913599Y-149453599D01*
X146758330Y-151130000D02*
X147163601Y-150724729D01*
X131779931Y-152683399D02*
X132246229Y-152683399D01*
X139954000Y-151130000D02*
X146758330Y-151130000D01*
X139700000Y-150876000D02*
X139954000Y-151130000D01*
X147163601Y-150724729D02*
X147163601Y-149703601D01*
X137541000Y-148717000D02*
X138049000Y-148717000D01*
X138430000Y-149479000D02*
X138811000Y-149860000D01*
X138049000Y-148717000D02*
X138430000Y-149098000D01*
X137160000Y-149098000D02*
X137541000Y-148717000D01*
X138430000Y-149098000D02*
X138430000Y-149479000D01*
X139700000Y-150114000D02*
X139700000Y-150876000D01*
X130046649Y-153628601D02*
X130834729Y-153628601D01*
X132246229Y-152683399D02*
X132851830Y-153289000D01*
X157765343Y-127239777D02*
X159611874Y-127239777D01*
X159611874Y-127239777D02*
X159666321Y-127294224D01*
X157740960Y-127264160D02*
X157765343Y-127239777D01*
X156972000Y-127264160D02*
X157740960Y-127264160D01*
X158470822Y-128861820D02*
X158496000Y-128836642D01*
X156972000Y-128861820D02*
X158470822Y-128861820D01*
X156972000Y-131262120D02*
X159202120Y-131262120D01*
X159202120Y-131262120D02*
X159512000Y-131572000D01*
X119598460Y-157035500D02*
X121723711Y-157035500D01*
X119341920Y-156010000D02*
X119341920Y-156778960D01*
X119341920Y-156778960D02*
X119598460Y-157035500D01*
X121723711Y-157035500D02*
X122047000Y-157035500D01*
X119126000Y-157861000D02*
X139446000Y-157861000D01*
X139446000Y-157861000D02*
X139954000Y-157353000D01*
X118541820Y-157276820D02*
X119126000Y-157861000D01*
X118541820Y-156010000D02*
X118541820Y-157276820D01*
X132016500Y-153162000D02*
X132778500Y-153924000D01*
X132778500Y-153924000D02*
X136398000Y-153924000D01*
X136398000Y-153924000D02*
X138430000Y-151892000D01*
X138430000Y-151892000D02*
X138430000Y-150183289D01*
X138430000Y-150183289D02*
X137795000Y-149548289D01*
X137795000Y-149548289D02*
X137795000Y-149225000D01*
X115341420Y-157378420D02*
X115468401Y-157505401D01*
X115341420Y-156010000D02*
X115341420Y-157378420D01*
X115468401Y-157505401D02*
X115697000Y-157734000D01*
X117395602Y-157401270D02*
X117395602Y-157527602D01*
X116941620Y-156010000D02*
X116941620Y-156947288D01*
X117500401Y-157632401D02*
X117729000Y-157861000D01*
X116941620Y-156947288D02*
X117395602Y-157401270D01*
X117395602Y-157527602D02*
X117500401Y-157632401D01*
X112542340Y-156010000D02*
X112542340Y-155173660D01*
X112542340Y-155173660D02*
X112762999Y-154953001D01*
X117094000Y-150495000D02*
X116459000Y-150495000D01*
X116459000Y-150495000D02*
X115740200Y-151213800D01*
X115740200Y-151213800D02*
X115740200Y-152604520D01*
X115740200Y-152604520D02*
X115740200Y-153373480D01*
X145415000Y-147955000D02*
X144780000Y-148590000D01*
X144780000Y-148590000D02*
X138684000Y-148590000D01*
X138684000Y-148590000D02*
X138430000Y-148336000D01*
X133985000Y-147447000D02*
X129667000Y-147447000D01*
X138430000Y-148336000D02*
X138430000Y-146558000D01*
X138430000Y-146558000D02*
X137922000Y-146050000D01*
X137922000Y-146050000D02*
X135181670Y-146050000D01*
X135181670Y-146050000D02*
X134620000Y-146611670D01*
X134620000Y-146611670D02*
X134620000Y-146812000D01*
X134620000Y-146812000D02*
X133985000Y-147447000D01*
X129667000Y-147447000D02*
X128905000Y-146685000D01*
X156971401Y-141828599D02*
X157200000Y-141600000D01*
X148524599Y-142428599D02*
X156371401Y-142428599D01*
X147193000Y-141097000D02*
X148524599Y-142428599D01*
X146558670Y-141097000D02*
X147193000Y-141097000D01*
X143637000Y-147447000D02*
X143637000Y-144018670D01*
X144145000Y-147955000D02*
X143637000Y-147447000D01*
X143637000Y-144018670D02*
X146558670Y-141097000D01*
X156371401Y-142428599D02*
X156971401Y-141828599D01*
X156972000Y-128061720D02*
X159029034Y-128061720D01*
X159029034Y-128061720D02*
X159111324Y-127979430D01*
X156023822Y-142028599D02*
X156389494Y-141662927D01*
X156389494Y-141662927D02*
X156618093Y-141434328D01*
X147400990Y-140796990D02*
X148632599Y-142028599D01*
X148632599Y-142028599D02*
X156023822Y-142028599D01*
X143336990Y-143894402D02*
X146434402Y-140796990D01*
X143336990Y-147493010D02*
X143336990Y-143894402D01*
X142875000Y-147955000D02*
X143336990Y-147493010D01*
X146434402Y-140796990D02*
X147400990Y-140796990D01*
X159605980Y-130462020D02*
X159766000Y-130302000D01*
X156972000Y-130462020D02*
X159605980Y-130462020D01*
X155644708Y-141390379D02*
X155967997Y-141390379D01*
X146345114Y-140462000D02*
X147574000Y-140462000D01*
X143036980Y-143770134D02*
X146345114Y-140462000D01*
X147574000Y-140462000D02*
X148502379Y-141390379D01*
X141605000Y-147955000D02*
X141605000Y-146050670D01*
X143036980Y-144618690D02*
X143036980Y-143770134D01*
X141605000Y-146050670D02*
X143036980Y-144618690D01*
X148502379Y-141390379D02*
X155644708Y-141390379D01*
X158637580Y-133327801D02*
X158648401Y-133327801D01*
X158648401Y-133327801D02*
X158877000Y-133556400D01*
X158172099Y-132862320D02*
X158637580Y-133327801D01*
X156972000Y-132862320D02*
X158172099Y-132862320D01*
X119380000Y-157480000D02*
X139065000Y-157480000D01*
X118940600Y-157040600D02*
X119380000Y-157480000D01*
X139065000Y-157480000D02*
X139954000Y-156591000D01*
X118940600Y-156010000D02*
X118940600Y-157040600D01*
X116141520Y-155241040D02*
X116429928Y-154952632D01*
X116897711Y-154952632D02*
X117221000Y-154952632D01*
X116429928Y-154952632D02*
X116897711Y-154952632D01*
X116141520Y-156010000D02*
X116141520Y-155241040D01*
X108143060Y-156010000D02*
X108143060Y-157228560D01*
X108143060Y-157228560D02*
X108775500Y-157861000D01*
X117340400Y-156010000D02*
X117340400Y-156778960D01*
X117754967Y-157193527D02*
X117770502Y-157193527D01*
X117340400Y-156778960D02*
X117754967Y-157193527D01*
X110144580Y-153373480D02*
X110144580Y-154340580D01*
X110144580Y-154340580D02*
X110363000Y-154559000D01*
X110363000Y-154559000D02*
X110744000Y-154559000D01*
X125222000Y-147701000D02*
X125870000Y-148349000D01*
X125870000Y-148349000D02*
X125870000Y-149720000D01*
X111343460Y-156010000D02*
X111343460Y-154721540D01*
X111343460Y-154721540D02*
X111506000Y-154559000D01*
X111744780Y-156010000D02*
X111744780Y-155082220D01*
X111744780Y-155082220D02*
X112141000Y-154686000D01*
D20*
X130175000Y-147955000D02*
X129851711Y-147955000D01*
X129851711Y-147955000D02*
X129540000Y-148266711D01*
X129540000Y-148266711D02*
X129540000Y-152085000D01*
X129540000Y-152085000D02*
X130605000Y-153150000D01*
D17*
X115740200Y-156888200D02*
X115951000Y-157099000D01*
X115740200Y-156010000D02*
X115740200Y-156888200D01*
X135890000Y-152330707D02*
X135890000Y-152653996D01*
X135890000Y-147320000D02*
X135890000Y-152330707D01*
X136525000Y-146685000D02*
X135890000Y-147320000D01*
X134620000Y-152330711D02*
X134620000Y-152654000D01*
X134620000Y-147320000D02*
X134620000Y-152330711D01*
X135255000Y-146685000D02*
X134620000Y-147320000D01*
X131953000Y-146558000D02*
X131445000Y-146050000D01*
X131445000Y-146050000D02*
X122765722Y-146050000D01*
X131953000Y-146685000D02*
X131953000Y-146558000D01*
X132381601Y-147113601D02*
X131953000Y-146685000D01*
X133985000Y-146685000D02*
X133661711Y-146685000D01*
X133661711Y-146685000D02*
X133233110Y-147113601D01*
X133233110Y-147113601D02*
X132381601Y-147113601D01*
X116941620Y-153373480D02*
X116941620Y-151874102D01*
X116941620Y-151874102D02*
X122765722Y-146050000D01*
X116540300Y-153373480D02*
X116540300Y-151683700D01*
X122762990Y-145749990D02*
X131779990Y-145749990D01*
X116540300Y-151683700D02*
X122555000Y-145669000D01*
X122555000Y-145669000D02*
X122682000Y-145669000D01*
X122682000Y-145669000D02*
X122762990Y-145749990D01*
X131779990Y-145749990D02*
X132715000Y-146685000D01*
X113741220Y-156010000D02*
X113741220Y-157175220D01*
X113741220Y-157175220D02*
X114046000Y-157480000D01*
X114140000Y-156010000D02*
X114140000Y-156732598D01*
X114140000Y-156732598D02*
X114506402Y-157099000D01*
X109344480Y-156010000D02*
X109344480Y-155006020D01*
X109344480Y-155006020D02*
X109664500Y-154686000D01*
X144145000Y-145415000D02*
X145415000Y-146685000D01*
X145415000Y-146685000D02*
X146812000Y-146685000D01*
X146812000Y-146685000D02*
X148082000Y-147955000D01*
X146050000Y-144780000D02*
X147035000Y-144780000D01*
X147035000Y-144780000D02*
X148105000Y-145850000D01*
X145415000Y-144145000D02*
X146050000Y-144780000D01*
X140335000Y-144145000D02*
X138049000Y-144145000D01*
X138049000Y-144145000D02*
X137795000Y-144399000D01*
X133985000Y-144145000D02*
X135763000Y-142367000D01*
X135763000Y-142367000D02*
X135763000Y-125587000D01*
X135763000Y-125587000D02*
X148911401Y-112438599D01*
X148911401Y-112438599D02*
X149140000Y-112210000D01*
X111343460Y-153373480D02*
X111343460Y-150911540D01*
X111343460Y-150911540D02*
X113665000Y-148590000D01*
X111744780Y-153373480D02*
X111744780Y-151018890D01*
X111744780Y-151018890D02*
X113538670Y-149225000D01*
X113538670Y-149225000D02*
X113919000Y-149225000D01*
X112143560Y-153373480D02*
X112143560Y-151254440D01*
X112143560Y-151254440D02*
X113538000Y-149860000D01*
X112542340Y-151490660D02*
X114300000Y-149733000D01*
X112542340Y-153373480D02*
X112542340Y-151490660D01*
X110543360Y-153373480D02*
X110543360Y-149870140D01*
X110543360Y-149870140D02*
X112712500Y-147701000D01*
X112712500Y-147701000D02*
X112776000Y-147701000D01*
X110944680Y-153373480D02*
X110944680Y-150421320D01*
X110944680Y-150421320D02*
X113284000Y-148082000D01*
X146685000Y-141605000D02*
X148082000Y-143002000D01*
X148082000Y-143002000D02*
X148082000Y-143637000D01*
D18*
X110400000Y-142100000D02*
X112708091Y-139791909D01*
X112708091Y-139791909D02*
X116936510Y-139791909D01*
X116936510Y-139791909D02*
X118933419Y-137795000D01*
X118933419Y-137795000D02*
X129851711Y-137795000D01*
X129851711Y-137795000D02*
X130175000Y-137795000D01*
D17*
X113741220Y-153373480D02*
X113741220Y-154508220D01*
X113741220Y-154508220D02*
X113792000Y-154559000D01*
X114140000Y-151636846D02*
X114147384Y-151629462D01*
X114140000Y-153373480D02*
X114140000Y-151636846D01*
D18*
X125205000Y-129550000D02*
X125605000Y-129550000D01*
X125605000Y-129550000D02*
X129405000Y-133350000D01*
X129405000Y-133350000D02*
X133405000Y-133350000D01*
X133405000Y-133350000D02*
X134005000Y-133950000D01*
D17*
X113339900Y-153373480D02*
X113339900Y-151455100D01*
X113339900Y-151455100D02*
X114046000Y-150749000D01*
D18*
X125205000Y-130550000D02*
X125470000Y-130550000D01*
X125470000Y-130550000D02*
X126619000Y-131699000D01*
X126619000Y-131699000D02*
X126619000Y-133164000D01*
X126619000Y-133164000D02*
X127405000Y-133950000D01*
X127405000Y-133950000D02*
X131081711Y-133950000D01*
X131081711Y-133950000D02*
X131405000Y-133950000D01*
X155217071Y-127662940D02*
X155872921Y-127007090D01*
X154335480Y-127662940D02*
X155217071Y-127662940D01*
X155872921Y-127007090D02*
X155951694Y-127007090D01*
X155716486Y-126678516D02*
X155945085Y-126449917D01*
X154335480Y-127264160D02*
X155060137Y-127264160D01*
X155645781Y-126678516D02*
X155716486Y-126678516D01*
X155060137Y-127264160D02*
X155645781Y-126678516D01*
X154900276Y-126865380D02*
X155872568Y-125893088D01*
X154335480Y-126865380D02*
X154900276Y-126865380D01*
X155872568Y-125893088D02*
X155965732Y-125893088D01*
X149225000Y-133477000D02*
X151511000Y-135763000D01*
X151511000Y-135763000D02*
X151996610Y-135763000D01*
X151996610Y-135763000D02*
X152321011Y-135438599D01*
X149225000Y-132715000D02*
X149225000Y-133477000D01*
X152321011Y-135438599D02*
X152549610Y-135210000D01*
X154335480Y-126466600D02*
X153751238Y-126466600D01*
X153751238Y-126466600D02*
X152800000Y-127417838D01*
X152800000Y-127417838D02*
X152800000Y-130947330D01*
X152800000Y-130947330D02*
X151933729Y-131813601D01*
X151933729Y-131813601D02*
X150513601Y-131813601D01*
X150513601Y-131813601D02*
X149700000Y-131000000D01*
X147955000Y-132117670D02*
X147955000Y-132715000D01*
X149700000Y-131000000D02*
X149072670Y-131000000D01*
X149072670Y-131000000D02*
X147955000Y-132117670D01*
X150804388Y-133204388D02*
X149550000Y-131950000D01*
X148100000Y-133300000D02*
X147270000Y-133300000D01*
X153616520Y-128061720D02*
X153050010Y-128628230D01*
X152192044Y-133204388D02*
X150804388Y-133204388D01*
X147270000Y-133300000D02*
X146913599Y-132943599D01*
X149550000Y-131950000D02*
X148800000Y-131950000D01*
X154335480Y-128061720D02*
X153616520Y-128061720D01*
X153050010Y-128628230D02*
X153050009Y-129476083D01*
X148400000Y-133000000D02*
X148100000Y-133300000D01*
X153050009Y-132346423D02*
X152192044Y-133204388D01*
X148800000Y-131950000D02*
X148400000Y-132350000D01*
X148400000Y-132350000D02*
X148400000Y-133000000D01*
X153050009Y-129476083D02*
X153050009Y-132346423D01*
X146913599Y-132943599D02*
X146685000Y-132715000D01*
X150599399Y-133454399D02*
X149348010Y-132203010D01*
X146304000Y-133604000D02*
X145643599Y-132943599D01*
X153300020Y-129579640D02*
X153300020Y-132449980D01*
X145643599Y-132943599D02*
X145415000Y-132715000D01*
X148713010Y-133240557D02*
X148349567Y-133604000D01*
X148713010Y-132464990D02*
X148713010Y-133240557D01*
X148349567Y-133604000D02*
X146304000Y-133604000D01*
X154335480Y-129263140D02*
X153616520Y-129263140D01*
X153300020Y-132449980D02*
X152295601Y-133454399D01*
X148974990Y-132203010D02*
X148713010Y-132464990D01*
X153616520Y-129263140D02*
X153300020Y-129579640D01*
X149348010Y-132203010D02*
X148974990Y-132203010D01*
X152295601Y-133454399D02*
X150599399Y-133454399D01*
D17*
X155850641Y-131864598D02*
X155956595Y-131864598D01*
X155248163Y-131262120D02*
X155850641Y-131864598D01*
X154335480Y-131262120D02*
X155248163Y-131262120D01*
X106944180Y-156010000D02*
X106944180Y-157025320D01*
X106944180Y-157025320D02*
X106299000Y-157670500D01*
X106299000Y-157670500D02*
X105415789Y-157670500D01*
X105415789Y-157670500D02*
X105092500Y-157670500D01*
D18*
X136525000Y-132715000D02*
X138160000Y-134350000D01*
X138160000Y-134350000D02*
X141716000Y-134350000D01*
X141716000Y-134350000D02*
X143383000Y-136017000D01*
X147097827Y-138715827D02*
X151800101Y-138715827D01*
X143383000Y-136017000D02*
X144399000Y-136017000D01*
X144399000Y-136017000D02*
X147097827Y-138715827D01*
X151800101Y-138715827D02*
X152123390Y-138715827D01*
D17*
X159363069Y-124228599D02*
X159521401Y-124228599D01*
X159126588Y-124465080D02*
X159363069Y-124228599D01*
X156972000Y-124465080D02*
X159126588Y-124465080D01*
X159521401Y-124228599D02*
X159750000Y-124000000D01*
X156972000Y-124066300D02*
X158883700Y-124066300D01*
X158883700Y-124066300D02*
X159350000Y-123600000D01*
D18*
X155175800Y-126065280D02*
X155676511Y-125564569D01*
X154335480Y-126065280D02*
X155175800Y-126065280D01*
X155726867Y-125564569D02*
X155955466Y-125335970D01*
X155676511Y-125564569D02*
X155726867Y-125564569D01*
X154335480Y-125666500D02*
X154967387Y-125666500D01*
X155718075Y-125007427D02*
X155946674Y-124778828D01*
X154967387Y-125666500D02*
X155626460Y-125007427D01*
X155626460Y-125007427D02*
X155718075Y-125007427D01*
X155921412Y-124224228D02*
X156000563Y-124224228D01*
X154335480Y-125265180D02*
X154880460Y-125265180D01*
X154880460Y-125265180D02*
X155921412Y-124224228D01*
X150345221Y-132184221D02*
X152184221Y-132184221D01*
X149225000Y-131445000D02*
X149606000Y-131445000D01*
X149606000Y-131445000D02*
X150345221Y-132184221D01*
X152184221Y-132184221D02*
X152412820Y-132412820D01*
X155475982Y-124243052D02*
X155475982Y-123502443D01*
X154852634Y-124866400D02*
X155475982Y-124243052D01*
X155475982Y-123502443D02*
X155475982Y-123179154D01*
X154335480Y-124866400D02*
X154852634Y-124866400D01*
X147955000Y-131445000D02*
X148700000Y-130700000D01*
X148700000Y-130700000D02*
X151030000Y-130700000D01*
X151030000Y-130700000D02*
X151511401Y-131181401D01*
X151511401Y-131181401D02*
X151740000Y-131410000D01*
X154335480Y-121666000D02*
X155167741Y-121666000D01*
X155167741Y-121666000D02*
X155339653Y-121837912D01*
X155339653Y-121837912D02*
X155568252Y-122066511D01*
D17*
X154335480Y-130462020D02*
X155557639Y-130462020D01*
X155845811Y-130750192D02*
X155959019Y-130750192D01*
X155557639Y-130462020D02*
X155845811Y-130750192D01*
X155852063Y-131307389D02*
X155954885Y-131307389D01*
X155408014Y-130863340D02*
X155852063Y-131307389D01*
X154335480Y-130863340D02*
X155408014Y-130863340D01*
X140335000Y-131445000D02*
X141097000Y-132207000D01*
X141097000Y-132207000D02*
X141731330Y-132207000D01*
X155224831Y-132831298D02*
X155224831Y-132745831D01*
X141731330Y-132207000D02*
X142113000Y-132588670D01*
X142113000Y-132588670D02*
X142113000Y-134112000D01*
X150114000Y-137414000D02*
X155321000Y-137414000D01*
X142113000Y-134112000D02*
X143637000Y-135636000D01*
X154942540Y-132463540D02*
X154335480Y-132463540D01*
X143637000Y-135636000D02*
X144526000Y-135636000D01*
X144526000Y-135636000D02*
X145288000Y-136398000D01*
X149098000Y-136398000D02*
X150114000Y-137414000D01*
X156083000Y-133689467D02*
X155224831Y-132831298D01*
X145288000Y-136398000D02*
X149098000Y-136398000D01*
X155224831Y-132745831D02*
X154942540Y-132463540D01*
X155321000Y-137414000D02*
X156083000Y-136652000D01*
X156083000Y-136652000D02*
X156083000Y-133689467D01*
X157797606Y-125609854D02*
X159928756Y-125609854D01*
X157740960Y-125666500D02*
X157797606Y-125609854D01*
X159928756Y-125609854D02*
X160062610Y-125476000D01*
X156972000Y-125666500D02*
X157740960Y-125666500D01*
X139065000Y-131445000D02*
X138239500Y-132270500D01*
X142831722Y-119126000D02*
X145288000Y-119126000D01*
X138239500Y-132270500D02*
X137180222Y-132270500D01*
X137180222Y-132270500D02*
X136986990Y-132077268D01*
X136986990Y-132077268D02*
X136986990Y-124970732D01*
X136986990Y-124970732D02*
X142831722Y-119126000D01*
X145288000Y-119126000D02*
X151384000Y-119126000D01*
X160478610Y-125060000D02*
X160062610Y-125476000D01*
X160062610Y-125476000D02*
X159935610Y-125603000D01*
X153418064Y-118952990D02*
X157985269Y-118952991D01*
X157985269Y-118952991D02*
X160478611Y-121446333D01*
X160478611Y-121446333D02*
X160478610Y-125060000D01*
X151384000Y-119126000D02*
X151511000Y-119126000D01*
X151384000Y-119126000D02*
X151431601Y-119173601D01*
X151431601Y-119173601D02*
X153197453Y-119173601D01*
X153197453Y-119173601D02*
X153418064Y-118952990D01*
X154335480Y-134063740D02*
X153210920Y-134063740D01*
X143303601Y-132509271D02*
X141477330Y-130683000D01*
X153210920Y-134063740D02*
X152860399Y-134414261D01*
X152860399Y-134414261D02*
X152860399Y-134867093D01*
X143256000Y-132968330D02*
X143303601Y-132920729D01*
X152860399Y-134867093D02*
X153153862Y-135160556D01*
X153153862Y-135160556D02*
X153153862Y-136279138D01*
X153153862Y-136279138D02*
X152908000Y-136525000D01*
X152908000Y-136525000D02*
X151046278Y-136525000D01*
X151046278Y-136525000D02*
X148934879Y-134413601D01*
X148934879Y-134413601D02*
X143939271Y-134413601D01*
X138557000Y-130683000D02*
X137795000Y-131445000D01*
X143939271Y-134413601D02*
X143256000Y-133730330D01*
X143256000Y-133730330D02*
X143256000Y-132968330D01*
X143303601Y-132920729D02*
X143303601Y-132509271D01*
X141477330Y-130683000D02*
X138557000Y-130683000D01*
X160027620Y-126865380D02*
X160045401Y-126847599D01*
X156972000Y-126865380D02*
X160027620Y-126865380D01*
X160045401Y-126847599D02*
X160274000Y-126619000D01*
X151696400Y-134931711D02*
X151696400Y-135255000D01*
X153566520Y-132862320D02*
X151696400Y-134732440D01*
X154335480Y-132862320D02*
X153566520Y-132862320D01*
X151696400Y-134732440D02*
X151696400Y-134931711D01*
X140716670Y-139319000D02*
X152400000Y-139319000D01*
X135128670Y-144907000D02*
X140716670Y-139319000D01*
X133350000Y-144907000D02*
X135128670Y-144907000D01*
X134493000Y-143002670D02*
X133096000Y-144399670D01*
X133096000Y-144399670D02*
X133096000Y-144653000D01*
X135255000Y-131445000D02*
X134493000Y-132207000D01*
X134493000Y-132207000D02*
X134493000Y-143002670D01*
X152400000Y-139319000D02*
X152806401Y-138912599D01*
X152806401Y-138912599D02*
X153035000Y-138684000D01*
X133096000Y-144653000D02*
X133350000Y-144907000D01*
X108544380Y-153373480D02*
X108544380Y-151869120D01*
X108544380Y-151869120D02*
X108902500Y-151511000D01*
X108902500Y-151511000D02*
X108902500Y-149986998D01*
X108902500Y-149986998D02*
X109537498Y-149352000D01*
X115341420Y-153373480D02*
X115341420Y-148742420D01*
X117626670Y-134239000D02*
X124079000Y-134239000D01*
X115341420Y-148742420D02*
X109855000Y-143256000D01*
X128905000Y-132207000D02*
X130683000Y-132207000D01*
X130683000Y-132207000D02*
X131216401Y-131673599D01*
X109855000Y-143256000D02*
X109855000Y-142010670D01*
X109855000Y-142010670D02*
X117626670Y-134239000D01*
X125042659Y-129078011D02*
X125776011Y-129078011D01*
X124079000Y-134239000D02*
X124714000Y-133604000D01*
X124714000Y-133604000D02*
X124714000Y-129406670D01*
X124714000Y-129406670D02*
X125042659Y-129078011D01*
X125776011Y-129078011D02*
X128905000Y-132207000D01*
X131216401Y-131673599D02*
X131445000Y-131445000D01*
D18*
X152320043Y-130581401D02*
X152091444Y-130810000D01*
X152500000Y-130401444D02*
X152320043Y-130581401D01*
X153375102Y-126365815D02*
X152500000Y-127240917D01*
X152500000Y-127240917D02*
X152500000Y-130401444D01*
X154335480Y-124465080D02*
X153616520Y-124465080D01*
X153375102Y-124706498D02*
X153375102Y-126365815D01*
X153616520Y-124465080D02*
X153375102Y-124706498D01*
X152908000Y-124774820D02*
X152908000Y-125851211D01*
X153616520Y-124066300D02*
X152908000Y-124774820D01*
X152908000Y-125851211D02*
X152908000Y-126174500D01*
X154335480Y-124066300D02*
X153616520Y-124066300D01*
X154335480Y-123664980D02*
X153235020Y-123664980D01*
X153235020Y-123664980D02*
X152300000Y-124600000D01*
X152300000Y-124600000D02*
X152300000Y-127087349D01*
X152300000Y-127087349D02*
X152249989Y-127137360D01*
X152249989Y-127137360D02*
X152249989Y-128433112D01*
X152249989Y-128433112D02*
X152096390Y-128586711D01*
X152096390Y-128586711D02*
X152096390Y-128910000D01*
X151773101Y-128910000D02*
X152096390Y-128910000D01*
X149225000Y-130175000D02*
X150490000Y-128910000D01*
X150490000Y-128910000D02*
X151773101Y-128910000D01*
X154335480Y-123266200D02*
X154917182Y-123266200D01*
X155079441Y-123103941D02*
X155079441Y-122726952D01*
X154917182Y-123266200D02*
X155079441Y-123103941D01*
X155079441Y-122726952D02*
X155185818Y-122620575D01*
X155185818Y-122620575D02*
X155509107Y-122620575D01*
X147955000Y-130175000D02*
X148771399Y-129358601D01*
X151011389Y-126694333D02*
X151011390Y-126023002D01*
X151011390Y-126023002D02*
X151700000Y-125334392D01*
X148771399Y-129358601D02*
X148771399Y-128687271D01*
X148771399Y-128687271D02*
X149061670Y-128397000D01*
X149061670Y-128397000D02*
X149308722Y-128397000D01*
X151700000Y-125334392D02*
X151700000Y-122400000D01*
X149308722Y-128397000D02*
X151011389Y-126694333D01*
X151700000Y-122400000D02*
X152686000Y-121414000D01*
X152686000Y-121414000D02*
X153308000Y-121414000D01*
X155874561Y-127564292D02*
X155948285Y-127564292D01*
X154975813Y-128463040D02*
X155874561Y-127564292D01*
X154335480Y-128463040D02*
X154975813Y-128463040D01*
D17*
X155818963Y-130063240D02*
X155948797Y-130193074D01*
X154335480Y-130063240D02*
X155818963Y-130063240D01*
X154335480Y-131663440D02*
X155104440Y-131663440D01*
X155104440Y-131663440D02*
X155862801Y-132421801D01*
X155862801Y-132421801D02*
X155953444Y-132421801D01*
X154335480Y-133662420D02*
X154998420Y-133662420D01*
X154998420Y-133662420D02*
X155321000Y-133985000D01*
X155321000Y-133985000D02*
X155321001Y-134493001D01*
X155321001Y-134493001D02*
X155321001Y-135128000D01*
X159656257Y-126307022D02*
X159884856Y-126078423D01*
X157766360Y-126492000D02*
X159471279Y-126492000D01*
X159471279Y-126492000D02*
X159656257Y-126307022D01*
X157740960Y-126466600D02*
X157766360Y-126492000D01*
X156972000Y-126466600D02*
X157740960Y-126466600D01*
X155524842Y-132627531D02*
X155873977Y-132976666D01*
X155524842Y-132591645D02*
X155524842Y-132627531D01*
X154995417Y-132062220D02*
X155524842Y-132591645D01*
X155873977Y-132976666D02*
X156004531Y-132976666D01*
X154335480Y-132062220D02*
X154995417Y-132062220D01*
X108143060Y-153373480D02*
X108143060Y-151190940D01*
X108143060Y-151190940D02*
X108331000Y-151003000D01*
X133985000Y-130175000D02*
X134413601Y-129746399D01*
X134413601Y-129746399D02*
X134413601Y-126730101D01*
X134413601Y-126730101D02*
X133985000Y-126301500D01*
X132715000Y-130175000D02*
X132207000Y-129667000D01*
X116840000Y-129476500D02*
X104584500Y-141732000D01*
X104584500Y-141732000D02*
X104584500Y-145796000D01*
X132207000Y-129667000D02*
X128397000Y-129667000D01*
X128397000Y-129667000D02*
X126809500Y-128079500D01*
X104584500Y-145796000D02*
X106542860Y-147754360D01*
X126809500Y-128079500D02*
X123571000Y-128079500D01*
X123571000Y-128079500D02*
X122174000Y-129476500D01*
X122174000Y-129476500D02*
X116840000Y-129476500D01*
X106542860Y-147754360D02*
X106542860Y-153373480D01*
X114940100Y-153373480D02*
X114940100Y-148976100D01*
X114940100Y-148976100D02*
X109474000Y-143510000D01*
X124333000Y-133477000D02*
X124333000Y-129363392D01*
X109474000Y-143510000D02*
X109474000Y-140843000D01*
X109474000Y-140843000D02*
X115443000Y-134874000D01*
X115443000Y-134874000D02*
X115443000Y-134239000D01*
X115443000Y-134239000D02*
X115824000Y-133858000D01*
X115824000Y-133858000D02*
X123952000Y-133858000D01*
X124333000Y-129363392D02*
X124918392Y-128778000D01*
X123952000Y-133858000D02*
X124333000Y-133477000D01*
X129366990Y-131906990D02*
X130347340Y-131906990D01*
X131445000Y-130809330D02*
X131445000Y-130498289D01*
X124918392Y-128778000D02*
X126238000Y-128778000D01*
X126238000Y-128778000D02*
X129366990Y-131906990D01*
X130347340Y-131906990D02*
X131445000Y-130809330D01*
X131445000Y-130498289D02*
X131445000Y-130175000D01*
X117030500Y-130746500D02*
X114935000Y-132842000D01*
X119697500Y-130746500D02*
X117030500Y-130746500D01*
X114935000Y-133603330D02*
X114299330Y-134239000D01*
X130175000Y-130175000D02*
X128333500Y-130175000D01*
X128333500Y-130175000D02*
X126619000Y-128460500D01*
X126619000Y-128460500D02*
X124811614Y-128460500D01*
X124811614Y-128460500D02*
X123022115Y-130249999D01*
X120194001Y-130249999D02*
X119697500Y-130746500D01*
X123022115Y-130249999D02*
X120194001Y-130249999D01*
X114935000Y-132842000D02*
X114935000Y-133603330D01*
X104981399Y-145621399D02*
X106944180Y-147584180D01*
X114299330Y-134239000D02*
X112501778Y-134239000D01*
X112501778Y-134239000D02*
X107315000Y-139425778D01*
X107315000Y-139425778D02*
X107315000Y-139446000D01*
X106944180Y-147584180D02*
X106944180Y-153373480D01*
X104981399Y-141779601D02*
X104981399Y-145621399D01*
X107315000Y-139446000D02*
X104981399Y-141779601D01*
D18*
X154335480Y-122864880D02*
X153464328Y-122864880D01*
X153037660Y-123291548D02*
X152809061Y-123520147D01*
X153464328Y-122864880D02*
X153037660Y-123291548D01*
X152941732Y-122816684D02*
X153170331Y-122588085D01*
X152000000Y-123758416D02*
X152941732Y-122816684D01*
X152000000Y-125458670D02*
X152000000Y-123758416D01*
X151311399Y-126147271D02*
X152000000Y-125458670D01*
X151311399Y-126818601D02*
X151311399Y-126147271D01*
X149225000Y-128905000D02*
X151311399Y-126818601D01*
X153292316Y-122466100D02*
X153170331Y-122588085D01*
X154335480Y-122466100D02*
X153292316Y-122466100D01*
X154335480Y-122064780D02*
X152775220Y-122064780D01*
X152775220Y-122064780D02*
X152740000Y-122100000D01*
X155133639Y-128861820D02*
X155645358Y-128350101D01*
X154335480Y-128861820D02*
X155133639Y-128861820D01*
X155645358Y-128350101D02*
X155721244Y-128350101D01*
X155721244Y-128350101D02*
X155949843Y-128121502D01*
D17*
X160178601Y-124935731D02*
X159844730Y-125269602D01*
X157745382Y-125269602D02*
X157740960Y-125265180D01*
X140883601Y-122849601D02*
X140883601Y-121498399D01*
X140883601Y-121498399D02*
X142875000Y-119507000D01*
X144780000Y-128270000D02*
X144780000Y-126746000D01*
X152781668Y-119507000D02*
X152829270Y-119554602D01*
X153240730Y-119554602D02*
X153542332Y-119253000D01*
X152829270Y-119554602D02*
X153240730Y-119554602D01*
X145415000Y-128905000D02*
X144780000Y-128270000D01*
X144780000Y-126746000D02*
X140883601Y-122849601D01*
X153542332Y-119253000D02*
X157861000Y-119253000D01*
X157740960Y-125265180D02*
X156972000Y-125265180D01*
X142875000Y-119507000D02*
X152781668Y-119507000D01*
X160178601Y-121570601D02*
X160178601Y-124935731D01*
X157861000Y-119253000D02*
X160178601Y-121570601D01*
X159844730Y-125269602D02*
X157745382Y-125269602D01*
X154335480Y-133263640D02*
X155104440Y-133263640D01*
X155104440Y-133263640D02*
X155765500Y-133924700D01*
X144997879Y-135683601D02*
X144039639Y-134725361D01*
X155765500Y-133924700D02*
X155765500Y-136545222D01*
X143361361Y-134725361D02*
X142413010Y-133777010D01*
X151176010Y-136825010D02*
X150287010Y-136825010D01*
X137287000Y-131762500D02*
X137287000Y-129413000D01*
X155765500Y-136545222D02*
X155450732Y-136859990D01*
X140970000Y-131318000D02*
X140668399Y-131016399D01*
X142413009Y-132464401D02*
X141855598Y-131906990D01*
X141348268Y-131906990D02*
X140970000Y-131528722D01*
X155450732Y-136859990D02*
X151210990Y-136859990D01*
X151210990Y-136859990D02*
X151176010Y-136825010D01*
X138858601Y-131016399D02*
X137922000Y-131953000D01*
X144039639Y-134725361D02*
X143361361Y-134725361D01*
X150287010Y-136825010D02*
X149145601Y-135683601D01*
X137477500Y-131953000D02*
X137287000Y-131762500D01*
X149145601Y-135683601D02*
X144997879Y-135683601D01*
X142413010Y-133777010D02*
X142413009Y-132464401D01*
X141855598Y-131906990D02*
X141348268Y-131906990D01*
X140970000Y-131528722D02*
X140970000Y-131318000D01*
X140668399Y-131016399D02*
X138858601Y-131016399D01*
X137922000Y-131953000D02*
X137477500Y-131953000D01*
X137287000Y-129413000D02*
X137795000Y-128905000D01*
X156972000Y-126065280D02*
X159206242Y-126065280D01*
X159206242Y-126065280D02*
X159233066Y-126038456D01*
X107744280Y-153373480D02*
X107744280Y-150192720D01*
X107744280Y-150192720D02*
X108585000Y-149352000D01*
X108943160Y-153373480D02*
X108943160Y-151978340D01*
X108943160Y-151978340D02*
X109410500Y-151511000D01*
X109410500Y-151511000D02*
X109410500Y-150495000D01*
X133286500Y-126047500D02*
X133286500Y-128333500D01*
X133286500Y-128333500D02*
X132764066Y-128855934D01*
D18*
X158592791Y-122435164D02*
X158821390Y-122206565D01*
X156972000Y-122864880D02*
X158163075Y-122864880D01*
X158163075Y-122864880D02*
X158592791Y-122435164D01*
X158781271Y-121649352D02*
X158821390Y-121649352D01*
X156972000Y-122466100D02*
X157964523Y-122466100D01*
X157964523Y-122466100D02*
X158781271Y-121649352D01*
X156972000Y-122064780D02*
X157716220Y-122064780D01*
X157716220Y-122064780D02*
X157861000Y-121920000D01*
X156972000Y-121666000D02*
X157607000Y-121666000D01*
X157607000Y-121666000D02*
X157861000Y-121920000D01*
D17*
X124815599Y-152374599D02*
X126517401Y-152374599D01*
X124206000Y-151765000D02*
X124815599Y-152374599D01*
X126517401Y-152374599D02*
X126746000Y-152146000D01*
X124206000Y-149733000D02*
X124206000Y-151765000D01*
X123063000Y-148590000D02*
X124206000Y-149733000D01*
X120650000Y-148590000D02*
X123063000Y-148590000D01*
X117340400Y-153373480D02*
X117340400Y-151899600D01*
X117340400Y-151899600D02*
X120650000Y-148590000D01*
X123825000Y-152146000D02*
X124434599Y-152755599D01*
X124434599Y-152755599D02*
X126898401Y-152755599D01*
X123825000Y-149988590D02*
X123825000Y-152146000D01*
X122807410Y-148971000D02*
X123825000Y-149988590D01*
X121092590Y-148971000D02*
X122807410Y-148971000D01*
X117741720Y-152321870D02*
X121092590Y-148971000D01*
X117741720Y-153373480D02*
X117741720Y-152321870D01*
X127152401Y-152501599D02*
X127381000Y-152273000D01*
X126898401Y-152755599D02*
X127152401Y-152501599D01*
X92075000Y-141541500D02*
X92075000Y-141351000D01*
X92075000Y-141351000D02*
X91313000Y-140589000D01*
X94043500Y-141478000D02*
X93293501Y-142227999D01*
X93293501Y-142227999D02*
X93293501Y-142829385D01*
X93293501Y-142829385D02*
X94389808Y-143925692D01*
X95948500Y-141541500D02*
X95948500Y-140525500D01*
X95948500Y-140525500D02*
X95758000Y-140335000D01*
X99202000Y-139741000D02*
X99202000Y-144147000D01*
X99202000Y-144147000D02*
X99805000Y-144750000D01*
X100002000Y-139541000D02*
X100002000Y-139864289D01*
X100002000Y-139864289D02*
X101805000Y-141667289D01*
X101805000Y-141667289D02*
X101805000Y-144689340D01*
X101805000Y-144689340D02*
X101805000Y-145750000D01*
X107442000Y-133350000D02*
X105854500Y-133350000D01*
X103568500Y-132715000D02*
X105664000Y-132715000D01*
X105664000Y-132715000D02*
X105727500Y-132651500D01*
X103505000Y-130810000D02*
X104648000Y-131953000D01*
X104648000Y-131953000D02*
X105600500Y-131953000D01*
X103505000Y-128905000D02*
X105156000Y-130556000D01*
X105156000Y-130556000D02*
X105727500Y-130556000D01*
X157962599Y-138201397D02*
X155930595Y-140233401D01*
X155930595Y-140233401D02*
X155701996Y-140462000D01*
X157962599Y-134285379D02*
X157962599Y-138201397D01*
X157740960Y-134063740D02*
X157962599Y-134285379D01*
X156972000Y-134063740D02*
X157740960Y-134063740D01*
X156972000Y-123664980D02*
X158385020Y-123664980D01*
X158385020Y-123664980D02*
X159200000Y-122850000D01*
X141420289Y-158242000D02*
X141097000Y-158242000D01*
X154432000Y-139065000D02*
X154432000Y-140462000D01*
X141477330Y-158242000D02*
X141420289Y-158242000D01*
X145034000Y-151765000D02*
X144272000Y-152527000D01*
X146812000Y-151765000D02*
X145034000Y-151765000D01*
X154931777Y-140961777D02*
X157361777Y-140961777D01*
X154432000Y-140462000D02*
X154931777Y-140961777D01*
X157361777Y-140961777D02*
X157861000Y-141461000D01*
X157861000Y-146050000D02*
X151938010Y-151972990D01*
X157861000Y-141461000D02*
X157861000Y-146050000D01*
X147019990Y-151972990D02*
X146812000Y-151765000D01*
X144272000Y-152527000D02*
X144272000Y-155447330D01*
X144272000Y-155447330D02*
X141477330Y-158242000D01*
X155956000Y-137541000D02*
X154432000Y-139065000D01*
X151938010Y-151972990D02*
X147019990Y-151972990D01*
X109743260Y-153373480D02*
X109743260Y-152257740D01*
X109743260Y-152257740D02*
X109855000Y-152146000D01*
X110543360Y-156010000D02*
X110543360Y-157977860D01*
X110543360Y-157977860D02*
X110553500Y-157988000D01*
X111379670Y-136906000D02*
X112246321Y-136906000D01*
X107315670Y-142620330D02*
X107315670Y-140970000D01*
X105410000Y-144526000D02*
X107315670Y-142620330D01*
X112246321Y-136906000D02*
X112569610Y-136906000D01*
X107315670Y-140970000D02*
X111379670Y-136906000D01*
X110144580Y-157251371D02*
X109924873Y-157471078D01*
X110144580Y-156010000D02*
X110144580Y-157251371D01*
X106934000Y-157734000D02*
X107342960Y-157325040D01*
X107342960Y-157325040D02*
X107342960Y-156010000D01*
X106144080Y-147863580D02*
X104267000Y-145986500D01*
X106144080Y-153373480D02*
X106144080Y-147863580D01*
X130446490Y-129366990D02*
X132922990Y-129366990D01*
X107377830Y-138493500D02*
X117299931Y-128571399D01*
X132922990Y-129366990D02*
X133413500Y-129857500D01*
X104267000Y-145986500D02*
X104267000Y-144335500D01*
X130192490Y-129303490D02*
X130382990Y-129303490D01*
X104267000Y-144335500D02*
X103632000Y-143700500D01*
X103632000Y-141859000D02*
X106997500Y-138493500D01*
X103632000Y-143700500D02*
X103632000Y-141859000D01*
X106997500Y-138493500D02*
X107377830Y-138493500D01*
X122317101Y-128571399D02*
X123109010Y-127779490D01*
X117299931Y-128571399D02*
X122317101Y-128571399D01*
X133794500Y-130810000D02*
X134239000Y-130810000D01*
X123109010Y-127779490D02*
X128668490Y-127779490D01*
X128668490Y-127779490D02*
X130192490Y-129303490D01*
X130382990Y-129303490D02*
X130446490Y-129366990D01*
X133413500Y-129857500D02*
X133413500Y-130429000D01*
X133413500Y-130429000D02*
X133794500Y-130810000D01*
X134239000Y-130810000D02*
X134747000Y-130302000D01*
X134747000Y-130302000D02*
X134747000Y-129413000D01*
X134747000Y-129413000D02*
X135255000Y-128905000D01*
X131445000Y-128905000D02*
X131216401Y-128676401D01*
X131216401Y-128676401D02*
X130263901Y-128676401D01*
X103966991Y-146555269D02*
X103966991Y-150321991D01*
X103966991Y-150321991D02*
X105473500Y-151828500D01*
X130263901Y-128676401D02*
X128841500Y-127254000D01*
X121834399Y-128228601D02*
X115992399Y-128228601D01*
X103124000Y-141478670D02*
X103124000Y-145712278D01*
X128841500Y-127254000D02*
X122809000Y-127254000D01*
X122809000Y-127254000D02*
X121834399Y-128228601D01*
X115992399Y-128228601D02*
X109538170Y-134682830D01*
X109538170Y-134682830D02*
X109538170Y-135064500D01*
X109538170Y-135064500D02*
X103124000Y-141478670D01*
X103124000Y-145712278D02*
X103966991Y-146555269D01*
X108544380Y-156010000D02*
X108544380Y-156804380D01*
X108544380Y-156804380D02*
X108902500Y-157162500D01*
D20*
X139446000Y-124587000D02*
X139065000Y-124587000D01*
X139065000Y-124587000D02*
X138430000Y-125222000D01*
M02*
