M48
;DRILL file {KiCad 4.0.6-e0-6349~53~ubuntu16.04.1} date Tue May  2 19:00:19 2017
;FORMAT={-:-/ absolute / inch / decimal}
FMAT,2
INCH,TZ
T1C0.010
%
G90
G05
M72
T1
X3.595Y-5.535
X3.5967Y-5.2508
X3.5971Y-5.2779
X3.5975Y-5.225
X3.63Y-4.9426
X3.6827Y-5.0579
X3.6827Y-5.0855
X3.6827Y-5.1681
X3.6827Y-5.1957
X3.6827Y-5.3885
X3.7009Y-4.604
X3.7087Y-5.8323
X3.715Y-5.71
X3.7161Y-5.6664
X3.7448Y-5.6348
X3.77Y-4.825
X3.77Y-5.525
X3.77Y-5.7362
X3.7875Y-4.7457
X3.7999Y-5.5
X3.8265Y-4.855
X3.8583Y-5.4307
X3.8662Y-5.8953
X3.8733Y-4.855
X3.882Y-5.0725
X3.882Y-5.1256
X3.882Y-5.1827
X3.882Y-5.2634
X3.882Y-5.3185
X3.882Y-5.3756
X3.882Y-5.415
X3.8825Y-5.0201
X3.9056Y-5.5016
X3.9215Y-4.855
X3.9371Y-5.4937
X3.9372Y-5.626
X3.9376Y-5.0201
X3.9666Y-5.4268
X3.975Y-4.855
X3.9927Y-5.4272
X4.0158Y-5.8638
X4.0158Y-6.0685
X4.0202Y-5.5208
X4.0317Y-4.8567
X4.0478Y-5.52
X4.0803Y-5.2783
X4.0803Y-5.3058
X4.1Y-5.61
X4.1261Y-5.8244
X4.1261Y-6.0292
X4.1375Y-6.2075
X4.15Y-5.69
X4.1525Y-5.9775
X4.155Y-4.39
X4.155Y-4.42
X4.1575Y-5.195
X4.1625Y-5.14
X4.1625Y-5.2225
X4.1675Y-5.25
X4.17Y-6.1825
X4.195Y-5.595
X4.2049Y-4.8849
X4.205Y-4.73
X4.21Y-6.21
X4.215Y-4.41
X4.215Y-4.385
X4.225Y-5.08
X4.23Y-5.055
X4.235Y-4.975
X4.235Y-5.03
X4.235Y-5.105
X4.235Y-5.135
X4.235Y-5.515
X4.2378Y-5.3578
X4.24Y-5.415
X4.2425Y-6.2125
X4.255Y-5.655
X4.265Y-5.945
X4.275Y-5.88
X4.2775Y-6.09
X4.2825Y-6.215
X4.2865Y-4.3248
X4.2875Y-6.1875
X4.3075Y-5.925
X4.3075Y-6.2175
X4.31Y-5.255
X4.3125Y-5.88
X4.3175Y-6.09
X4.3215Y-4.8091
X4.325Y-5.99
X4.3278Y-6.1996
X4.3348Y-4.96
X4.335Y-5.465
X4.335Y-5.495
X4.3387Y-5.2103
X4.3387Y-5.541
X4.3465Y-5.5945
X4.3515Y-4.4815
X4.3525Y-6.22
X4.36Y-6.085
X4.39Y-6.085
X4.3965Y-4.9467
X4.415Y-6.09
X4.415Y-6.195
X4.4319Y-5.39
X4.4395Y-6.1005
X4.44Y-5.815
X4.4442Y-4.8017
X4.4442Y-5.2077
X4.45Y-6.205
X4.455Y-6.085
X4.4568Y-5.6906
X4.4568Y-5.7378
X4.46Y-5.83
X4.4648Y-4.95
X4.47Y-5.9
X4.475Y-5.85
X4.48Y-6.085
X4.485Y-5.875
X4.49Y-5.935
X4.49Y-6.2
X4.494Y-5.9697
X4.5Y-5.26
X4.5Y-5.895
X4.5081Y-6.185
X4.5199Y-5.5669
X4.52Y-6.08
X4.53Y-6.215
X4.5434Y-5.7378
X4.555Y-6.21
X4.565Y-6.185
X4.5669Y-5.2953
X4.5869Y-5.437
X4.59Y-5.945
X4.5945Y-5.4606
X4.595Y-6.21
X4.5952Y-5.4858
X4.61Y-5.925
X4.615Y-6.1005
X4.6265Y-4.7517
X4.635Y-6.215
X4.6366Y-6.1887
X4.6457Y-5.3346
X4.6457Y-5.3819
X4.6496Y-5.5118
X4.6693Y-4.937
X4.6693Y-4.9843
X4.6693Y-5.0315
X4.6693Y-5.0787
X4.6693Y-5.126
X4.6693Y-5.1732
X4.6931Y-5.4547
X4.7561Y-5.6673
X4.7625Y-5.945
X4.7677Y-5.8898
X4.795Y-5.235
X4.8033Y-5.3051
X4.805Y-6.1825
X4.8093Y-4.5335
X4.81Y-4.56
X4.81Y-4.585
X4.81Y-5.1448
X4.8112Y-4.6673
X4.825Y-4.36
X4.8346Y-5.8898
X4.84Y-5.995
X4.845Y-4.41
X4.845Y-4.435
X4.845Y-5.095
X4.86Y-4.36
X4.8725Y-5.2425
X4.8742Y-4.86
X4.89Y-4.36
X4.91Y-6.12
X4.9293Y-5.1004
X4.9293Y-5.1398
X4.93Y-5.815
X4.935Y-5.2
X4.935Y-5.225
X4.935Y-5.255
X4.935Y-5.285
X4.935Y-5.315
X4.9365Y-4.3248
X4.945Y-4.575
X4.945Y-5.965
X4.953Y-5.4547
X4.9555Y-5.8945
X4.9608Y-5.6673
X4.965Y-4.635
X4.97Y-5.975
X4.99Y-4.4367
X4.99Y-4.465
X4.99Y-5.99
X5.015Y-5.995
X5.025Y-4.6752
X5.025Y-5.225
X5.025Y-5.325
X5.025Y-5.525
X5.025Y-5.875
X5.0401Y-4.6949
X5.0413Y-5.9947
X5.0485Y-4.745
X5.05Y-4.6555
X5.07Y-6.135
X5.075Y-5.075
X5.075Y-5.475
X5.075Y-5.775
X5.075Y-5.825
X5.075Y-5.925
X5.125Y-5.025
X5.125Y-5.125
X5.125Y-5.175
X5.125Y-5.225
X5.125Y-5.325
X5.125Y-5.375
X5.125Y-5.425
X5.125Y-5.475
X5.125Y-5.525
X5.125Y-5.575
X5.125Y-5.625
X5.125Y-5.675
X5.125Y-5.775
X5.125Y-5.825
X5.125Y-5.925
X5.1419Y-6.0295
X5.1425Y-6.1375
X5.15Y-4.765
X5.1734Y-5.2736
X5.175Y-5.075
X5.175Y-5.125
X5.175Y-5.175
X5.175Y-5.225
X5.175Y-5.325
X5.175Y-5.375
X5.175Y-5.425
X5.175Y-5.475
X5.175Y-5.525
X5.175Y-5.625
X5.175Y-5.675
X5.175Y-5.775
X5.175Y-5.825
X5.175Y-5.875
X5.175Y-5.925
X5.1852Y-4.6083
X5.1945Y-4.7445
X5.1975Y-6.03
X5.201Y-4.8956
X5.215Y-4.585
X5.225Y-5.025
X5.225Y-5.125
X5.225Y-5.175
X5.225Y-5.225
X5.225Y-5.275
X5.225Y-5.325
X5.225Y-5.425
X5.225Y-5.525
X5.225Y-5.575
X5.225Y-5.625
X5.225Y-5.725
X5.225Y-5.775
X5.225Y-5.825
X5.225Y-5.875
X5.225Y-5.925
X5.2269Y-5.0731
X5.235Y-4.425
X5.2364Y-4.5179
X5.2475Y-4.9625
X5.27Y-4.65
X5.275Y-4.9725
X5.275Y-5.075
X5.275Y-5.125
X5.275Y-5.175
X5.275Y-5.425
X5.275Y-5.475
X5.275Y-5.625
X5.275Y-5.675
X5.275Y-5.725
X5.275Y-5.775
X5.275Y-5.825
X5.2758Y-5.2736
X5.3Y-6.01
X5.305Y-4.895
X5.3115Y-4.3248
X5.325Y-5.025
X5.325Y-5.075
X5.325Y-5.125
X5.325Y-5.175
X5.325Y-5.225
X5.325Y-5.425
X5.325Y-5.775
X5.325Y-5.825
X5.325Y-5.875
X5.325Y-5.925
X5.3465Y-4.3248
X5.35Y-6.01
X5.3624Y-4.6161
X5.3624Y-4.6949
X5.365Y-6.1375
X5.3731Y-5.175
X5.375Y-5.075
X5.375Y-5.125
X5.375Y-5.225
X5.375Y-5.775
X5.375Y-5.825
X5.375Y-5.875
X5.375Y-5.925
X5.3848Y-4.3248
X5.395Y-6.073
X5.4209Y-4.5564
X5.4249Y-5.0251
X5.425Y-5.075
X5.425Y-5.125
X5.425Y-5.175
X5.425Y-5.225
X5.425Y-5.425
X5.425Y-5.775
X5.425Y-5.825
X5.425Y-5.875
X5.425Y-5.925
X5.4291Y-6.1417
X5.4332Y-4.5769
X5.4687Y-4.7736
X5.475Y-5.175
X5.475Y-5.325
X5.475Y-5.625
X5.475Y-5.825
X5.475Y-5.875
X5.475Y-5.925
X5.49Y-4.905
X5.5Y-6.0276
X5.51Y-6.165
X5.51Y-6.195
X5.525Y-5.125
X5.525Y-5.175
X5.525Y-5.375
X5.525Y-5.525
X5.525Y-5.675
X5.525Y-5.875
X5.5297Y-4.5906
X5.5297Y-4.8153
X5.53Y-6.18
X5.555Y-6.23
X5.575Y-4.8091
X5.575Y-4.975
X5.575Y-5.075
X5.575Y-5.125
X5.575Y-5.175
X5.575Y-5.225
X5.575Y-5.375
X5.575Y-5.575
X5.575Y-5.725
X5.575Y-5.825
X5.575Y-5.875
X5.575Y-5.925
X5.62Y-4.75
X5.62Y-6.055
X5.625Y-5.075
X5.625Y-5.125
X5.625Y-5.175
X5.625Y-5.225
X5.625Y-5.525
X5.625Y-5.575
X5.625Y-5.725
X5.625Y-5.775
X5.625Y-5.825
X5.625Y-6.15
X5.6465Y-4.8415
X5.6465Y-4.9
X5.675Y-5.025
X5.675Y-5.075
X5.675Y-5.125
X5.675Y-5.175
X5.675Y-5.225
X5.675Y-5.275
X5.675Y-5.375
X5.675Y-5.575
X5.675Y-5.725
X5.675Y-5.825
X5.707Y-4.752
X5.725Y-5.025
X5.725Y-5.075
X5.725Y-5.125
X5.725Y-5.175
X5.725Y-5.225
X5.725Y-5.275
X5.725Y-5.675
X5.725Y-5.825
X5.725Y-5.875
X5.725Y-5.925
X5.75Y-4.935
X5.75Y-4.955
X5.75Y-5.995
X5.775Y-5.075
X5.775Y-5.125
X5.775Y-5.175
X5.775Y-5.225
X5.775Y-5.325
X5.775Y-5.575
X5.775Y-5.825
X5.775Y-5.875
X5.775Y-5.925
X5.7969Y-4.4413
X5.7978Y-4.4138
X5.825Y-5.125
X5.825Y-5.175
X5.825Y-5.225
X5.8395Y-4.8445
X5.8717Y-4.4177
X5.875Y-4.84
X5.875Y-4.975
X5.875Y-5.025
X5.875Y-5.075
X5.875Y-5.125
X5.875Y-5.175
X5.875Y-5.225
X5.8874Y-6.0555
X5.895Y-4.83
X5.895Y-4.85
X5.925Y-4.975
X5.93Y-4.655
X5.9388Y-4.5073
X5.9388Y-4.5404
X5.9528Y-4.8937
X5.9543Y-4.3587
X5.96Y-4.745
X5.9723Y-5.325
X5.974Y-5.1736
X5.975Y-4.975
X5.975Y-5.025
X5.975Y-5.925
X5.9758Y-4.5073
X5.9758Y-4.5404
X5.9798Y-5.2723
X5.9803Y-5.2244
X5.9819Y-4.3587
X5.984Y-5.1099
X5.9879Y-5.15
X5.988Y-5.0752
X5.9891Y-5.4613
X5.99Y-5.43
X6.0005Y-5.2131
X6.0059Y-5.3232
X6.0059Y-5.3547
X6.0075Y-4.73
X6.0134Y-4.3587
X6.0134Y-4.8071
X6.0161Y-4.863
X6.02Y-4.9675
X6.025Y-5.46
X6.0303Y-4.8263
X6.035Y-4.7539
X6.035Y-5.3
X6.0357Y-4.7801
X6.115Y-5.32
X6.1157Y-4.7351
X6.1181Y-5.4921
X6.1211Y-4.8496
X6.1224Y-4.8276
X6.1247Y-4.8058
X6.13Y-5.53
X6.1339Y-4.7677
X6.1396Y-4.9783
X6.1396Y-4.9126
X6.1397Y-5.0222
X6.1397Y-5.1257
X6.1398Y-5.0442
X6.1398Y-5.0003
X6.1399Y-5.1038
X6.1399Y-5.2135
X6.14Y-5.1696
X6.14Y-4.9345
X6.14Y-5.415
X6.14Y-5.575
X6.14Y-5.1915
X6.1401Y-5.0661
X6.1401Y-5.1476
X6.1404Y-4.9564
X6.1418Y-4.8907
X6.1419Y-5.2353
X6.165Y-5.325
X6.17Y-5.595
X6.195Y-5.615
X6.215Y-4.7494
X6.215Y-4.8
X6.2225Y-4.61
X6.24Y-5.0723
X6.2528Y-4.7893
X6.2528Y-4.8113
X6.255Y-5.2581
X6.2581Y-5.22
X6.2642Y-5.0386
X6.2677Y-4.8366
X6.269Y-4.9621
X6.2736Y-4.8661
X6.275Y-4.915
X6.28Y-5.18
X6.285Y-5.0869
X6.2861Y-5.0116
X6.2894Y-4.8819
X6.29Y-5.13
X6.2947Y-4.9637
X6.31Y-4.985
X6.31Y-5.045
X6.31Y-5.07
X6.31Y-5.095
X6.31Y-5.15
X6.31Y-5.225
X6.31Y-5.255
X6.31Y-5.285
X6.3125Y-5.02
T0
M30
