G04 #@! TF.GenerationSoftware,KiCad,Pcbnew,no-vcs-found-2237de0~58~ubuntu16.04.1*
G04 #@! TF.CreationDate,2017-06-29T19:32:17-03:00*
G04 #@! TF.ProjectId,mateboard,6D617465626F6172642E6B696361645F,rev?*
G04 #@! TF.SameCoordinates,Original
G04 #@! TF.FileFunction,Copper,L1,Top,Signal*
G04 #@! TF.FilePolarity,Positive*
%FSLAX46Y46*%
G04 Gerber Fmt 4.6, Leading zero omitted, Abs format (unit mm)*
G04 Created by KiCad (PCBNEW no-vcs-found-2237de0~58~ubuntu16.04.1) date Thu Jun 29 19:32:17 2017*
%MOMM*%
%LPD*%
G01*
G04 APERTURE LIST*
%ADD10C,0.100000*%
%ADD11R,0.400000X0.600000*%
%ADD12C,0.749300*%
%ADD13R,2.500000X1.800000*%
%ADD14R,0.420000X0.890000*%
%ADD15R,0.940000X0.840000*%
%ADD16R,1.800000X1.000000*%
%ADD17R,1.800000X4.000000*%
%ADD18R,0.750000X0.800000*%
%ADD19R,0.800000X0.750000*%
%ADD20R,0.600000X0.500000*%
%ADD21R,0.500000X0.600000*%
%ADD22R,1.950000X1.500000*%
%ADD23R,1.000000X1.250000*%
%ADD24R,0.900000X0.800000*%
%ADD25R,0.800000X0.800000*%
%ADD26R,0.970000X1.270000*%
%ADD27R,2.199640X1.049020*%
%ADD28R,0.998220X1.049020*%
%ADD29R,1.049020X2.199640*%
%ADD30R,1.049020X0.998220*%
%ADD31R,0.700000X1.300000*%
%ADD32R,1.300000X0.700000*%
%ADD33R,0.600000X0.400000*%
%ADD34R,0.800000X0.900000*%
%ADD35R,0.650000X1.220000*%
%ADD36R,1.220000X0.650000*%
%ADD37R,3.800000X2.200000*%
%ADD38R,0.600000X2.200000*%
%ADD39R,0.650000X1.060000*%
%ADD40R,0.650000X0.400000*%
%ADD41R,1.450000X0.450000*%
%ADD42R,1.000000X1.150000*%
%ADD43R,2.400000X2.000000*%
%ADD44R,0.800000X0.300000*%
%ADD45R,0.749300X0.749300*%
%ADD46R,0.398780X0.749300*%
%ADD47R,0.749300X0.398780*%
%ADD48R,0.998220X0.998220*%
%ADD49C,0.243840*%
%ADD50C,0.457200*%
%ADD51C,0.300000*%
%ADD52C,0.500000*%
%ADD53C,0.200000*%
%ADD54C,0.150000*%
G04 APERTURE END LIST*
D10*
D11*
X123755000Y-147700000D03*
X122855000Y-147700000D03*
D12*
X150325000Y-150380000D03*
X149055000Y-150380000D03*
X147785000Y-150380000D03*
X146515000Y-150380000D03*
X145245000Y-150380000D03*
X143975000Y-150380000D03*
X142705000Y-150380000D03*
X141435000Y-150380000D03*
X140165000Y-150380000D03*
X138895000Y-150380000D03*
X137625000Y-150380000D03*
X136355000Y-150380000D03*
X135085000Y-150380000D03*
X133815000Y-150380000D03*
X132545000Y-150380000D03*
X131275000Y-150380000D03*
X130005000Y-150380000D03*
X128735000Y-150380000D03*
X127465000Y-150380000D03*
X126195000Y-150380000D03*
X150325000Y-149110000D03*
X149055000Y-149110000D03*
X147785000Y-149110000D03*
X146515000Y-149110000D03*
X145245000Y-149110000D03*
X143975000Y-149110000D03*
X142705000Y-149110000D03*
X141435000Y-149110000D03*
X140165000Y-149110000D03*
X138895000Y-149110000D03*
X137625000Y-149110000D03*
X136355000Y-149110000D03*
X135085000Y-149110000D03*
X133815000Y-149110000D03*
X132545000Y-149110000D03*
X131275000Y-149110000D03*
X130005000Y-149110000D03*
X128735000Y-149110000D03*
X127465000Y-149110000D03*
X126195000Y-149110000D03*
X150325000Y-147840000D03*
X149055000Y-147840000D03*
X147785000Y-147840000D03*
X146515000Y-147840000D03*
X145245000Y-147840000D03*
X143975000Y-147840000D03*
X142705000Y-147840000D03*
X141435000Y-147840000D03*
X140165000Y-147840000D03*
X138895000Y-147840000D03*
X137625000Y-147840000D03*
X136355000Y-147840000D03*
X135085000Y-147840000D03*
X133815000Y-147840000D03*
X132545000Y-147840000D03*
X131275000Y-147840000D03*
X130005000Y-147840000D03*
X128735000Y-147840000D03*
X127465000Y-147840000D03*
X126195000Y-147840000D03*
X150325000Y-146570000D03*
X149055000Y-146570000D03*
X147785000Y-146570000D03*
X146515000Y-146570000D03*
X145245000Y-146570000D03*
X143975000Y-146570000D03*
X142705000Y-146570000D03*
X141435000Y-146570000D03*
X140165000Y-146570000D03*
X138895000Y-146570000D03*
X137625000Y-146570000D03*
X136355000Y-146570000D03*
X135085000Y-146570000D03*
X133815000Y-146570000D03*
X132545000Y-146570000D03*
X131275000Y-146570000D03*
X130005000Y-146570000D03*
X128735000Y-146570000D03*
X127465000Y-146570000D03*
X126195000Y-146570000D03*
X150325000Y-145300000D03*
X149055000Y-145300000D03*
X147785000Y-145300000D03*
X146515000Y-145300000D03*
X145245000Y-145300000D03*
X143975000Y-145300000D03*
X142705000Y-145300000D03*
X141435000Y-145300000D03*
X140165000Y-145300000D03*
X138895000Y-145300000D03*
X137625000Y-145300000D03*
X136355000Y-145300000D03*
X135085000Y-145300000D03*
X133815000Y-145300000D03*
X132545000Y-145300000D03*
X131275000Y-145300000D03*
X130005000Y-145300000D03*
X128735000Y-145300000D03*
X127465000Y-145300000D03*
X126195000Y-145300000D03*
X150325000Y-144030000D03*
X149055000Y-144030000D03*
X147785000Y-144030000D03*
X146515000Y-144030000D03*
X145245000Y-144030000D03*
X143975000Y-144030000D03*
X142705000Y-144030000D03*
X141435000Y-144030000D03*
X140165000Y-144030000D03*
X138895000Y-144030000D03*
X137625000Y-144030000D03*
X136355000Y-144030000D03*
X135085000Y-144030000D03*
X133815000Y-144030000D03*
X132545000Y-144030000D03*
X131275000Y-144030000D03*
X130005000Y-144030000D03*
X128735000Y-144030000D03*
X127465000Y-144030000D03*
X126195000Y-144030000D03*
X150325000Y-142760000D03*
X149055000Y-142760000D03*
X147785000Y-142760000D03*
X146515000Y-142760000D03*
X145245000Y-142760000D03*
X143975000Y-142760000D03*
X142705000Y-142760000D03*
X141435000Y-142760000D03*
X140165000Y-142760000D03*
X138895000Y-142760000D03*
X137625000Y-142760000D03*
X136355000Y-142760000D03*
X135085000Y-142760000D03*
X133815000Y-142760000D03*
X132545000Y-142760000D03*
X131275000Y-142760000D03*
X130005000Y-142760000D03*
X128735000Y-142760000D03*
X127465000Y-142760000D03*
X126195000Y-142760000D03*
X150325000Y-141490000D03*
X149055000Y-141490000D03*
X147785000Y-141490000D03*
X146515000Y-141490000D03*
X145245000Y-141490000D03*
X143975000Y-141490000D03*
X142705000Y-141490000D03*
X141435000Y-141490000D03*
X140165000Y-141490000D03*
X138895000Y-141490000D03*
X137625000Y-141490000D03*
X136355000Y-141490000D03*
X135085000Y-141490000D03*
X133815000Y-141490000D03*
X132545000Y-141490000D03*
X131275000Y-141490000D03*
X130005000Y-141490000D03*
X128735000Y-141490000D03*
X127465000Y-141490000D03*
X126195000Y-141490000D03*
X150325000Y-140220000D03*
X149055000Y-140220000D03*
X147785000Y-140220000D03*
X146515000Y-140220000D03*
X145245000Y-140220000D03*
X143975000Y-140220000D03*
X142705000Y-140220000D03*
X141435000Y-140220000D03*
X140165000Y-140220000D03*
X138895000Y-140220000D03*
X137625000Y-140220000D03*
X136355000Y-140220000D03*
X135085000Y-140220000D03*
X133815000Y-140220000D03*
X132545000Y-140220000D03*
X131275000Y-140220000D03*
X130005000Y-140220000D03*
X128735000Y-140220000D03*
X127465000Y-140220000D03*
X126195000Y-140220000D03*
X150325000Y-138950000D03*
X149055000Y-138950000D03*
X147785000Y-138950000D03*
X146515000Y-138950000D03*
X145245000Y-138950000D03*
X143975000Y-138950000D03*
X142705000Y-138950000D03*
X141435000Y-138950000D03*
X140165000Y-138950000D03*
X138895000Y-138950000D03*
X137625000Y-138950000D03*
X136355000Y-138950000D03*
X135085000Y-138950000D03*
X133815000Y-138950000D03*
X132545000Y-138950000D03*
X131275000Y-138950000D03*
X130005000Y-138950000D03*
X128735000Y-138950000D03*
X127465000Y-138950000D03*
X126195000Y-138950000D03*
X150325000Y-137680000D03*
X149055000Y-137680000D03*
X147785000Y-137680000D03*
X146515000Y-137680000D03*
X145245000Y-137680000D03*
X143975000Y-137680000D03*
X142705000Y-137680000D03*
X141435000Y-137680000D03*
X140165000Y-137680000D03*
X138895000Y-137680000D03*
X137625000Y-137680000D03*
X136355000Y-137680000D03*
X135085000Y-137680000D03*
X133815000Y-137680000D03*
X132545000Y-137680000D03*
X131275000Y-137680000D03*
X130005000Y-137680000D03*
X128735000Y-137680000D03*
X127465000Y-137680000D03*
X126195000Y-137680000D03*
X150325000Y-136410000D03*
X149055000Y-136410000D03*
X147785000Y-136410000D03*
X146515000Y-136410000D03*
X145245000Y-136410000D03*
X143975000Y-136410000D03*
X142705000Y-136410000D03*
X141435000Y-136410000D03*
X140165000Y-136410000D03*
X138895000Y-136410000D03*
X137625000Y-136410000D03*
X136355000Y-136410000D03*
X135085000Y-136410000D03*
X133815000Y-136410000D03*
X132545000Y-136410000D03*
X131275000Y-136410000D03*
X130005000Y-136410000D03*
X128735000Y-136410000D03*
X127465000Y-136410000D03*
X126195000Y-136410000D03*
X150325000Y-135140000D03*
X149055000Y-135140000D03*
X147785000Y-135140000D03*
X146515000Y-135140000D03*
X145245000Y-135140000D03*
X143975000Y-135140000D03*
X142705000Y-135140000D03*
X141435000Y-135140000D03*
X140165000Y-135140000D03*
X138895000Y-135140000D03*
X137625000Y-135140000D03*
X136355000Y-135140000D03*
X135085000Y-135140000D03*
X133815000Y-135140000D03*
X132545000Y-135140000D03*
X131275000Y-135140000D03*
X130005000Y-135140000D03*
X128735000Y-135140000D03*
X127465000Y-135140000D03*
X126195000Y-135140000D03*
X150325000Y-133870000D03*
X149055000Y-133870000D03*
X147785000Y-133870000D03*
X146515000Y-133870000D03*
X145245000Y-133870000D03*
X143975000Y-133870000D03*
X142705000Y-133870000D03*
X141435000Y-133870000D03*
X140165000Y-133870000D03*
X138895000Y-133870000D03*
X137625000Y-133870000D03*
X136355000Y-133870000D03*
X135085000Y-133870000D03*
X133815000Y-133870000D03*
X132545000Y-133870000D03*
X131275000Y-133870000D03*
X130005000Y-133870000D03*
X128735000Y-133870000D03*
X127465000Y-133870000D03*
X126195000Y-133870000D03*
X150325000Y-132600000D03*
X149055000Y-132600000D03*
X147785000Y-132600000D03*
X146515000Y-132600000D03*
X145245000Y-132600000D03*
X143975000Y-132600000D03*
X142705000Y-132600000D03*
X141435000Y-132600000D03*
X140165000Y-132600000D03*
X138895000Y-132600000D03*
X137625000Y-132600000D03*
X136355000Y-132600000D03*
X135085000Y-132600000D03*
X133815000Y-132600000D03*
X132545000Y-132600000D03*
X131275000Y-132600000D03*
X130005000Y-132600000D03*
X128735000Y-132600000D03*
X127465000Y-132600000D03*
X126195000Y-132600000D03*
X150325000Y-131330000D03*
X149055000Y-131330000D03*
X147785000Y-131330000D03*
X146515000Y-131330000D03*
X145245000Y-131330000D03*
X143975000Y-131330000D03*
X142705000Y-131330000D03*
X141435000Y-131330000D03*
X140165000Y-131330000D03*
X138895000Y-131330000D03*
X137625000Y-131330000D03*
X136355000Y-131330000D03*
X135085000Y-131330000D03*
X133815000Y-131330000D03*
X132545000Y-131330000D03*
X131275000Y-131330000D03*
X130005000Y-131330000D03*
X128735000Y-131330000D03*
X127465000Y-131330000D03*
X126195000Y-131330000D03*
X150325000Y-130060000D03*
X149055000Y-130060000D03*
X147785000Y-130060000D03*
X146515000Y-130060000D03*
X145245000Y-130060000D03*
X143975000Y-130060000D03*
X142705000Y-130060000D03*
X141435000Y-130060000D03*
X140165000Y-130060000D03*
X138895000Y-130060000D03*
X137625000Y-130060000D03*
X136355000Y-130060000D03*
X135085000Y-130060000D03*
X133815000Y-130060000D03*
X132545000Y-130060000D03*
X131275000Y-130060000D03*
X130005000Y-130060000D03*
X128735000Y-130060000D03*
X127465000Y-130060000D03*
X126195000Y-130060000D03*
X150325000Y-128790000D03*
X149055000Y-128790000D03*
X147785000Y-128790000D03*
X146515000Y-128790000D03*
X145245000Y-128790000D03*
X143975000Y-128790000D03*
X142705000Y-128790000D03*
X141435000Y-128790000D03*
X140165000Y-128790000D03*
X138895000Y-128790000D03*
X137625000Y-128790000D03*
X136355000Y-128790000D03*
X135085000Y-128790000D03*
X133815000Y-128790000D03*
X132545000Y-128790000D03*
X131275000Y-128790000D03*
X130005000Y-128790000D03*
X128735000Y-128790000D03*
X127465000Y-128790000D03*
X126195000Y-128790000D03*
X150325000Y-127520000D03*
X149055000Y-127520000D03*
X147785000Y-127520000D03*
X146515000Y-127520000D03*
X145245000Y-127520000D03*
X143975000Y-127520000D03*
X142705000Y-127520000D03*
X141435000Y-127520000D03*
X140165000Y-127520000D03*
X138895000Y-127520000D03*
X137625000Y-127520000D03*
X136355000Y-127520000D03*
X135085000Y-127520000D03*
X133815000Y-127520000D03*
X132545000Y-127520000D03*
X131275000Y-127520000D03*
X130005000Y-127520000D03*
X128735000Y-127520000D03*
X127465000Y-127520000D03*
X126195000Y-127520000D03*
X150325000Y-126250000D03*
X149055000Y-126250000D03*
X147785000Y-126250000D03*
X146515000Y-126250000D03*
X145245000Y-126250000D03*
X143975000Y-126250000D03*
X142705000Y-126250000D03*
X141435000Y-126250000D03*
X140165000Y-126250000D03*
X138895000Y-126250000D03*
X137625000Y-126250000D03*
X136355000Y-126250000D03*
X135085000Y-126250000D03*
X133815000Y-126250000D03*
X132545000Y-126250000D03*
X131275000Y-126250000D03*
X130005000Y-126250000D03*
X128735000Y-126250000D03*
X127465000Y-126250000D03*
X126195000Y-126250000D03*
D13*
X115600000Y-117900000D03*
X119600000Y-117900000D03*
D14*
X151485000Y-112050000D03*
X150835000Y-112050000D03*
X150185000Y-112050000D03*
X149535000Y-112050000D03*
X149535000Y-116260000D03*
X150185000Y-116260000D03*
X150835000Y-116260000D03*
X151485000Y-116260000D03*
D15*
X150040000Y-114575000D03*
X150980000Y-114575000D03*
X150040000Y-113735000D03*
X150980000Y-113735000D03*
D16*
X91400000Y-141660000D03*
D17*
X91400000Y-148560000D03*
D18*
X145980000Y-122300000D03*
X145980000Y-120800000D03*
X118600000Y-120900000D03*
X118600000Y-122400000D03*
D19*
X145245000Y-123710000D03*
X143745000Y-123710000D03*
D20*
X147885000Y-117855000D03*
X146785000Y-117855000D03*
D21*
X112100000Y-122900000D03*
X112100000Y-121800000D03*
D18*
X109600000Y-110900000D03*
X109600000Y-112400000D03*
D19*
X147885000Y-119125000D03*
X146385000Y-119125000D03*
D18*
X110600000Y-122900000D03*
X110600000Y-121400000D03*
D19*
X140165000Y-123710000D03*
X141665000Y-123710000D03*
X104732000Y-112280000D03*
X106232000Y-112280000D03*
D18*
X119310000Y-152780000D03*
X119310000Y-151280000D03*
D20*
X124800000Y-155800000D03*
X125900000Y-155800000D03*
D22*
X149770000Y-109960000D03*
X147020000Y-109960000D03*
D21*
X119300000Y-136250000D03*
X119300000Y-135150000D03*
X119300000Y-139350000D03*
X119300000Y-140450000D03*
D20*
X121100000Y-141900000D03*
X120000000Y-141900000D03*
X121050000Y-144900000D03*
X119950000Y-144900000D03*
X140800000Y-122000000D03*
X141900000Y-122000000D03*
D19*
X140550000Y-154500000D03*
X142050000Y-154500000D03*
X138900000Y-117800000D03*
X140400000Y-117800000D03*
X123800000Y-112900000D03*
X122300000Y-112900000D03*
X132200000Y-109100000D03*
X130700000Y-109100000D03*
D23*
X129300000Y-122500000D03*
X131300000Y-122500000D03*
D20*
X138900000Y-116600000D03*
X140000000Y-116600000D03*
X123800000Y-114200000D03*
X122700000Y-114200000D03*
X129300000Y-124000000D03*
X130400000Y-124000000D03*
X110400000Y-124400000D03*
X109300000Y-124400000D03*
X110400000Y-132800000D03*
X109300000Y-132800000D03*
X111500000Y-124400000D03*
X112600000Y-124400000D03*
X111500000Y-132800000D03*
X112600000Y-132800000D03*
D21*
X94300000Y-143850000D03*
X94300000Y-144950000D03*
X91000000Y-123550000D03*
X91000000Y-122450000D03*
X93300000Y-140300000D03*
X93300000Y-141400000D03*
X91400000Y-140432000D03*
X91400000Y-139332000D03*
D18*
X101400000Y-140500000D03*
X101400000Y-142000000D03*
D20*
X95750000Y-139400000D03*
X96850000Y-139400000D03*
D21*
X102700000Y-140500000D03*
X102700000Y-141600000D03*
D22*
X96450000Y-141100000D03*
X99200000Y-141100000D03*
D13*
X115600000Y-110900000D03*
X119600000Y-110900000D03*
X115600000Y-114400000D03*
X119600000Y-114400000D03*
D24*
X111100000Y-114900000D03*
X111100000Y-116800000D03*
X113100000Y-115850000D03*
D25*
X105600000Y-148600000D03*
X105600000Y-150200000D03*
X105600000Y-153700000D03*
X105600000Y-155300000D03*
D26*
X122560000Y-126900000D03*
X123840000Y-126900000D03*
D27*
X93100000Y-117126800D03*
X93100000Y-120073200D03*
D28*
X91576000Y-118600000D03*
D29*
X96268200Y-149050000D03*
X93321800Y-149050000D03*
D30*
X94795000Y-147526000D03*
D31*
X113000000Y-110900000D03*
X111100000Y-110900000D03*
D32*
X155435000Y-118210000D03*
X155435000Y-116310000D03*
X153435000Y-116310000D03*
X153435000Y-118210000D03*
D33*
X132500000Y-154150000D03*
X132500000Y-153250000D03*
X133800000Y-154150000D03*
X133800000Y-153250000D03*
D34*
X103945000Y-148200000D03*
X102045000Y-148200000D03*
X102995000Y-150200000D03*
X103995000Y-153300000D03*
X102095000Y-153300000D03*
X103045000Y-155300000D03*
D33*
X111100000Y-112400000D03*
X111100000Y-113300000D03*
X108100000Y-111950000D03*
X108100000Y-112850000D03*
D11*
X123755000Y-148970000D03*
X122855000Y-148970000D03*
X121215000Y-154685000D03*
X122115000Y-154685000D03*
D33*
X148035000Y-114610000D03*
X148035000Y-115510000D03*
D11*
X127000000Y-155800000D03*
X127900000Y-155800000D03*
D33*
X148035000Y-112110000D03*
X148035000Y-113010000D03*
D11*
X122850000Y-128700000D03*
X123750000Y-128700000D03*
X122850000Y-129900000D03*
X123750000Y-129900000D03*
D33*
X131200000Y-154150000D03*
X131200000Y-153250000D03*
X129900000Y-154150000D03*
X129900000Y-153250000D03*
D11*
X153100000Y-132700000D03*
X154000000Y-132700000D03*
X153100000Y-133900000D03*
X154000000Y-133900000D03*
X153100000Y-131500000D03*
X154000000Y-131500000D03*
X153100000Y-127900000D03*
X154000000Y-127900000D03*
X153100000Y-126700000D03*
X154000000Y-126700000D03*
X153100000Y-125500000D03*
X154000000Y-125500000D03*
X154000000Y-135100000D03*
X153100000Y-135100000D03*
X153100000Y-124300000D03*
X154000000Y-124300000D03*
X154000000Y-137500000D03*
X153100000Y-137500000D03*
X153100000Y-120700000D03*
X154000000Y-120700000D03*
X154000000Y-129100000D03*
X153100000Y-129100000D03*
X153100000Y-123100000D03*
X154000000Y-123100000D03*
X154000000Y-130300000D03*
X153100000Y-130300000D03*
X153100000Y-121900000D03*
X154000000Y-121900000D03*
X154000000Y-119500000D03*
X153100000Y-119500000D03*
X153100000Y-138700000D03*
X154000000Y-138700000D03*
X154000000Y-136300000D03*
X153100000Y-136300000D03*
X147150000Y-153100000D03*
X148050000Y-153100000D03*
D33*
X119300000Y-137300000D03*
X119300000Y-138200000D03*
X121100000Y-142900000D03*
X121100000Y-143800000D03*
X135100000Y-154150000D03*
X135100000Y-153250000D03*
D11*
X154000000Y-139900000D03*
X153100000Y-139900000D03*
X139650000Y-120500000D03*
X138750000Y-120500000D03*
X139650000Y-114000000D03*
X138750000Y-114000000D03*
X139650000Y-115200000D03*
X138750000Y-115200000D03*
X123000000Y-115500000D03*
X123900000Y-115500000D03*
X135535000Y-122440000D03*
X134635000Y-122440000D03*
X133630000Y-122440000D03*
X132730000Y-122440000D03*
X123000000Y-120300000D03*
X123900000Y-120300000D03*
X123000000Y-121500000D03*
X123900000Y-121500000D03*
X138750000Y-119300000D03*
X139650000Y-119300000D03*
X123000000Y-116700000D03*
X123900000Y-116700000D03*
X123000000Y-117900000D03*
X123900000Y-117900000D03*
X123000000Y-119100000D03*
X123900000Y-119100000D03*
X141350000Y-153100000D03*
X140450000Y-153100000D03*
D33*
X101600000Y-120900000D03*
X101600000Y-121800000D03*
X100400000Y-120900000D03*
X100400000Y-121800000D03*
X95499000Y-120890000D03*
X95499000Y-121790000D03*
D11*
X108900000Y-142887000D03*
X108000000Y-142887000D03*
D33*
X96743000Y-120900000D03*
X96743000Y-121800000D03*
X97943000Y-120900000D03*
X97943000Y-121800000D03*
X99143000Y-120900000D03*
X99143000Y-121800000D03*
D11*
X108000000Y-141400000D03*
X108900000Y-141400000D03*
X114000000Y-143800000D03*
X113100000Y-143800000D03*
X114000000Y-145000000D03*
X113100000Y-145000000D03*
X106200000Y-141400000D03*
X107100000Y-141400000D03*
X114000000Y-141400000D03*
X113100000Y-141400000D03*
X117200000Y-124700000D03*
X116300000Y-124700000D03*
X117200000Y-125900000D03*
X116300000Y-125900000D03*
X117200000Y-127100000D03*
X116300000Y-127100000D03*
X117200000Y-128300000D03*
X116300000Y-128300000D03*
X117200000Y-129500000D03*
X116300000Y-129500000D03*
X117200000Y-130700000D03*
X116300000Y-130700000D03*
X114000000Y-142600000D03*
X113100000Y-142600000D03*
X115700000Y-134800000D03*
X116600000Y-134800000D03*
X115700000Y-136000000D03*
X116600000Y-136000000D03*
X115700000Y-139300000D03*
X116600000Y-139300000D03*
X94150000Y-122100000D03*
X93250000Y-122100000D03*
D33*
X100400000Y-124200000D03*
X100400000Y-123300000D03*
X99200000Y-124200000D03*
X99200000Y-123300000D03*
X98000000Y-124200000D03*
X98000000Y-123300000D03*
X96800000Y-124200000D03*
X96800000Y-123300000D03*
X95600000Y-124200000D03*
X95600000Y-123300000D03*
X94400000Y-124200000D03*
X94400000Y-123300000D03*
D11*
X93245000Y-123650000D03*
X92345000Y-123650000D03*
X96250000Y-146400000D03*
X97150000Y-146400000D03*
X106200000Y-134100000D03*
X105300000Y-134100000D03*
X106200000Y-135300000D03*
X105300000Y-135300000D03*
X106200000Y-136500000D03*
X105300000Y-136500000D03*
X106200000Y-137700000D03*
X105300000Y-137700000D03*
D33*
X105600000Y-146500000D03*
X105600000Y-147400000D03*
X105600000Y-151600000D03*
X105600000Y-152500000D03*
D35*
X147885000Y-123650000D03*
X148835000Y-123650000D03*
X149785000Y-123650000D03*
X149785000Y-121030000D03*
X147885000Y-121030000D03*
D36*
X116720000Y-122900000D03*
X116720000Y-121950000D03*
X116720000Y-121000000D03*
X114100000Y-121000000D03*
X114100000Y-122900000D03*
D37*
X106000000Y-121350000D03*
D38*
X108540000Y-115050000D03*
X107270000Y-115050000D03*
X106000000Y-115050000D03*
X104730000Y-115050000D03*
X103460000Y-115050000D03*
D39*
X123120000Y-150580000D03*
X122170000Y-150580000D03*
X121220000Y-150580000D03*
X121220000Y-152780000D03*
X123120000Y-152780000D03*
D40*
X142700000Y-120600000D03*
X142700000Y-119300000D03*
X142700000Y-119950000D03*
X140800000Y-119300000D03*
X140800000Y-120600000D03*
X137050000Y-153150000D03*
X137050000Y-154450000D03*
X137050000Y-153800000D03*
X138950000Y-154450000D03*
X138950000Y-153150000D03*
D41*
X108050000Y-125675000D03*
X108050000Y-126325000D03*
X108050000Y-126975000D03*
X108050000Y-127625000D03*
X108050000Y-128275000D03*
X108050000Y-128925000D03*
X108050000Y-129575000D03*
X108050000Y-130225000D03*
X108050000Y-130875000D03*
X108050000Y-131525000D03*
X113950000Y-131525000D03*
X113950000Y-130875000D03*
X113950000Y-130225000D03*
X113950000Y-129575000D03*
X113950000Y-128925000D03*
X113950000Y-128275000D03*
X113950000Y-127625000D03*
X113950000Y-126975000D03*
X113950000Y-126325000D03*
X113950000Y-125675000D03*
X108050000Y-134075000D03*
X108050000Y-134725000D03*
X108050000Y-135375000D03*
X108050000Y-136025000D03*
X108050000Y-136675000D03*
X108050000Y-137325000D03*
X108050000Y-137975000D03*
X108050000Y-138625000D03*
X108050000Y-139275000D03*
X108050000Y-139925000D03*
X113950000Y-139925000D03*
X113950000Y-139275000D03*
X113950000Y-138625000D03*
X113950000Y-137975000D03*
X113950000Y-137325000D03*
X113950000Y-136675000D03*
X113950000Y-136025000D03*
X113950000Y-135375000D03*
X113950000Y-134725000D03*
X113950000Y-134075000D03*
D42*
X97100000Y-144975000D03*
X97100000Y-143225000D03*
X95700000Y-143225000D03*
X95700000Y-144975000D03*
D43*
X122300000Y-136050000D03*
X122300000Y-139750000D03*
D16*
X123100000Y-142050000D03*
X123100000Y-144550000D03*
D44*
X127900000Y-154700000D03*
X127900000Y-154200000D03*
X127900000Y-153700000D03*
X127900000Y-153200000D03*
X124800000Y-153200000D03*
X124800000Y-153700000D03*
X124800000Y-154200000D03*
X124800000Y-154700000D03*
D45*
X103834540Y-125945120D03*
D46*
X102709320Y-125620000D03*
X102008280Y-125620000D03*
X101307240Y-125620000D03*
X100608740Y-125620000D03*
X99907700Y-125620000D03*
X99209200Y-125620000D03*
X98508160Y-125620000D03*
X97809660Y-125620000D03*
X97111160Y-125620000D03*
X96410120Y-125620000D03*
X95711620Y-125620000D03*
X95010580Y-125620000D03*
X94312080Y-125620000D03*
X93611040Y-125620000D03*
X92910000Y-125620000D03*
D45*
X91784780Y-125945120D03*
D47*
X91510460Y-127019540D03*
X91510460Y-127720580D03*
X91510460Y-128421620D03*
X91510460Y-129120120D03*
X91510460Y-129821160D03*
X91510460Y-130519660D03*
X91510460Y-131220700D03*
X91510460Y-131919200D03*
X91510460Y-132617700D03*
X91510460Y-133318740D03*
X91510460Y-134017240D03*
X91510460Y-134718280D03*
X91510460Y-135416780D03*
X91510460Y-136117820D03*
X91510460Y-136818860D03*
D45*
X91784780Y-137893280D03*
D46*
X92910000Y-138218400D03*
X93611040Y-138218400D03*
X94312080Y-138218400D03*
X95010580Y-138218400D03*
X95711620Y-138218400D03*
X96410120Y-138218400D03*
X97111160Y-138218400D03*
X97809660Y-138218400D03*
X98508160Y-138218400D03*
X99209200Y-138218400D03*
X99907700Y-138218400D03*
X100608740Y-138218400D03*
X101307240Y-138218400D03*
X102008280Y-138218400D03*
X102709320Y-138218400D03*
D45*
X103834540Y-137893280D03*
D47*
X104108860Y-136818860D03*
X104108860Y-136117820D03*
X104108860Y-135416780D03*
X104108860Y-134718280D03*
X104108860Y-134017240D03*
X104108860Y-133318740D03*
X104108860Y-132617700D03*
X104108860Y-131919200D03*
X104108860Y-131220700D03*
X104108860Y-130519660D03*
X104108860Y-129821160D03*
X104108860Y-129120120D03*
X104108860Y-128421620D03*
X104108860Y-127720580D03*
X104108860Y-127019540D03*
D48*
X101657760Y-128071100D03*
X100258220Y-128071100D03*
X98858680Y-128071100D03*
X96760640Y-128071100D03*
X95361100Y-128071100D03*
X93961560Y-128071100D03*
X101657760Y-129470640D03*
X100258220Y-129470640D03*
X98858680Y-129470640D03*
X96760640Y-129470640D03*
X95361100Y-129470640D03*
X93961560Y-129470640D03*
X101657760Y-130870180D03*
X100258220Y-130870180D03*
X98858680Y-130870180D03*
X96760640Y-130870180D03*
X95361100Y-130870180D03*
X93961560Y-130870180D03*
X101657760Y-132968220D03*
X100258220Y-132968220D03*
X98858680Y-132968220D03*
X96760640Y-132968220D03*
X95361100Y-132968220D03*
X93961560Y-132968220D03*
X101657760Y-134367760D03*
X100258220Y-134367760D03*
X98858680Y-134367760D03*
X96760640Y-134367760D03*
X95361100Y-134367760D03*
X93961560Y-134367760D03*
X101657760Y-135767300D03*
X100258220Y-135767300D03*
X98858680Y-135767300D03*
X96760640Y-135767300D03*
X95361100Y-135767300D03*
X93961560Y-135767300D03*
D49*
X128199240Y-119000000D03*
X128199240Y-118499620D03*
X128199240Y-117999240D03*
X128199240Y-117498860D03*
X128199240Y-117001020D03*
X128199240Y-116500640D03*
X128199240Y-116000260D03*
X128199240Y-115502420D03*
X128199240Y-115002040D03*
X128199240Y-114501660D03*
X128199240Y-114003820D03*
X128199240Y-113503440D03*
X128199240Y-113003060D03*
X128199240Y-112502680D03*
X128699620Y-119000000D03*
X128699620Y-118499620D03*
X128699620Y-117999240D03*
X128699620Y-117498860D03*
X128699620Y-117001020D03*
X128699620Y-116500640D03*
X128699620Y-116000260D03*
X128699620Y-115502420D03*
X128699620Y-115002040D03*
X128699620Y-114501660D03*
X128699620Y-114003820D03*
X128699620Y-113503440D03*
X128699620Y-113003060D03*
X128699620Y-112502680D03*
X129200000Y-119000000D03*
X129200000Y-118499620D03*
X129200000Y-117999240D03*
X129200000Y-117498860D03*
X129200000Y-117001020D03*
X129200000Y-116500640D03*
X129200000Y-116000260D03*
X129200000Y-115502420D03*
X129200000Y-115002040D03*
X129200000Y-114501660D03*
X129200000Y-114003820D03*
X129200000Y-113503440D03*
X129200000Y-113003060D03*
X129200000Y-112502680D03*
X129700380Y-119000000D03*
X129700380Y-118499620D03*
X129700380Y-117999240D03*
X129700380Y-117498860D03*
X129700380Y-113503440D03*
X129700380Y-113003060D03*
X129700380Y-112502680D03*
X130198220Y-119000000D03*
X130198220Y-118499620D03*
X130198220Y-117999240D03*
X130198220Y-117001020D03*
X130198220Y-116500640D03*
X130198220Y-116000260D03*
X130198220Y-115502420D03*
X130198220Y-115002040D03*
X130198220Y-114501660D03*
X130198220Y-113503440D03*
X130198220Y-113003060D03*
X130198220Y-112502680D03*
X130698600Y-119000000D03*
X130698600Y-118499620D03*
X130698600Y-117999240D03*
X130698600Y-117001020D03*
X130698600Y-114501660D03*
X130698600Y-113503440D03*
X130698600Y-113003060D03*
X130698600Y-112502680D03*
X131198980Y-119000000D03*
X131198980Y-118499620D03*
X131198980Y-117999240D03*
X131198980Y-117001020D03*
X131198980Y-114501660D03*
X131198980Y-113503440D03*
X131198980Y-113003060D03*
X131198980Y-112502680D03*
X131696820Y-119000000D03*
X131696820Y-118499620D03*
X131696820Y-117999240D03*
X131696820Y-117001020D03*
X131696820Y-114501660D03*
X131696820Y-113503440D03*
X131696820Y-113003060D03*
X131696820Y-112502680D03*
X132197200Y-119000000D03*
X132197200Y-118499620D03*
X132197200Y-117999240D03*
X132197200Y-117001020D03*
X132197200Y-114501660D03*
X132197200Y-113503440D03*
X132197200Y-113003060D03*
X132197200Y-112502680D03*
X132697580Y-119000000D03*
X132697580Y-118499620D03*
X132697580Y-117999240D03*
X132697580Y-117001020D03*
X132697580Y-116500640D03*
X132697580Y-116000260D03*
X132697580Y-115502420D03*
X132697580Y-115002040D03*
X132697580Y-114501660D03*
X132697580Y-113503440D03*
X132697580Y-113003060D03*
X132697580Y-112502680D03*
X133195420Y-119000000D03*
X133195420Y-118499620D03*
X133195420Y-117999240D03*
X133195420Y-113503440D03*
X133195420Y-113003060D03*
X133195420Y-112502680D03*
X133695800Y-119000000D03*
X133695800Y-118499620D03*
X133695800Y-117999240D03*
X133695800Y-117498860D03*
X133695800Y-117001020D03*
X133695800Y-116500640D03*
X133695800Y-116000260D03*
X133695800Y-115502420D03*
X133695800Y-115002040D03*
X133695800Y-114501660D03*
X133695800Y-114003820D03*
X133695800Y-113503440D03*
X133695800Y-113003060D03*
X133695800Y-112502680D03*
X134196180Y-119000000D03*
X134196180Y-118499620D03*
X134196180Y-117999240D03*
X134196180Y-117498860D03*
X134196180Y-117001020D03*
X134196180Y-116500640D03*
X134196180Y-116000260D03*
X134196180Y-115502420D03*
X134196180Y-115002040D03*
X134196180Y-114501660D03*
X134196180Y-114003820D03*
X134196180Y-113503440D03*
X134196180Y-113003060D03*
X134196180Y-112502680D03*
X134696560Y-119000000D03*
X134696560Y-118499620D03*
X134696560Y-117999240D03*
X134696560Y-117498860D03*
X134696560Y-117001020D03*
X134696560Y-116500640D03*
X134696560Y-116000260D03*
X134696560Y-115502420D03*
X134696560Y-115002040D03*
X134696560Y-114501660D03*
X134696560Y-114003820D03*
X134696560Y-113503440D03*
X134696560Y-113003060D03*
X134696560Y-112502680D03*
D34*
X156745000Y-144150000D03*
X154845000Y-144150000D03*
X155795000Y-146150000D03*
D24*
X144695000Y-111900000D03*
X144695000Y-110000000D03*
X142695000Y-110950000D03*
D33*
X153395000Y-144200000D03*
X153395000Y-145100000D03*
X158195000Y-148800000D03*
X158195000Y-149700000D03*
X158195000Y-144200000D03*
X158195000Y-145100000D03*
X153395000Y-149700000D03*
X153395000Y-148800000D03*
D11*
X143745000Y-113250000D03*
X144645000Y-113250000D03*
X142895000Y-114250000D03*
X143795000Y-114250000D03*
X142845000Y-113250000D03*
X141945000Y-113250000D03*
X137845000Y-108850000D03*
X136945000Y-108850000D03*
D34*
X154845000Y-149650000D03*
X156745000Y-149650000D03*
X155795000Y-147650000D03*
D24*
X139195000Y-110000000D03*
X139195000Y-111900000D03*
X141195000Y-110950000D03*
D25*
X138298000Y-122567000D03*
X136698000Y-122567000D03*
D11*
X136540000Y-123964000D03*
X137440000Y-123964000D03*
D50*
X152395000Y-109850000D03*
X151795000Y-109850000D03*
X151195000Y-109850000D03*
X105113000Y-156285500D03*
X122639000Y-109994000D03*
X123401000Y-109994000D03*
X121750000Y-109994000D03*
X147518000Y-122300000D03*
X94800000Y-116200000D03*
X158552424Y-124162697D03*
X155416280Y-128993952D03*
X154994801Y-120342812D03*
X115916922Y-157016922D03*
X111100000Y-156700000D03*
X109400000Y-150400000D03*
X135400000Y-118550009D03*
X93375684Y-147412316D03*
X93556000Y-144281591D03*
X122131000Y-151523000D03*
X107843500Y-153936000D03*
X131300000Y-123598890D03*
X114003000Y-153682000D03*
X127973000Y-155079000D03*
X155786000Y-134505000D03*
X151188600Y-129042279D03*
X154595000Y-138750000D03*
X131135000Y-119760000D03*
X148735000Y-153060000D03*
X92735000Y-128421620D03*
X92735000Y-127720580D03*
X92735000Y-136117820D03*
X92735000Y-131220700D03*
X92735000Y-130519660D03*
X97809660Y-126760000D03*
X99209200Y-126760000D03*
X102835000Y-133318740D03*
X102835000Y-134017240D03*
X105748000Y-141363000D03*
X146460000Y-111360000D03*
X146435000Y-112060000D03*
X150040000Y-114575000D03*
X150980000Y-114575000D03*
X150040000Y-113735000D03*
X121369000Y-129928600D03*
X137095000Y-155250000D03*
X144152000Y-119950000D03*
X142616000Y-122224000D03*
X95397000Y-119791000D03*
X93197000Y-116191000D03*
X114597006Y-144991000D03*
X114000000Y-140650000D03*
X97397000Y-148991000D03*
X101197000Y-148191000D03*
X101197000Y-153391000D03*
X99947000Y-137090994D03*
X100608740Y-137100000D03*
X97797000Y-135791000D03*
X97797000Y-134341000D03*
X97797000Y-132941000D03*
X97797000Y-130891000D03*
X97797000Y-129441000D03*
X97797000Y-128091000D03*
X99200000Y-142150000D03*
X103335000Y-141744000D03*
X112077400Y-121213000D03*
X110866000Y-124896000D03*
X106000000Y-123327000D03*
X106002000Y-119392000D03*
X108961000Y-121400000D03*
X106256000Y-110629000D03*
X106255994Y-111264000D03*
X109723000Y-113080000D03*
X125941000Y-111942000D03*
X125941000Y-112661000D03*
X131656000Y-115709000D03*
X122258000Y-111264000D03*
X122258000Y-111899000D03*
X136986749Y-126888251D03*
X148420000Y-122186000D03*
X148928000Y-121932000D03*
X148928000Y-122440000D03*
X142616000Y-123710000D03*
X142070000Y-155460000D03*
X134450000Y-137045000D03*
X142070000Y-140855000D03*
X143340000Y-140855000D03*
X142070000Y-139585000D03*
X126830000Y-139585000D03*
X128100000Y-138315000D03*
X129370000Y-149745000D03*
X112077400Y-131525000D03*
X150960000Y-149745000D03*
X126830000Y-131965000D03*
X126830000Y-134505000D03*
X136990000Y-137045000D03*
X139530000Y-139585000D03*
X140800000Y-140855000D03*
X138260000Y-142125000D03*
X128100000Y-128155000D03*
X129370000Y-126885000D03*
X131910000Y-126885000D03*
X134450000Y-126885000D03*
X135400000Y-116500000D03*
X140800000Y-135775000D03*
X139530000Y-135775000D03*
X138260000Y-134505000D03*
X143340000Y-135775000D03*
X143340000Y-126885000D03*
X144610000Y-126885000D03*
X148420000Y-126885000D03*
X101307411Y-139478610D03*
X116708000Y-119943000D03*
X102008280Y-139458000D03*
X112600000Y-124980000D03*
X113495000Y-132854000D03*
X104732000Y-111518000D03*
X104732000Y-110756000D03*
X152484000Y-119999600D03*
X157056000Y-119884620D03*
X121369000Y-115709000D03*
X121369000Y-115074000D03*
X121350000Y-114400000D03*
X145245000Y-124599000D03*
X145245000Y-125107000D03*
X155090819Y-128046411D03*
X155000000Y-119499988D03*
X123909000Y-154698000D03*
X123000000Y-122694000D03*
X121995000Y-148850000D03*
X120295000Y-148850000D03*
X139650000Y-115850000D03*
X139650000Y-121558000D03*
X124582000Y-109100000D03*
X108072000Y-109100000D03*
X134107000Y-109100000D03*
X134996000Y-109100000D03*
X135969000Y-109100000D03*
X150579000Y-119773000D03*
X132164000Y-111645000D03*
X130900000Y-116300000D03*
X132200022Y-114003954D03*
X94953000Y-144950000D03*
X108669000Y-132727000D03*
X95711620Y-138950000D03*
X109300000Y-125234000D03*
X112352000Y-153809000D03*
X121400000Y-117800000D03*
X122258000Y-128663000D03*
X140800000Y-125615000D03*
X157246500Y-116344000D03*
X118400000Y-137800000D03*
X125000000Y-137800000D03*
X120000000Y-143200000D03*
X125200000Y-143200000D03*
X155445000Y-143050000D03*
X150395004Y-123550000D03*
X140800000Y-121400000D03*
X141943000Y-153047000D03*
X145880000Y-134505000D03*
X144610000Y-133235000D03*
X143340000Y-133235000D03*
X108605500Y-157174500D03*
X135466000Y-155142500D03*
X129814500Y-155142500D03*
X145245000Y-151523000D03*
X142070000Y-145935000D03*
X140800000Y-148475000D03*
X145880000Y-149745000D03*
X159532500Y-126758000D03*
X159469000Y-131965000D03*
X159469000Y-132727002D03*
X159469002Y-133489000D03*
X159469000Y-128663001D03*
X159469000Y-128027998D03*
X159469000Y-127393002D03*
X159469000Y-130060000D03*
X142070000Y-144665000D03*
X140800000Y-149745000D03*
X144610000Y-149745000D03*
X158834000Y-128456600D03*
X158151390Y-131838000D03*
X138260000Y-149745000D03*
X139657000Y-156222000D03*
X136990000Y-149745000D03*
X114257000Y-157111000D03*
X135720000Y-149745000D03*
X106954500Y-157047500D03*
X134450000Y-149745000D03*
X112225000Y-156857000D03*
X131910000Y-149745000D03*
X115781000Y-150253000D03*
X130640000Y-149745000D03*
X145880000Y-147205000D03*
X128100000Y-149745000D03*
X127243575Y-151514857D03*
X136228000Y-153503000D03*
X126830000Y-148475000D03*
X145880000Y-148475000D03*
X158861321Y-126544224D03*
X144610000Y-148475000D03*
X157691000Y-128086642D03*
X158707000Y-130822000D03*
X121242000Y-156285500D03*
X139530000Y-148475000D03*
X139127736Y-156581736D03*
X138260000Y-148475000D03*
X136990000Y-148475000D03*
X131211500Y-152412000D03*
X114892000Y-156984000D03*
X135720000Y-148475000D03*
X116924000Y-157111000D03*
X134450000Y-148475000D03*
X111957999Y-154203001D03*
X131910000Y-148475000D03*
X116289000Y-149745000D03*
X130640000Y-148475000D03*
X144610000Y-147205000D03*
X128100000Y-145935000D03*
X156395000Y-140850000D03*
X158306324Y-127229430D03*
X143340000Y-147205000D03*
X155813093Y-140684328D03*
X158961000Y-129552000D03*
X142070000Y-147205000D03*
X155162997Y-140640379D03*
X140800000Y-147205000D03*
X158072000Y-132806400D03*
X139149000Y-155841000D03*
X138260000Y-147205000D03*
X116416000Y-154202632D03*
X136990000Y-147205000D03*
X107970500Y-157111000D03*
X135720000Y-147205000D03*
X116965502Y-156443527D03*
X134450000Y-147205000D03*
X109939000Y-153809000D03*
X133180000Y-147205000D03*
X124417000Y-146951000D03*
X110701000Y-153809000D03*
X125065000Y-148970000D03*
X131910000Y-147205000D03*
X111336000Y-153936000D03*
X128100000Y-147205000D03*
X130640000Y-147205000D03*
X129800000Y-152400000D03*
X129370000Y-147205000D03*
X153395000Y-147650000D03*
X137395000Y-111850000D03*
X138895000Y-152350000D03*
X140800000Y-144665000D03*
X131910000Y-134505000D03*
X131910000Y-131965000D03*
X115240078Y-156340078D03*
X136990000Y-145935000D03*
X135085000Y-151903996D03*
X135720000Y-145935000D03*
X133815000Y-151904000D03*
X134450000Y-145935000D03*
X133180000Y-145935000D03*
X131910000Y-145935000D03*
X113241000Y-156730000D03*
X130640000Y-145935000D03*
X113701402Y-156349000D03*
X129370000Y-145935000D03*
X108859500Y-153936000D03*
X143340000Y-144665000D03*
X125433000Y-151015000D03*
X133180000Y-144665000D03*
X124798000Y-150761000D03*
X131910000Y-144665000D03*
X144610000Y-143395000D03*
X139530000Y-143395000D03*
X148335000Y-111460000D03*
X133180000Y-143395000D03*
X112860000Y-147840000D03*
X130640000Y-143395000D03*
X113114000Y-148475000D03*
X129370000Y-143395000D03*
X112733000Y-149110000D03*
X133180000Y-142125000D03*
X113495000Y-148983000D03*
X131910000Y-142125000D03*
X111971000Y-146951000D03*
X130640000Y-142125000D03*
X112479000Y-147332000D03*
X129370000Y-142125000D03*
X145880000Y-140855000D03*
X117795000Y-128250000D03*
X131910000Y-140855000D03*
X117295000Y-139250000D03*
X129370000Y-140855000D03*
X117795000Y-130650000D03*
X131910000Y-139585000D03*
X117795000Y-124650000D03*
X130640000Y-139585000D03*
X117795000Y-125850000D03*
X129370000Y-139585000D03*
X117795000Y-127050000D03*
X133180000Y-138315000D03*
X117195000Y-135950000D03*
X130640000Y-138315000D03*
X117195000Y-134750000D03*
X129370000Y-138315000D03*
X117795000Y-129450000D03*
X133180000Y-137045000D03*
X115195000Y-133750000D03*
X131910000Y-137045000D03*
X115895000Y-137950000D03*
X130640000Y-137045000D03*
X109595000Y-141350000D03*
X129370000Y-137045000D03*
X115702199Y-137350000D03*
X130640000Y-135775000D03*
X115913781Y-138588308D03*
X129370000Y-135775000D03*
X158428066Y-125319920D03*
X157945000Y-120789000D03*
X157691000Y-120280996D03*
X158580000Y-121042998D03*
X133200000Y-133200000D03*
X124400000Y-128800000D03*
X113241000Y-149999000D03*
X124544000Y-132727000D03*
X131910000Y-133235000D03*
X130600000Y-133200000D03*
X124400000Y-129800000D03*
X155147131Y-126286709D03*
X151081602Y-133166811D03*
X155138894Y-125729558D03*
X152484000Y-133869990D03*
X155161271Y-125172795D03*
X151744610Y-134460000D03*
X148420000Y-131965000D03*
X151744610Y-135260000D03*
X147150000Y-131965000D03*
X145880000Y-131965000D03*
X144610000Y-131965000D03*
X155366306Y-131275845D03*
X143340000Y-131965000D03*
X125306000Y-116979000D03*
X142070000Y-131965000D03*
X133942000Y-123583000D03*
X140800000Y-131965000D03*
X104287500Y-156920500D03*
X120162500Y-150253000D03*
X136990000Y-131965000D03*
X151318390Y-137965827D03*
X135720000Y-131965000D03*
X141943000Y-119900000D03*
X134450000Y-131965000D03*
X155151157Y-124615674D03*
X155138185Y-124058613D03*
X151095000Y-131950000D03*
X155203017Y-123505185D03*
X151607820Y-131662820D03*
X148420000Y-130695000D03*
X154811247Y-122459178D03*
X150935000Y-130660000D03*
X147150000Y-130695000D03*
X154999984Y-121100000D03*
X151341002Y-137172000D03*
X145880000Y-130695000D03*
X155199990Y-130100000D03*
X144610000Y-130695000D03*
X155207099Y-130741861D03*
X143340000Y-130695000D03*
X127426240Y-119773000D03*
X142070000Y-130695000D03*
X124798000Y-115455000D03*
X140800000Y-130695000D03*
X139530000Y-130695000D03*
X138260000Y-130695000D03*
X136990000Y-130695000D03*
X159469000Y-125869000D03*
X135672400Y-130695000D03*
X152230000Y-137934000D03*
X150891400Y-134505000D03*
X134450000Y-130695000D03*
X108732498Y-148602000D03*
X133180000Y-130695000D03*
X149817000Y-117487000D03*
X131910000Y-130695000D03*
X130640000Y-130695000D03*
X151785500Y-119392000D03*
X129370000Y-130695000D03*
X151286444Y-130060000D03*
X152103000Y-125424500D03*
X151291390Y-128160000D03*
X148420000Y-129425000D03*
X154900000Y-121800000D03*
X147150000Y-129425000D03*
X152503000Y-120664000D03*
X155143070Y-126843906D03*
X145880000Y-129425000D03*
X155269202Y-129531403D03*
X144610000Y-129425000D03*
X126830000Y-117999240D03*
X143340000Y-129425000D03*
X127214380Y-118499620D03*
X142070000Y-129425000D03*
X136885643Y-114981469D03*
X140800000Y-129425000D03*
X155181516Y-131801523D03*
X139530000Y-129425000D03*
X154516001Y-134378000D03*
X136990000Y-129425000D03*
X159079856Y-125328423D03*
X135720000Y-129425000D03*
X155263331Y-132352695D03*
X134450000Y-129425000D03*
X107526000Y-150253000D03*
X133180000Y-125551500D03*
X133180000Y-129425000D03*
X131910000Y-129425000D03*
X130640000Y-129425000D03*
X129370000Y-129425000D03*
X152004061Y-122770147D03*
X152365331Y-121838085D03*
X148420000Y-128155000D03*
X151935000Y-121350000D03*
X155299994Y-127400000D03*
X145880000Y-128155000D03*
X144610000Y-128155000D03*
X143340000Y-128155000D03*
X127465000Y-117498860D03*
X130005000Y-120281000D03*
X142070000Y-128155000D03*
X137197580Y-115502420D03*
X140800000Y-128155000D03*
X136990000Y-128155000D03*
X135720000Y-128155000D03*
X107780000Y-148602000D03*
X133180000Y-128155000D03*
X132481500Y-125297500D03*
X108605500Y-149745000D03*
X131959066Y-128105934D03*
X150960000Y-126885000D03*
X150960000Y-125615000D03*
X157056000Y-121170000D03*
X148420000Y-125615000D03*
X149690000Y-125615000D03*
X125941000Y-151396000D03*
X126576000Y-151523000D03*
X133053000Y-117360001D03*
X138100000Y-120500000D03*
X90545000Y-131599998D03*
X90508000Y-139839000D03*
X93595000Y-143350000D03*
X90550578Y-132620922D03*
X90544994Y-133650000D03*
X94953000Y-139585000D03*
X107272000Y-142887000D03*
X94312080Y-142373080D03*
X97197000Y-137191000D03*
X112397000Y-143791000D03*
X103997000Y-147191000D03*
X97797000Y-136791000D03*
X112397000Y-144991000D03*
X103997000Y-152391000D03*
X98397000Y-138991000D03*
X99197000Y-138791000D03*
X105049500Y-132600000D03*
X104922500Y-131901500D03*
X104795500Y-131203000D03*
X104922500Y-129806000D03*
X154896996Y-139712000D03*
X109500000Y-151300000D03*
X140292000Y-157492000D03*
X155151000Y-136791000D03*
X109748500Y-157238000D03*
X111764610Y-136156000D03*
X104605000Y-143776000D03*
X109119873Y-156721078D03*
X106129000Y-156984000D03*
X106764000Y-129679000D03*
X101600000Y-122610000D03*
X106764000Y-128917000D03*
X100160000Y-122567000D03*
X106510000Y-128282000D03*
X94953000Y-121805000D03*
X106637000Y-127647000D03*
X96388000Y-122567000D03*
X106764000Y-127012000D03*
X97576000Y-122567000D03*
X106764000Y-125615000D03*
X98801000Y-122567000D03*
X109397000Y-139991000D03*
X109397000Y-131591000D03*
X106743406Y-139310406D03*
X91396984Y-124791000D03*
X109325264Y-138082264D03*
X106834723Y-135337723D03*
X106891000Y-136791000D03*
X109304000Y-138823000D03*
X134450000Y-128155000D03*
X108097500Y-156412500D03*
X104668500Y-151078500D03*
X130640000Y-128155000D03*
X144610000Y-137045000D03*
X138894986Y-125234000D03*
X113185715Y-151482085D03*
X130640000Y-134505000D03*
X113636285Y-151031515D03*
X129370000Y-134505000D03*
X158357278Y-122466154D03*
X130640000Y-131965000D03*
X158807848Y-122916724D03*
X129370000Y-131965000D03*
D51*
X91400000Y-140432000D02*
X91400000Y-141660000D01*
D52*
X150835000Y-112050000D02*
X150835000Y-110010000D01*
X150835000Y-110010000D02*
X150995000Y-109850000D01*
X150995000Y-109850000D02*
X151195000Y-109850000D01*
X150185000Y-112050000D02*
X150185000Y-110840000D01*
X150185000Y-110840000D02*
X149195000Y-109850000D01*
X151795000Y-109850000D02*
X152395000Y-109850000D01*
X150845000Y-109850000D02*
X151795000Y-109850000D01*
X149210000Y-109960000D02*
X151085000Y-109960000D01*
X150845000Y-109850000D02*
X151195000Y-109850000D01*
X151085000Y-109960000D02*
X151195000Y-109850000D01*
X150735000Y-109960000D02*
X150845000Y-109850000D01*
X150735000Y-109960000D02*
X149210000Y-109960000D01*
X121750000Y-109994000D02*
X122639000Y-109994000D01*
X123401000Y-109994000D02*
X122639000Y-109994000D01*
X121750000Y-110502000D02*
X121352000Y-110900000D01*
X121352000Y-110900000D02*
X119600000Y-110900000D01*
X121750000Y-109994000D02*
X121750000Y-110502000D01*
D51*
X146515000Y-126250000D02*
X146515000Y-125742000D01*
X146515000Y-125742000D02*
X147885000Y-124372000D01*
X147885000Y-124372000D02*
X147885000Y-123650000D01*
X147518000Y-122300000D02*
X147885000Y-122667000D01*
X147885000Y-122667000D02*
X147885000Y-123650000D01*
X145980000Y-122300000D02*
X147518000Y-122300000D01*
X146515000Y-126250000D02*
X146515000Y-127520000D01*
X154000000Y-132700000D02*
X154489000Y-132700000D01*
D53*
X154000000Y-131400000D02*
X154579500Y-130820500D01*
X154579500Y-129771399D02*
X154579500Y-129397211D01*
X154000000Y-131500000D02*
X154000000Y-131400000D01*
X154579500Y-130820500D02*
X154579500Y-129771399D01*
X154400000Y-120700000D02*
X154757188Y-120342812D01*
X154000000Y-120700000D02*
X154400000Y-120700000D01*
X154757188Y-120342812D02*
X154994801Y-120342812D01*
D54*
X135400000Y-118202300D02*
X135400000Y-118226720D01*
X134696560Y-117498860D02*
X135400000Y-118202300D01*
X135349611Y-118499620D02*
X135400000Y-118550009D01*
X134696560Y-118499620D02*
X135349611Y-118499620D01*
X135400000Y-118226720D02*
X135400000Y-118550009D01*
D53*
X150980000Y-114575000D02*
X150980000Y-113735000D01*
X151485000Y-112050000D02*
X151485000Y-113230000D01*
X151485000Y-113230000D02*
X150980000Y-113735000D01*
D51*
X142616000Y-122224000D02*
X142616000Y-122567000D01*
X142616000Y-122567000D02*
X142616000Y-123710000D01*
D53*
X138298000Y-122567000D02*
X142273000Y-122567000D01*
X142273000Y-122567000D02*
X142616000Y-122567000D01*
D51*
X94300000Y-143850000D02*
X93995000Y-143850000D01*
X93995000Y-143850000D02*
X93645000Y-144200000D01*
X93645000Y-144200000D02*
X93637591Y-144200000D01*
X93637591Y-144200000D02*
X93556000Y-144281591D01*
X93321800Y-147466200D02*
X93375684Y-147412316D01*
X93321800Y-149050000D02*
X93321800Y-147466200D01*
X119985000Y-151280000D02*
X120228000Y-151523000D01*
X119310000Y-151280000D02*
X119985000Y-151280000D01*
X122170000Y-150580000D02*
X122170000Y-151484000D01*
X122170000Y-151484000D02*
X122131000Y-151523000D01*
X120228000Y-151523000D02*
X122131000Y-151523000D01*
D53*
X127900000Y-153200000D02*
X128500000Y-153200000D01*
X128500000Y-153200000D02*
X128709599Y-153409599D01*
X128709599Y-153409599D02*
X128709599Y-154532901D01*
X128709599Y-154532901D02*
X128544500Y-154698000D01*
X128544500Y-154698000D02*
X128354000Y-154698000D01*
X128354000Y-154698000D02*
X127973000Y-155079000D01*
X125900000Y-155800000D02*
X125900000Y-156117500D01*
X125900000Y-156117500D02*
X126131500Y-156349000D01*
X126131500Y-156349000D02*
X127719000Y-156349000D01*
X127900000Y-156168000D02*
X127900000Y-155800000D01*
X127719000Y-156349000D02*
X127900000Y-156168000D01*
D51*
X130400000Y-124000000D02*
X131000000Y-124000000D01*
X131000000Y-124000000D02*
X131300000Y-123700000D01*
X131300000Y-123700000D02*
X131300000Y-123598890D01*
X131300000Y-122500000D02*
X131300000Y-123598890D01*
D53*
X127900000Y-154700000D02*
X127900000Y-155050000D01*
X127929000Y-155079000D02*
X127973000Y-155079000D01*
X127900000Y-155050000D02*
X127929000Y-155079000D01*
D51*
X154489000Y-132700000D02*
X155786000Y-133997000D01*
X155786000Y-133997000D02*
X155786000Y-134505000D01*
D54*
X150960001Y-128813680D02*
X151188600Y-129042279D01*
X150936321Y-128790000D02*
X150960001Y-128813680D01*
X150325000Y-128790000D02*
X150936321Y-128790000D01*
X154000000Y-138700000D02*
X154545000Y-138700000D01*
X154545000Y-138700000D02*
X154595000Y-138750000D01*
D51*
X154000000Y-138700000D02*
X154000000Y-138600000D01*
D54*
X129700380Y-117999240D02*
X129200000Y-117498860D01*
X130198220Y-118499620D02*
X130198220Y-118497080D01*
X130198220Y-118497080D02*
X129700380Y-117999240D01*
X130198220Y-119000000D02*
X130198220Y-119273220D01*
X130198220Y-119273220D02*
X130685000Y-119760000D01*
X130685000Y-119760000D02*
X131135000Y-119760000D01*
X130198220Y-118499620D02*
X130198220Y-119000000D01*
D53*
X148695000Y-153100000D02*
X148735000Y-153060000D01*
X148050000Y-153100000D02*
X148695000Y-153100000D01*
X154000000Y-132060000D02*
X154000000Y-132700000D01*
X154000000Y-131500000D02*
X154000000Y-132060000D01*
D51*
X92735000Y-128421620D02*
X93611040Y-128421620D01*
X91510460Y-128421620D02*
X92735000Y-128421620D01*
X92735000Y-127720580D02*
X93611040Y-127720580D01*
X91510460Y-127720580D02*
X92735000Y-127720580D01*
X92735000Y-136117820D02*
X93611040Y-136117820D01*
X91510460Y-136117820D02*
X92735000Y-136117820D01*
X92735000Y-131220700D02*
X93611040Y-131220700D01*
X91510460Y-131220700D02*
X92735000Y-131220700D01*
X92735000Y-130519660D02*
X93611040Y-130519660D01*
X91510460Y-130519660D02*
X92735000Y-130519660D01*
X97809660Y-126760000D02*
X97809660Y-128078340D01*
X97809660Y-125620000D02*
X97809660Y-126760000D01*
X99209200Y-126760000D02*
X99209200Y-127720580D01*
X99209200Y-125620000D02*
X99209200Y-126760000D01*
X102835000Y-133318740D02*
X102008280Y-133318740D01*
X104108860Y-133318740D02*
X102835000Y-133318740D01*
X102635000Y-134017240D02*
X102008280Y-134017240D01*
X104108860Y-134017240D02*
X102635000Y-134017240D01*
D54*
X102635000Y-134017240D02*
X102835000Y-134017240D01*
D51*
X106200000Y-141400000D02*
X105785000Y-141400000D01*
X105785000Y-141400000D02*
X105748000Y-141363000D01*
D52*
X146460000Y-111360000D02*
X146460000Y-112035000D01*
X146460000Y-109960000D02*
X146460000Y-111360000D01*
X146460000Y-112035000D02*
X146435000Y-112060000D01*
D53*
X148035000Y-113660000D02*
X148110000Y-113735000D01*
X148110000Y-113735000D02*
X150040000Y-113735000D01*
X148035000Y-113010000D02*
X148035000Y-113660000D01*
X122930000Y-129980000D02*
X122850000Y-129900000D01*
X122850000Y-129900000D02*
X121397600Y-129900000D01*
X121397600Y-129900000D02*
X121369000Y-129928600D01*
D51*
X96595000Y-138950000D02*
X96850000Y-139205000D01*
X96850000Y-139205000D02*
X96850000Y-139400000D01*
X96467070Y-138950000D02*
X96595000Y-138950000D01*
X96410120Y-138218400D02*
X96410120Y-138893050D01*
X96410120Y-138893050D02*
X96467070Y-138950000D01*
X137050000Y-154450000D02*
X137050000Y-155205000D01*
X137050000Y-155205000D02*
X137095000Y-155250000D01*
X144152000Y-119950000D02*
X143502000Y-119300000D01*
X145002000Y-120800000D02*
X144152000Y-119950000D01*
D52*
X93100000Y-120073200D02*
X95114800Y-120073200D01*
X95114800Y-120073200D02*
X95397000Y-119791000D01*
X93100000Y-117126800D02*
X93100000Y-116288000D01*
X93100000Y-116288000D02*
X93197000Y-116191000D01*
D51*
X114588006Y-145000000D02*
X114597006Y-144991000D01*
X114000000Y-145000000D02*
X114588006Y-145000000D01*
X114000000Y-140650000D02*
X114000000Y-139975000D01*
X114000000Y-141400000D02*
X114000000Y-140650000D01*
X114000000Y-139975000D02*
X113950000Y-139925000D01*
X114000000Y-142600000D02*
X114000000Y-141400000D01*
X114000000Y-143800000D02*
X114000000Y-142600000D01*
X114000000Y-145000000D02*
X114000000Y-143800000D01*
X96268200Y-149050000D02*
X97338000Y-149050000D01*
X97338000Y-149050000D02*
X97397000Y-148991000D01*
X102045000Y-148200000D02*
X101206000Y-148200000D01*
X101206000Y-148200000D02*
X101197000Y-148191000D01*
X102095000Y-153300000D02*
X101288000Y-153300000D01*
X101288000Y-153300000D02*
X101197000Y-153391000D01*
X103206000Y-137300000D02*
X101673300Y-135767300D01*
X100258220Y-135767300D02*
X100258220Y-135829780D01*
X100258220Y-135829780D02*
X99947000Y-136141000D01*
X99947000Y-136141000D02*
X99947000Y-137090994D01*
X99907700Y-137130294D02*
X99947000Y-137090994D01*
X99907700Y-138218400D02*
X99907700Y-137130294D01*
X100608740Y-137100000D02*
X100608740Y-136117820D01*
X100608740Y-138218400D02*
X100608740Y-137100000D01*
X91794720Y-137893280D02*
X92538000Y-137150000D01*
X92538000Y-137150000D02*
X93920700Y-135767300D01*
X92910000Y-138218400D02*
X92910000Y-137543750D01*
X92910000Y-137543750D02*
X92538000Y-137171750D01*
X92538000Y-137171750D02*
X92538000Y-137150000D01*
X91784780Y-137893280D02*
X91794720Y-137893280D01*
X93920700Y-135767300D02*
X93961560Y-135767300D01*
X93611040Y-138218400D02*
X93611040Y-136117820D01*
X93611040Y-136117820D02*
X93961560Y-135767300D01*
X95010580Y-138218400D02*
X95010580Y-136117820D01*
X95010580Y-136117820D02*
X95361100Y-135767300D01*
X96410120Y-138218400D02*
X96410120Y-136117820D01*
X96410120Y-136117820D02*
X96760640Y-135767300D01*
X100608740Y-136117820D02*
X100258220Y-135767300D01*
X103799280Y-137893280D02*
X103206000Y-137300000D01*
X102709320Y-137543750D02*
X102953070Y-137300000D01*
X102709320Y-138218400D02*
X102709320Y-137543750D01*
X102953070Y-137300000D02*
X103206000Y-137300000D01*
X103834540Y-137893280D02*
X103799280Y-137893280D01*
X101673300Y-135767300D02*
X101657760Y-135767300D01*
X102008280Y-134017240D02*
X101657760Y-134367760D01*
X102008280Y-133318740D02*
X101657760Y-132968220D01*
X104108860Y-130519660D02*
X102008280Y-130519660D01*
X102008280Y-130519660D02*
X101657760Y-130870180D01*
X104108860Y-129120120D02*
X102008280Y-129120120D01*
X102008280Y-129120120D02*
X101657760Y-129470640D01*
X104108860Y-127720580D02*
X102008280Y-127720580D01*
X102008280Y-127720580D02*
X101657760Y-128071100D01*
X103834540Y-125953460D02*
X103095000Y-126693000D01*
X103095000Y-126693000D02*
X101716900Y-128071100D01*
X104108860Y-127019540D02*
X103434210Y-127019540D01*
X103434210Y-127019540D02*
X103107670Y-126693000D01*
X103107670Y-126693000D02*
X103095000Y-126693000D01*
X103834540Y-125945120D02*
X103834540Y-125953460D01*
X101716900Y-128071100D02*
X101657760Y-128071100D01*
X99209200Y-127720580D02*
X98858680Y-128071100D01*
X97809660Y-128078340D02*
X97797000Y-128091000D01*
X93611040Y-125620000D02*
X93611040Y-126176960D01*
X93611040Y-126176960D02*
X93493350Y-126294650D01*
X93493350Y-126294650D02*
X92910000Y-126294650D01*
X91835580Y-125945120D02*
X92495000Y-126604540D01*
X92495000Y-126604540D02*
X93961560Y-128071100D01*
X92910000Y-125620000D02*
X92910000Y-126294650D01*
X92910000Y-126294650D02*
X92600110Y-126604540D01*
X92600110Y-126604540D02*
X92495000Y-126604540D01*
X91784780Y-125945120D02*
X91835580Y-125945120D01*
X93611040Y-127720580D02*
X93961560Y-128071100D01*
X93611040Y-128421620D02*
X93961560Y-128071100D01*
X93611040Y-130519660D02*
X93961560Y-130870180D01*
X93611040Y-131220700D02*
X93961560Y-130870180D01*
X91510460Y-134017240D02*
X93611040Y-134017240D01*
X93611040Y-134017240D02*
X93961560Y-134367760D01*
X91510460Y-134718280D02*
X93611040Y-134718280D01*
X93611040Y-134718280D02*
X93961560Y-134367760D01*
X91510460Y-135416780D02*
X93611040Y-135416780D01*
X93611040Y-135416780D02*
X93961560Y-135767300D01*
X95361100Y-129470640D02*
X93961560Y-129470640D01*
X98858680Y-134367760D02*
X97823760Y-134367760D01*
X97823760Y-134367760D02*
X97797000Y-134341000D01*
X100258220Y-134367760D02*
X100258220Y-135767300D01*
X98858680Y-134367760D02*
X98858680Y-135767300D01*
X101657760Y-132968220D02*
X101657760Y-134367760D01*
X100258220Y-132968220D02*
X100258220Y-134367760D01*
X100258220Y-132968220D02*
X101657760Y-132968220D01*
X98858680Y-132968220D02*
X100258220Y-132968220D01*
X98858680Y-132968220D02*
X97824220Y-132968220D01*
X97824220Y-132968220D02*
X97797000Y-132941000D01*
X98858680Y-134367760D02*
X98858680Y-132968220D01*
X100258220Y-134367760D02*
X98858680Y-134367760D01*
X101657760Y-134367760D02*
X100258220Y-134367760D01*
X101657760Y-135767300D02*
X101657760Y-134367760D01*
X100258220Y-135767300D02*
X101657760Y-135767300D01*
X100258220Y-135767300D02*
X98858680Y-135767300D01*
X98858680Y-135767300D02*
X97820700Y-135767300D01*
X97820700Y-135767300D02*
X97797000Y-135791000D01*
X96760640Y-135767300D02*
X97773300Y-135767300D01*
X97773300Y-135767300D02*
X97797000Y-135791000D01*
X95361100Y-135767300D02*
X95361100Y-134367760D01*
X96760640Y-135767300D02*
X96760640Y-134367760D01*
X95361100Y-135767300D02*
X96760640Y-135767300D01*
X93961560Y-135767300D02*
X95361100Y-135767300D01*
X93961560Y-134367760D02*
X93961560Y-135767300D01*
X96760640Y-132968220D02*
X96760640Y-134367760D01*
X95361100Y-132968220D02*
X95361100Y-134367760D01*
X93961560Y-132968220D02*
X93961560Y-134367760D01*
X96760640Y-134367760D02*
X97770240Y-134367760D01*
X97770240Y-134367760D02*
X97797000Y-134341000D01*
X95361100Y-134367760D02*
X96760640Y-134367760D01*
X93961560Y-134367760D02*
X95361100Y-134367760D01*
X96760640Y-132968220D02*
X97769780Y-132968220D01*
X97769780Y-132968220D02*
X97797000Y-132941000D01*
X95361100Y-132968220D02*
X96760640Y-132968220D01*
X93961560Y-132968220D02*
X95361100Y-132968220D01*
X100258220Y-128071100D02*
X100258220Y-129470640D01*
X98858680Y-129470640D02*
X98858680Y-130870180D01*
X100258220Y-129470640D02*
X100258220Y-130870180D01*
X100258220Y-128071100D02*
X101657760Y-128071100D01*
X98858680Y-128071100D02*
X100258220Y-128071100D01*
X98858680Y-129470640D02*
X98858680Y-128071100D01*
X100258220Y-129470640D02*
X98858680Y-129470640D01*
X101657760Y-129470640D02*
X100258220Y-129470640D01*
X101657760Y-128071100D02*
X101657760Y-129470640D01*
X101657760Y-130870180D02*
X101657760Y-129470640D01*
X100258220Y-130870180D02*
X101657760Y-130870180D01*
X98858680Y-130870180D02*
X100258220Y-130870180D01*
X98858680Y-128071100D02*
X97816900Y-128071100D01*
X97816900Y-128071100D02*
X97797000Y-128091000D01*
X98858680Y-129470640D02*
X97826640Y-129470640D01*
X97826640Y-129470640D02*
X97797000Y-129441000D01*
X98858680Y-130870180D02*
X97817820Y-130870180D01*
X97817820Y-130870180D02*
X97797000Y-130891000D01*
X96760640Y-130870180D02*
X97776180Y-130870180D01*
X97776180Y-130870180D02*
X97797000Y-130891000D01*
X96760640Y-129470640D02*
X97767360Y-129470640D01*
X97767360Y-129470640D02*
X97797000Y-129441000D01*
X96760640Y-128071100D02*
X97777100Y-128071100D01*
X97777100Y-128071100D02*
X97797000Y-128091000D01*
X96760640Y-129470640D02*
X95361100Y-129470640D01*
X95361100Y-128071100D02*
X96760640Y-128071100D01*
X96760640Y-129470640D02*
X96760640Y-128071100D01*
X96760640Y-129470640D02*
X96760640Y-130870180D01*
X96760640Y-130870180D02*
X95361100Y-130870180D01*
X95361100Y-129470640D02*
X95361100Y-130870180D01*
X95361100Y-128071100D02*
X95361100Y-129470640D01*
X93961560Y-128071100D02*
X95361100Y-128071100D01*
X93961560Y-129470640D02*
X93961560Y-128071100D01*
X93961560Y-129470640D02*
X93961560Y-130870180D01*
X93961560Y-130870180D02*
X95361100Y-130870180D01*
X97100000Y-143225000D02*
X98125000Y-143225000D01*
X98125000Y-143225000D02*
X99200000Y-142150000D01*
X99200000Y-142150000D02*
X99200000Y-141100000D01*
X102700000Y-141600000D02*
X103191000Y-141600000D01*
X103191000Y-141600000D02*
X103335000Y-141744000D01*
X101400000Y-142000000D02*
X100924000Y-142000000D01*
X100924000Y-142000000D02*
X100414000Y-141490000D01*
X100414000Y-141490000D02*
X99590000Y-141490000D01*
X99590000Y-141490000D02*
X99200000Y-141100000D01*
X101400000Y-142000000D02*
X102300000Y-142000000D01*
X102300000Y-142000000D02*
X102700000Y-141600000D01*
X112100000Y-121800000D02*
X112100000Y-121235600D01*
X112100000Y-121235600D02*
X112077400Y-121213000D01*
X110866000Y-124400000D02*
X111500000Y-124400000D01*
X110400000Y-124400000D02*
X110866000Y-124400000D01*
X110866000Y-124400000D02*
X110866000Y-124896000D01*
D52*
X106000000Y-121350000D02*
X106000000Y-123327000D01*
X106000000Y-121350000D02*
X106000000Y-119394000D01*
X106000000Y-119394000D02*
X106002000Y-119392000D01*
X108707000Y-121400000D02*
X106050000Y-121400000D01*
X110600000Y-121400000D02*
X108707000Y-121400000D01*
X108707000Y-121400000D02*
X108961000Y-121400000D01*
X106050000Y-121400000D02*
X106000000Y-121350000D01*
D51*
X110600000Y-121400000D02*
X111058000Y-121400000D01*
X111058000Y-121400000D02*
X111463000Y-121805000D01*
X111463000Y-121805000D02*
X112095000Y-121805000D01*
X112095000Y-121805000D02*
X112100000Y-121800000D01*
X116720000Y-121950000D02*
X112250000Y-121950000D01*
X112250000Y-121950000D02*
X112100000Y-121800000D01*
X117940000Y-122260000D02*
X118460000Y-122260000D01*
X118460000Y-122260000D02*
X118600000Y-122400000D01*
X116720000Y-121950000D02*
X117630000Y-121950000D01*
X117630000Y-121950000D02*
X117940000Y-122260000D01*
D52*
X106255994Y-110629006D02*
X106256000Y-110629000D01*
X106255994Y-111264000D02*
X106255994Y-110629006D01*
X106232000Y-111287994D02*
X106255994Y-111264000D01*
X106232000Y-112280000D02*
X106232000Y-111287994D01*
D51*
X109723000Y-113080000D02*
X109943000Y-113300000D01*
X109600000Y-112957000D02*
X109723000Y-113080000D01*
X109600000Y-112400000D02*
X109600000Y-112957000D01*
X109943000Y-113300000D02*
X111100000Y-113300000D01*
X111100000Y-113300000D02*
X111100000Y-114900000D01*
D52*
X106000000Y-115050000D02*
X106000000Y-113552000D01*
X106000000Y-113552000D02*
X106002000Y-113550000D01*
X106002000Y-113550000D02*
X106002000Y-113385000D01*
X106002000Y-113385000D02*
X106232000Y-113155000D01*
X106232000Y-113155000D02*
X106232000Y-112280000D01*
X125941000Y-111942000D02*
X125941000Y-112661000D01*
X125941000Y-110248000D02*
X125941000Y-111942000D01*
X127089000Y-109100000D02*
X125941000Y-110248000D01*
X130700000Y-109100000D02*
X127089000Y-109100000D01*
D54*
X131656000Y-115778289D02*
X131656000Y-115709000D01*
X131600000Y-115800000D02*
X131634289Y-115800000D01*
X131634289Y-115800000D02*
X131656000Y-115778289D01*
D51*
X122258000Y-111899000D02*
X122258000Y-111264000D01*
X122300000Y-112900000D02*
X122300000Y-111941000D01*
X122300000Y-111941000D02*
X122258000Y-111899000D01*
X122402000Y-113677000D02*
X122402000Y-113902000D01*
X122402000Y-113902000D02*
X122700000Y-114200000D01*
X122300000Y-112900000D02*
X122300000Y-113575000D01*
X122300000Y-113575000D02*
X122402000Y-113677000D01*
X143975000Y-127520000D02*
X143340000Y-126885000D01*
D54*
X137625000Y-127520000D02*
X136993251Y-126888251D01*
X136993251Y-126888251D02*
X136986749Y-126888251D01*
X136355000Y-126250000D02*
X136986749Y-126881749D01*
X136355000Y-127520000D02*
X136986749Y-126888251D01*
X136986749Y-126881749D02*
X136986749Y-126888251D01*
D51*
X148928000Y-122440000D02*
X148674000Y-122440000D01*
X148674000Y-122440000D02*
X148420000Y-122186000D01*
X148928000Y-122440000D02*
X148928000Y-121932000D01*
X148835000Y-123650000D02*
X148835000Y-122533000D01*
X148835000Y-122533000D02*
X148928000Y-122440000D01*
X141900000Y-122000000D02*
X142392000Y-122000000D01*
X142392000Y-122000000D02*
X142616000Y-122224000D01*
X141665000Y-123710000D02*
X142616000Y-123710000D01*
X142616000Y-123710000D02*
X142832000Y-123710000D01*
X146785000Y-117855000D02*
X146785000Y-118233000D01*
X146785000Y-118233000D02*
X146515000Y-118503000D01*
X146515000Y-118503000D02*
X146515000Y-118995000D01*
X146515000Y-118995000D02*
X146385000Y-119125000D01*
X146385000Y-119125000D02*
X146385000Y-119903000D01*
X146385000Y-119903000D02*
X146007000Y-120281000D01*
X146007000Y-120281000D02*
X146007000Y-120773000D01*
X146007000Y-120773000D02*
X145980000Y-120800000D01*
X145980000Y-120800000D02*
X145002000Y-120800000D01*
X143502000Y-119300000D02*
X143325000Y-119300000D01*
X143325000Y-119300000D02*
X142700000Y-119300000D01*
X142129000Y-117800000D02*
X142700000Y-118371000D01*
X142700000Y-118371000D02*
X142700000Y-119300000D01*
X140400000Y-117800000D02*
X142129000Y-117800000D01*
X140000000Y-116600000D02*
X140000000Y-116941000D01*
X140000000Y-116941000D02*
X140419000Y-117360000D01*
X140419000Y-117360000D02*
X140419000Y-117781000D01*
X140419000Y-117781000D02*
X140400000Y-117800000D01*
D53*
X127465000Y-133870000D02*
X127465000Y-132600000D01*
X127465000Y-130060000D02*
X127465000Y-128790000D01*
X127465000Y-130060000D02*
X127465000Y-131330000D01*
X142050000Y-154500000D02*
X142050000Y-155440000D01*
X142050000Y-155440000D02*
X142070000Y-155460000D01*
X134450000Y-137045000D02*
X133815000Y-136410000D01*
X135085000Y-137680000D02*
X134450000Y-137045000D01*
X141435000Y-142760000D02*
X141435000Y-144030000D01*
X142705000Y-141490000D02*
X142070000Y-140855000D01*
X141435000Y-141490000D02*
X142070000Y-140855000D01*
X142705000Y-140220000D02*
X143340000Y-140855000D01*
X143975000Y-141490000D02*
X143340000Y-140855000D01*
X143975000Y-140220000D02*
X143340000Y-140855000D01*
X142705000Y-141490000D02*
X143340000Y-140855000D01*
X142705000Y-140220000D02*
X142070000Y-139585000D01*
X142705000Y-138950000D02*
X142070000Y-139585000D01*
X141435000Y-140220000D02*
X142070000Y-139585000D01*
X126830000Y-139585000D02*
X127465000Y-140220000D01*
X126830000Y-139585000D02*
X127465000Y-138950000D01*
X126195000Y-140220000D02*
X126830000Y-139585000D01*
D51*
X127465000Y-137680000D02*
X128100000Y-138315000D01*
X127465000Y-138950000D02*
X128100000Y-138315000D01*
X128735000Y-150380000D02*
X129370000Y-149745000D01*
X127465000Y-136410000D02*
X127465000Y-135140000D01*
X127465000Y-137680000D02*
X127465000Y-136410000D01*
X127465000Y-141490000D02*
X127465000Y-140220000D01*
X127465000Y-142760000D02*
X127465000Y-141490000D01*
X127465000Y-144030000D02*
X127465000Y-142760000D01*
X127465000Y-145300000D02*
X127465000Y-144030000D01*
X126195000Y-145300000D02*
X127465000Y-145300000D01*
X112077400Y-131525000D02*
X111500000Y-132182000D01*
X112157000Y-131525000D02*
X112077400Y-131525000D01*
X110400000Y-132800000D02*
X111500000Y-132800000D01*
X111500000Y-132182000D02*
X111500000Y-132800000D01*
X113950000Y-131525000D02*
X112157000Y-131525000D01*
D53*
X127900000Y-155800000D02*
X127900000Y-154700000D01*
X148050000Y-153100000D02*
X149510000Y-153100000D01*
X149510000Y-153100000D02*
X150325000Y-152285000D01*
X150325000Y-152285000D02*
X150325000Y-150380000D01*
X150325000Y-150380000D02*
X150960000Y-149745000D01*
X154000000Y-132700000D02*
X154000000Y-133900000D01*
X154000000Y-126700000D02*
X154000000Y-127900000D01*
X154000000Y-126700000D02*
X154000000Y-125500000D01*
X154000000Y-124300000D02*
X154000000Y-125500000D01*
X154000000Y-123100000D02*
X154000000Y-124300000D01*
X154000000Y-121900000D02*
X154000000Y-123100000D01*
X154000000Y-120700000D02*
X154000000Y-121900000D01*
X126195000Y-131330000D02*
X126830000Y-131965000D01*
X127465000Y-131330000D02*
X126830000Y-131965000D01*
X127465000Y-132600000D02*
X126830000Y-131965000D01*
X126195000Y-132600000D02*
X126830000Y-131965000D01*
X126195000Y-135140000D02*
X126830000Y-134505000D01*
X127465000Y-133870000D02*
X126830000Y-134505000D01*
X126195000Y-133870000D02*
X126830000Y-134505000D01*
X127465000Y-135140000D02*
X126830000Y-134505000D01*
X142705000Y-135140000D02*
X143340000Y-135775000D01*
X133815000Y-135140000D02*
X133815000Y-136410000D01*
X139530000Y-135775000D02*
X138895000Y-135140000D01*
X140165000Y-136410000D02*
X140800000Y-135775000D01*
X138895000Y-136410000D02*
X138895000Y-137680000D01*
X136355000Y-136410000D02*
X136990000Y-137045000D01*
X136355000Y-137680000D02*
X136990000Y-137045000D01*
X137625000Y-137680000D02*
X136990000Y-137045000D01*
X137625000Y-137680000D02*
X137625000Y-138950000D01*
X135085000Y-137680000D02*
X136355000Y-137680000D01*
X138895000Y-137680000D02*
X138895000Y-138950000D01*
X137625000Y-138950000D02*
X138895000Y-138950000D01*
X138895000Y-138950000D02*
X139530000Y-139585000D01*
X140165000Y-138950000D02*
X140165000Y-140220000D01*
X141435000Y-140220000D02*
X140800000Y-140855000D01*
X140165000Y-140220000D02*
X140800000Y-140855000D01*
X141435000Y-142760000D02*
X141435000Y-141490000D01*
X140165000Y-142760000D02*
X140165000Y-141490000D01*
X141435000Y-141490000D02*
X140800000Y-140855000D01*
X140165000Y-141490000D02*
X140800000Y-140855000D01*
X138895000Y-141490000D02*
X138895000Y-140220000D01*
X137625000Y-140220000D02*
X138895000Y-140220000D01*
X138895000Y-141490000D02*
X140165000Y-141490000D01*
X138895000Y-141490000D02*
X138260000Y-142125000D01*
X137625000Y-142760000D02*
X138260000Y-142125000D01*
X137625000Y-142760000D02*
X136355000Y-142760000D01*
X136355000Y-141490000D02*
X136355000Y-142760000D01*
D54*
X126195000Y-127520000D02*
X127465000Y-127520000D01*
X128735000Y-128790000D02*
X128100000Y-128155000D01*
X128735000Y-127520000D02*
X128100000Y-128155000D01*
X127465000Y-127520000D02*
X128100000Y-128155000D01*
X127465000Y-128790000D02*
X128100000Y-128155000D01*
X130005000Y-127520000D02*
X129370000Y-126885000D01*
X128735000Y-127520000D02*
X129370000Y-126885000D01*
X128735000Y-126250000D02*
X129370000Y-126885000D01*
X130005000Y-127520000D02*
X131275000Y-127520000D01*
X131275000Y-127520000D02*
X131910000Y-126885000D01*
X132545000Y-127520000D02*
X131910000Y-126885000D01*
X132545000Y-126250000D02*
X131910000Y-126885000D01*
X133815000Y-127520000D02*
X132545000Y-127520000D01*
X135085000Y-127520000D02*
X134450000Y-126885000D01*
X133815000Y-127520000D02*
X134450000Y-126885000D01*
X136355000Y-127520000D02*
X135085000Y-127520000D01*
X138895000Y-127520000D02*
X137625000Y-127520000D01*
X140165000Y-127520000D02*
X138895000Y-127520000D01*
X138895000Y-126250000D02*
X138895000Y-127520000D01*
X141435000Y-127520000D02*
X140165000Y-127520000D01*
X142705000Y-127520000D02*
X141435000Y-127520000D01*
X134196180Y-118499620D02*
X134696560Y-118499620D01*
D51*
X142832000Y-123710000D02*
X143745000Y-123710000D01*
X142705000Y-126250000D02*
X142705000Y-123837000D01*
X142705000Y-123837000D02*
X142832000Y-123710000D01*
D54*
X134696560Y-116500640D02*
X135399360Y-116500640D01*
X135399360Y-116500640D02*
X135400000Y-116500000D01*
X134196180Y-117001020D02*
X134696560Y-116500640D01*
X131600000Y-115800000D02*
X131400000Y-116000000D01*
X131897580Y-115502420D02*
X131600000Y-115800000D01*
X131696820Y-114501660D02*
X131696820Y-115301660D01*
X131696820Y-115301660D02*
X131897580Y-115502420D01*
X132697580Y-115502420D02*
X131897580Y-115502420D01*
X130198220Y-116000260D02*
X130398480Y-115800000D01*
X131200000Y-115800000D02*
X131400000Y-116000000D01*
X130398480Y-115800000D02*
X131200000Y-115800000D01*
X131400000Y-116000000D02*
X131400000Y-116500000D01*
X131400000Y-116500000D02*
X131198980Y-116701020D01*
X131198980Y-116701020D02*
X131198980Y-117001020D01*
D53*
X141435000Y-136410000D02*
X140800000Y-135775000D01*
X140165000Y-136410000D02*
X139530000Y-135775000D01*
X138895000Y-136410000D02*
X139530000Y-135775000D01*
X138895000Y-135140000D02*
X138260000Y-134505000D01*
X137625000Y-135140000D02*
X138260000Y-134505000D01*
X143975000Y-136410000D02*
X143340000Y-135775000D01*
X142705000Y-136410000D02*
X143340000Y-135775000D01*
D51*
X142705000Y-126250000D02*
X143340000Y-126885000D01*
X142705000Y-127520000D02*
X143340000Y-126885000D01*
X143975000Y-127520000D02*
X144610000Y-126885000D01*
X145245000Y-127520000D02*
X144610000Y-126885000D01*
X149055000Y-127520000D02*
X148420000Y-126885000D01*
X147785000Y-127520000D02*
X148420000Y-126885000D01*
D52*
X116720000Y-122900000D02*
X116720000Y-123506000D01*
X116720000Y-123506000D02*
X116924000Y-123710000D01*
X119384500Y-120900000D02*
X118600000Y-120900000D01*
X116924000Y-123710000D02*
X119146500Y-123710000D01*
X119146500Y-123710000D02*
X119845000Y-123011500D01*
X119845000Y-123011500D02*
X119845000Y-121360500D01*
X119845000Y-121360500D02*
X119384500Y-120900000D01*
D51*
X105600000Y-146500000D02*
X106406000Y-146500000D01*
X106406000Y-146500000D02*
X106797000Y-146891000D01*
X106797000Y-146891000D02*
X106797000Y-151441000D01*
X106797000Y-151441000D02*
X106638000Y-151600000D01*
X106638000Y-151600000D02*
X105600000Y-151600000D01*
X101307240Y-139478439D02*
X101307411Y-139478610D01*
X101400000Y-139571199D02*
X101307411Y-139478610D01*
X101307240Y-138218400D02*
X101307240Y-139478439D01*
X101400000Y-140500000D02*
X101400000Y-139571199D01*
X116708000Y-119943000D02*
X116708000Y-120988000D01*
X116708000Y-120988000D02*
X116720000Y-121000000D01*
X102008280Y-139458000D02*
X102008280Y-140403000D01*
X102008280Y-138218400D02*
X102008280Y-139458000D01*
X102700000Y-140500000D02*
X103250000Y-140500000D01*
X103250000Y-140500000D02*
X105600000Y-142850000D01*
X105600000Y-142850000D02*
X105600000Y-146000000D01*
X105600000Y-146000000D02*
X105600000Y-146500000D01*
X102700000Y-140500000D02*
X101400000Y-140500000D01*
X102008280Y-140403000D02*
X101303000Y-140403000D01*
X101303000Y-140403000D02*
X101400000Y-140500000D01*
X112600000Y-126000000D02*
X112600000Y-124980000D01*
X112600000Y-124400000D02*
X112600000Y-124980000D01*
X112600000Y-132800000D02*
X113441000Y-132800000D01*
X113441000Y-132800000D02*
X113495000Y-132854000D01*
X112600000Y-132800000D02*
X112600000Y-134400000D01*
X112600000Y-134400000D02*
X112925000Y-134725000D01*
X112925000Y-134725000D02*
X113950000Y-134725000D01*
X112600000Y-124400000D02*
X114935000Y-124400000D01*
X115527000Y-123183000D02*
X115810000Y-122900000D01*
X114935000Y-124400000D02*
X115527000Y-123808000D01*
X115527000Y-123808000D02*
X115527000Y-123183000D01*
X115810000Y-122900000D02*
X116720000Y-122900000D01*
X113950000Y-126325000D02*
X112925000Y-126325000D01*
X112925000Y-126325000D02*
X112600000Y-126000000D01*
D52*
X116720000Y-121000000D02*
X118500000Y-121000000D01*
X118500000Y-121000000D02*
X118600000Y-120900000D01*
X104732000Y-111518000D02*
X104732000Y-110756000D01*
X104732000Y-112280000D02*
X104732000Y-111518000D01*
X103460000Y-115050000D02*
X103460000Y-112917000D01*
X103460000Y-112917000D02*
X104097000Y-112280000D01*
X104097000Y-112280000D02*
X104732000Y-112280000D01*
X104730000Y-115050000D02*
X104730000Y-112282000D01*
X104730000Y-112282000D02*
X104732000Y-112280000D01*
D51*
X145245000Y-126250000D02*
X145245000Y-123710000D01*
D52*
X121369000Y-115709000D02*
X121369000Y-115074000D01*
X121369000Y-115074000D02*
X121369000Y-114419000D01*
X121369000Y-114419000D02*
X121350000Y-114400000D01*
X119600000Y-114400000D02*
X121350000Y-114400000D01*
D51*
X145245000Y-123710000D02*
X145245000Y-124599000D01*
X145245000Y-125107000D02*
X145245000Y-126250000D01*
X145245000Y-126250000D02*
X143975000Y-126250000D01*
X155195000Y-128000000D02*
X155137230Y-128000000D01*
X155137230Y-128000000D02*
X155090819Y-128046411D01*
D53*
X154999988Y-119500000D02*
X155000000Y-119499988D01*
X154000000Y-119500000D02*
X154999988Y-119500000D01*
D51*
X139650000Y-121558000D02*
X139608000Y-121600000D01*
X139608000Y-121600000D02*
X135800000Y-121600000D01*
X135800000Y-121600000D02*
X135535000Y-121865000D01*
X135535000Y-121865000D02*
X135535000Y-122440000D01*
D52*
X145595000Y-117050000D02*
X141795000Y-117050000D01*
X147595000Y-117050000D02*
X145595000Y-117050000D01*
D53*
X145595000Y-117050000D02*
X145595000Y-111450000D01*
X145595000Y-111450000D02*
X144695000Y-110550000D01*
X144695000Y-110000000D02*
X144695000Y-110550000D01*
X144695000Y-110550000D02*
X143895010Y-111349990D01*
X143745000Y-112100000D02*
X143745000Y-113250000D01*
X143895010Y-111349990D02*
X143895010Y-111949990D01*
X143895010Y-111949990D02*
X143745000Y-112100000D01*
X142845000Y-113250000D02*
X143745000Y-113250000D01*
D52*
X147885000Y-117855000D02*
X147885000Y-117340000D01*
X141195000Y-116450000D02*
X141195000Y-116050000D01*
X147885000Y-117340000D02*
X147595000Y-117050000D01*
X141795000Y-117050000D02*
X141195000Y-116450000D01*
X140995000Y-115850000D02*
X139650000Y-115850000D01*
X141195000Y-116050000D02*
X140995000Y-115850000D01*
X139650000Y-114000000D02*
X139650000Y-113105000D01*
X139650000Y-113105000D02*
X139395000Y-112850000D01*
X139395000Y-112850000D02*
X136395000Y-112850000D01*
X136395000Y-112850000D02*
X135969000Y-112424000D01*
X135969000Y-112424000D02*
X135969000Y-109424000D01*
X135969000Y-109424000D02*
X135969000Y-109100000D01*
D53*
X124800000Y-155800000D02*
X124185500Y-155800000D01*
X124185500Y-155800000D02*
X123909000Y-155523500D01*
X123909000Y-155523500D02*
X123909000Y-154698000D01*
D51*
X154000000Y-137500000D02*
X155331000Y-137500000D01*
X155331000Y-137500000D02*
X155786000Y-137045000D01*
X155786000Y-137045000D02*
X155786000Y-135140000D01*
X155786000Y-135100000D02*
X156080000Y-135100000D01*
X154935000Y-135100000D02*
X155786000Y-135100000D01*
D54*
X155786000Y-135100000D02*
X155786000Y-135140000D01*
D52*
X119310000Y-152780000D02*
X118943000Y-152780000D01*
X118943000Y-152780000D02*
X118321000Y-152158000D01*
X118321000Y-152158000D02*
X118321000Y-150126000D01*
X118321000Y-150126000D02*
X119597000Y-148850000D01*
X119597000Y-148850000D02*
X120295000Y-148850000D01*
D51*
X156080000Y-135100000D02*
X156294000Y-134886000D01*
X156294000Y-134886000D02*
X156294000Y-129099000D01*
X156294000Y-129099000D02*
X155195000Y-128000000D01*
X154000000Y-129100000D02*
X154145000Y-129100000D01*
X154145000Y-129100000D02*
X155195000Y-128050000D01*
X155195000Y-128050000D02*
X155195000Y-128000000D01*
X154000000Y-135100000D02*
X154935000Y-135100000D01*
X123000000Y-121500000D02*
X123000000Y-122694000D01*
X123000000Y-122694000D02*
X123000000Y-124492000D01*
D52*
X121995000Y-148850000D02*
X122735000Y-148850000D01*
X122735000Y-148850000D02*
X122855000Y-148970000D01*
D54*
X124250000Y-114200000D02*
X123800000Y-114200000D01*
X127397200Y-114200000D02*
X124250000Y-114200000D01*
X128199240Y-115002040D02*
X127397200Y-114200000D01*
D51*
X139650000Y-120500000D02*
X139650000Y-121558000D01*
X134704000Y-124218000D02*
X135535000Y-123387000D01*
X135535000Y-123387000D02*
X135535000Y-122440000D01*
X133561000Y-124218000D02*
X134704000Y-124218000D01*
X133180000Y-123837000D02*
X133561000Y-124218000D01*
X133180000Y-123490000D02*
X133180000Y-123837000D01*
X133630000Y-122440000D02*
X133630000Y-123040000D01*
X133630000Y-123040000D02*
X133180000Y-123490000D01*
X123000000Y-124492000D02*
X122560000Y-124932000D01*
X122560000Y-124932000D02*
X122560000Y-126900000D01*
D52*
X123800000Y-112900000D02*
X123800000Y-112008000D01*
X123800000Y-112008000D02*
X124582000Y-111226000D01*
X124582000Y-111226000D02*
X124582000Y-109100000D01*
D54*
X130198220Y-116500640D02*
X129200000Y-116500640D01*
D53*
X108100000Y-111950000D02*
X108100000Y-109128000D01*
X108100000Y-109128000D02*
X108072000Y-109100000D01*
D52*
X134107000Y-109100000D02*
X134996000Y-109100000D01*
X132200000Y-109100000D02*
X134107000Y-109100000D01*
X134996000Y-109100000D02*
X135969000Y-109100000D01*
D51*
X123000000Y-115500000D02*
X123000000Y-115094000D01*
X123000000Y-115094000D02*
X123274000Y-114820000D01*
X123274000Y-114820000D02*
X123730000Y-114820000D01*
X123730000Y-114820000D02*
X123800000Y-114750000D01*
X123800000Y-114750000D02*
X123800000Y-114200000D01*
D53*
X154000000Y-129100000D02*
X154000000Y-130300000D01*
D52*
X147885000Y-119125000D02*
X149931000Y-119125000D01*
X149931000Y-119125000D02*
X150579000Y-119773000D01*
D51*
X121220000Y-152780000D02*
X121220000Y-154680000D01*
X121220000Y-154680000D02*
X121215000Y-154685000D01*
X119310000Y-152780000D02*
X121220000Y-152780000D01*
X122855000Y-148970000D02*
X122855000Y-147700000D01*
D54*
X128699620Y-115502420D02*
X128199240Y-115002040D01*
X128699620Y-115502420D02*
X128702160Y-115502420D01*
X128702160Y-115502420D02*
X129200000Y-116000260D01*
X129200000Y-116500640D02*
X129200000Y-116000260D01*
D51*
X123800000Y-114200000D02*
X123800000Y-112900000D01*
X123000000Y-116700000D02*
X123000000Y-115500000D01*
X123000000Y-117900000D02*
X123000000Y-116700000D01*
X123000000Y-117900000D02*
X123000000Y-119100000D01*
X123000000Y-120300000D02*
X123000000Y-119100000D01*
X123000000Y-121500000D02*
X123000000Y-120300000D01*
X132200000Y-109100000D02*
X132200000Y-111609000D01*
X132200000Y-111609000D02*
X132164000Y-111645000D01*
D52*
X147885000Y-119125000D02*
X147885000Y-117855000D01*
X147885000Y-121030000D02*
X147885000Y-119125000D01*
D51*
X139500000Y-116000000D02*
X139650000Y-115850000D01*
X139650000Y-115850000D02*
X139650000Y-115200000D01*
X139200000Y-116000000D02*
X139500000Y-116000000D01*
X138900000Y-116300000D02*
X139200000Y-116000000D01*
X138900000Y-116600000D02*
X138900000Y-116300000D01*
X139650000Y-114000000D02*
X139650000Y-115200000D01*
D52*
X138900000Y-116600000D02*
X138900000Y-117000000D01*
X138900000Y-117000000D02*
X138900000Y-117800000D01*
D54*
X134696560Y-117001020D02*
X138898980Y-117001020D01*
X138898980Y-117001020D02*
X138900000Y-117000000D01*
X134196180Y-117498860D02*
X134198720Y-117498860D01*
X134198720Y-117498860D02*
X134696560Y-117001020D01*
X134196180Y-117498860D02*
X133695800Y-117498860D01*
X134696560Y-117999240D02*
X134196180Y-117498860D01*
X130198220Y-116500640D02*
X130699360Y-116500640D01*
X130699360Y-116500640D02*
X130900000Y-116300000D01*
X130698600Y-117001020D02*
X130698600Y-116501400D01*
X130698600Y-116501400D02*
X130900000Y-116300000D01*
D53*
X123909000Y-154698000D02*
X123909000Y-154444000D01*
X124800000Y-154700000D02*
X123911000Y-154700000D01*
X123911000Y-154700000D02*
X123909000Y-154698000D01*
X123909000Y-154444000D02*
X124153000Y-154200000D01*
X124153000Y-154200000D02*
X124800000Y-154200000D01*
D54*
X132197200Y-114797200D02*
X132402040Y-115002040D01*
X132402040Y-115002040D02*
X132697580Y-115002040D01*
X132197200Y-114501660D02*
X132197200Y-114797200D01*
X132197200Y-114501660D02*
X132197200Y-114006776D01*
X132197200Y-114006776D02*
X132200022Y-114003954D01*
D53*
X101600000Y-120900000D02*
X102366500Y-120900000D01*
X102366500Y-120900000D02*
X103017500Y-121551000D01*
X103017500Y-121551000D02*
X103017500Y-123075000D01*
X103017500Y-123075000D02*
X104342500Y-124400000D01*
X104342500Y-124400000D02*
X109300000Y-124400000D01*
D51*
X94300000Y-144950000D02*
X94953000Y-144950000D01*
X94953000Y-144950000D02*
X95675000Y-144950000D01*
X108669000Y-132727000D02*
X109227000Y-132727000D01*
X109227000Y-132727000D02*
X109300000Y-132800000D01*
X95711620Y-138218400D02*
X95711620Y-138950000D01*
X95711620Y-138950000D02*
X95711620Y-139361620D01*
X109300000Y-125234000D02*
X109300000Y-124950000D01*
X109300000Y-126100000D02*
X109300000Y-125234000D01*
X95700000Y-144975000D02*
X95700000Y-146174000D01*
X95700000Y-146174000D02*
X95926000Y-146400000D01*
X95926000Y-146400000D02*
X96250000Y-146400000D01*
X95675000Y-144950000D02*
X95700000Y-144975000D01*
X95750000Y-139400000D02*
X95750000Y-140400000D01*
X95750000Y-140400000D02*
X96450000Y-141100000D01*
X95711620Y-139361620D02*
X95750000Y-139400000D01*
X108050000Y-134725000D02*
X109075000Y-134725000D01*
X109075000Y-134725000D02*
X109300000Y-134500000D01*
X109300000Y-134500000D02*
X109300000Y-133350000D01*
X109300000Y-133350000D02*
X109300000Y-132800000D01*
D53*
X100400000Y-120900000D02*
X101600000Y-120900000D01*
X99143000Y-120900000D02*
X100400000Y-120900000D01*
X97943000Y-120900000D02*
X99143000Y-120900000D01*
X96743000Y-120900000D02*
X97943000Y-120900000D01*
X95499000Y-120890000D02*
X96733000Y-120890000D01*
X96733000Y-120890000D02*
X96743000Y-120900000D01*
D51*
X112100000Y-122900000D02*
X114100000Y-122900000D01*
X110600000Y-122900000D02*
X112100000Y-122900000D01*
X109300000Y-123333000D02*
X109733000Y-122900000D01*
X109733000Y-122900000D02*
X110600000Y-122900000D01*
X109300000Y-124400000D02*
X109300000Y-123333000D01*
X108050000Y-126325000D02*
X109075000Y-126325000D01*
X109075000Y-126325000D02*
X109300000Y-126100000D01*
X109300000Y-124950000D02*
X109300000Y-124400000D01*
D53*
X94150000Y-121465000D02*
X94725000Y-120890000D01*
X94725000Y-120890000D02*
X95499000Y-120890000D01*
X94150000Y-122100000D02*
X94150000Y-121465000D01*
D52*
X112479000Y-118630000D02*
X113100000Y-118009000D01*
X113100000Y-118009000D02*
X113100000Y-115850000D01*
X108288000Y-118630000D02*
X112479000Y-118630000D01*
X107270000Y-117612000D02*
X108288000Y-118630000D01*
X107270000Y-115050000D02*
X107270000Y-117612000D01*
X111100000Y-112400000D02*
X112472000Y-112400000D01*
X112472000Y-112400000D02*
X113100000Y-113028000D01*
X113100000Y-113028000D02*
X113100000Y-114950000D01*
X113100000Y-114950000D02*
X113100000Y-115850000D01*
X109600000Y-110900000D02*
X111100000Y-110900000D01*
X111100000Y-112400000D02*
X111100000Y-110900000D01*
D51*
X121400000Y-117800000D02*
X119700000Y-117800000D01*
X119700000Y-117800000D02*
X119600000Y-117900000D01*
X122258000Y-128663000D02*
X122813000Y-128663000D01*
X122813000Y-128663000D02*
X122850000Y-128700000D01*
X140800000Y-125234000D02*
X140165000Y-124599000D01*
X140165000Y-124599000D02*
X140165000Y-123710000D01*
X140800000Y-125615000D02*
X140800000Y-125234000D01*
X140800000Y-125615000D02*
X141435000Y-126250000D01*
X140165000Y-126250000D02*
X140800000Y-125615000D01*
D53*
X157246500Y-116344000D02*
X155469000Y-116344000D01*
X155469000Y-116344000D02*
X155435000Y-116310000D01*
D52*
X151485000Y-116260000D02*
X152230000Y-116260000D01*
X152230000Y-116260000D02*
X153385000Y-116260000D01*
X153435000Y-116310000D02*
X155435000Y-116310000D01*
X153385000Y-116260000D02*
X153435000Y-116310000D01*
X150835000Y-116260000D02*
X151485000Y-116260000D01*
X150185000Y-116260000D02*
X150835000Y-116260000D01*
D51*
X119300000Y-136250000D02*
X119300000Y-137300000D01*
X119300000Y-136250000D02*
X122100000Y-136250000D01*
X122100000Y-136250000D02*
X122300000Y-136050000D01*
X125210000Y-136410000D02*
X124850000Y-136050000D01*
X124850000Y-136050000D02*
X122300000Y-136050000D01*
X126195000Y-136410000D02*
X125210000Y-136410000D01*
X118400000Y-140200000D02*
X118650000Y-140450000D01*
X118650000Y-140450000D02*
X119300000Y-140450000D01*
X118400000Y-137800000D02*
X118400000Y-140200000D01*
X118400000Y-137800000D02*
X118400000Y-135500000D01*
X118750000Y-135150000D02*
X119300000Y-135150000D01*
X118400000Y-135500000D02*
X118750000Y-135150000D01*
X126195000Y-137680000D02*
X125120000Y-137680000D01*
X125120000Y-137680000D02*
X125000000Y-137800000D01*
X119300000Y-139350000D02*
X119300000Y-138200000D01*
X122300000Y-139750000D02*
X120550000Y-139750000D01*
X120550000Y-139750000D02*
X120200000Y-139400000D01*
X119350000Y-139400000D02*
X119300000Y-139350000D01*
X120200000Y-139400000D02*
X119350000Y-139400000D01*
X125450000Y-138950000D02*
X124650000Y-139750000D01*
X124650000Y-139750000D02*
X122300000Y-139750000D01*
X126195000Y-138950000D02*
X125450000Y-138950000D01*
X126195000Y-141490000D02*
X125310000Y-141490000D01*
X125310000Y-141490000D02*
X124750000Y-142050000D01*
X124750000Y-142050000D02*
X124350000Y-142050000D01*
X124350000Y-142050000D02*
X123100000Y-142050000D01*
X121100000Y-142900000D02*
X121100000Y-141900000D01*
X121850000Y-142050000D02*
X121700000Y-141900000D01*
X121700000Y-141900000D02*
X121100000Y-141900000D01*
X123100000Y-142050000D02*
X121850000Y-142050000D01*
X120000000Y-143200000D02*
X120000000Y-144850000D01*
X120000000Y-144850000D02*
X119950000Y-144900000D01*
X120000000Y-143200000D02*
X120000000Y-141900000D01*
X126195000Y-142760000D02*
X125640000Y-142760000D01*
X125640000Y-142760000D02*
X125200000Y-143200000D01*
X121600000Y-144850000D02*
X121100000Y-144850000D01*
X121100000Y-144850000D02*
X121050000Y-144900000D01*
X123100000Y-144550000D02*
X121900000Y-144550000D01*
X121900000Y-144550000D02*
X121600000Y-144850000D01*
X121100000Y-143800000D02*
X121100000Y-144850000D01*
X123100000Y-144550000D02*
X124850000Y-144550000D01*
X124850000Y-144550000D02*
X125370000Y-144030000D01*
X125370000Y-144030000D02*
X126195000Y-144030000D01*
D53*
X155445000Y-143050000D02*
X155095000Y-143050000D01*
X157895000Y-143050000D02*
X155445000Y-143050000D01*
X155095000Y-143050000D02*
X154845000Y-143300000D01*
X154845000Y-143300000D02*
X154845000Y-144150000D01*
X158195000Y-143350000D02*
X157895000Y-143050000D01*
X158195000Y-144200000D02*
X158195000Y-143350000D01*
X154845000Y-144150000D02*
X153445000Y-144150000D01*
X153445000Y-144150000D02*
X153395000Y-144200000D01*
D51*
X150623603Y-123321401D02*
X150395004Y-123550000D01*
X151275449Y-119694439D02*
X151275449Y-122669555D01*
X147435000Y-115853990D02*
X151275449Y-119694439D01*
X151275449Y-122669555D02*
X150623603Y-123321401D01*
X147935000Y-114610000D02*
X147435000Y-115110000D01*
X147435000Y-115110000D02*
X147435000Y-115853990D01*
X148035000Y-114610000D02*
X147935000Y-114610000D01*
X149885000Y-123550000D02*
X150071715Y-123550000D01*
X149785000Y-123650000D02*
X149885000Y-123550000D01*
X150071715Y-123550000D02*
X150395004Y-123550000D01*
X140800000Y-121400000D02*
X140800000Y-120600000D01*
X140800000Y-122000000D02*
X140800000Y-121400000D01*
X141943000Y-153047000D02*
X141403000Y-153047000D01*
X141403000Y-153047000D02*
X141350000Y-153100000D01*
D53*
X145245000Y-135140000D02*
X145880000Y-134505000D01*
X145245000Y-133870000D02*
X144610000Y-133235000D01*
X143975000Y-133870000D02*
X144610000Y-133235000D01*
X142705000Y-133870000D02*
X143340000Y-133235000D01*
X109749170Y-155460000D02*
X108605500Y-156603670D01*
X120924500Y-155777500D02*
X120607000Y-155460000D01*
X108605500Y-156851211D02*
X108605500Y-157174500D01*
X121559500Y-155777500D02*
X120924500Y-155777500D01*
X129814500Y-155142500D02*
X127973000Y-156984000D01*
X120607000Y-155460000D02*
X109749170Y-155460000D01*
X108605500Y-156603670D02*
X108605500Y-156851211D01*
X122766000Y-156984000D02*
X121559500Y-155777500D01*
X127973000Y-156984000D02*
X122766000Y-156984000D01*
X138950000Y-154850000D02*
X137879000Y-155921000D01*
X135466000Y-155142500D02*
X136244500Y-155921000D01*
X136244500Y-155921000D02*
X137879000Y-155921000D01*
X138950000Y-154450000D02*
X138950000Y-154850000D01*
X140550000Y-154500000D02*
X139000000Y-154500000D01*
X139000000Y-154500000D02*
X138950000Y-154450000D01*
X140165000Y-152285000D02*
X140450000Y-152570000D01*
X140450000Y-152570000D02*
X140450000Y-153100000D01*
X139911000Y-152285000D02*
X140165000Y-152285000D01*
X138895000Y-151269000D02*
X139911000Y-152285000D01*
X138895000Y-150380000D02*
X138895000Y-151269000D01*
D51*
X140450000Y-153100000D02*
X140450000Y-154400000D01*
X140450000Y-154400000D02*
X140550000Y-154500000D01*
D54*
X129200000Y-119000000D02*
X129200000Y-122400000D01*
X129200000Y-122400000D02*
X129300000Y-122500000D01*
X129200000Y-118499620D02*
X129200000Y-119000000D01*
D53*
X129300000Y-122500000D02*
X129300000Y-124000000D01*
D51*
X90607270Y-124580730D02*
X91000000Y-124188000D01*
X91000000Y-124188000D02*
X91000000Y-123550000D01*
X90607270Y-126791000D02*
X90607270Y-124580730D01*
X91510460Y-127019540D02*
X90835810Y-127019540D01*
X90835810Y-127019540D02*
X90607270Y-126791000D01*
D52*
X91000000Y-122450000D02*
X91000000Y-119176000D01*
X91000000Y-119176000D02*
X91576000Y-118600000D01*
D51*
X91510460Y-136818860D02*
X90835810Y-136818860D01*
X90835810Y-136818860D02*
X90597000Y-137057670D01*
X90597000Y-137057670D02*
X90597000Y-139079000D01*
X90597000Y-139079000D02*
X90850000Y-139332000D01*
X90850000Y-139332000D02*
X91400000Y-139332000D01*
X93300000Y-140300000D02*
X93300000Y-139694000D01*
X93300000Y-139694000D02*
X92938000Y-139332000D01*
X92938000Y-139332000D02*
X91400000Y-139332000D01*
X94795000Y-146726890D02*
X94795000Y-147526000D01*
X93997000Y-146591000D02*
X94659110Y-146591000D01*
X94659110Y-146591000D02*
X94795000Y-146726890D01*
X92997000Y-145591000D02*
X93997000Y-146591000D01*
X92997000Y-142303000D02*
X92997000Y-145591000D01*
X93300000Y-141400000D02*
X93300000Y-142000000D01*
X93300000Y-142000000D02*
X92997000Y-142303000D01*
D52*
X113000000Y-110900000D02*
X115600000Y-110900000D01*
X115600000Y-114400000D02*
X115600000Y-110900000D01*
X115600000Y-117900000D02*
X115600000Y-114400000D01*
D51*
X105600000Y-148600000D02*
X105600000Y-147400000D01*
X102995000Y-150200000D02*
X105600000Y-150200000D01*
X105600000Y-152500000D02*
X105600000Y-153700000D01*
X105600000Y-155300000D02*
X102800000Y-155300000D01*
D53*
X145245000Y-151523000D02*
X145245000Y-150380000D01*
X141435000Y-146570000D02*
X142070000Y-145935000D01*
X140165000Y-149110000D02*
X140800000Y-148475000D01*
X145880000Y-149745000D02*
X145245000Y-150380000D01*
X146515000Y-150380000D02*
X145880000Y-149745000D01*
X141435000Y-145300000D02*
X142070000Y-144665000D01*
X140165000Y-150380000D02*
X140800000Y-149745000D01*
X143975000Y-150380000D02*
X144610000Y-149745000D01*
X142705000Y-150380000D02*
X142705000Y-151566278D01*
X142705000Y-151566278D02*
X145374732Y-154236010D01*
X145374732Y-154236010D02*
X149808990Y-154236010D01*
X149808990Y-154236010D02*
X151845000Y-152200000D01*
X151845000Y-152200000D02*
X151845000Y-142350000D01*
X152445000Y-141750000D02*
X156895000Y-141750000D01*
X157595000Y-129695600D02*
X158500600Y-128790000D01*
X151845000Y-142350000D02*
X152445000Y-141750000D01*
X156895000Y-141750000D02*
X157595000Y-141050000D01*
X157595000Y-141050000D02*
X157595000Y-129695600D01*
X158500600Y-128790000D02*
X158834000Y-128456600D01*
X141435000Y-150380000D02*
X141435000Y-151185278D01*
X150623990Y-154871010D02*
X152645000Y-152850000D01*
X152645000Y-152850000D02*
X152645000Y-142950000D01*
X141435000Y-151185278D02*
X145120732Y-154871010D01*
X158453000Y-130187000D02*
X158151390Y-130488610D01*
X145120732Y-154871010D02*
X150623990Y-154871010D01*
X152645000Y-142950000D02*
X153045000Y-142550000D01*
X158151390Y-130488610D02*
X158151390Y-131838000D01*
X153045000Y-142550000D02*
X157445000Y-142550000D01*
X158961000Y-130187000D02*
X158453000Y-130187000D01*
X157445000Y-142550000D02*
X159007009Y-140987991D01*
X159007009Y-140987991D02*
X159007009Y-131156991D01*
X159007009Y-131156991D02*
X159135601Y-131028399D01*
X159135601Y-130361601D02*
X158961000Y-130187000D01*
X159135601Y-131028399D02*
X159135601Y-130361601D01*
X137625000Y-150380000D02*
X138260000Y-149745000D01*
X136355000Y-150380000D02*
X136990000Y-149745000D01*
X135085000Y-150380000D02*
X135720000Y-149745000D01*
X133815000Y-150380000D02*
X134450000Y-149745000D01*
X132545000Y-150380000D02*
X132545000Y-153205000D01*
X132545000Y-153205000D02*
X132500000Y-153250000D01*
X131910000Y-149745000D02*
X131275000Y-150380000D01*
X130005000Y-150380000D02*
X130640000Y-149745000D01*
X145245000Y-147840000D02*
X145880000Y-147205000D01*
X127465000Y-150380000D02*
X128100000Y-149745000D01*
X127243575Y-151428575D02*
X127243575Y-151514857D01*
X126195000Y-150380000D02*
X127243575Y-151428575D01*
X136525000Y-153800000D02*
X136228000Y-153503000D01*
X136228000Y-153503000D02*
X135974000Y-153249000D01*
X137050000Y-153800000D02*
X136525000Y-153800000D01*
X135974000Y-153249000D02*
X135974000Y-151777000D01*
X132919649Y-149484649D02*
X132545000Y-149110000D01*
X135974000Y-151777000D02*
X135466000Y-151269000D01*
X133169651Y-149734651D02*
X132919649Y-149484649D01*
X135466000Y-151269000D02*
X133561000Y-151269000D01*
X133561000Y-151269000D02*
X133169651Y-150877651D01*
X133169651Y-150877651D02*
X133169651Y-149734651D01*
X146515000Y-149110000D02*
X147150000Y-149745000D01*
X147150000Y-149745000D02*
X147150000Y-153100000D01*
X126830000Y-148475000D02*
X126195000Y-149110000D01*
X145245000Y-149110000D02*
X145880000Y-148475000D01*
X144610000Y-148475000D02*
X143975000Y-149110000D01*
X142705000Y-149110000D02*
X143340000Y-149745000D01*
X143340000Y-149745000D02*
X143340000Y-151777000D01*
X151445000Y-141800000D02*
X151895000Y-141350000D01*
X143340000Y-151777000D02*
X145499000Y-153936000D01*
X145499000Y-153936000D02*
X149409000Y-153936000D01*
X157070010Y-140809320D02*
X157070010Y-128707632D01*
X149409000Y-153936000D02*
X151445000Y-151900000D01*
X151445000Y-151900000D02*
X151445000Y-141800000D01*
X151895000Y-141350000D02*
X156529330Y-141350000D01*
X157070010Y-128707632D02*
X157462401Y-128315241D01*
X156529330Y-141350000D02*
X157070010Y-140809320D01*
X157462401Y-128315241D02*
X157691000Y-128086642D01*
X141435000Y-149110000D02*
X142070000Y-149745000D01*
X142070000Y-149745000D02*
X142070000Y-151396000D01*
X142070000Y-151396000D02*
X145245000Y-154571000D01*
X145245000Y-154571000D02*
X150224000Y-154571000D01*
X150224000Y-154571000D02*
X152245000Y-152550000D01*
X152245000Y-152550000D02*
X152245000Y-142650000D01*
X152245000Y-142650000D02*
X152795000Y-142100000D01*
X152795000Y-142100000D02*
X157095000Y-142100000D01*
X157095000Y-142100000D02*
X158580000Y-140615000D01*
X158580000Y-140615000D02*
X158580000Y-131272289D01*
X158580000Y-131272289D02*
X158707000Y-131145289D01*
X158707000Y-131145289D02*
X158707000Y-130822000D01*
X138895000Y-149110000D02*
X139530000Y-148475000D01*
X137625000Y-149110000D02*
X138260000Y-148475000D01*
X136990000Y-148475000D02*
X136355000Y-149110000D01*
X131200000Y-153250000D02*
X131200000Y-152423500D01*
X131200000Y-152423500D02*
X131211500Y-152412000D01*
X135085000Y-149110000D02*
X135720000Y-148475000D01*
X133815000Y-149110000D02*
X134450000Y-148475000D01*
X131275000Y-149110000D02*
X131910000Y-148475000D01*
X130005000Y-149110000D02*
X130640000Y-148475000D01*
X127465000Y-149110000D02*
X128735000Y-149110000D01*
X144610000Y-147205000D02*
X143975000Y-147840000D01*
X127465000Y-146570000D02*
X128100000Y-145935000D01*
X142705000Y-147840000D02*
X143340000Y-147205000D01*
X141435000Y-147840000D02*
X142070000Y-147205000D01*
X140165000Y-147840000D02*
X140800000Y-147205000D01*
X137625000Y-147840000D02*
X138260000Y-147205000D01*
X136355000Y-147840000D02*
X136990000Y-147205000D01*
X135085000Y-147840000D02*
X135720000Y-147205000D01*
X133815000Y-147840000D02*
X134450000Y-147205000D01*
X132545000Y-147840000D02*
X133180000Y-147205000D01*
X121496000Y-146443000D02*
X123909000Y-146443000D01*
X123909000Y-146443000D02*
X124417000Y-146951000D01*
X120480000Y-147459000D02*
X121496000Y-146443000D01*
X119718000Y-147459000D02*
X120480000Y-147459000D01*
X116289000Y-150888000D02*
X119718000Y-147459000D01*
X115019000Y-152158000D02*
X116289000Y-150888000D01*
X112098000Y-152158000D02*
X115019000Y-152158000D01*
X110929599Y-153326401D02*
X112098000Y-152158000D01*
X110701000Y-153809000D02*
X110929599Y-153580401D01*
X110929599Y-153580401D02*
X110929599Y-153326401D01*
D51*
X123755000Y-148970000D02*
X123755000Y-150570000D01*
X123755000Y-150570000D02*
X123745000Y-150580000D01*
X123745000Y-150580000D02*
X123120000Y-150580000D01*
D53*
X131275000Y-147840000D02*
X131910000Y-147205000D01*
X123755000Y-148970000D02*
X125065000Y-148970000D01*
X125065000Y-148970000D02*
X126195000Y-147840000D01*
D51*
X121220000Y-147380000D02*
X121220000Y-148221000D01*
X121220000Y-148221000D02*
X121220000Y-150580000D01*
D53*
X112351330Y-152539000D02*
X115271590Y-152539000D01*
X115271590Y-152539000D02*
X119589590Y-148221000D01*
X119589590Y-148221000D02*
X121220000Y-148221000D01*
X111336000Y-153936000D02*
X111336000Y-153554330D01*
X111336000Y-153554330D02*
X112351330Y-152539000D01*
X127465000Y-147840000D02*
X128100000Y-147205000D01*
D51*
X121800000Y-146800000D02*
X121220000Y-147380000D01*
X123455000Y-146800000D02*
X121800000Y-146800000D01*
X123755000Y-147700000D02*
X123755000Y-147100000D01*
X123755000Y-147100000D02*
X123455000Y-146800000D01*
D53*
X130005000Y-147840000D02*
X130640000Y-147205000D01*
X124925000Y-147205000D02*
X124430000Y-147700000D01*
X124430000Y-147700000D02*
X123755000Y-147700000D01*
X126830000Y-147205000D02*
X124925000Y-147205000D01*
X127465000Y-147840000D02*
X126830000Y-147205000D01*
D51*
X129800000Y-152400000D02*
X129800000Y-153150000D01*
X129800000Y-153150000D02*
X129900000Y-153250000D01*
D53*
X128735000Y-147840000D02*
X129370000Y-147205000D01*
X153395000Y-148800000D02*
X153395000Y-147650000D01*
X153395000Y-147650000D02*
X155195000Y-147650000D01*
X155195000Y-147650000D02*
X155795000Y-147650000D01*
X155795000Y-147650000D02*
X155795000Y-146150000D01*
X137895000Y-110950000D02*
X137895000Y-111350000D01*
X137895000Y-111350000D02*
X137395000Y-111850000D01*
X141195000Y-110950000D02*
X142695000Y-110950000D01*
X136945000Y-108850000D02*
X136945000Y-110000000D01*
X136945000Y-110000000D02*
X137895000Y-110950000D01*
X137895000Y-110950000D02*
X140545000Y-110950000D01*
X140545000Y-110950000D02*
X141195000Y-110950000D01*
D51*
X138950000Y-153150000D02*
X138950000Y-152405000D01*
X138950000Y-152405000D02*
X138895000Y-152350000D01*
D53*
X140165000Y-145300000D02*
X140800000Y-144665000D01*
X131275000Y-135140000D02*
X131910000Y-134505000D01*
X131275000Y-132600000D02*
X131910000Y-131965000D01*
X138895000Y-146570000D02*
X140165000Y-145300000D01*
X136355000Y-146570000D02*
X136990000Y-145935000D01*
X135100000Y-153250000D02*
X135100000Y-151918996D01*
X135100000Y-151918996D02*
X135085000Y-151903996D01*
X135720000Y-145935000D02*
X135085000Y-146570000D01*
X133800000Y-151919000D02*
X133815000Y-151904000D01*
X133800000Y-153250000D02*
X133800000Y-151919000D01*
X134450000Y-145935000D02*
X133815000Y-146570000D01*
X132545000Y-146570000D02*
X133180000Y-145935000D01*
X131275000Y-146570000D02*
X131910000Y-145935000D01*
X130005000Y-146570000D02*
X130640000Y-145935000D01*
X128735000Y-146570000D02*
X129370000Y-145935000D01*
X126195000Y-146570000D02*
X125306000Y-146570000D01*
X125306000Y-146570000D02*
X124734500Y-145998500D01*
X124734500Y-145998500D02*
X112289170Y-145998500D01*
X112289170Y-145998500D02*
X110236000Y-148051670D01*
X110236000Y-148051670D02*
X110236000Y-152559500D01*
X110236000Y-152559500D02*
X108859500Y-153936000D01*
X142705000Y-145300000D02*
X143340000Y-144665000D01*
X125400000Y-153700000D02*
X125433000Y-153667000D01*
X125433000Y-151338289D02*
X125433000Y-151015000D01*
X124800000Y-153700000D02*
X125400000Y-153700000D01*
X125433000Y-153667000D02*
X125433000Y-151338289D01*
X132545000Y-145300000D02*
X133180000Y-144665000D01*
X124800000Y-153200000D02*
X124800000Y-150763000D01*
X124800000Y-150763000D02*
X124798000Y-150761000D01*
X131275000Y-145300000D02*
X131910000Y-144665000D01*
X143975000Y-144030000D02*
X144610000Y-143395000D01*
X138895000Y-144030000D02*
X139530000Y-143395000D01*
D51*
X148185000Y-111460000D02*
X148335000Y-111460000D01*
X148035000Y-111610000D02*
X148185000Y-111460000D01*
X148035000Y-112110000D02*
X148035000Y-111610000D01*
X149535000Y-112050000D02*
X148095000Y-112050000D01*
X148095000Y-112050000D02*
X148035000Y-112110000D01*
D53*
X132545000Y-144030000D02*
X133180000Y-143395000D01*
X130005000Y-144030000D02*
X130640000Y-143395000D01*
X128735000Y-144030000D02*
X129370000Y-143395000D01*
X132545000Y-142760000D02*
X133180000Y-142125000D01*
X131275000Y-142760000D02*
X131910000Y-142125000D01*
X130005000Y-142760000D02*
X130640000Y-142125000D01*
X128735000Y-142760000D02*
X129370000Y-142125000D01*
X145245000Y-141490000D02*
X145880000Y-140855000D01*
X117200000Y-128300000D02*
X117745000Y-128300000D01*
X117745000Y-128300000D02*
X117795000Y-128250000D01*
X131275000Y-141490000D02*
X131910000Y-140855000D01*
X116600000Y-139300000D02*
X117245000Y-139300000D01*
X117245000Y-139300000D02*
X117295000Y-139250000D01*
X128735000Y-141490000D02*
X129370000Y-140855000D01*
X117200000Y-130700000D02*
X117745000Y-130700000D01*
X117745000Y-130700000D02*
X117795000Y-130650000D01*
X131275000Y-140220000D02*
X131910000Y-139585000D01*
X117200000Y-124700000D02*
X117745000Y-124700000D01*
X117745000Y-124700000D02*
X117795000Y-124650000D01*
X130005000Y-140220000D02*
X130640000Y-139585000D01*
X117200000Y-125900000D02*
X117745000Y-125900000D01*
X117745000Y-125900000D02*
X117795000Y-125850000D01*
X128735000Y-140220000D02*
X129370000Y-139585000D01*
X117200000Y-127100000D02*
X117745000Y-127100000D01*
X117745000Y-127100000D02*
X117795000Y-127050000D01*
X132545000Y-138950000D02*
X133180000Y-138315000D01*
X116600000Y-136000000D02*
X117145000Y-136000000D01*
X117145000Y-136000000D02*
X117195000Y-135950000D01*
X130005000Y-138950000D02*
X130640000Y-138315000D01*
X116600000Y-134800000D02*
X117145000Y-134800000D01*
X117145000Y-134800000D02*
X117195000Y-134750000D01*
X128735000Y-138950000D02*
X129370000Y-138315000D01*
X117200000Y-129500000D02*
X117745000Y-129500000D01*
X117745000Y-129500000D02*
X117795000Y-129450000D01*
X132545000Y-137680000D02*
X133180000Y-137045000D01*
X113950000Y-134075000D02*
X114870000Y-134075000D01*
X114870000Y-134075000D02*
X115195000Y-133750000D01*
X131275000Y-137680000D02*
X131910000Y-137045000D01*
X113950000Y-137975000D02*
X115870000Y-137975000D01*
X115870000Y-137975000D02*
X115895000Y-137950000D01*
X130005000Y-137680000D02*
X130640000Y-137045000D01*
D54*
X108900000Y-141400000D02*
X109545000Y-141400000D01*
X109545000Y-141400000D02*
X109595000Y-141350000D01*
D53*
X128735000Y-137680000D02*
X129370000Y-137045000D01*
X113950000Y-137325000D02*
X115677199Y-137325000D01*
X115677199Y-137325000D02*
X115702199Y-137350000D01*
X111971000Y-137807000D02*
X112453000Y-137325000D01*
X112453000Y-137325000D02*
X113950000Y-137325000D01*
X111971000Y-141871000D02*
X111971000Y-137807000D01*
X113100000Y-142600000D02*
X112700000Y-142600000D01*
X112700000Y-142600000D02*
X111971000Y-141871000D01*
X130005000Y-136410000D02*
X130640000Y-135775000D01*
X115913781Y-138588308D02*
X113986692Y-138588308D01*
X113986692Y-138588308D02*
X113950000Y-138625000D01*
X112352000Y-141236000D02*
X112516000Y-141400000D01*
X112516000Y-141400000D02*
X113100000Y-141400000D01*
X112352000Y-139298000D02*
X112352000Y-141236000D01*
X113950000Y-138625000D02*
X113025000Y-138625000D01*
X113025000Y-138625000D02*
X112352000Y-139298000D01*
X128735000Y-136410000D02*
X129370000Y-135775000D01*
D52*
X158580000Y-120205000D02*
X158580000Y-120719709D01*
X158580000Y-120719709D02*
X158580000Y-121042998D01*
X156585000Y-118210000D02*
X158580000Y-120205000D01*
X155435000Y-118210000D02*
X156585000Y-118210000D01*
D54*
X133200000Y-133200000D02*
X133200000Y-133215000D01*
X133200000Y-133215000D02*
X132545000Y-133870000D01*
X123750000Y-128700000D02*
X124300000Y-128700000D01*
X124300000Y-128700000D02*
X124400000Y-128800000D01*
D53*
X131275000Y-133870000D02*
X131910000Y-133235000D01*
D54*
X130600000Y-133275000D02*
X130600000Y-133200000D01*
X130005000Y-133870000D02*
X130600000Y-133275000D01*
X123750000Y-129900000D02*
X124300000Y-129900000D01*
X124300000Y-129900000D02*
X124400000Y-129800000D01*
X151310201Y-132715201D02*
X151310201Y-132938212D01*
X151310201Y-132938212D02*
X151081602Y-133166811D01*
X151295000Y-132700000D02*
X151310201Y-132715201D01*
X151187000Y-132700000D02*
X151295000Y-132700000D01*
X151295000Y-132700000D02*
X153100000Y-132700000D01*
X151087000Y-132600000D02*
X151187000Y-132700000D01*
X150325000Y-132600000D02*
X151087000Y-132600000D01*
X152160711Y-133869990D02*
X152484000Y-133869990D01*
X149055000Y-132600000D02*
X149690000Y-133235000D01*
X149690000Y-133235000D02*
X150579000Y-133235000D01*
X150579000Y-133235000D02*
X151213990Y-133869990D01*
X151213990Y-133869990D02*
X152160711Y-133869990D01*
X153100000Y-133900000D02*
X152514010Y-133900000D01*
X152514010Y-133900000D02*
X152484000Y-133869990D01*
X152159599Y-134688599D02*
X152571000Y-135100000D01*
X152571000Y-135100000D02*
X153100000Y-135100000D01*
X151973209Y-134688599D02*
X152159599Y-134688599D01*
X151973209Y-134688599D02*
X151744610Y-134460000D01*
X153100000Y-136300000D02*
X153100000Y-135815390D01*
X153100000Y-135100000D02*
X153100000Y-136300000D01*
X148420000Y-131965000D02*
X147785000Y-132600000D01*
X151744610Y-135694610D02*
X151744610Y-135583289D01*
X153100000Y-137500000D02*
X153100000Y-137050000D01*
X153100000Y-137050000D02*
X151744610Y-135694610D01*
X151744610Y-135583289D02*
X151744610Y-135260000D01*
X147150000Y-131965000D02*
X146515000Y-132600000D01*
X145245000Y-132600000D02*
X145880000Y-131965000D01*
X143975000Y-132600000D02*
X144610000Y-131965000D01*
D53*
X142705000Y-132600000D02*
X143340000Y-131965000D01*
D54*
X123900000Y-116725000D02*
X125052000Y-116725000D01*
X125077401Y-116750401D02*
X125306000Y-116979000D01*
X125052000Y-116725000D02*
X125077401Y-116750401D01*
X125328020Y-117001020D02*
X125306000Y-116979000D01*
X128199240Y-117001020D02*
X125328020Y-117001020D01*
X141435000Y-132600000D02*
X142070000Y-131965000D01*
X133942000Y-123583000D02*
X134635000Y-122890000D01*
X134635000Y-122890000D02*
X134635000Y-122440000D01*
D53*
X140165000Y-132600000D02*
X140800000Y-131965000D01*
D54*
X133815000Y-120535000D02*
X134635000Y-121355000D01*
X134635000Y-121355000D02*
X134635000Y-122440000D01*
X132733980Y-120535000D02*
X133815000Y-120535000D01*
X131198980Y-119000000D02*
X132733980Y-120535000D01*
X130698600Y-118499620D02*
X131198980Y-119000000D01*
X130198220Y-117999240D02*
X130698600Y-118499620D01*
X129700380Y-117498860D02*
X129700380Y-117501400D01*
X129700380Y-117501400D02*
X130198220Y-117999240D01*
X129700380Y-117498860D02*
X129697840Y-117498860D01*
X129697840Y-117498860D02*
X129200000Y-117001020D01*
X128699620Y-117001020D02*
X129200000Y-117001020D01*
D53*
X136355000Y-132600000D02*
X136990000Y-131965000D01*
D54*
X151318390Y-138289116D02*
X151318390Y-137965827D01*
X152750000Y-139900000D02*
X151318390Y-138468390D01*
X151318390Y-138468390D02*
X151318390Y-138289116D01*
X153100000Y-139900000D02*
X152750000Y-139900000D01*
D53*
X135085000Y-132600000D02*
X135720000Y-131965000D01*
D54*
X142700000Y-119950000D02*
X141993000Y-119950000D01*
X141993000Y-119950000D02*
X141943000Y-119900000D01*
X133815000Y-132600000D02*
X134450000Y-131965000D01*
X153600000Y-128500000D02*
X154285366Y-128500000D01*
X154285366Y-128500000D02*
X154687218Y-128098148D01*
X153100000Y-129000000D02*
X153600000Y-128500000D01*
X154687218Y-128098148D02*
X154687218Y-124756324D01*
X154687218Y-124756324D02*
X154827868Y-124615674D01*
X153100000Y-129100000D02*
X153100000Y-129000000D01*
X154827868Y-124615674D02*
X155151157Y-124615674D01*
X153100000Y-129200000D02*
X153100000Y-129100000D01*
X150970000Y-131330000D02*
X153100000Y-129200000D01*
X150325000Y-131330000D02*
X150970000Y-131330000D01*
X152376876Y-130300000D02*
X152750000Y-130300000D01*
X151145000Y-131531876D02*
X152376876Y-130300000D01*
X152750000Y-130300000D02*
X153100000Y-130300000D01*
X151145000Y-131650000D02*
X151145000Y-131531876D01*
X151095000Y-131750000D02*
X151095000Y-131950000D01*
X151145000Y-131650000D02*
X151145000Y-131700000D01*
X151145000Y-131700000D02*
X151095000Y-131750000D01*
X150830000Y-131965000D02*
X151145000Y-131650000D01*
X149055000Y-131330000D02*
X149690000Y-131965000D01*
X149690000Y-131965000D02*
X150830000Y-131965000D01*
X153100000Y-131500000D02*
X151770640Y-131500000D01*
X151770640Y-131500000D02*
X151607820Y-131662820D01*
X147785000Y-131330000D02*
X148420000Y-130695000D01*
X151258289Y-130660000D02*
X150935000Y-130660000D01*
X152435000Y-129483289D02*
X151258289Y-130660000D01*
X152435000Y-128665000D02*
X152435000Y-129483289D01*
X153100000Y-128000000D02*
X152435000Y-128665000D01*
X153100000Y-127900000D02*
X153100000Y-128000000D01*
X153097000Y-127903000D02*
X153100000Y-127900000D01*
X146515000Y-131330000D02*
X147150000Y-130695000D01*
X153100000Y-138700000D02*
X153100000Y-138800000D01*
X155228583Y-121328599D02*
X154999984Y-121100000D01*
X156795000Y-122895016D02*
X155228583Y-121328599D01*
X156795000Y-137850000D02*
X156795000Y-122895016D01*
X155395000Y-139250000D02*
X156795000Y-137850000D01*
X153100000Y-138800000D02*
X153550000Y-139250000D01*
X153550000Y-139250000D02*
X155395000Y-139250000D01*
X151722000Y-138315000D02*
X151722000Y-137553000D01*
X153100000Y-138700000D02*
X152107000Y-138700000D01*
X151722000Y-137553000D02*
X151341002Y-137172002D01*
X152107000Y-138700000D02*
X151722000Y-138315000D01*
X151341002Y-137172002D02*
X151341002Y-137172000D01*
X145880000Y-130695000D02*
X145245000Y-131330000D01*
D53*
X143975000Y-131330000D02*
X144610000Y-130695000D01*
X142705000Y-131330000D02*
X143340000Y-130695000D01*
D54*
X125699240Y-121500000D02*
X127426240Y-119773000D01*
X127426240Y-119773000D02*
X128199240Y-119000000D01*
D53*
X141435000Y-131330000D02*
X142070000Y-130695000D01*
D54*
X128699620Y-118499620D02*
X128199240Y-119000000D01*
X123900000Y-121500000D02*
X125699240Y-121500000D01*
X128199240Y-115502420D02*
X124845420Y-115502420D01*
X124753000Y-115500000D02*
X124798000Y-115455000D01*
X123900000Y-115500000D02*
X124753000Y-115500000D01*
X124845420Y-115502420D02*
X124798000Y-115455000D01*
D53*
X140165000Y-131330000D02*
X140800000Y-130695000D01*
D54*
X128699620Y-116000260D02*
X128697080Y-116000260D01*
X128697080Y-116000260D02*
X128199240Y-115502420D01*
X128699620Y-116500640D02*
X128699620Y-116000260D01*
D53*
X138895000Y-131330000D02*
X139530000Y-130695000D01*
X137625000Y-131330000D02*
X138260000Y-130695000D01*
X136990000Y-130695000D02*
X136355000Y-131330000D01*
X135085000Y-131330000D02*
X135672400Y-130695000D01*
X135720000Y-130695000D02*
X135672400Y-130695000D01*
X152230000Y-137426668D02*
X152230000Y-137610711D01*
X152230000Y-137610711D02*
X152230000Y-137934000D01*
X151119999Y-134733599D02*
X151119999Y-136316667D01*
X151119999Y-136316667D02*
X152230000Y-137426668D01*
X150891400Y-134505000D02*
X151119999Y-134733599D01*
X133815000Y-131330000D02*
X134450000Y-130695000D01*
X132545000Y-131330000D02*
X133180000Y-130695000D01*
X148035000Y-115510000D02*
X148035000Y-115910000D01*
X148035000Y-115910000D02*
X148385000Y-116260000D01*
X148385000Y-116260000D02*
X149125000Y-116260000D01*
X149125000Y-116260000D02*
X149535000Y-116260000D01*
X148035000Y-115510000D02*
X148135000Y-115510000D01*
X149588401Y-117258401D02*
X149817000Y-117487000D01*
X149535000Y-117205000D02*
X149588401Y-117258401D01*
X149535000Y-116260000D02*
X149535000Y-117205000D01*
X131275000Y-131330000D02*
X131910000Y-130695000D01*
X130005000Y-131330000D02*
X130640000Y-130695000D01*
X151785500Y-118693500D02*
X152269000Y-118210000D01*
X152269000Y-118210000D02*
X153435000Y-118210000D01*
X151785500Y-119392000D02*
X151785500Y-118693500D01*
X128735000Y-131330000D02*
X129370000Y-130695000D01*
D54*
X153100000Y-126700000D02*
X152745000Y-126700000D01*
X152335009Y-128340712D02*
X152134989Y-128540732D01*
X152745000Y-126700000D02*
X152335009Y-127109991D01*
X152335009Y-127109991D02*
X152335009Y-128340712D01*
X152134989Y-128540732D02*
X152134989Y-129211455D01*
X152134989Y-129211455D02*
X151286444Y-130060000D01*
X150854835Y-130060000D02*
X150325000Y-130060000D01*
X151286444Y-130060000D02*
X150854835Y-130060000D01*
X153040000Y-126760000D02*
X153100000Y-126700000D01*
X153100000Y-125500000D02*
X152178500Y-125500000D01*
X152178500Y-125500000D02*
X152103000Y-125424500D01*
X150970870Y-129497602D02*
X150920070Y-129446802D01*
X153100000Y-125500000D02*
X153100000Y-125600000D01*
X153100000Y-125600000D02*
X152034998Y-126665002D01*
X149668198Y-129446802D02*
X149429649Y-129685351D01*
X152034998Y-126665002D02*
X152034998Y-128216444D01*
X151642202Y-128609240D02*
X151642202Y-129261730D01*
X152034998Y-128216444D02*
X151642202Y-128609240D01*
X151642202Y-129261730D02*
X151406330Y-129497602D01*
X151406330Y-129497602D02*
X150970870Y-129497602D01*
X150920070Y-129446802D02*
X149668198Y-129446802D01*
X149429649Y-129685351D02*
X149055000Y-130060000D01*
X151734987Y-127716403D02*
X151519989Y-127931401D01*
X151699399Y-125681729D02*
X151734987Y-125717317D01*
X151519989Y-127931401D02*
X151291390Y-128160000D01*
X151699399Y-125230771D02*
X151699399Y-125681729D01*
X153100000Y-124300000D02*
X152630170Y-124300000D01*
X151734987Y-125717317D02*
X151734987Y-127716403D01*
X152630170Y-124300000D02*
X151699399Y-125230771D01*
X148420000Y-129425000D02*
X147785000Y-130060000D01*
X146515000Y-130060000D02*
X147150000Y-129425000D01*
X152503000Y-120664000D02*
X153064000Y-120664000D01*
X153064000Y-120664000D02*
X153100000Y-120700000D01*
X145245000Y-130060000D02*
X145880000Y-129425000D01*
D53*
X143975000Y-130060000D02*
X144610000Y-129425000D01*
X143975000Y-130060000D02*
X143975000Y-130038000D01*
D54*
X128199240Y-117999240D02*
X126830000Y-117999240D01*
X126830000Y-117999240D02*
X126190760Y-117999240D01*
D53*
X142705000Y-130060000D02*
X143340000Y-129425000D01*
D54*
X126190760Y-117999240D02*
X125090000Y-119100000D01*
X125090000Y-119100000D02*
X123900000Y-119100000D01*
X127214380Y-118499620D02*
X125414000Y-120300000D01*
D53*
X141435000Y-130060000D02*
X142070000Y-129425000D01*
D54*
X125414000Y-120300000D02*
X123900000Y-120300000D01*
X128199240Y-118499620D02*
X127214380Y-118499620D01*
X128699620Y-117999240D02*
X128199240Y-118499620D01*
X134696560Y-115002040D02*
X136885643Y-114981469D01*
D53*
X136897960Y-115002040D02*
X136897960Y-114993786D01*
X136897960Y-114993786D02*
X136885643Y-114981469D01*
D54*
X140165000Y-130060000D02*
X140800000Y-129425000D01*
X136897960Y-115002040D02*
X137900000Y-114000000D01*
X137900000Y-114000000D02*
X138750000Y-114000000D01*
X134196180Y-115502420D02*
X134696560Y-115002040D01*
X134196180Y-115502420D02*
X134193640Y-115502420D01*
X134193640Y-115502420D02*
X133695800Y-116000260D01*
X133695800Y-116500640D02*
X133695800Y-116000260D01*
D53*
X138895000Y-130060000D02*
X139530000Y-129425000D01*
X136355000Y-130060000D02*
X136990000Y-129425000D01*
X135085000Y-130060000D02*
X135720000Y-129425000D01*
X133815000Y-130060000D02*
X134450000Y-129425000D01*
X132545000Y-130060000D02*
X133180000Y-129425000D01*
X131275000Y-130060000D02*
X131910000Y-129425000D01*
X130005000Y-130060000D02*
X130640000Y-129425000D01*
X128735000Y-130060000D02*
X129370000Y-129425000D01*
D51*
X125000000Y-127200000D02*
X125000000Y-128800000D01*
X125000000Y-128800000D02*
X125000000Y-129800000D01*
X125010000Y-128790000D02*
X125000000Y-128800000D01*
X126195000Y-128790000D02*
X125010000Y-128790000D01*
X125000000Y-129800000D02*
X125260000Y-130060000D01*
X125260000Y-130060000D02*
X126195000Y-130060000D01*
X124700000Y-126900000D02*
X125000000Y-127200000D01*
X123840000Y-126900000D02*
X124700000Y-126900000D01*
D54*
X149055000Y-128790000D02*
X149690000Y-128155000D01*
X149690000Y-128155000D02*
X150668670Y-128155000D01*
X150668670Y-128155000D02*
X151434976Y-127388694D01*
X151434976Y-127388694D02*
X151434976Y-123910024D01*
X151434976Y-123910024D02*
X151895000Y-123450000D01*
X151895000Y-123450000D02*
X151895000Y-123150000D01*
X151895000Y-123150000D02*
X151895000Y-123100000D01*
X151945000Y-123100000D02*
X151895000Y-123150000D01*
X151895000Y-123100000D02*
X153100000Y-123100000D01*
X153100000Y-123100000D02*
X151945000Y-123100000D01*
X151945000Y-123100000D02*
X151895000Y-123050000D01*
X151895000Y-123050000D02*
X151895000Y-122879208D01*
X151895000Y-122879208D02*
X152004061Y-122770147D01*
X153100000Y-121900000D02*
X152427246Y-121900000D01*
X152427246Y-121900000D02*
X152365331Y-121838085D01*
X153066000Y-121934000D02*
X153100000Y-121900000D01*
X147785000Y-128790000D02*
X148420000Y-128155000D01*
X151706401Y-121578599D02*
X151935000Y-121350000D01*
X151600460Y-121684540D02*
X151706401Y-121578599D01*
X151600460Y-123390972D02*
X151600460Y-121684540D01*
X150011432Y-124980000D02*
X151600460Y-123390972D01*
X147912000Y-124980000D02*
X150011432Y-124980000D01*
X147150000Y-125742000D02*
X147912000Y-124980000D01*
X147150000Y-128155000D02*
X147150000Y-125742000D01*
X146515000Y-128790000D02*
X147150000Y-128155000D01*
X151935000Y-121350000D02*
X151935000Y-119814000D01*
X151935000Y-119814000D02*
X152249000Y-119500000D01*
X152249000Y-119500000D02*
X153100000Y-119500000D01*
X145245000Y-128790000D02*
X145880000Y-128155000D01*
D53*
X143975000Y-128790000D02*
X144610000Y-128155000D01*
X142705000Y-128790000D02*
X143340000Y-128155000D01*
D54*
X124925000Y-117498860D02*
X127465000Y-117498860D01*
X127465000Y-117498860D02*
X128026820Y-117498860D01*
X124651140Y-117498860D02*
X124925000Y-117498860D01*
X123900000Y-117900000D02*
X124250000Y-117900000D01*
X124250000Y-117900000D02*
X124651140Y-117498860D01*
X128026820Y-117498860D02*
X128199240Y-117498860D01*
X132730000Y-122440000D02*
X132730000Y-121990000D01*
X131021000Y-120281000D02*
X130328289Y-120281000D01*
X132730000Y-121990000D02*
X131021000Y-120281000D01*
X130328289Y-120281000D02*
X130005000Y-120281000D01*
X129776401Y-120052401D02*
X130005000Y-120281000D01*
X129700380Y-119000000D02*
X129700380Y-119976380D01*
X129700380Y-119976380D02*
X129776401Y-120052401D01*
D53*
X141435000Y-128790000D02*
X142070000Y-128155000D01*
D54*
X129700380Y-118499620D02*
X129700380Y-119000000D01*
X129200000Y-117999240D02*
X129700380Y-118499620D01*
X128699620Y-117498860D02*
X129200000Y-117999240D01*
X140165000Y-128790000D02*
X140800000Y-128155000D01*
X137197580Y-115502420D02*
X137500000Y-115200000D01*
X137500000Y-115200000D02*
X138750000Y-115200000D01*
X134696560Y-115502420D02*
X137197580Y-115502420D01*
X134196180Y-116000260D02*
X134198720Y-116000260D01*
X134198720Y-116000260D02*
X134696560Y-115502420D01*
X134196180Y-116500640D02*
X134196180Y-116000260D01*
X133695800Y-117001020D02*
X134196180Y-116500640D01*
D53*
X136990000Y-128155000D02*
X136355000Y-128790000D01*
X135085000Y-128790000D02*
X135720000Y-128155000D01*
X132545000Y-128790000D02*
X133180000Y-128155000D01*
X131275000Y-128790000D02*
X131959066Y-128105934D01*
X150325000Y-127520000D02*
X150960000Y-126885000D01*
X150325000Y-126250000D02*
X150960000Y-125615000D01*
X148420000Y-125615000D02*
X147785000Y-126250000D01*
X149055000Y-126250000D02*
X149690000Y-125615000D01*
X125941000Y-154641000D02*
X125941000Y-151719289D01*
X127000000Y-155700000D02*
X125941000Y-154641000D01*
X127000000Y-155800000D02*
X127000000Y-155700000D01*
X125941000Y-151719289D02*
X125941000Y-151396000D01*
X127000000Y-154401000D02*
X127201000Y-154200000D01*
X127201000Y-154200000D02*
X127900000Y-154200000D01*
X127000000Y-155800000D02*
X127000000Y-154401000D01*
X127300000Y-153700000D02*
X126576000Y-152976000D01*
X127900000Y-153700000D02*
X127300000Y-153700000D01*
X126576000Y-151846289D02*
X126576000Y-151523000D01*
X126576000Y-152976000D02*
X126576000Y-151846289D01*
D54*
X133053000Y-117356440D02*
X133053000Y-117360001D01*
X132697580Y-117001020D02*
X133053000Y-117356440D01*
X138100000Y-120500000D02*
X138750000Y-120500000D01*
X138750000Y-120500000D02*
X138750000Y-119300000D01*
D53*
X100100050Y-124853000D02*
X100147000Y-124853000D01*
X100147000Y-124853000D02*
X100400000Y-124600000D01*
X100400000Y-124600000D02*
X100400000Y-124200000D01*
X99907700Y-125620000D02*
X99907700Y-125045350D01*
X99907700Y-125045350D02*
X100100050Y-124853000D01*
X99017000Y-124853000D02*
X99200000Y-124670000D01*
X99200000Y-124670000D02*
X99200000Y-124200000D01*
X98700510Y-124853000D02*
X99017000Y-124853000D01*
X98508160Y-125620000D02*
X98508160Y-125045350D01*
X98508160Y-125045350D02*
X98700510Y-124853000D01*
X97874000Y-124853000D02*
X98000000Y-124727000D01*
X98000000Y-124727000D02*
X98000000Y-124200000D01*
X97239000Y-124853000D02*
X97874000Y-124853000D01*
X97111160Y-124980840D02*
X97239000Y-124853000D01*
X97111160Y-125620000D02*
X97111160Y-124980840D01*
X96410120Y-125620000D02*
X96410120Y-125045350D01*
X96800000Y-124655470D02*
X96800000Y-124200000D01*
X96410120Y-125045350D02*
X96800000Y-124655470D01*
X95711620Y-124849620D02*
X95600000Y-124738000D01*
X95600000Y-124738000D02*
X95600000Y-124200000D01*
X95711620Y-125620000D02*
X95711620Y-124849620D01*
X95010580Y-125620000D02*
X95010580Y-125037580D01*
X95010580Y-125037580D02*
X94400000Y-124427000D01*
X94400000Y-124427000D02*
X94400000Y-124200000D01*
X93245000Y-123650000D02*
X93245000Y-122105000D01*
X93245000Y-122105000D02*
X93250000Y-122100000D01*
X93245000Y-123650000D02*
X93245000Y-124039000D01*
X93245000Y-124039000D02*
X94312080Y-125106080D01*
X94312080Y-125106080D02*
X94312080Y-125620000D01*
X90864202Y-131919200D02*
X90773599Y-131828597D01*
X90773599Y-131828597D02*
X90545000Y-131599998D01*
X91510460Y-131919200D02*
X90864202Y-131919200D01*
X91510460Y-132617700D02*
X90553800Y-132617700D01*
X90553800Y-132617700D02*
X90550578Y-132620922D01*
X91510460Y-133318740D02*
X90876254Y-133318740D01*
X90773593Y-133421401D02*
X90544994Y-133650000D01*
X90876254Y-133318740D02*
X90773593Y-133421401D01*
D51*
X108000000Y-142887000D02*
X107272000Y-142887000D01*
X94312080Y-138218400D02*
X94312080Y-142373080D01*
X94312080Y-142373080D02*
X95164000Y-143225000D01*
X95164000Y-143225000D02*
X95700000Y-143225000D01*
D53*
X108050000Y-135375000D02*
X109381000Y-135375000D01*
X111397000Y-137391000D02*
X111397000Y-142791000D01*
X109381000Y-135375000D02*
X111397000Y-137391000D01*
X111397000Y-142791000D02*
X112397000Y-143791000D01*
D51*
X97111160Y-138218400D02*
X97111160Y-137276840D01*
X97111160Y-137276840D02*
X97197000Y-137191000D01*
X113100000Y-143800000D02*
X112406000Y-143800000D01*
X112406000Y-143800000D02*
X112397000Y-143791000D01*
X103945000Y-148200000D02*
X103945000Y-147243000D01*
X103945000Y-147243000D02*
X103997000Y-147191000D01*
D53*
X108050000Y-136025000D02*
X109231000Y-136025000D01*
X109231000Y-136025000D02*
X110797000Y-137591000D01*
X110797000Y-137591000D02*
X110797000Y-143991000D01*
X110797000Y-143991000D02*
X111797000Y-144991000D01*
X111797000Y-144991000D02*
X112397000Y-144991000D01*
D51*
X97809660Y-138218400D02*
X97809660Y-136803660D01*
X97809660Y-136803660D02*
X97797000Y-136791000D01*
X113100000Y-145000000D02*
X112406000Y-145000000D01*
X112406000Y-145000000D02*
X112397000Y-144991000D01*
X103995000Y-153300000D02*
X103995000Y-152393000D01*
X103995000Y-152393000D02*
X103997000Y-152391000D01*
D53*
X98508160Y-138218400D02*
X98508160Y-138879840D01*
X98508160Y-138879840D02*
X98397000Y-138991000D01*
X99209200Y-138218400D02*
X99209200Y-138778800D01*
X99209200Y-138778800D02*
X99197000Y-138791000D01*
X104108860Y-136818860D02*
X104418860Y-136818860D01*
X104418860Y-136818860D02*
X105300000Y-137700000D01*
X104108860Y-136117820D02*
X104566820Y-136117820D01*
X104566820Y-136117820D02*
X104859000Y-136410000D01*
X104859000Y-136410000D02*
X105210000Y-136410000D01*
X105210000Y-136410000D02*
X105300000Y-136500000D01*
X104108860Y-135416780D02*
X105183220Y-135416780D01*
X105183220Y-135416780D02*
X105300000Y-135300000D01*
X104859000Y-134542790D02*
X104859000Y-134141000D01*
X104900000Y-134100000D02*
X105300000Y-134100000D01*
X104859000Y-134141000D02*
X104900000Y-134100000D01*
X104108860Y-134718280D02*
X104683510Y-134718280D01*
X104683510Y-134718280D02*
X104859000Y-134542790D01*
X105049500Y-132600000D02*
X104126560Y-132600000D01*
X104126560Y-132600000D02*
X104108860Y-132617700D01*
X104922500Y-131901500D02*
X104126560Y-131901500D01*
X104126560Y-131901500D02*
X104108860Y-131919200D01*
X104795500Y-131203000D02*
X104126560Y-131203000D01*
X104126560Y-131203000D02*
X104108860Y-131220700D01*
X104922500Y-129806000D02*
X104124020Y-129806000D01*
X104124020Y-129806000D02*
X104108860Y-129821160D01*
X154000000Y-139900000D02*
X154708996Y-139900000D01*
X154708996Y-139900000D02*
X154896996Y-139712000D01*
X154000000Y-136300000D02*
X154660000Y-136300000D01*
X154660000Y-136300000D02*
X155151000Y-136791000D01*
X109748500Y-157619000D02*
X102573000Y-157619000D01*
X102573000Y-157619000D02*
X99906000Y-154952000D01*
X99906000Y-154952000D02*
X99906000Y-148475000D01*
X99906000Y-148475000D02*
X104376401Y-144004599D01*
X104376401Y-144004599D02*
X104605000Y-143776000D01*
X130731000Y-157619000D02*
X109748500Y-157619000D01*
X109748500Y-157238000D02*
X109748500Y-157619000D01*
X111993209Y-136384599D02*
X111764610Y-136156000D01*
X112283610Y-136675000D02*
X111993209Y-136384599D01*
X113950000Y-136675000D02*
X112283610Y-136675000D01*
X130858000Y-157492000D02*
X130731000Y-157619000D01*
X133800000Y-154150000D02*
X133800000Y-154550000D01*
X133800000Y-154550000D02*
X130858000Y-157492000D01*
X133795000Y-154155000D02*
X133800000Y-154150000D01*
D51*
X135100000Y-154150000D02*
X133800000Y-154150000D01*
D53*
X132400000Y-154150000D02*
X129248500Y-157301500D01*
X109348472Y-156492479D02*
X109119873Y-156721078D01*
X129248500Y-157301500D02*
X121623670Y-157301500D01*
X121623670Y-157301500D02*
X120099670Y-155777500D01*
X110063451Y-155777500D02*
X109348472Y-156492479D01*
X132500000Y-154150000D02*
X132400000Y-154150000D01*
X120099670Y-155777500D02*
X110063451Y-155777500D01*
X107000510Y-155159990D02*
X106129000Y-156031500D01*
X106129000Y-156031500D02*
X106129000Y-156984000D01*
X122321500Y-156031500D02*
X121767490Y-155477490D01*
X121767490Y-155477490D02*
X121048768Y-155477490D01*
X121048768Y-155477490D02*
X120731268Y-155159990D01*
X120731268Y-155159990D02*
X107000510Y-155159990D01*
X122939010Y-156649010D02*
X122321500Y-156031500D01*
X124780510Y-156649010D02*
X122939010Y-156649010D01*
X128925500Y-155142500D02*
X128925500Y-155566778D01*
X128925500Y-155566778D02*
X127843268Y-156649010D01*
X127843268Y-156649010D02*
X124780510Y-156649010D01*
X129900000Y-154150000D02*
X129600500Y-154150000D01*
X129600500Y-154150000D02*
X128925500Y-154825000D01*
X128925500Y-154825000D02*
X128925500Y-155142500D01*
X129900000Y-154150000D02*
X131200000Y-154150000D01*
D51*
X108540000Y-115050000D02*
X108540000Y-113548000D01*
X108540000Y-113548000D02*
X108100000Y-113108000D01*
X108100000Y-113108000D02*
X108100000Y-112850000D01*
X122115000Y-154685000D02*
X122615000Y-154685000D01*
X122615000Y-154685000D02*
X123120000Y-154180000D01*
X123120000Y-154180000D02*
X123120000Y-152780000D01*
X139650000Y-119300000D02*
X140800000Y-119300000D01*
D53*
X106764000Y-129679000D02*
X107946000Y-129679000D01*
X107946000Y-129679000D02*
X108050000Y-129575000D01*
X101600000Y-122610000D02*
X101600000Y-122200000D01*
X101600000Y-122905000D02*
X101600000Y-122610000D01*
X100400000Y-123300000D02*
X101205000Y-123300000D01*
X101205000Y-123300000D02*
X101600000Y-122905000D01*
X101600000Y-122200000D02*
X101600000Y-121800000D01*
X106764000Y-128917000D02*
X108042000Y-128917000D01*
X108042000Y-128917000D02*
X108050000Y-128925000D01*
X99200000Y-123300000D02*
X99200000Y-122900000D01*
X100160000Y-122567000D02*
X100400000Y-122327000D01*
X99200000Y-122900000D02*
X99533000Y-122567000D01*
X99533000Y-122567000D02*
X100160000Y-122567000D01*
X100400000Y-122327000D02*
X100400000Y-121800000D01*
X108050000Y-128275000D02*
X106517000Y-128275000D01*
X106517000Y-128275000D02*
X106510000Y-128282000D01*
X95499000Y-121790000D02*
X94968000Y-121790000D01*
X94968000Y-121790000D02*
X94953000Y-121805000D01*
X94400000Y-123300000D02*
X94400000Y-122900000D01*
X94400000Y-122900000D02*
X94733000Y-122567000D01*
X94733000Y-122567000D02*
X95334000Y-122567000D01*
X95334000Y-122567000D02*
X95499000Y-122402000D01*
X95499000Y-122402000D02*
X95499000Y-121790000D01*
X110193000Y-142379000D02*
X109685000Y-142887000D01*
X109685000Y-142887000D02*
X108900000Y-142887000D01*
X110193000Y-137893000D02*
X110193000Y-142379000D01*
X108050000Y-136675000D02*
X108975000Y-136675000D01*
X108975000Y-136675000D02*
X110193000Y-137893000D01*
X106637000Y-127647000D02*
X108028000Y-127647000D01*
X108028000Y-127647000D02*
X108050000Y-127625000D01*
X96388000Y-122567000D02*
X96604000Y-122567000D01*
X95933000Y-122567000D02*
X96388000Y-122567000D01*
X96604000Y-122567000D02*
X96743000Y-122428000D01*
X96743000Y-122428000D02*
X96743000Y-121800000D01*
X95600000Y-123300000D02*
X95600000Y-122900000D01*
X95600000Y-122900000D02*
X95933000Y-122567000D01*
X106764000Y-127012000D02*
X108013000Y-127012000D01*
X108013000Y-127012000D02*
X108050000Y-126975000D01*
X96800000Y-123300000D02*
X96800000Y-122900000D01*
X96800000Y-122900000D02*
X97133000Y-122567000D01*
X97133000Y-122567000D02*
X97576000Y-122567000D01*
X97576000Y-122567000D02*
X97943000Y-122200000D01*
X97943000Y-122200000D02*
X97943000Y-121800000D01*
X106764000Y-125615000D02*
X107990000Y-125615000D01*
X107990000Y-125615000D02*
X108050000Y-125675000D01*
X98333000Y-122567000D02*
X98801000Y-122567000D01*
X98890000Y-122567000D02*
X98801000Y-122567000D01*
X98890000Y-122567000D02*
X99143000Y-122314000D01*
X99143000Y-122314000D02*
X99143000Y-121800000D01*
X98000000Y-123300000D02*
X98000000Y-122900000D01*
X98000000Y-122900000D02*
X98333000Y-122567000D01*
D51*
X108050000Y-139925000D02*
X109331000Y-139925000D01*
X109331000Y-139925000D02*
X109397000Y-139991000D01*
X108050000Y-131525000D02*
X109331000Y-131525000D01*
X109331000Y-131525000D02*
X109397000Y-131591000D01*
D53*
X108000000Y-141400000D02*
X108000000Y-139975000D01*
X108000000Y-139975000D02*
X108050000Y-139925000D01*
X107100000Y-141400000D02*
X108000000Y-141400000D01*
X116300000Y-124700000D02*
X115900000Y-124700000D01*
X115900000Y-124700000D02*
X114925000Y-125675000D01*
X114925000Y-125675000D02*
X113950000Y-125675000D01*
X115146000Y-126504000D02*
X115750000Y-125900000D01*
X115750000Y-125900000D02*
X116300000Y-125900000D01*
X115146000Y-126704000D02*
X115146000Y-126504000D01*
X113950000Y-126975000D02*
X114875000Y-126975000D01*
X114875000Y-126975000D02*
X115146000Y-126704000D01*
X115168000Y-127625000D02*
X115693000Y-127100000D01*
X115693000Y-127100000D02*
X116300000Y-127100000D01*
X113950000Y-127625000D02*
X115168000Y-127625000D01*
X113950000Y-128275000D02*
X116275000Y-128275000D01*
X116275000Y-128275000D02*
X116300000Y-128300000D01*
X115154000Y-128925000D02*
X115729000Y-129500000D01*
X115729000Y-129500000D02*
X116300000Y-129500000D01*
X113950000Y-128925000D02*
X115154000Y-128925000D01*
X115273000Y-130314000D02*
X115659000Y-130700000D01*
X115659000Y-130700000D02*
X116300000Y-130700000D01*
X115273000Y-129973000D02*
X115273000Y-130314000D01*
X113950000Y-129575000D02*
X114875000Y-129575000D01*
X114875000Y-129575000D02*
X115273000Y-129973000D01*
X115110000Y-135140000D02*
X115110000Y-134990000D01*
X115110000Y-134990000D02*
X115300000Y-134800000D01*
X115300000Y-134800000D02*
X115700000Y-134800000D01*
X113950000Y-135375000D02*
X114875000Y-135375000D01*
X114875000Y-135375000D02*
X115110000Y-135140000D01*
X113950000Y-136025000D02*
X115675000Y-136025000D01*
X115675000Y-136025000D02*
X115700000Y-136000000D01*
X113950000Y-139275000D02*
X115675000Y-139275000D01*
X115675000Y-139275000D02*
X115700000Y-139300000D01*
X106778812Y-139275000D02*
X106743406Y-139310406D01*
X108050000Y-139275000D02*
X106778812Y-139275000D01*
X91997000Y-124791000D02*
X92345000Y-124443000D01*
X92345000Y-124443000D02*
X92345000Y-123650000D01*
X91396984Y-124791000D02*
X91997000Y-124791000D01*
D51*
X97150000Y-146400000D02*
X97150000Y-145025000D01*
X97150000Y-145025000D02*
X97100000Y-144975000D01*
D53*
X108050000Y-134075000D02*
X106225000Y-134075000D01*
X106225000Y-134075000D02*
X106200000Y-134100000D01*
X108050000Y-137975000D02*
X109218000Y-137975000D01*
X109218000Y-137975000D02*
X109325264Y-138082264D01*
X106200000Y-135300000D02*
X106797000Y-135300000D01*
X106797000Y-135300000D02*
X106834723Y-135337723D01*
X106200000Y-136500000D02*
X106600000Y-136500000D01*
X106600000Y-136500000D02*
X106891000Y-136791000D01*
X108050000Y-138625000D02*
X109106000Y-138625000D01*
X109106000Y-138625000D02*
X109304000Y-138823000D01*
X106200000Y-137700000D02*
X106600000Y-137700000D01*
X106600000Y-137700000D02*
X106975000Y-137325000D01*
X106975000Y-137325000D02*
X108050000Y-137325000D01*
X133815000Y-128790000D02*
X134450000Y-128155000D01*
X130005000Y-128790000D02*
X130640000Y-128155000D01*
X153395000Y-145100000D02*
X156695000Y-145100000D01*
X156695000Y-145100000D02*
X157145000Y-145100000D01*
X156745000Y-144150000D02*
X156745000Y-145050000D01*
X156745000Y-145050000D02*
X156695000Y-145100000D01*
X157595000Y-144650000D02*
X158795000Y-144650000D01*
X157145000Y-145100000D02*
X157595000Y-144650000D01*
X158795000Y-144650000D02*
X158995000Y-144850000D01*
X158995000Y-144850000D02*
X158995000Y-149550000D01*
X158995000Y-149550000D02*
X158845000Y-149700000D01*
X158845000Y-149700000D02*
X158195000Y-149700000D01*
X156745000Y-149650000D02*
X158145000Y-149650000D01*
X158145000Y-149650000D02*
X158195000Y-149700000D01*
X144395000Y-114250000D02*
X144645000Y-114000000D01*
X144645000Y-114000000D02*
X144645000Y-113250000D01*
X143795000Y-114250000D02*
X144395000Y-114250000D01*
X144645000Y-113250000D02*
X144645000Y-111950000D01*
X144645000Y-111950000D02*
X144695000Y-111900000D01*
X139195000Y-111900000D02*
X140445000Y-111900000D01*
X140445000Y-111900000D02*
X141395000Y-112850000D01*
X141395000Y-112850000D02*
X141395000Y-114450000D01*
X141395000Y-114450000D02*
X141995000Y-115050000D01*
X141995000Y-115050000D02*
X143595000Y-115050000D01*
X143595000Y-115050000D02*
X143795000Y-114850000D01*
X143795000Y-114850000D02*
X143795000Y-114250000D01*
X158195000Y-148800000D02*
X158195000Y-145100000D01*
X155195000Y-148650000D02*
X154845000Y-149000000D01*
X154845000Y-149000000D02*
X154845000Y-149650000D01*
X157545000Y-148650000D02*
X155195000Y-148650000D01*
X158195000Y-148800000D02*
X157695000Y-148800000D01*
X157695000Y-148800000D02*
X157545000Y-148650000D01*
X153395000Y-149700000D02*
X154795000Y-149700000D01*
X154795000Y-149700000D02*
X154845000Y-149650000D01*
X142895000Y-114250000D02*
X142395000Y-114250000D01*
X142395000Y-114250000D02*
X141945000Y-113800000D01*
X141945000Y-113800000D02*
X141945000Y-113250000D01*
X142395000Y-112250000D02*
X141945000Y-112700000D01*
X141945000Y-112700000D02*
X141945000Y-113250000D01*
X142995000Y-112250000D02*
X142395000Y-112250000D01*
X143595000Y-111650000D02*
X142995000Y-112250000D01*
X143595000Y-110250000D02*
X143595000Y-111650000D01*
X143345000Y-110000000D02*
X143595000Y-110250000D01*
X139195000Y-110000000D02*
X143345000Y-110000000D01*
X138795000Y-108850000D02*
X139195000Y-109250000D01*
X139195000Y-109250000D02*
X139195000Y-110000000D01*
X137845000Y-108850000D02*
X138795000Y-108850000D01*
X136540000Y-123964000D02*
X136540000Y-122725000D01*
X136540000Y-122725000D02*
X136698000Y-122567000D01*
X143975000Y-135140000D02*
X144610000Y-135775000D01*
X144610000Y-135775000D02*
X144610000Y-137045000D01*
D51*
X137625000Y-126250000D02*
X138260000Y-125615000D01*
X138260000Y-125615000D02*
X138641000Y-125234000D01*
D53*
X137440000Y-123964000D02*
X137440000Y-124795000D01*
X137440000Y-124795000D02*
X138260000Y-125615000D01*
D51*
X138641000Y-125234000D02*
X138894986Y-125234000D01*
D54*
X130005000Y-135140000D02*
X130640000Y-134505000D01*
X128735000Y-135140000D02*
X129370000Y-134505000D01*
X130005000Y-132600000D02*
X130640000Y-131965000D01*
X128735000Y-132600000D02*
X129370000Y-131965000D01*
M02*
