G04 #@! TF.GenerationSoftware,KiCad,Pcbnew,no-vcs-found-2237de0~58~ubuntu16.04.1*
G04 #@! TF.CreationDate,2017-06-29T19:32:17-03:00*
G04 #@! TF.ProjectId,mateboard,6D617465626F6172642E6B696361645F,rev?*
G04 #@! TF.SameCoordinates,Original
G04 #@! TF.FileFunction,Legend,Bot*
G04 #@! TF.FilePolarity,Positive*
%FSLAX46Y46*%
G04 Gerber Fmt 4.6, Leading zero omitted, Abs format (unit mm)*
G04 Created by KiCad (PCBNEW no-vcs-found-2237de0~58~ubuntu16.04.1) date Thu Jun 29 19:32:17 2017*
%MOMM*%
%LPD*%
G01*
G04 APERTURE LIST*
%ADD10C,0.100000*%
%ADD11C,0.203200*%
%ADD12C,0.304800*%
%ADD13C,0.150000*%
G04 APERTURE END LIST*
D10*
D11*
X104400420Y-152562360D02*
X103600220Y-152562360D01*
X103600220Y-152562360D02*
X103600220Y-155437640D01*
X120399780Y-155437640D02*
X120399780Y-152562360D01*
D12*
X105299480Y-151681740D02*
G75*
G03X105299480Y-151681740I-99060J0D01*
G01*
D11*
X120399780Y-152562360D02*
X119600420Y-152562360D01*
X120399780Y-155437640D02*
X119600420Y-155437640D01*
X104400420Y-155437640D02*
X103600220Y-155437640D01*
X156437640Y-118900420D02*
X156437640Y-118100220D01*
X156437640Y-118100220D02*
X153562360Y-118100220D01*
X153562360Y-134899780D02*
X156437640Y-134899780D01*
D12*
X157417320Y-119700420D02*
G75*
G03X157417320Y-119700420I-99060J0D01*
G01*
D11*
X156437640Y-134899780D02*
X156437640Y-134100420D01*
X153562360Y-134899780D02*
X153562360Y-134100420D01*
X153562360Y-118900420D02*
X153562360Y-118100220D01*
D13*
X101248200Y-127820485D02*
X101248200Y-128356200D01*
X101283914Y-128463342D01*
X101355342Y-128534771D01*
X101462485Y-128570485D01*
X101533914Y-128570485D01*
X100533914Y-127820485D02*
X100891057Y-127820485D01*
X100926771Y-128177628D01*
X100891057Y-128141914D01*
X100819628Y-128106200D01*
X100641057Y-128106200D01*
X100569628Y-128141914D01*
X100533914Y-128177628D01*
X100498200Y-128249057D01*
X100498200Y-128427628D01*
X100533914Y-128499057D01*
X100569628Y-128534771D01*
X100641057Y-128570485D01*
X100819628Y-128570485D01*
X100891057Y-128534771D01*
X100926771Y-128499057D01*
X101299000Y-129649285D02*
X101299000Y-130185000D01*
X101334714Y-130292142D01*
X101406142Y-130363571D01*
X101513285Y-130399285D01*
X101584714Y-130399285D01*
X100620428Y-129649285D02*
X100763285Y-129649285D01*
X100834714Y-129685000D01*
X100870428Y-129720714D01*
X100941857Y-129827857D01*
X100977571Y-129970714D01*
X100977571Y-130256428D01*
X100941857Y-130327857D01*
X100906142Y-130363571D01*
X100834714Y-130399285D01*
X100691857Y-130399285D01*
X100620428Y-130363571D01*
X100584714Y-130327857D01*
X100549000Y-130256428D01*
X100549000Y-130077857D01*
X100584714Y-130006428D01*
X100620428Y-129970714D01*
X100691857Y-129935000D01*
X100834714Y-129935000D01*
X100906142Y-129970714D01*
X100941857Y-130006428D01*
X100977571Y-130077857D01*
X101299000Y-131782885D02*
X101299000Y-132318600D01*
X101334714Y-132425742D01*
X101406142Y-132497171D01*
X101513285Y-132532885D01*
X101584714Y-132532885D01*
X101013285Y-131782885D02*
X100513285Y-131782885D01*
X100834714Y-132532885D01*
X91545400Y-141942885D02*
X91545400Y-142478600D01*
X91581114Y-142585742D01*
X91652542Y-142657171D01*
X91759685Y-142692885D01*
X91831114Y-142692885D01*
X91081114Y-142264314D02*
X91152542Y-142228600D01*
X91188257Y-142192885D01*
X91223971Y-142121457D01*
X91223971Y-142085742D01*
X91188257Y-142014314D01*
X91152542Y-141978600D01*
X91081114Y-141942885D01*
X90938257Y-141942885D01*
X90866828Y-141978600D01*
X90831114Y-142014314D01*
X90795400Y-142085742D01*
X90795400Y-142121457D01*
X90831114Y-142192885D01*
X90866828Y-142228600D01*
X90938257Y-142264314D01*
X91081114Y-142264314D01*
X91152542Y-142300028D01*
X91188257Y-142335742D01*
X91223971Y-142407171D01*
X91223971Y-142550028D01*
X91188257Y-142621457D01*
X91152542Y-142657171D01*
X91081114Y-142692885D01*
X90938257Y-142692885D01*
X90866828Y-142657171D01*
X90831114Y-142621457D01*
X90795400Y-142550028D01*
X90795400Y-142407171D01*
X90831114Y-142335742D01*
X90866828Y-142300028D01*
X90938257Y-142264314D01*
X106988600Y-130614485D02*
X106988600Y-131150200D01*
X107024314Y-131257342D01*
X107095742Y-131328771D01*
X107202885Y-131364485D01*
X107274314Y-131364485D01*
X106595742Y-131364485D02*
X106452885Y-131364485D01*
X106381457Y-131328771D01*
X106345742Y-131293057D01*
X106274314Y-131185914D01*
X106238600Y-131043057D01*
X106238600Y-130757342D01*
X106274314Y-130685914D01*
X106310028Y-130650200D01*
X106381457Y-130614485D01*
X106524314Y-130614485D01*
X106595742Y-130650200D01*
X106631457Y-130685914D01*
X106667171Y-130757342D01*
X106667171Y-130935914D01*
X106631457Y-131007342D01*
X106595742Y-131043057D01*
X106524314Y-131078771D01*
X106381457Y-131078771D01*
X106310028Y-131043057D01*
X106274314Y-131007342D01*
X106238600Y-130935914D01*
X93845642Y-141841285D02*
X93845642Y-142377000D01*
X93881357Y-142484142D01*
X93952785Y-142555571D01*
X94059928Y-142591285D01*
X94131357Y-142591285D01*
X93095642Y-142591285D02*
X93524214Y-142591285D01*
X93309928Y-142591285D02*
X93309928Y-141841285D01*
X93381357Y-141948428D01*
X93452785Y-142019857D01*
X93524214Y-142055571D01*
X92631357Y-141841285D02*
X92559928Y-141841285D01*
X92488500Y-141877000D01*
X92452785Y-141912714D01*
X92417071Y-141984142D01*
X92381357Y-142127000D01*
X92381357Y-142305571D01*
X92417071Y-142448428D01*
X92452785Y-142519857D01*
X92488500Y-142555571D01*
X92559928Y-142591285D01*
X92631357Y-142591285D01*
X92702785Y-142555571D01*
X92738500Y-142519857D01*
X92774214Y-142448428D01*
X92809928Y-142305571D01*
X92809928Y-142127000D01*
X92774214Y-141984142D01*
X92738500Y-141912714D01*
X92702785Y-141877000D01*
X92631357Y-141841285D01*
X97185742Y-141790485D02*
X97185742Y-142326200D01*
X97221457Y-142433342D01*
X97292885Y-142504771D01*
X97400028Y-142540485D01*
X97471457Y-142540485D01*
X96435742Y-142540485D02*
X96864314Y-142540485D01*
X96650028Y-142540485D02*
X96650028Y-141790485D01*
X96721457Y-141897628D01*
X96792885Y-141969057D01*
X96864314Y-142004771D01*
X95721457Y-142540485D02*
X96150028Y-142540485D01*
X95935742Y-142540485D02*
X95935742Y-141790485D01*
X96007171Y-141897628D01*
X96078600Y-141969057D01*
X96150028Y-142004771D01*
X101607142Y-146095785D02*
X101607142Y-146631500D01*
X101642857Y-146738642D01*
X101714285Y-146810071D01*
X101821428Y-146845785D01*
X101892857Y-146845785D01*
X100857142Y-146845785D02*
X101285714Y-146845785D01*
X101071428Y-146845785D02*
X101071428Y-146095785D01*
X101142857Y-146202928D01*
X101214285Y-146274357D01*
X101285714Y-146310071D01*
X100607142Y-146095785D02*
X100142857Y-146095785D01*
X100392857Y-146381500D01*
X100285714Y-146381500D01*
X100214285Y-146417214D01*
X100178571Y-146452928D01*
X100142857Y-146524357D01*
X100142857Y-146702928D01*
X100178571Y-146774357D01*
X100214285Y-146810071D01*
X100285714Y-146845785D01*
X100500000Y-146845785D01*
X100571428Y-146810071D01*
X100607142Y-146774357D01*
X99624142Y-145143285D02*
X99624142Y-145679000D01*
X99659857Y-145786142D01*
X99731285Y-145857571D01*
X99838428Y-145893285D01*
X99909857Y-145893285D01*
X98874142Y-145893285D02*
X99302714Y-145893285D01*
X99088428Y-145893285D02*
X99088428Y-145143285D01*
X99159857Y-145250428D01*
X99231285Y-145321857D01*
X99302714Y-145357571D01*
X98231285Y-145393285D02*
X98231285Y-145893285D01*
X98409857Y-145107571D02*
X98588428Y-145643285D01*
X98124142Y-145643285D01*
X149865342Y-146870485D02*
X149865342Y-147406200D01*
X149901057Y-147513342D01*
X149972485Y-147584771D01*
X150079628Y-147620485D01*
X150151057Y-147620485D01*
X149115342Y-147620485D02*
X149543914Y-147620485D01*
X149329628Y-147620485D02*
X149329628Y-146870485D01*
X149401057Y-146977628D01*
X149472485Y-147049057D01*
X149543914Y-147084771D01*
X148436771Y-146870485D02*
X148793914Y-146870485D01*
X148829628Y-147227628D01*
X148793914Y-147191914D01*
X148722485Y-147156200D01*
X148543914Y-147156200D01*
X148472485Y-147191914D01*
X148436771Y-147227628D01*
X148401057Y-147299057D01*
X148401057Y-147477628D01*
X148436771Y-147549057D01*
X148472485Y-147584771D01*
X148543914Y-147620485D01*
X148722485Y-147620485D01*
X148793914Y-147584771D01*
X148829628Y-147549057D01*
X149865342Y-142400085D02*
X149865342Y-142935800D01*
X149901057Y-143042942D01*
X149972485Y-143114371D01*
X150079628Y-143150085D01*
X150151057Y-143150085D01*
X149115342Y-143150085D02*
X149543914Y-143150085D01*
X149329628Y-143150085D02*
X149329628Y-142400085D01*
X149401057Y-142507228D01*
X149472485Y-142578657D01*
X149543914Y-142614371D01*
X148472485Y-142400085D02*
X148615342Y-142400085D01*
X148686771Y-142435800D01*
X148722485Y-142471514D01*
X148793914Y-142578657D01*
X148829628Y-142721514D01*
X148829628Y-143007228D01*
X148793914Y-143078657D01*
X148758200Y-143114371D01*
X148686771Y-143150085D01*
X148543914Y-143150085D01*
X148472485Y-143114371D01*
X148436771Y-143078657D01*
X148401057Y-143007228D01*
X148401057Y-142828657D01*
X148436771Y-142757228D01*
X148472485Y-142721514D01*
X148543914Y-142685800D01*
X148686771Y-142685800D01*
X148758200Y-142721514D01*
X148793914Y-142757228D01*
X148829628Y-142828657D01*
X138943342Y-144533685D02*
X138943342Y-145069400D01*
X138979057Y-145176542D01*
X139050485Y-145247971D01*
X139157628Y-145283685D01*
X139229057Y-145283685D01*
X138193342Y-145283685D02*
X138621914Y-145283685D01*
X138407628Y-145283685D02*
X138407628Y-144533685D01*
X138479057Y-144640828D01*
X138550485Y-144712257D01*
X138621914Y-144747971D01*
X137943342Y-144533685D02*
X137443342Y-144533685D01*
X137764771Y-145283685D01*
X149916142Y-144686085D02*
X149916142Y-145221800D01*
X149951857Y-145328942D01*
X150023285Y-145400371D01*
X150130428Y-145436085D01*
X150201857Y-145436085D01*
X149166142Y-145436085D02*
X149594714Y-145436085D01*
X149380428Y-145436085D02*
X149380428Y-144686085D01*
X149451857Y-144793228D01*
X149523285Y-144864657D01*
X149594714Y-144900371D01*
X148737571Y-145007514D02*
X148809000Y-144971800D01*
X148844714Y-144936085D01*
X148880428Y-144864657D01*
X148880428Y-144828942D01*
X148844714Y-144757514D01*
X148809000Y-144721800D01*
X148737571Y-144686085D01*
X148594714Y-144686085D01*
X148523285Y-144721800D01*
X148487571Y-144757514D01*
X148451857Y-144828942D01*
X148451857Y-144864657D01*
X148487571Y-144936085D01*
X148523285Y-144971800D01*
X148594714Y-145007514D01*
X148737571Y-145007514D01*
X148809000Y-145043228D01*
X148844714Y-145078942D01*
X148880428Y-145150371D01*
X148880428Y-145293228D01*
X148844714Y-145364657D01*
X148809000Y-145400371D01*
X148737571Y-145436085D01*
X148594714Y-145436085D01*
X148523285Y-145400371D01*
X148487571Y-145364657D01*
X148451857Y-145293228D01*
X148451857Y-145150371D01*
X148487571Y-145078942D01*
X148523285Y-145043228D01*
X148594714Y-145007514D01*
X103034860Y-153583545D02*
X103034860Y-154119260D01*
X103070574Y-154226402D01*
X103142002Y-154297831D01*
X103249145Y-154333545D01*
X103320574Y-154333545D01*
X102713431Y-153654974D02*
X102677717Y-153619260D01*
X102606288Y-153583545D01*
X102427717Y-153583545D01*
X102356288Y-153619260D01*
X102320574Y-153654974D01*
X102284860Y-153726402D01*
X102284860Y-153797831D01*
X102320574Y-153904974D01*
X102749145Y-154333545D01*
X102284860Y-154333545D01*
X155196660Y-117087525D02*
X155196660Y-117623240D01*
X155232374Y-117730382D01*
X155303802Y-117801811D01*
X155410945Y-117837525D01*
X155482374Y-117837525D01*
X154446660Y-117837525D02*
X154875231Y-117837525D01*
X154660945Y-117837525D02*
X154660945Y-117087525D01*
X154732374Y-117194668D01*
X154803802Y-117266097D01*
X154875231Y-117301811D01*
X138638542Y-125636085D02*
X138638542Y-126171800D01*
X138674257Y-126278942D01*
X138745685Y-126350371D01*
X138852828Y-126386085D01*
X138924257Y-126386085D01*
X137888542Y-126386085D02*
X138317114Y-126386085D01*
X138102828Y-126386085D02*
X138102828Y-125636085D01*
X138174257Y-125743228D01*
X138245685Y-125814657D01*
X138317114Y-125850371D01*
X137531400Y-126386085D02*
X137388542Y-126386085D01*
X137317114Y-126350371D01*
X137281400Y-126314657D01*
X137209971Y-126207514D01*
X137174257Y-126064657D01*
X137174257Y-125778942D01*
X137209971Y-125707514D01*
X137245685Y-125671800D01*
X137317114Y-125636085D01*
X137459971Y-125636085D01*
X137531400Y-125671800D01*
X137567114Y-125707514D01*
X137602828Y-125778942D01*
X137602828Y-125957514D01*
X137567114Y-126028942D01*
X137531400Y-126064657D01*
X137459971Y-126100371D01*
X137317114Y-126100371D01*
X137245685Y-126064657D01*
X137209971Y-126028942D01*
X137174257Y-125957514D01*
X142423142Y-138888285D02*
X142423142Y-139424000D01*
X142458857Y-139531142D01*
X142530285Y-139602571D01*
X142637428Y-139638285D01*
X142708857Y-139638285D01*
X142101714Y-138959714D02*
X142066000Y-138924000D01*
X141994571Y-138888285D01*
X141816000Y-138888285D01*
X141744571Y-138924000D01*
X141708857Y-138959714D01*
X141673142Y-139031142D01*
X141673142Y-139102571D01*
X141708857Y-139209714D01*
X142137428Y-139638285D01*
X141673142Y-139638285D01*
X141208857Y-138888285D02*
X141137428Y-138888285D01*
X141066000Y-138924000D01*
X141030285Y-138959714D01*
X140994571Y-139031142D01*
X140958857Y-139174000D01*
X140958857Y-139352571D01*
X140994571Y-139495428D01*
X141030285Y-139566857D01*
X141066000Y-139602571D01*
X141137428Y-139638285D01*
X141208857Y-139638285D01*
X141280285Y-139602571D01*
X141316000Y-139566857D01*
X141351714Y-139495428D01*
X141387428Y-139352571D01*
X141387428Y-139174000D01*
X141351714Y-139031142D01*
X141316000Y-138959714D01*
X141280285Y-138924000D01*
X141208857Y-138888285D01*
M02*
