G04 #@! TF.FileFunction,Copper,L4,Inr,Signal*
%FSLAX46Y46*%
G04 Gerber Fmt 4.6, Leading zero omitted, Abs format (unit mm)*
G04 Created by KiCad (PCBNEW 4.0.6-e0-6349~53~ubuntu16.04.1) date Tue May  2 19:00:15 2017*
%MOMM*%
%LPD*%
G01*
G04 APERTURE LIST*
%ADD10C,0.100000*%
%ADD11C,0.457200*%
%ADD12C,0.200000*%
%ADD13C,0.150000*%
G04 APERTURE END LIST*
D10*
D11*
X105918000Y-157035500D03*
X151940004Y-110710000D03*
X151240000Y-110710000D03*
X152740000Y-110710000D03*
X123444000Y-110744000D03*
X124206000Y-110744000D03*
X122555000Y-110744000D03*
X148323000Y-123050000D03*
X122936000Y-152273000D03*
X116713000Y-157734000D03*
X108648500Y-154686000D03*
X132105000Y-124348890D03*
X114808000Y-154432000D03*
X112141000Y-157353000D03*
X128778000Y-155829000D03*
X155952528Y-129635875D03*
X159385000Y-124841000D03*
X156591000Y-135255000D03*
X151993600Y-129792279D03*
X155800000Y-121100000D03*
X155400000Y-139500000D03*
X131940000Y-120510000D03*
X149540000Y-153810000D03*
X93540000Y-129171620D03*
X93540000Y-128470580D03*
X93540000Y-136867820D03*
X93540000Y-131970700D03*
X93540000Y-131269660D03*
X98614660Y-127510000D03*
X100014200Y-127510000D03*
X103640000Y-134068740D03*
X103640000Y-134767240D03*
X106553000Y-142113000D03*
X147265000Y-112110000D03*
X147240000Y-112810000D03*
X150845000Y-115325000D03*
X151785000Y-115325000D03*
X151785000Y-114485000D03*
X150845000Y-114485000D03*
X121793000Y-132969000D03*
X122174000Y-130678600D03*
X94361000Y-145034000D03*
X137900000Y-156000000D03*
X144957000Y-120700000D03*
X143421000Y-122974000D03*
X96202000Y-120541000D03*
X94002000Y-116941000D03*
X115402006Y-145741000D03*
X114805000Y-141400000D03*
X94202000Y-148141000D03*
X98202000Y-149741000D03*
X102002000Y-148941000D03*
X102002000Y-154141000D03*
X100752000Y-137840994D03*
X101413740Y-137850000D03*
X98602000Y-136541000D03*
X98602000Y-135091000D03*
X98602000Y-133691000D03*
X98602000Y-131641000D03*
X98602000Y-130191000D03*
X98602000Y-128841000D03*
X100005000Y-142900000D03*
X104140000Y-142494000D03*
X112882400Y-121963000D03*
X111671000Y-125646000D03*
X106805000Y-124077000D03*
X106807000Y-120142000D03*
X109766000Y-122150000D03*
X107061000Y-111379000D03*
X107060994Y-112014000D03*
X110528000Y-113830000D03*
X126746000Y-112692000D03*
X126746000Y-113411000D03*
X132461000Y-116459000D03*
X123063000Y-112014000D03*
X123063000Y-112649000D03*
X137791749Y-127638251D03*
X149225000Y-122936000D03*
X149733000Y-122682000D03*
X149733000Y-123190000D03*
X143421000Y-124460000D03*
X142875000Y-156210000D03*
X135255000Y-137795000D03*
X142875000Y-141605000D03*
X144145000Y-141605000D03*
X142875000Y-140335000D03*
X127635000Y-140335000D03*
X128905000Y-139065000D03*
X130175000Y-150495000D03*
X112882400Y-132275000D03*
X151765000Y-150495000D03*
X127635000Y-132715000D03*
X127635000Y-135255000D03*
X137795000Y-137795000D03*
X140335000Y-140335000D03*
X141605000Y-141605000D03*
X139065000Y-142875000D03*
X128905000Y-128905000D03*
X130175000Y-127635000D03*
X132715000Y-127635000D03*
X135255000Y-127635000D03*
X136205000Y-119250000D03*
X136205000Y-117250000D03*
X141605000Y-136525000D03*
X140335000Y-136525000D03*
X139065000Y-135255000D03*
X144145000Y-136525000D03*
X144145000Y-127635000D03*
X145415000Y-127635000D03*
X149225000Y-127635000D03*
X102112411Y-140228610D03*
X117513000Y-120693000D03*
X102813280Y-140208000D03*
X113405000Y-125730000D03*
X114300000Y-133604000D03*
X105537000Y-112268000D03*
X105537000Y-111506000D03*
X153289000Y-120749600D03*
X157861000Y-120634620D03*
X122174000Y-116459000D03*
X122174000Y-115824000D03*
X122155000Y-115150000D03*
X146050000Y-125349000D03*
X146050000Y-125857000D03*
X124714000Y-155448000D03*
X155957342Y-128678664D03*
X123805000Y-123444000D03*
X122800000Y-149600000D03*
X121100000Y-149600000D03*
X140455000Y-116600000D03*
X140455000Y-122308000D03*
X125387000Y-109850000D03*
X108877000Y-109850000D03*
X134912000Y-109850000D03*
X135801000Y-109850000D03*
X136774000Y-109850000D03*
X151384000Y-120523000D03*
X155340000Y-120271000D03*
X132969000Y-112395000D03*
X131705000Y-117050000D03*
X133005022Y-114753954D03*
X95758000Y-145700000D03*
X109474000Y-133477000D03*
X96516620Y-139700000D03*
X110105000Y-125984000D03*
X113157000Y-154559000D03*
X122005000Y-134750000D03*
X122205000Y-118550000D03*
X123063000Y-129413000D03*
X141605000Y-126365000D03*
X158051500Y-117094000D03*
X123761500Y-133159500D03*
X119205000Y-138550000D03*
X125805000Y-138550000D03*
X120805000Y-143950000D03*
X126005000Y-143950000D03*
X151200004Y-124300000D03*
X141605000Y-122150000D03*
X142748000Y-153797000D03*
X146685000Y-135255000D03*
X145415000Y-133985000D03*
X144145000Y-133985000D03*
X109410500Y-157924500D03*
X136271000Y-155892500D03*
X130619500Y-155892500D03*
X146050000Y-152273000D03*
X142875000Y-146685000D03*
X141605000Y-149225000D03*
X146685000Y-150495000D03*
X160337500Y-127508000D03*
X160274000Y-132715000D03*
X160274000Y-133477002D03*
X160274002Y-134239000D03*
X160274000Y-129413001D03*
X160274000Y-128777998D03*
X160274000Y-128143002D03*
X160274000Y-130810000D03*
X142875000Y-145415000D03*
X141605000Y-150495000D03*
X145415000Y-150495000D03*
X159639000Y-129206600D03*
X158956390Y-132588000D03*
X139065000Y-150495000D03*
X140462000Y-156972000D03*
X137795000Y-150495000D03*
X115062000Y-157861000D03*
X136525000Y-150495000D03*
X107759500Y-157797500D03*
X135255000Y-150495000D03*
X113030000Y-157607000D03*
X132715000Y-150495000D03*
X116586000Y-151003000D03*
X131445000Y-150495000D03*
X146685000Y-147955000D03*
X128905000Y-150495000D03*
X128048575Y-152264857D03*
X137033000Y-154253000D03*
X127635000Y-149225000D03*
X146685000Y-149225000D03*
X159666321Y-127294224D03*
X145415000Y-149225000D03*
X158496000Y-128836642D03*
X159512000Y-131572000D03*
X122047000Y-157035500D03*
X140335000Y-149225000D03*
X139954000Y-157353000D03*
X139065000Y-149225000D03*
X137795000Y-149225000D03*
X132016500Y-153162000D03*
X115697000Y-157734000D03*
X136525000Y-149225000D03*
X117729000Y-157861000D03*
X135255000Y-149225000D03*
X112762999Y-154953001D03*
X132715000Y-149225000D03*
X117094000Y-150495000D03*
X131445000Y-149225000D03*
X145415000Y-147955000D03*
X128905000Y-146685000D03*
X159111324Y-127979430D03*
X157353000Y-142621000D03*
X144145000Y-147955000D03*
X159766000Y-130302000D03*
X156718000Y-142113000D03*
X142875000Y-147955000D03*
X155956000Y-141605000D03*
X141605000Y-147955000D03*
X158877000Y-133556400D03*
X139954000Y-156591000D03*
X139065000Y-147955000D03*
X117221000Y-154952632D03*
X137795000Y-147955000D03*
X108775500Y-157861000D03*
X136525000Y-147955000D03*
X117770502Y-157193527D03*
X135255000Y-147955000D03*
X110744000Y-154559000D03*
X133985000Y-147955000D03*
X125222000Y-147701000D03*
X111506000Y-154559000D03*
X125870000Y-149720000D03*
X132715000Y-147955000D03*
X112141000Y-154686000D03*
X128905000Y-147955000D03*
X131445000Y-147955000D03*
X130605000Y-153150000D03*
X130175000Y-147955000D03*
X139700000Y-153100000D03*
X141605000Y-145415000D03*
X132715000Y-135255000D03*
X132715000Y-132715000D03*
X115951000Y-157099000D03*
X137795000Y-146685000D03*
X135890000Y-152653996D03*
X136525000Y-146685000D03*
X134620000Y-152654000D03*
X135255000Y-146685000D03*
X133985000Y-146685000D03*
X132715000Y-146685000D03*
X114046000Y-157480000D03*
X131445000Y-146685000D03*
X114506402Y-157099000D03*
X130175000Y-146685000D03*
X109664500Y-154686000D03*
X144145000Y-145415000D03*
X126238000Y-151765000D03*
X133985000Y-145415000D03*
X125603000Y-151511000D03*
X132715000Y-145415000D03*
X145415000Y-144145000D03*
X140335000Y-144145000D03*
X149140000Y-112210000D03*
X133985000Y-144145000D03*
X113665000Y-148590000D03*
X131445000Y-144145000D03*
X113919000Y-149225000D03*
X130175000Y-144145000D03*
X113538000Y-149860000D03*
X133985000Y-142875000D03*
X114300000Y-149733000D03*
X132715000Y-142875000D03*
X112776000Y-147701000D03*
X131445000Y-142875000D03*
X113284000Y-148082000D03*
X130175000Y-142875000D03*
X146685000Y-141605000D03*
X118600000Y-129000000D03*
X132715000Y-141605000D03*
X118100000Y-140000000D03*
X130175000Y-141605000D03*
X118600000Y-131400000D03*
X132715000Y-140335000D03*
X118600000Y-125400000D03*
X131445000Y-140335000D03*
X118600000Y-126600000D03*
X130175000Y-140335000D03*
X118600000Y-127800000D03*
X133985000Y-139065000D03*
X118000000Y-136700000D03*
X131445000Y-139065000D03*
X118000000Y-135500000D03*
X130175000Y-139065000D03*
X118600000Y-130200000D03*
X133985000Y-137795000D03*
X116000000Y-134500000D03*
X132715000Y-137795000D03*
X116700000Y-138700000D03*
X131445000Y-137795000D03*
X110400000Y-142100000D03*
X130175000Y-137795000D03*
X116507199Y-138100000D03*
X131445000Y-136525000D03*
X116718781Y-139338308D03*
X130175000Y-136525000D03*
X113792000Y-154559000D03*
X125349000Y-135001000D03*
X131445000Y-135255000D03*
X114147384Y-151629462D03*
X125349000Y-134239000D03*
X130175000Y-135255000D03*
X134005000Y-133950000D03*
X125205000Y-129550000D03*
X114046000Y-150749000D03*
X125349000Y-133477000D03*
X132715000Y-133985000D03*
X131405000Y-133950000D03*
X125205000Y-130550000D03*
X155951694Y-127007090D03*
X151886602Y-133916811D03*
X155945085Y-126449917D03*
X153289000Y-134619990D03*
X155965732Y-125893088D03*
X152549610Y-135210000D03*
X149225000Y-132715000D03*
X152549610Y-136010000D03*
X147955000Y-132715000D03*
X146685000Y-132715000D03*
X145415000Y-132715000D03*
X155956595Y-131864598D03*
X144145000Y-132715000D03*
X126111000Y-117729000D03*
X142875000Y-132715000D03*
X134747000Y-124333000D03*
X141605000Y-132715000D03*
X105092500Y-157670500D03*
X120967500Y-151003000D03*
X137795000Y-132715000D03*
X152123390Y-138715827D03*
X136525000Y-132715000D03*
X142748000Y-120650000D03*
X135255000Y-132715000D03*
X159750000Y-124000000D03*
X125349000Y-132715000D03*
X131445000Y-132715000D03*
X159350000Y-123600000D03*
X130175000Y-132715000D03*
X125349000Y-132080000D03*
X155955466Y-125335970D03*
X155946674Y-124778828D03*
X151900000Y-132700000D03*
X156000563Y-124224228D03*
X152412820Y-132412820D03*
X149225000Y-131445000D03*
X155475982Y-123179154D03*
X151740000Y-131410000D03*
X147955000Y-131445000D03*
X152146002Y-137922000D03*
X155568252Y-122066511D03*
X146685000Y-131445000D03*
X155959019Y-130750192D03*
X145415000Y-131445000D03*
X155954885Y-131307389D03*
X144145000Y-131445000D03*
X128231240Y-120523000D03*
X142875000Y-131445000D03*
X125603000Y-116205000D03*
X141605000Y-131445000D03*
X140335000Y-131445000D03*
X139065000Y-131445000D03*
X137795000Y-131445000D03*
X160274000Y-126619000D03*
X136477400Y-131445000D03*
X153035000Y-138684000D03*
X151696400Y-135255000D03*
X135255000Y-131445000D03*
X109537498Y-149352000D03*
X133985000Y-131445000D03*
X150622000Y-118237000D03*
X132715000Y-131445000D03*
X131445000Y-131445000D03*
X152590500Y-120142000D03*
X130175000Y-131445000D03*
X152091444Y-130810000D03*
X152908000Y-126174500D03*
X152096390Y-128910000D03*
X149225000Y-130175000D03*
X155509107Y-122620575D03*
X153308000Y-121414000D03*
X147955000Y-130175000D03*
X155948285Y-127564292D03*
X146685000Y-130175000D03*
X155948797Y-130193074D03*
X145415000Y-130175000D03*
X127635000Y-118749240D03*
X144145000Y-130175000D03*
X128019380Y-119249620D03*
X142875000Y-130175000D03*
X137690643Y-115731469D03*
X141605000Y-130175000D03*
X155953444Y-132421801D03*
X140335000Y-130175000D03*
X155321001Y-135128000D03*
X137795000Y-130175000D03*
X159884856Y-126078423D03*
X136525000Y-130175000D03*
X156004531Y-132976666D03*
X135255000Y-130175000D03*
X108331000Y-151003000D03*
X133985000Y-126301500D03*
X133985000Y-130175000D03*
X132715000Y-130175000D03*
X131445000Y-130175000D03*
X130175000Y-130175000D03*
X152809061Y-123520147D03*
X153170331Y-122588085D03*
X149225000Y-128905000D03*
X152740000Y-122100000D03*
X155949843Y-128121502D03*
X146685000Y-128905000D03*
X145415000Y-128905000D03*
X144145000Y-128905000D03*
X128270000Y-118248860D03*
X130810000Y-121031000D03*
X142875000Y-128905000D03*
X138002580Y-116252420D03*
X141605000Y-128905000D03*
X137795000Y-128905000D03*
X159233066Y-126038456D03*
X136525000Y-128905000D03*
X108585000Y-149352000D03*
X133985000Y-128905000D03*
X133286500Y-126047500D03*
X109410500Y-150495000D03*
X132764066Y-128855934D03*
X158821390Y-122206565D03*
X151765000Y-127635000D03*
X158821390Y-121649352D03*
X151765000Y-126365000D03*
X157861000Y-121920000D03*
X149225000Y-126365000D03*
X150495000Y-126365000D03*
X126746000Y-152146000D03*
X127381000Y-152273000D03*
X133858000Y-118110001D03*
X138905000Y-121250000D03*
X91376500Y-132715000D03*
X91313000Y-140589000D03*
X94389808Y-143925692D03*
X91355578Y-133370922D03*
X91366406Y-134058594D03*
X95758000Y-140335000D03*
X108077000Y-143637000D03*
X95117080Y-143123080D03*
X98002000Y-137941000D03*
X113202000Y-144541000D03*
X104802000Y-147941000D03*
X98602000Y-137541000D03*
X113202000Y-145741000D03*
X104802000Y-153141000D03*
X99202000Y-139741000D03*
X100002000Y-139541000D03*
X105854500Y-133350000D03*
X105727500Y-132651500D03*
X105600500Y-131953000D03*
X105727500Y-130556000D03*
X155701996Y-140462000D03*
X159200000Y-122850000D03*
X109855000Y-152146000D03*
X141097000Y-158242000D03*
X155956000Y-137541000D03*
X110553500Y-157988000D03*
X112569610Y-136906000D03*
X105410000Y-144526000D03*
X109924873Y-157471078D03*
X106934000Y-157734000D03*
X107569000Y-130429000D03*
X102405000Y-123360000D03*
X107569000Y-129667000D03*
X100965000Y-123317000D03*
X107315000Y-129032000D03*
X95758000Y-122555000D03*
X107442000Y-128397000D03*
X97193000Y-123317000D03*
X107569000Y-127762000D03*
X98381000Y-123317000D03*
X107569000Y-126365000D03*
X99606000Y-123317000D03*
X110202000Y-140741000D03*
X110202000Y-132341000D03*
X92201984Y-125541000D03*
X107569000Y-140081000D03*
X107639723Y-136087723D03*
X110109000Y-138811000D03*
X107696000Y-137541000D03*
X110109000Y-139573000D03*
X135255000Y-128905000D03*
X108902500Y-157162500D03*
X105473500Y-151828500D03*
X131445000Y-128905000D03*
X139446000Y-124587000D03*
D12*
X123761500Y-133159500D02*
X123761500Y-128651000D01*
X123761500Y-128651000D02*
X129921000Y-122491500D01*
X129921000Y-122491500D02*
X129921000Y-120904000D01*
X129921000Y-120904000D02*
X135763000Y-115062000D01*
X151955500Y-113538000D02*
X155130500Y-116713000D01*
X135763000Y-115062000D02*
X146113500Y-115062000D01*
X146113500Y-115062000D02*
X147637500Y-113538000D01*
X147637500Y-113538000D02*
X151955500Y-113538000D01*
X155130500Y-116713000D02*
X157670500Y-116713000D01*
X157670500Y-116713000D02*
X158051500Y-117094000D01*
X138132722Y-152527000D02*
X138132722Y-150832722D01*
X138132722Y-150832722D02*
X137795000Y-150495000D01*
X138684000Y-157353000D02*
X138684000Y-153078278D01*
X138684000Y-153078278D02*
X138132722Y-152527000D01*
X139192000Y-157861000D02*
X138684000Y-157353000D01*
X140080330Y-157861000D02*
X139192000Y-157861000D01*
X140462000Y-156972000D02*
X140462000Y-157479330D01*
X140462000Y-157479330D02*
X140080330Y-157861000D01*
X113258599Y-157835599D02*
X113030000Y-157607000D01*
X113792000Y-158369000D02*
X113258599Y-157835599D01*
X115696330Y-158369000D02*
X113792000Y-158369000D01*
X116205000Y-157607000D02*
X116205000Y-157860330D01*
X117428990Y-156383010D02*
X116205000Y-157607000D01*
X116205000Y-157860330D02*
X115696330Y-158369000D01*
X126699990Y-156383010D02*
X117428990Y-156383010D01*
X131318000Y-151892000D02*
X131191000Y-151892000D01*
X132715000Y-150495000D02*
X131318000Y-151892000D01*
X131191000Y-151892000D02*
X126699990Y-156383010D01*
X138557000Y-152527000D02*
X138557000Y-149733000D01*
X138557000Y-149733000D02*
X139065000Y-149225000D01*
X139065000Y-153035000D02*
X138557000Y-152527000D01*
X139954000Y-157353000D02*
X139065000Y-156464000D01*
X139065000Y-156464000D02*
X139065000Y-153035000D01*
X117729000Y-157861000D02*
X130048666Y-157861000D01*
X130048666Y-157861000D02*
X136017000Y-151892666D01*
X136017000Y-151892666D02*
X136017000Y-148082670D01*
X136017000Y-148082670D02*
X135381330Y-147447000D01*
X135381330Y-147447000D02*
X135128670Y-147447000D01*
X135128670Y-147447000D02*
X134620000Y-147955670D01*
X134620000Y-147955670D02*
X134620000Y-148590000D01*
X134620000Y-148590000D02*
X135255000Y-149225000D01*
X113617399Y-157685729D02*
X113617399Y-155807401D01*
X113840271Y-157908601D02*
X113617399Y-157685729D01*
X115062000Y-157226000D02*
X114379399Y-157908601D01*
X116205000Y-156083000D02*
X115062000Y-157226000D01*
X114379399Y-157908601D02*
X113840271Y-157908601D01*
X131064000Y-151511000D02*
X126492000Y-156083000D01*
X123571000Y-156083000D02*
X116205000Y-156083000D01*
X131274722Y-151511000D02*
X131064000Y-151511000D01*
X131486861Y-151298861D02*
X131274722Y-151511000D01*
X113617399Y-155807401D02*
X112762999Y-154953001D01*
X126492000Y-156083000D02*
X123571000Y-156083000D01*
X132080000Y-150705722D02*
X131486861Y-151298861D01*
X132080000Y-149860000D02*
X132080000Y-150705722D01*
X132715000Y-149225000D02*
X132080000Y-149860000D01*
X159537401Y-130530599D02*
X159766000Y-130302000D01*
X156718000Y-142113000D02*
X157019601Y-141811399D01*
X157019601Y-141811399D02*
X157019601Y-133048399D01*
X157019601Y-133048399D02*
X159537401Y-130530599D01*
X155956000Y-141605000D02*
X155956000Y-142621000D01*
X155956000Y-142621000D02*
X156718000Y-143383000D01*
X158877000Y-142494000D02*
X158877000Y-133879689D01*
X156718000Y-143383000D02*
X157988000Y-143383000D01*
X157988000Y-143383000D02*
X158877000Y-142494000D01*
X158877000Y-133879689D02*
X158877000Y-133556400D01*
X140462000Y-151765000D02*
X139493601Y-150796601D01*
X139493601Y-150796601D02*
X139493601Y-148383601D01*
X139493601Y-148383601D02*
X139293599Y-148183599D01*
X139293599Y-148183599D02*
X139065000Y-147955000D01*
X139954000Y-156591000D02*
X140462000Y-156083000D01*
X140462000Y-156083000D02*
X140462000Y-151765000D01*
X133604000Y-153797000D02*
X129921000Y-157480000D01*
X133604000Y-152908000D02*
X133604000Y-153797000D01*
X134620000Y-151892000D02*
X133604000Y-152908000D01*
X134874000Y-149860000D02*
X134620000Y-150114000D01*
X135254330Y-149860000D02*
X134874000Y-149860000D01*
X135683601Y-148383601D02*
X135683601Y-149430729D01*
X135255000Y-147955000D02*
X135683601Y-148383601D01*
X129921000Y-157480000D02*
X118056975Y-157480000D01*
X135683601Y-149430729D02*
X135254330Y-149860000D01*
X117999101Y-157422126D02*
X117770502Y-157193527D01*
X118056975Y-157480000D02*
X117999101Y-157422126D01*
X134620000Y-150114000D02*
X134620000Y-151892000D01*
X132715000Y-147955000D02*
X132080000Y-148590000D01*
X132080000Y-148590000D02*
X127000000Y-148590000D01*
X127000000Y-148590000D02*
X125870000Y-149720000D01*
X131445000Y-147955000D02*
X130937000Y-147447000D01*
X130937000Y-147447000D02*
X129413000Y-147447000D01*
X129413000Y-147447000D02*
X128905000Y-147955000D01*
X123109011Y-155401989D02*
X115569083Y-155401989D01*
X115569083Y-155401989D02*
X114046000Y-156925072D01*
X114046000Y-156925072D02*
X114046000Y-157156711D01*
X114046000Y-157156711D02*
X114046000Y-157480000D01*
X124714000Y-153797000D02*
X123109011Y-155401989D01*
X131016399Y-146256399D02*
X128697931Y-146256399D01*
X128697931Y-146256399D02*
X127634330Y-147320000D01*
X127000000Y-147320000D02*
X124714000Y-149606000D01*
X124714000Y-149606000D02*
X124714000Y-153797000D01*
X131445000Y-146685000D02*
X131016399Y-146256399D01*
X127634330Y-147320000D02*
X127000000Y-147320000D01*
X115903402Y-155702000D02*
X123444000Y-155702000D01*
X123444000Y-155702000D02*
X125174399Y-153971601D01*
X128143000Y-147701000D02*
X128730399Y-147113601D01*
X125174399Y-149781271D02*
X127254670Y-147701000D01*
X125174399Y-153971601D02*
X125174399Y-149781271D01*
X127254670Y-147701000D02*
X128143000Y-147701000D01*
X129946401Y-146913599D02*
X130175000Y-146685000D01*
X129746399Y-147113601D02*
X129946401Y-146913599D01*
X128730399Y-147113601D02*
X129746399Y-147113601D01*
X114506402Y-157099000D02*
X115903402Y-155702000D01*
X113665000Y-148590000D02*
X114554000Y-148590000D01*
X114554000Y-148590000D02*
X118364000Y-144780000D01*
X118364000Y-144780000D02*
X128524000Y-144780000D01*
X128524000Y-144780000D02*
X129587601Y-143716399D01*
X129587601Y-143716399D02*
X131016399Y-143716399D01*
X131016399Y-143716399D02*
X131216401Y-143916401D01*
X131216401Y-143916401D02*
X131445000Y-144145000D01*
X113919000Y-149225000D02*
X114554000Y-149225000D01*
X114554000Y-149225000D02*
X118618000Y-145161000D01*
X118618000Y-145161000D02*
X129159000Y-145161000D01*
X129159000Y-145161000D02*
X130175000Y-144145000D01*
X133350000Y-145414330D02*
X133350000Y-143510000D01*
X133350000Y-143510000D02*
X133985000Y-142875000D01*
X118872000Y-145923000D02*
X132841330Y-145923000D01*
X132841330Y-145923000D02*
X133350000Y-145414330D01*
X114554000Y-150241000D02*
X118872000Y-145923000D01*
X113919000Y-150241000D02*
X114554000Y-150241000D01*
X113538000Y-149860000D02*
X113919000Y-150241000D01*
X114300000Y-149733000D02*
X114554000Y-149733000D01*
X114554000Y-149733000D02*
X118745000Y-145542000D01*
X131572000Y-145542000D02*
X132080000Y-145034000D01*
X132080000Y-145034000D02*
X132080000Y-143510000D01*
X118745000Y-145542000D02*
X131572000Y-145542000D01*
X132080000Y-143510000D02*
X132715000Y-142875000D01*
X128270000Y-143510000D02*
X129279990Y-142500010D01*
X129279990Y-142500010D02*
X129915660Y-142500010D01*
X129915660Y-142500010D02*
X129969271Y-142446399D01*
X129969271Y-142446399D02*
X131016399Y-142446399D01*
X131016399Y-142446399D02*
X131216401Y-142646401D01*
X131216401Y-142646401D02*
X131445000Y-142875000D01*
X118491000Y-143510000D02*
X128270000Y-143510000D01*
X114528599Y-147472401D02*
X118491000Y-143510000D01*
X112776000Y-147701000D02*
X113004599Y-147472401D01*
X113004599Y-147472401D02*
X114528599Y-147472401D01*
X113284000Y-148082000D02*
X114554000Y-148082000D01*
X129286000Y-143256000D02*
X129794000Y-143256000D01*
X114554000Y-148082000D02*
X118257399Y-144378601D01*
X118257399Y-144378601D02*
X128417399Y-144378601D01*
X128778000Y-144018000D02*
X128778000Y-143764000D01*
X128417399Y-144378601D02*
X128778000Y-144018000D01*
X128778000Y-143764000D02*
X129286000Y-143256000D01*
X129794000Y-143256000D02*
X130175000Y-142875000D01*
X118100000Y-140000000D02*
X120300000Y-142200000D01*
X120300000Y-142200000D02*
X129580000Y-142200000D01*
X129580000Y-142200000D02*
X130175000Y-141605000D01*
X130000000Y-139800000D02*
X130710000Y-139800000D01*
X130710000Y-139800000D02*
X131445000Y-139065000D01*
X129500000Y-139300000D02*
X130000000Y-139800000D01*
X129500000Y-138951670D02*
X129500000Y-139300000D01*
X125800000Y-137900000D02*
X128448330Y-137900000D01*
X128448330Y-137900000D02*
X129500000Y-138951670D01*
X124371401Y-136471401D02*
X125800000Y-137900000D01*
X118000000Y-136700000D02*
X118228599Y-136471401D01*
X118228599Y-136471401D02*
X124371401Y-136471401D01*
X118000000Y-135500000D02*
X123900000Y-135500000D01*
X123900000Y-135500000D02*
X125600000Y-137200000D01*
X125600000Y-137200000D02*
X128310000Y-137200000D01*
X128310000Y-137200000D02*
X130175000Y-139065000D01*
X116700000Y-138700000D02*
X116471401Y-138928599D01*
X122900000Y-134000000D02*
X125600000Y-136700000D01*
X125600000Y-136700000D02*
X129100000Y-136700000D01*
X116471401Y-138928599D02*
X115828599Y-138928599D01*
X115828599Y-138928599D02*
X114700000Y-137800000D01*
X117178601Y-134000000D02*
X122900000Y-134000000D01*
X114700000Y-137800000D02*
X114700000Y-136400000D01*
X114700000Y-136400000D02*
X114778601Y-136400000D01*
X114778601Y-136400000D02*
X117178601Y-134000000D01*
X129100000Y-136700000D02*
X129700000Y-137300000D01*
X129700000Y-137300000D02*
X130950000Y-137300000D01*
X130950000Y-137300000D02*
X131445000Y-137795000D01*
X116507199Y-138100000D02*
X117100000Y-138100000D01*
X131488330Y-141000000D02*
X132100000Y-140388330D01*
X117100000Y-138100000D02*
X120000000Y-141000000D01*
X120000000Y-141000000D02*
X131488330Y-141000000D01*
X132100000Y-140388330D02*
X132100000Y-137180000D01*
X132100000Y-137180000D02*
X131445000Y-136525000D01*
X114349990Y-138849990D02*
X114838308Y-139338308D01*
X114838308Y-139338308D02*
X116718781Y-139338308D01*
X115950010Y-133649990D02*
X114349990Y-135250010D01*
X114349990Y-135250010D02*
X114349990Y-138849990D01*
X123044978Y-133649990D02*
X115950010Y-133649990D01*
X126096401Y-136296401D02*
X125691389Y-136296401D01*
X125691389Y-136296401D02*
X123044978Y-133649990D01*
X130175000Y-136525000D02*
X129946401Y-136296401D01*
X129946401Y-136296401D02*
X126096401Y-136296401D01*
X129667000Y-135890000D02*
X130810000Y-135890000D01*
X130810000Y-135890000D02*
X131445000Y-135255000D01*
X128524000Y-134747000D02*
X129667000Y-135890000D01*
X126111000Y-134747000D02*
X128524000Y-134747000D01*
X125857000Y-135001000D02*
X126111000Y-134747000D01*
X125349000Y-135001000D02*
X125857000Y-135001000D01*
X125349000Y-134239000D02*
X129159000Y-134239000D01*
X129159000Y-134239000D02*
X130175000Y-135255000D01*
X125349000Y-133477000D02*
X129413000Y-133477000D01*
X129413000Y-133477000D02*
X130556000Y-134620000D01*
X130556000Y-134620000D02*
X132080000Y-134620000D01*
X132486401Y-134213599D02*
X132715000Y-133985000D01*
X132080000Y-134620000D02*
X132486401Y-134213599D01*
D13*
X152226321Y-136010000D02*
X152549610Y-136010000D01*
X151250000Y-136010000D02*
X152226321Y-136010000D01*
X147955000Y-132715000D02*
X151250000Y-136010000D01*
D12*
X144653000Y-133223000D02*
X147828000Y-133223000D01*
X155633306Y-131864598D02*
X155956595Y-131864598D01*
X153717601Y-135628843D02*
X153717601Y-133780303D01*
X152821447Y-136524997D02*
X153717601Y-135628843D01*
X151129997Y-136524997D02*
X152821447Y-136524997D01*
X153717601Y-133780303D02*
X155633306Y-131864598D01*
X147828000Y-133223000D02*
X151129997Y-136524997D01*
X144145000Y-132715000D02*
X144653000Y-133223000D01*
X107505500Y-152908000D02*
X105092500Y-155321000D01*
X105092500Y-155321000D02*
X105092500Y-157670500D01*
X120967500Y-151003000D02*
X119062500Y-152908000D01*
X119062500Y-152908000D02*
X107505500Y-152908000D01*
D13*
X135255000Y-132715000D02*
X135763000Y-132207000D01*
X135763000Y-132207000D02*
X135763000Y-130048000D01*
X135763000Y-130048000D02*
X134620000Y-128905000D01*
X140589000Y-120650000D02*
X142748000Y-120650000D01*
X134620000Y-128905000D02*
X134620000Y-126619000D01*
X134620000Y-126619000D02*
X140589000Y-120650000D01*
D12*
X125349000Y-132715000D02*
X124250000Y-131616000D01*
X124250000Y-131616000D02*
X124250000Y-128900000D01*
X140906500Y-117157500D02*
X156907500Y-117157500D01*
X124250000Y-128900000D02*
X134628611Y-118521389D01*
X134628611Y-118521389D02*
X139542611Y-118521389D01*
X139542611Y-118521389D02*
X140906500Y-117157500D01*
X156907500Y-117157500D02*
X160050000Y-120300000D01*
X160050000Y-120300000D02*
X160050000Y-123700000D01*
X160050000Y-123700000D02*
X159750000Y-124000000D01*
D13*
X129605632Y-133210000D02*
X130950000Y-133210000D01*
X130950000Y-133210000D02*
X131445000Y-132715000D01*
X125349000Y-132715000D02*
X125577599Y-132486401D01*
X125577599Y-132486401D02*
X127192269Y-132486401D01*
X127192269Y-132486401D02*
X127417271Y-132261399D01*
X127417271Y-132261399D02*
X128657031Y-132261399D01*
X128657031Y-132261399D02*
X129605632Y-133210000D01*
D12*
X125349000Y-132080000D02*
X124650000Y-131381000D01*
X124650000Y-131381000D02*
X124650000Y-129000000D01*
X124650000Y-129000000D02*
X134828601Y-118821399D01*
X139750601Y-118821399D02*
X141097000Y-117475000D01*
X159700000Y-120450000D02*
X159700000Y-123250000D01*
X134828601Y-118821399D02*
X139750601Y-118821399D01*
X141097000Y-117475000D02*
X156725000Y-117475000D01*
X156725000Y-117475000D02*
X159700000Y-120450000D01*
X159700000Y-123250000D02*
X159350000Y-123600000D01*
X129946401Y-132486401D02*
X130175000Y-132715000D01*
X129159000Y-131699000D02*
X129946401Y-132486401D01*
X125349000Y-132080000D02*
X125730000Y-131699000D01*
X125730000Y-131699000D02*
X129159000Y-131699000D01*
X145843601Y-131873601D02*
X151361601Y-131873601D01*
X151396601Y-131838601D02*
X154450642Y-131838601D01*
X145415000Y-131445000D02*
X145843601Y-131873601D01*
X151361601Y-131873601D02*
X151396601Y-131838601D01*
X154450642Y-131838601D02*
X155539051Y-130750192D01*
X155539051Y-130750192D02*
X155635730Y-130750192D01*
X155635730Y-130750192D02*
X155959019Y-130750192D01*
X144873611Y-132173611D02*
X149953611Y-132173611D01*
X144145000Y-131445000D02*
X144873611Y-132173611D01*
X155537637Y-131307389D02*
X155631596Y-131307389D01*
X153716425Y-133128601D02*
X155537637Y-131307389D01*
X150908601Y-133128601D02*
X153716425Y-133128601D01*
X155631596Y-131307389D02*
X155954885Y-131307389D01*
X149953611Y-132173611D02*
X150908601Y-133128601D01*
X150139401Y-118465599D02*
X150393401Y-118465599D01*
X135395000Y-133210000D02*
X150139401Y-118465599D01*
X134480000Y-133210000D02*
X135395000Y-133210000D01*
X132715000Y-131445000D02*
X134480000Y-133210000D01*
X150393401Y-118465599D02*
X150622000Y-118237000D01*
D13*
X155104052Y-128050000D02*
X155589760Y-127564292D01*
X148810000Y-128050000D02*
X155104052Y-128050000D01*
X155624996Y-127564292D02*
X155948285Y-127564292D01*
X155589760Y-127564292D02*
X155624996Y-127564292D01*
X146685000Y-130175000D02*
X148810000Y-128050000D01*
D12*
X155625508Y-130193074D02*
X155948797Y-130193074D01*
X150322111Y-130220889D02*
X155597693Y-130220889D01*
X145415000Y-130175000D02*
X146093611Y-130853611D01*
X146093611Y-130853611D02*
X149689389Y-130853611D01*
X149689389Y-130853611D02*
X150322111Y-130220889D01*
X155597693Y-130220889D02*
X155625508Y-130193074D01*
X152945715Y-136825008D02*
X154017612Y-135753111D01*
X154017612Y-134034344D02*
X155630155Y-132421801D01*
X142493998Y-134492998D02*
X148673722Y-134493000D01*
X140335000Y-130175000D02*
X140970000Y-130810000D01*
X140970000Y-132969000D02*
X142493998Y-134492998D01*
X148673722Y-134493000D02*
X151005729Y-136825008D01*
X140970000Y-130810000D02*
X140970000Y-132969000D01*
X155630155Y-132421801D02*
X155953444Y-132421801D01*
X154017612Y-135753111D02*
X154017612Y-134034344D01*
X151005729Y-136825008D02*
X152945715Y-136825008D01*
X156004531Y-132976666D02*
X154317623Y-134663574D01*
X133223000Y-130937000D02*
X133477000Y-130683000D01*
X150587019Y-137125019D02*
X148255010Y-134793010D01*
X154317623Y-134663574D02*
X154317623Y-135877379D01*
X133667500Y-129667000D02*
X134747000Y-129667000D01*
X141180722Y-133604000D02*
X135890000Y-133604000D01*
X154317623Y-135877379D02*
X153069983Y-137125019D01*
X153069983Y-137125019D02*
X150587019Y-137125019D01*
X132207000Y-131127500D02*
X132397500Y-130937000D01*
X148255010Y-134793010D02*
X142369730Y-134793008D01*
X132207000Y-131571330D02*
X132207000Y-131127500D01*
X142369730Y-134793008D02*
X141180722Y-133604000D01*
X135890000Y-133604000D02*
X135796010Y-133510010D01*
X135796010Y-133510010D02*
X134145680Y-133510010D01*
X132397500Y-130937000D02*
X133223000Y-130937000D01*
X134145680Y-133510010D02*
X132207000Y-131571330D01*
X133477000Y-130683000D02*
X133477000Y-129857500D01*
X133477000Y-129857500D02*
X133667500Y-129667000D01*
X134747000Y-129667000D02*
X135255000Y-130175000D01*
D13*
X155721244Y-128350101D02*
X155949843Y-128121502D01*
X149418729Y-130578601D02*
X151647229Y-128350101D01*
X146453601Y-130578601D02*
X149418729Y-130578601D01*
X146685000Y-128905000D02*
X146281399Y-129308601D01*
X146281399Y-129308601D02*
X146281399Y-130406399D01*
X146281399Y-130406399D02*
X146453601Y-130578601D01*
X151647229Y-128350101D02*
X155721244Y-128350101D01*
X151765000Y-127635000D02*
X152088289Y-127635000D01*
X158592791Y-122435164D02*
X158821390Y-122206565D01*
X152088289Y-127635000D02*
X155321000Y-124402289D01*
X155321000Y-124402289D02*
X155321000Y-124285034D01*
X155321000Y-124285034D02*
X155847531Y-123758503D01*
X155847531Y-123758503D02*
X157269452Y-123758503D01*
X157269452Y-123758503D02*
X158592791Y-122435164D01*
X156982634Y-123447991D02*
X158781273Y-121649352D01*
X155804475Y-123447991D02*
X156982634Y-123447991D01*
X155669711Y-123582755D02*
X155804475Y-123447991D01*
X158781273Y-121649352D02*
X158821390Y-121649352D01*
X154547245Y-123582755D02*
X155669711Y-123582755D01*
X151765000Y-126365000D02*
X154547245Y-123582755D01*
D12*
X94389808Y-143925692D02*
X94389808Y-136405152D01*
X94389808Y-136405152D02*
X91355578Y-133370922D01*
X91595005Y-134287193D02*
X91366406Y-134058594D01*
X92138500Y-134830688D02*
X91595005Y-134287193D01*
X94590729Y-145512601D02*
X92744101Y-145512601D01*
X95758000Y-140335000D02*
X95758000Y-144345330D01*
X92138500Y-144907000D02*
X92138500Y-134830688D01*
X92744101Y-145512601D02*
X92138500Y-144907000D01*
X95758000Y-144345330D02*
X94590729Y-145512601D01*
X102405000Y-123360000D02*
X102405000Y-126154000D01*
X102405000Y-126154000D02*
X106680000Y-130429000D01*
X106680000Y-130429000D02*
X107569000Y-130429000D01*
X100965000Y-123317000D02*
X101727000Y-122555000D01*
X101727000Y-122555000D02*
X102743000Y-122555000D01*
X102743000Y-122555000D02*
X103505000Y-123317000D01*
X103505000Y-123317000D02*
X103505000Y-126492000D01*
X103505000Y-126492000D02*
X106680000Y-129667000D01*
X106680000Y-129667000D02*
X107569000Y-129667000D01*
X99606000Y-123317000D02*
X101003000Y-121920000D01*
X101003000Y-121920000D02*
X102743000Y-121920000D01*
X102743000Y-121920000D02*
X107188000Y-126365000D01*
X107188000Y-126365000D02*
X107569000Y-126365000D01*
M02*
