G04 #@! TF.GenerationSoftware,KiCad,Pcbnew,no-vcs-found-2a301d5~58~ubuntu16.04.1*
G04 #@! TF.CreationDate,2017-07-11T21:04:36-03:00*
G04 #@! TF.ProjectId,mateboard,6D617465626F6172642E6B696361645F,rev?*
G04 #@! TF.SameCoordinates,Original
G04 #@! TF.FileFunction,Soldermask,Bot*
G04 #@! TF.FilePolarity,Negative*
%FSLAX46Y46*%
G04 Gerber Fmt 4.6, Leading zero omitted, Abs format (unit mm)*
G04 Created by KiCad (PCBNEW no-vcs-found-2a301d5~58~ubuntu16.04.1) date Tue Jul 11 21:04:36 2017*
%MOMM*%
%LPD*%
G01*
G04 APERTURE LIST*
%ADD10C,3.400000*%
%ADD11C,1.700000*%
%ADD12R,0.398120X1.337920*%
%ADD13R,0.550000X1.337920*%
%ADD14R,1.337920X0.398120*%
%ADD15R,1.337920X0.550000*%
G04 APERTURE END LIST*
D10*
X156000000Y-112000000D03*
X156000000Y-154000000D03*
X94000000Y-154000000D03*
D11*
X102700000Y-128155000D03*
X102700000Y-130060000D03*
X102763500Y-131965000D03*
X91270000Y-140791500D03*
X106637000Y-132600000D03*
X93238500Y-140728000D03*
X95143500Y-140791500D03*
X101000000Y-145000000D03*
X99000000Y-144000000D03*
X147277000Y-147205000D03*
X147277000Y-142887000D03*
X136990000Y-143649000D03*
X147300000Y-145100000D03*
D10*
X94000000Y-112000000D03*
D12*
X118799580Y-152681740D03*
X118799580Y-155318260D03*
X118398260Y-152681740D03*
X118398260Y-155318260D03*
X117999480Y-152681740D03*
X117999480Y-155318260D03*
X117598160Y-152681740D03*
X117598160Y-155318260D03*
X117199380Y-152681740D03*
X117199380Y-155318260D03*
X116798060Y-152681740D03*
X116798060Y-155318260D03*
X116399280Y-152681740D03*
X116399280Y-155318260D03*
X115997960Y-152681740D03*
X115997960Y-155318260D03*
X115599180Y-152681740D03*
X115599180Y-155318260D03*
X115197860Y-152681740D03*
X115197860Y-155318260D03*
X114799080Y-152681740D03*
X114799080Y-155318260D03*
X114397760Y-152681740D03*
X114397760Y-155318260D03*
X113998980Y-152681740D03*
X113998980Y-155318260D03*
X113597660Y-152681740D03*
X113597660Y-155318260D03*
X113198880Y-152681740D03*
X113198880Y-155318260D03*
X112797560Y-152681740D03*
X112797560Y-155318260D03*
X112398780Y-152681740D03*
X112398780Y-155318260D03*
X112000000Y-152681740D03*
X112000000Y-155318260D03*
X111601220Y-152681740D03*
X111601220Y-155318260D03*
X111202440Y-152681740D03*
X111202440Y-155318260D03*
X110801120Y-152681740D03*
X110801120Y-155318260D03*
X110402340Y-152681740D03*
X110402340Y-155318260D03*
X110001020Y-152681740D03*
X110001020Y-155318260D03*
X109602240Y-152681740D03*
X109602240Y-155318260D03*
X109200920Y-152681740D03*
X109200920Y-155318260D03*
X108802140Y-152681740D03*
X108802140Y-155318260D03*
X108400820Y-152681740D03*
X108400820Y-155318260D03*
X108002040Y-152681740D03*
X108002040Y-155318260D03*
X107600720Y-152681740D03*
X107600720Y-155318260D03*
X107201940Y-152681740D03*
X107201940Y-155318260D03*
X106800620Y-152681740D03*
X106800620Y-155318260D03*
X106401840Y-152681740D03*
X106401840Y-155318260D03*
X106000520Y-152681740D03*
X106000520Y-155318260D03*
X105601740Y-152681740D03*
X105601740Y-155318260D03*
X105200420Y-152681740D03*
X105200420Y-155318260D03*
D13*
X104800420Y-152681740D03*
X104800420Y-155318260D03*
X119200420Y-155318260D03*
X119200420Y-152681740D03*
D14*
X156318260Y-133299580D03*
X153681740Y-133299580D03*
X156318260Y-132898260D03*
X153681740Y-132898260D03*
X156318260Y-132499480D03*
X153681740Y-132499480D03*
X156318260Y-132098160D03*
X153681740Y-132098160D03*
X156318260Y-131699380D03*
X153681740Y-131699380D03*
X156318260Y-131298060D03*
X153681740Y-131298060D03*
X156318260Y-130899280D03*
X153681740Y-130899280D03*
X156318260Y-130497960D03*
X153681740Y-130497960D03*
X156318260Y-130099180D03*
X153681740Y-130099180D03*
X156318260Y-129697860D03*
X153681740Y-129697860D03*
X156318260Y-129299080D03*
X153681740Y-129299080D03*
X156318260Y-128897760D03*
X153681740Y-128897760D03*
X156318260Y-128498980D03*
X153681740Y-128498980D03*
X156318260Y-128097660D03*
X153681740Y-128097660D03*
X156318260Y-127698880D03*
X153681740Y-127698880D03*
X156318260Y-127297560D03*
X153681740Y-127297560D03*
X156318260Y-126898780D03*
X153681740Y-126898780D03*
X156318260Y-126500000D03*
X153681740Y-126500000D03*
X156318260Y-126101220D03*
X153681740Y-126101220D03*
X156318260Y-125702440D03*
X153681740Y-125702440D03*
X156318260Y-125301120D03*
X153681740Y-125301120D03*
X156318260Y-124902340D03*
X153681740Y-124902340D03*
X156318260Y-124501020D03*
X153681740Y-124501020D03*
X156318260Y-124102240D03*
X153681740Y-124102240D03*
X156318260Y-123700920D03*
X153681740Y-123700920D03*
X156318260Y-123302140D03*
X153681740Y-123302140D03*
X156318260Y-122900820D03*
X153681740Y-122900820D03*
X156318260Y-122502040D03*
X153681740Y-122502040D03*
X156318260Y-122100720D03*
X153681740Y-122100720D03*
X156318260Y-121701940D03*
X153681740Y-121701940D03*
X156318260Y-121300620D03*
X153681740Y-121300620D03*
X156318260Y-120901840D03*
X153681740Y-120901840D03*
X156318260Y-120500520D03*
X153681740Y-120500520D03*
X156318260Y-120101740D03*
X153681740Y-120101740D03*
X156318260Y-119700420D03*
X153681740Y-119700420D03*
D15*
X156318260Y-119300420D03*
X153681740Y-119300420D03*
X153681740Y-133700420D03*
X156318260Y-133700420D03*
D11*
X137625000Y-124472000D03*
X141816000Y-137299000D03*
M02*
