G04 #@! TF.FileFunction,Soldermask,Bot*
%FSLAX46Y46*%
G04 Gerber Fmt 4.6, Leading zero omitted, Abs format (unit mm)*
G04 Created by KiCad (PCBNEW 4.0.6-e0-6349~53~ubuntu16.04.1) date Tue May  2 19:00:15 2017*
%MOMM*%
%LPD*%
G01*
G04 APERTURE LIST*
%ADD10C,0.100000*%
%ADD11C,3.400000*%
%ADD12C,1.700000*%
%ADD13R,0.398120X1.337920*%
%ADD14R,0.550000X1.337920*%
%ADD15R,1.337920X0.398120*%
%ADD16R,1.337920X0.550000*%
G04 APERTURE END LIST*
D10*
D11*
X156805000Y-112750000D03*
X156805000Y-154750000D03*
X94805000Y-154750000D03*
D12*
X103505000Y-128905000D03*
X103505000Y-130810000D03*
X103568500Y-132715000D03*
X92075000Y-141541500D03*
X107442000Y-133350000D03*
X94043500Y-141478000D03*
X95948500Y-141541500D03*
X101805000Y-145750000D03*
X99805000Y-144750000D03*
X148082000Y-147955000D03*
X148082000Y-143637000D03*
X137795000Y-144399000D03*
X148105000Y-145850000D03*
D11*
X94805000Y-112750000D03*
D13*
X119341920Y-153373480D03*
X119341920Y-156010000D03*
X118940600Y-153373480D03*
X118940600Y-156010000D03*
X118541820Y-153373480D03*
X118541820Y-156010000D03*
X118140500Y-153373480D03*
X118140500Y-156010000D03*
X117741720Y-153373480D03*
X117741720Y-156010000D03*
X117340400Y-153373480D03*
X117340400Y-156010000D03*
X116941620Y-153373480D03*
X116941620Y-156010000D03*
X116540300Y-153373480D03*
X116540300Y-156010000D03*
X116141520Y-153373480D03*
X116141520Y-156010000D03*
X115740200Y-153373480D03*
X115740200Y-156010000D03*
X115341420Y-153373480D03*
X115341420Y-156010000D03*
X114940100Y-153373480D03*
X114940100Y-156010000D03*
X114541320Y-153373480D03*
X114541320Y-156010000D03*
X114140000Y-153373480D03*
X114140000Y-156010000D03*
X113741220Y-153373480D03*
X113741220Y-156010000D03*
X113339900Y-153373480D03*
X113339900Y-156010000D03*
X112941120Y-153373480D03*
X112941120Y-156010000D03*
X112542340Y-153373480D03*
X112542340Y-156010000D03*
X112143560Y-153373480D03*
X112143560Y-156010000D03*
X111744780Y-153373480D03*
X111744780Y-156010000D03*
X111343460Y-153373480D03*
X111343460Y-156010000D03*
X110944680Y-153373480D03*
X110944680Y-156010000D03*
X110543360Y-153373480D03*
X110543360Y-156010000D03*
X110144580Y-153373480D03*
X110144580Y-156010000D03*
X109743260Y-153373480D03*
X109743260Y-156010000D03*
X109344480Y-153373480D03*
X109344480Y-156010000D03*
X108943160Y-153373480D03*
X108943160Y-156010000D03*
X108544380Y-153373480D03*
X108544380Y-156010000D03*
X108143060Y-153373480D03*
X108143060Y-156010000D03*
X107744280Y-153373480D03*
X107744280Y-156010000D03*
X107342960Y-153373480D03*
X107342960Y-156010000D03*
X106944180Y-153373480D03*
X106944180Y-156010000D03*
X106542860Y-153373480D03*
X106542860Y-156010000D03*
X106144080Y-153373480D03*
X106144080Y-156010000D03*
X105742760Y-153373480D03*
X105742760Y-156010000D03*
D14*
X105342760Y-153373480D03*
X105342760Y-156010000D03*
X119742760Y-156010000D03*
X119742760Y-153373480D03*
D15*
X156972000Y-134063740D03*
X154335480Y-134063740D03*
X156972000Y-133662420D03*
X154335480Y-133662420D03*
X156972000Y-133263640D03*
X154335480Y-133263640D03*
X156972000Y-132862320D03*
X154335480Y-132862320D03*
X156972000Y-132463540D03*
X154335480Y-132463540D03*
X156972000Y-132062220D03*
X154335480Y-132062220D03*
X156972000Y-131663440D03*
X154335480Y-131663440D03*
X156972000Y-131262120D03*
X154335480Y-131262120D03*
X156972000Y-130863340D03*
X154335480Y-130863340D03*
X156972000Y-130462020D03*
X154335480Y-130462020D03*
X156972000Y-130063240D03*
X154335480Y-130063240D03*
X156972000Y-129661920D03*
X154335480Y-129661920D03*
X156972000Y-129263140D03*
X154335480Y-129263140D03*
X156972000Y-128861820D03*
X154335480Y-128861820D03*
X156972000Y-128463040D03*
X154335480Y-128463040D03*
X156972000Y-128061720D03*
X154335480Y-128061720D03*
X156972000Y-127662940D03*
X154335480Y-127662940D03*
X156972000Y-127264160D03*
X154335480Y-127264160D03*
X156972000Y-126865380D03*
X154335480Y-126865380D03*
X156972000Y-126466600D03*
X154335480Y-126466600D03*
X156972000Y-126065280D03*
X154335480Y-126065280D03*
X156972000Y-125666500D03*
X154335480Y-125666500D03*
X156972000Y-125265180D03*
X154335480Y-125265180D03*
X156972000Y-124866400D03*
X154335480Y-124866400D03*
X156972000Y-124465080D03*
X154335480Y-124465080D03*
X156972000Y-124066300D03*
X154335480Y-124066300D03*
X156972000Y-123664980D03*
X154335480Y-123664980D03*
X156972000Y-123266200D03*
X154335480Y-123266200D03*
X156972000Y-122864880D03*
X154335480Y-122864880D03*
X156972000Y-122466100D03*
X154335480Y-122466100D03*
X156972000Y-122064780D03*
X154335480Y-122064780D03*
X156972000Y-121666000D03*
X154335480Y-121666000D03*
X156972000Y-121264680D03*
X154335480Y-121264680D03*
X156972000Y-120865900D03*
X154335480Y-120865900D03*
X156972000Y-120464580D03*
X154335480Y-120464580D03*
D16*
X156972000Y-120064580D03*
X154335480Y-120064580D03*
X154335480Y-134464580D03*
X156972000Y-134464580D03*
D12*
X138430000Y-125222000D03*
M02*
