G04 #@! TF.FileFunction,Copper,L5,Inr,Plane*
%FSLAX46Y46*%
G04 Gerber Fmt 4.6, Leading zero omitted, Abs format (unit mm)*
G04 Created by KiCad (PCBNEW 4.0.6-e0-6349~53~ubuntu16.04.1) date Tue May  2 19:00:15 2017*
%MOMM*%
%LPD*%
G01*
G04 APERTURE LIST*
%ADD10C,0.100000*%
%ADD11C,0.457200*%
%ADD12C,0.300000*%
%ADD13C,0.500000*%
%ADD14C,0.200000*%
G04 APERTURE END LIST*
D10*
D11*
X105918000Y-157035500D03*
X151940004Y-110710000D03*
X151240000Y-110710000D03*
X152740000Y-110710000D03*
X123444000Y-110744000D03*
X124206000Y-110744000D03*
X122555000Y-110744000D03*
X148323000Y-123050000D03*
X122936000Y-152273000D03*
X116713000Y-157734000D03*
X108648500Y-154686000D03*
X132105000Y-124348890D03*
X114808000Y-154432000D03*
X112141000Y-157353000D03*
X128778000Y-155829000D03*
X155952528Y-129635875D03*
X159385000Y-124841000D03*
X156591000Y-135255000D03*
X151993600Y-129792279D03*
X155800000Y-121100000D03*
X155400000Y-139500000D03*
X131940000Y-120510000D03*
X149540000Y-153810000D03*
X93540000Y-129171620D03*
X93540000Y-128470580D03*
X93540000Y-136867820D03*
X93540000Y-131970700D03*
X93540000Y-131269660D03*
X98614660Y-127510000D03*
X100014200Y-127510000D03*
X103640000Y-134068740D03*
X103640000Y-134767240D03*
X106553000Y-142113000D03*
X147265000Y-112110000D03*
X147240000Y-112810000D03*
X150845000Y-115325000D03*
X151785000Y-115325000D03*
X151785000Y-114485000D03*
X150845000Y-114485000D03*
X121793000Y-132969000D03*
X122174000Y-130678600D03*
X94361000Y-145034000D03*
X137900000Y-156000000D03*
X144957000Y-120700000D03*
X143421000Y-122974000D03*
X96202000Y-120541000D03*
X94002000Y-116941000D03*
X115402006Y-145741000D03*
X114805000Y-141400000D03*
X94202000Y-148141000D03*
X98202000Y-149741000D03*
X102002000Y-148941000D03*
X102002000Y-154141000D03*
X100752000Y-137840994D03*
X101413740Y-137850000D03*
X98602000Y-136541000D03*
X98602000Y-135091000D03*
X98602000Y-133691000D03*
X98602000Y-131641000D03*
X98602000Y-130191000D03*
X98602000Y-128841000D03*
X100005000Y-142900000D03*
X104140000Y-142494000D03*
X112882400Y-121963000D03*
X111671000Y-125646000D03*
X106805000Y-124077000D03*
X106807000Y-120142000D03*
X109766000Y-122150000D03*
X107061000Y-111379000D03*
X107060994Y-112014000D03*
X110528000Y-113830000D03*
X126746000Y-112692000D03*
X126746000Y-113411000D03*
X132461000Y-116459000D03*
X123063000Y-112014000D03*
X123063000Y-112649000D03*
X137791749Y-127638251D03*
X149225000Y-122936000D03*
X149733000Y-122682000D03*
X149733000Y-123190000D03*
X143421000Y-124460000D03*
X142875000Y-156210000D03*
X135255000Y-137795000D03*
X142875000Y-141605000D03*
X144145000Y-141605000D03*
X142875000Y-140335000D03*
X127635000Y-140335000D03*
X128905000Y-139065000D03*
X130175000Y-150495000D03*
X112882400Y-132275000D03*
X151765000Y-150495000D03*
X127635000Y-132715000D03*
X127635000Y-135255000D03*
X137795000Y-137795000D03*
X140335000Y-140335000D03*
X141605000Y-141605000D03*
X139065000Y-142875000D03*
X128905000Y-128905000D03*
X130175000Y-127635000D03*
X132715000Y-127635000D03*
X135255000Y-127635000D03*
X136205000Y-119250000D03*
X136205000Y-117250000D03*
X141605000Y-136525000D03*
X140335000Y-136525000D03*
X139065000Y-135255000D03*
X144145000Y-136525000D03*
X144145000Y-127635000D03*
X145415000Y-127635000D03*
X149225000Y-127635000D03*
X102112411Y-140228610D03*
X117513000Y-120693000D03*
X102813280Y-140208000D03*
X113405000Y-125730000D03*
X114300000Y-133604000D03*
X105537000Y-112268000D03*
X105537000Y-111506000D03*
X153289000Y-120749600D03*
X157861000Y-120634620D03*
X122174000Y-116459000D03*
X122174000Y-115824000D03*
X122155000Y-115150000D03*
X146050000Y-125349000D03*
X146050000Y-125857000D03*
X124714000Y-155448000D03*
X155957342Y-128678664D03*
X123805000Y-123444000D03*
X122800000Y-149600000D03*
X121100000Y-149600000D03*
X140455000Y-116600000D03*
X140455000Y-122308000D03*
X125387000Y-109850000D03*
X108877000Y-109850000D03*
X134912000Y-109850000D03*
X135801000Y-109850000D03*
X136774000Y-109850000D03*
X151384000Y-120523000D03*
X155340000Y-120271000D03*
X132969000Y-112395000D03*
X131705000Y-117050000D03*
X133005022Y-114753954D03*
X95758000Y-145700000D03*
X109474000Y-133477000D03*
X96516620Y-139700000D03*
X110105000Y-125984000D03*
X113157000Y-154559000D03*
X122005000Y-134750000D03*
X122205000Y-118550000D03*
X123063000Y-129413000D03*
X141605000Y-126365000D03*
X158051500Y-117094000D03*
X123761500Y-133159500D03*
X119205000Y-138550000D03*
X125805000Y-138550000D03*
X120805000Y-143950000D03*
X126005000Y-143950000D03*
X151200004Y-124300000D03*
X141605000Y-122150000D03*
X142748000Y-153797000D03*
X146685000Y-135255000D03*
X145415000Y-133985000D03*
X144145000Y-133985000D03*
X109410500Y-157924500D03*
X136271000Y-155892500D03*
X130619500Y-155892500D03*
X146050000Y-152273000D03*
X142875000Y-146685000D03*
X141605000Y-149225000D03*
X146685000Y-150495000D03*
X160337500Y-127508000D03*
X160274000Y-132715000D03*
X160274000Y-133477002D03*
X160274002Y-134239000D03*
X160274000Y-129413001D03*
X160274000Y-128777998D03*
X160274000Y-128143002D03*
X160274000Y-130810000D03*
X142875000Y-145415000D03*
X141605000Y-150495000D03*
X145415000Y-150495000D03*
X159639000Y-129206600D03*
X158956390Y-132588000D03*
X139065000Y-150495000D03*
X140462000Y-156972000D03*
X137795000Y-150495000D03*
X115062000Y-157861000D03*
X136525000Y-150495000D03*
X107759500Y-157797500D03*
X135255000Y-150495000D03*
X113030000Y-157607000D03*
X132715000Y-150495000D03*
X116586000Y-151003000D03*
X131445000Y-150495000D03*
X146685000Y-147955000D03*
X128905000Y-150495000D03*
X128048575Y-152264857D03*
X137033000Y-154253000D03*
X127635000Y-149225000D03*
X146685000Y-149225000D03*
X159666321Y-127294224D03*
X145415000Y-149225000D03*
X158496000Y-128836642D03*
X159512000Y-131572000D03*
X122047000Y-157035500D03*
X140335000Y-149225000D03*
X139954000Y-157353000D03*
X139065000Y-149225000D03*
X137795000Y-149225000D03*
X132016500Y-153162000D03*
X115697000Y-157734000D03*
X136525000Y-149225000D03*
X117729000Y-157861000D03*
X135255000Y-149225000D03*
X112762999Y-154953001D03*
X132715000Y-149225000D03*
X117094000Y-150495000D03*
X131445000Y-149225000D03*
X145415000Y-147955000D03*
X128905000Y-146685000D03*
X159111324Y-127979430D03*
X157353000Y-142621000D03*
X144145000Y-147955000D03*
X159766000Y-130302000D03*
X156718000Y-142113000D03*
X142875000Y-147955000D03*
X155956000Y-141605000D03*
X141605000Y-147955000D03*
X158877000Y-133556400D03*
X139954000Y-156591000D03*
X139065000Y-147955000D03*
X117221000Y-154952632D03*
X137795000Y-147955000D03*
X108775500Y-157861000D03*
X136525000Y-147955000D03*
X117770502Y-157193527D03*
X135255000Y-147955000D03*
X110744000Y-154559000D03*
X133985000Y-147955000D03*
X125222000Y-147701000D03*
X111506000Y-154559000D03*
X125870000Y-149720000D03*
X132715000Y-147955000D03*
X112141000Y-154686000D03*
X128905000Y-147955000D03*
X131445000Y-147955000D03*
X130605000Y-153150000D03*
X130175000Y-147955000D03*
X139700000Y-153100000D03*
X141605000Y-145415000D03*
X132715000Y-135255000D03*
X132715000Y-132715000D03*
X115951000Y-157099000D03*
X137795000Y-146685000D03*
X135890000Y-152653996D03*
X136525000Y-146685000D03*
X134620000Y-152654000D03*
X135255000Y-146685000D03*
X133985000Y-146685000D03*
X132715000Y-146685000D03*
X114046000Y-157480000D03*
X131445000Y-146685000D03*
X114506402Y-157099000D03*
X130175000Y-146685000D03*
X109664500Y-154686000D03*
X144145000Y-145415000D03*
X126238000Y-151765000D03*
X133985000Y-145415000D03*
X125603000Y-151511000D03*
X132715000Y-145415000D03*
X145415000Y-144145000D03*
X140335000Y-144145000D03*
X149140000Y-112210000D03*
X133985000Y-144145000D03*
X113665000Y-148590000D03*
X131445000Y-144145000D03*
X113919000Y-149225000D03*
X130175000Y-144145000D03*
X113538000Y-149860000D03*
X133985000Y-142875000D03*
X114300000Y-149733000D03*
X132715000Y-142875000D03*
X112776000Y-147701000D03*
X131445000Y-142875000D03*
X113284000Y-148082000D03*
X130175000Y-142875000D03*
X146685000Y-141605000D03*
X118600000Y-129000000D03*
X132715000Y-141605000D03*
X118100000Y-140000000D03*
X130175000Y-141605000D03*
X118600000Y-131400000D03*
X132715000Y-140335000D03*
X118600000Y-125400000D03*
X131445000Y-140335000D03*
X118600000Y-126600000D03*
X130175000Y-140335000D03*
X118600000Y-127800000D03*
X133985000Y-139065000D03*
X118000000Y-136700000D03*
X131445000Y-139065000D03*
X118000000Y-135500000D03*
X130175000Y-139065000D03*
X118600000Y-130200000D03*
X133985000Y-137795000D03*
X116000000Y-134500000D03*
X132715000Y-137795000D03*
X116700000Y-138700000D03*
X131445000Y-137795000D03*
X110400000Y-142100000D03*
X130175000Y-137795000D03*
X116507199Y-138100000D03*
X131445000Y-136525000D03*
X116718781Y-139338308D03*
X130175000Y-136525000D03*
X113792000Y-154559000D03*
X125349000Y-135001000D03*
X131445000Y-135255000D03*
X114147384Y-151629462D03*
X125349000Y-134239000D03*
X130175000Y-135255000D03*
X134005000Y-133950000D03*
X125205000Y-129550000D03*
X114046000Y-150749000D03*
X125349000Y-133477000D03*
X132715000Y-133985000D03*
X131405000Y-133950000D03*
X125205000Y-130550000D03*
X155951694Y-127007090D03*
X151886602Y-133916811D03*
X155945085Y-126449917D03*
X153289000Y-134619990D03*
X155965732Y-125893088D03*
X152549610Y-135210000D03*
X149225000Y-132715000D03*
X152549610Y-136010000D03*
X147955000Y-132715000D03*
X146685000Y-132715000D03*
X145415000Y-132715000D03*
X155956595Y-131864598D03*
X144145000Y-132715000D03*
X126111000Y-117729000D03*
X142875000Y-132715000D03*
X134747000Y-124333000D03*
X141605000Y-132715000D03*
X105092500Y-157670500D03*
X120967500Y-151003000D03*
X137795000Y-132715000D03*
X152123390Y-138715827D03*
X136525000Y-132715000D03*
X142748000Y-120650000D03*
X135255000Y-132715000D03*
X159750000Y-124000000D03*
X125349000Y-132715000D03*
X131445000Y-132715000D03*
X159350000Y-123600000D03*
X130175000Y-132715000D03*
X125349000Y-132080000D03*
X155955466Y-125335970D03*
X155946674Y-124778828D03*
X151900000Y-132700000D03*
X156000563Y-124224228D03*
X152412820Y-132412820D03*
X149225000Y-131445000D03*
X155475982Y-123179154D03*
X151740000Y-131410000D03*
X147955000Y-131445000D03*
X152146002Y-137922000D03*
X155568252Y-122066511D03*
X146685000Y-131445000D03*
X155959019Y-130750192D03*
X145415000Y-131445000D03*
X155954885Y-131307389D03*
X144145000Y-131445000D03*
X128231240Y-120523000D03*
X142875000Y-131445000D03*
X125603000Y-116205000D03*
X141605000Y-131445000D03*
X140335000Y-131445000D03*
X139065000Y-131445000D03*
X137795000Y-131445000D03*
X160274000Y-126619000D03*
X136477400Y-131445000D03*
X153035000Y-138684000D03*
X151696400Y-135255000D03*
X135255000Y-131445000D03*
X109537498Y-149352000D03*
X133985000Y-131445000D03*
X150622000Y-118237000D03*
X132715000Y-131445000D03*
X131445000Y-131445000D03*
X152590500Y-120142000D03*
X130175000Y-131445000D03*
X152091444Y-130810000D03*
X152908000Y-126174500D03*
X152096390Y-128910000D03*
X149225000Y-130175000D03*
X155509107Y-122620575D03*
X153308000Y-121414000D03*
X147955000Y-130175000D03*
X155948285Y-127564292D03*
X146685000Y-130175000D03*
X155948797Y-130193074D03*
X145415000Y-130175000D03*
X127635000Y-118749240D03*
X144145000Y-130175000D03*
X128019380Y-119249620D03*
X142875000Y-130175000D03*
X137690643Y-115731469D03*
X141605000Y-130175000D03*
X155953444Y-132421801D03*
X140335000Y-130175000D03*
X155321001Y-135128000D03*
X137795000Y-130175000D03*
X159884856Y-126078423D03*
X136525000Y-130175000D03*
X156004531Y-132976666D03*
X135255000Y-130175000D03*
X108331000Y-151003000D03*
X133985000Y-126301500D03*
X133985000Y-130175000D03*
X132715000Y-130175000D03*
X131445000Y-130175000D03*
X130175000Y-130175000D03*
X152809061Y-123520147D03*
X153170331Y-122588085D03*
X149225000Y-128905000D03*
X152740000Y-122100000D03*
X155949843Y-128121502D03*
X146685000Y-128905000D03*
X145415000Y-128905000D03*
X144145000Y-128905000D03*
X128270000Y-118248860D03*
X130810000Y-121031000D03*
X142875000Y-128905000D03*
X138002580Y-116252420D03*
X141605000Y-128905000D03*
X137795000Y-128905000D03*
X159233066Y-126038456D03*
X136525000Y-128905000D03*
X108585000Y-149352000D03*
X133985000Y-128905000D03*
X133286500Y-126047500D03*
X109410500Y-150495000D03*
X132764066Y-128855934D03*
X158821390Y-122206565D03*
X151765000Y-127635000D03*
X158821390Y-121649352D03*
X151765000Y-126365000D03*
X157861000Y-121920000D03*
X149225000Y-126365000D03*
X150495000Y-126365000D03*
X126746000Y-152146000D03*
X127381000Y-152273000D03*
X133858000Y-118110001D03*
X138905000Y-121250000D03*
X91376500Y-132715000D03*
X91313000Y-140589000D03*
X94389808Y-143925692D03*
X91355578Y-133370922D03*
X91366406Y-134058594D03*
X95758000Y-140335000D03*
X108077000Y-143637000D03*
X95117080Y-143123080D03*
X98002000Y-137941000D03*
X113202000Y-144541000D03*
X104802000Y-147941000D03*
X98602000Y-137541000D03*
X113202000Y-145741000D03*
X104802000Y-153141000D03*
X99202000Y-139741000D03*
X100002000Y-139541000D03*
X105854500Y-133350000D03*
X105727500Y-132651500D03*
X105600500Y-131953000D03*
X105727500Y-130556000D03*
X155701996Y-140462000D03*
X159200000Y-122850000D03*
X109855000Y-152146000D03*
X141097000Y-158242000D03*
X155956000Y-137541000D03*
X110553500Y-157988000D03*
X112569610Y-136906000D03*
X105410000Y-144526000D03*
X109924873Y-157471078D03*
X106934000Y-157734000D03*
X107569000Y-130429000D03*
X102405000Y-123360000D03*
X107569000Y-129667000D03*
X100965000Y-123317000D03*
X107315000Y-129032000D03*
X95758000Y-122555000D03*
X107442000Y-128397000D03*
X97193000Y-123317000D03*
X107569000Y-127762000D03*
X98381000Y-123317000D03*
X107569000Y-126365000D03*
X99606000Y-123317000D03*
X110202000Y-140741000D03*
X110202000Y-132341000D03*
X92201984Y-125541000D03*
X107569000Y-140081000D03*
X107639723Y-136087723D03*
X110109000Y-138811000D03*
X107696000Y-137541000D03*
X110109000Y-139573000D03*
X135255000Y-128905000D03*
X108902500Y-157162500D03*
X105473500Y-151828500D03*
X131445000Y-128905000D03*
X139446000Y-124587000D03*
D12*
X105918000Y-157035500D02*
X103804830Y-157035500D01*
X103804830Y-157035500D02*
X93789500Y-147020170D01*
X93789500Y-147020170D02*
X93789500Y-137326650D01*
X93789500Y-137326650D02*
X103822500Y-127293650D01*
X103822500Y-111950500D02*
X105029000Y-110744000D01*
X105029000Y-110744000D02*
X122555000Y-110744000D01*
X103822500Y-127293650D02*
X103822500Y-111950500D01*
D13*
X148323000Y-123050000D02*
X148323000Y-110744000D01*
X148323000Y-110744000D02*
X141224000Y-110744000D01*
X141224000Y-110744000D02*
X152706000Y-110744000D01*
X152706000Y-110744000D02*
X152740000Y-110710000D01*
X141224000Y-110744000D02*
X137160000Y-110744000D01*
X137160000Y-110744000D02*
X124206000Y-110744000D01*
X124206000Y-110744000D02*
X122555000Y-110744000D01*
D12*
X102435700Y-140228610D02*
X102112411Y-140228610D01*
X104246390Y-140228610D02*
X102435700Y-140228610D01*
X110871000Y-133604000D02*
X104246390Y-140228610D01*
X114300000Y-133604000D02*
X110871000Y-133604000D01*
X113411000Y-120142000D02*
X116962000Y-120142000D01*
X116962000Y-120142000D02*
X117513000Y-120693000D01*
X114300000Y-133604000D02*
X113411000Y-133604000D01*
X106426000Y-113919000D02*
X105537000Y-113030000D01*
X113411000Y-133604000D02*
X113411000Y-120142000D01*
X113411000Y-120142000D02*
X107188000Y-113919000D01*
X107188000Y-113919000D02*
X106426000Y-113919000D01*
X105537000Y-113030000D02*
X105537000Y-111506000D01*
D13*
X153289000Y-120749600D02*
X152950400Y-120749600D01*
X151638000Y-122062000D02*
X151638000Y-122227670D01*
X152950400Y-120749600D02*
X151638000Y-122062000D01*
X151516000Y-122227670D02*
X148394670Y-125349000D01*
X151638000Y-122227670D02*
X151516000Y-122227670D01*
X148394670Y-125349000D02*
X146373289Y-125349000D01*
X146373289Y-125349000D02*
X146050000Y-125349000D01*
X150241000Y-119507000D02*
X150241000Y-120830670D01*
X150241000Y-120830670D02*
X151638000Y-122227670D01*
X151638000Y-118110000D02*
X150241000Y-119507000D01*
X154940000Y-118110000D02*
X151638000Y-118110000D01*
X157464620Y-120634620D02*
X154940000Y-118110000D01*
X157861000Y-120634620D02*
X157464620Y-120634620D01*
X139688000Y-111633000D02*
X146050000Y-117995000D01*
X122174000Y-115824000D02*
X122174000Y-115189000D01*
X122174000Y-115189000D02*
X125730000Y-111633000D01*
X125730000Y-111633000D02*
X139688000Y-111633000D01*
X146050000Y-117995000D02*
X146050000Y-125349000D01*
X146050000Y-125349000D02*
X146050000Y-125857000D01*
X122174000Y-116459000D02*
X122174000Y-115169000D01*
X122174000Y-115169000D02*
X122155000Y-115150000D01*
D12*
X124714000Y-155448000D02*
X108394500Y-155448000D01*
X108394500Y-155448000D02*
X108013500Y-155067000D01*
X108013500Y-155067000D02*
X108013500Y-154612670D01*
X117538000Y-153162000D02*
X121100000Y-149600000D01*
X108013500Y-154612670D02*
X109464170Y-153162000D01*
X109464170Y-153162000D02*
X117538000Y-153162000D01*
X155340000Y-120271000D02*
X155663289Y-120271000D01*
X155663289Y-120271000D02*
X156591000Y-121198711D01*
X156591000Y-121198711D02*
X156591000Y-128368295D01*
X156280631Y-128678664D02*
X155957342Y-128678664D01*
X156591000Y-128368295D02*
X156280631Y-128678664D01*
X155340000Y-120271000D02*
X154703000Y-119634000D01*
X154703000Y-119634000D02*
X152273000Y-119634000D01*
X152273000Y-119634000D02*
X151384000Y-120523000D01*
X122800000Y-149600000D02*
X122800000Y-138040000D01*
X121158000Y-136398000D02*
X121158000Y-126091000D01*
X122800000Y-138040000D02*
X121158000Y-136398000D01*
X121158000Y-126091000D02*
X123805000Y-123444000D01*
X133005022Y-114753954D02*
X132134046Y-114753954D01*
X132134046Y-114753954D02*
X131572000Y-115316000D01*
X131572000Y-115316000D02*
X131572000Y-116917000D01*
X131572000Y-116917000D02*
X131705000Y-117050000D01*
X140455000Y-122308000D02*
X140455000Y-116600000D01*
D13*
X136774000Y-109850000D02*
X125387000Y-109850000D01*
X125387000Y-109850000D02*
X108877000Y-109850000D01*
D12*
X132969000Y-112395000D02*
X132969000Y-114717932D01*
X132969000Y-114717932D02*
X133005022Y-114753954D01*
X108855601Y-133460399D02*
X103378000Y-138938000D01*
X96520000Y-139700000D02*
X96516620Y-139700000D01*
X103378000Y-138938000D02*
X97282000Y-138938000D01*
X97282000Y-138938000D02*
X96520000Y-139700000D01*
X96516620Y-139700000D02*
X96516620Y-144941380D01*
X96516620Y-144941380D02*
X95758000Y-145700000D01*
X108855601Y-133460399D02*
X109457399Y-133460399D01*
X109457399Y-133460399D02*
X109474000Y-133477000D01*
X110105000Y-125984000D02*
X108855601Y-127233399D01*
X108855601Y-127233399D02*
X108855601Y-133460399D01*
X120142000Y-153924000D02*
X113718670Y-153924000D01*
X113718670Y-153924000D02*
X113157000Y-154485670D01*
X113157000Y-154485670D02*
X113157000Y-154559000D01*
X123698000Y-150368000D02*
X120142000Y-153924000D01*
X122005000Y-134750000D02*
X123698000Y-136443000D01*
X123698000Y-136443000D02*
X123698000Y-150368000D01*
X122005000Y-134750000D02*
X123063000Y-133692000D01*
X123063000Y-133692000D02*
X123063000Y-129413000D01*
X125476000Y-127000000D02*
X125476000Y-121821000D01*
X125476000Y-121821000D02*
X122205000Y-118550000D01*
X125476000Y-127000000D02*
X123063000Y-129413000D01*
X131191000Y-127000000D02*
X125476000Y-127000000D01*
X140970000Y-127000000D02*
X131191000Y-127000000D01*
X141605000Y-126365000D02*
X140970000Y-127000000D01*
X146685000Y-135255000D02*
X146605000Y-135335000D01*
X147405000Y-152150000D02*
X145758000Y-153797000D01*
X146605000Y-135335000D02*
X146605000Y-137350000D01*
X146605000Y-137350000D02*
X147405000Y-138150000D01*
X147405000Y-138150000D02*
X147405000Y-152150000D01*
X145758000Y-153797000D02*
X142748000Y-153797000D01*
X145415000Y-133985000D02*
X146685000Y-135255000D01*
X144145000Y-133985000D02*
X145415000Y-133985000D01*
D13*
X142875000Y-146685000D02*
X143510000Y-147320000D01*
X143510000Y-148590000D02*
X142240000Y-148590000D01*
X143510000Y-147320000D02*
X143510000Y-148590000D01*
X142240000Y-148590000D02*
X145796000Y-148590000D01*
X145796000Y-148590000D02*
X146050000Y-148844000D01*
X146050000Y-148844000D02*
X146050000Y-149860000D01*
X146050000Y-149860000D02*
X146685000Y-150495000D01*
X141605000Y-149225000D02*
X142240000Y-148590000D01*
D14*
X135255000Y-150495000D02*
X133858000Y-150495000D01*
X133858000Y-150495000D02*
X131254500Y-153098500D01*
X131254500Y-153098500D02*
X131254500Y-153733500D01*
X131254500Y-153733500D02*
X130094010Y-154893990D01*
X130094010Y-154893990D02*
X126474510Y-154893990D01*
X107759500Y-156591000D02*
X107759500Y-157797500D01*
X126474510Y-154893990D02*
X125476000Y-155892500D01*
X125476000Y-155892500D02*
X108458000Y-155892500D01*
X108458000Y-155892500D02*
X107759500Y-156591000D01*
X136096399Y-150923601D02*
X135779569Y-151240431D01*
X135779569Y-151240431D02*
X134572399Y-151240431D01*
X136096399Y-148383601D02*
X136096399Y-150923601D01*
X136525000Y-147955000D02*
X136096399Y-148383601D01*
X108775500Y-156273500D02*
X108331000Y-156718000D01*
X134572399Y-151240431D02*
X130618830Y-155194000D01*
X125666500Y-156273500D02*
X108775500Y-156273500D01*
X130618830Y-155194000D02*
X126746000Y-155194000D01*
X126746000Y-155194000D02*
X125666500Y-156273500D01*
X108331000Y-156718000D02*
X108331000Y-157416500D01*
X108331000Y-157416500D02*
X108775500Y-157861000D01*
D12*
X141605000Y-142905000D02*
X133955000Y-135255000D01*
X133955000Y-135255000D02*
X132715000Y-135255000D01*
X141605000Y-145415000D02*
X141605000Y-142905000D01*
X139700000Y-153100000D02*
X139700000Y-147320000D01*
X139700000Y-147320000D02*
X141605000Y-145415000D01*
D14*
X132715000Y-132715000D02*
X133350000Y-133350000D01*
X133350000Y-133350000D02*
X133350000Y-134620000D01*
X133350000Y-134620000D02*
X132715000Y-135255000D01*
X154114500Y-122428000D02*
X154114500Y-120938690D01*
X154114500Y-120938690D02*
X153317810Y-120142000D01*
X153317810Y-120142000D02*
X152590500Y-120142000D01*
X153525814Y-123016686D02*
X154114500Y-122428000D01*
X147383500Y-130238500D02*
X147383500Y-127482174D01*
X147383500Y-127482174D02*
X151848988Y-123016686D01*
X151848988Y-123016686D02*
X153525814Y-123016686D01*
X146748500Y-130873500D02*
X147383500Y-130238500D01*
X130746500Y-130873500D02*
X146748500Y-130873500D01*
X130175000Y-131445000D02*
X130746500Y-130873500D01*
D12*
X157861000Y-122243289D02*
X157861000Y-121920000D01*
X153413949Y-126843601D02*
X155727613Y-129157265D01*
X150973601Y-126843601D02*
X153413949Y-126843601D01*
X155727613Y-129157265D02*
X156592735Y-129157265D01*
X156592735Y-129157265D02*
X157861000Y-127889000D01*
X150495000Y-126365000D02*
X150973601Y-126843601D01*
X157861000Y-127889000D02*
X157861000Y-122243289D01*
X149225000Y-126365000D02*
X150495000Y-126365000D01*
M02*
