G04 #@! TF.FileFunction,Legend,Top*
%FSLAX46Y46*%
G04 Gerber Fmt 4.6, Leading zero omitted, Abs format (unit mm)*
G04 Created by KiCad (PCBNEW 4.0.6-e0-6349~53~ubuntu16.04.1) date Tue May  2 19:00:15 2017*
%MOMM*%
%LPD*%
G01*
G04 APERTURE LIST*
%ADD10C,0.100000*%
%ADD11C,0.200000*%
%ADD12C,0.120000*%
%ADD13C,0.127000*%
%ADD14C,0.063500*%
%ADD15C,0.150000*%
%ADD16C,0.152400*%
%ADD17C,0.124460*%
%ADD18C,0.025400*%
G04 APERTURE END LIST*
D10*
D11*
X98520858Y-112010857D02*
X98706572Y-112810857D01*
X99092286Y-112010857D01*
X100078001Y-112810857D02*
X99392286Y-112810857D01*
X99735144Y-112810857D02*
X99885144Y-111610857D01*
X99749429Y-111782286D01*
X99620858Y-111896571D01*
X99499429Y-111953714D01*
X100606572Y-112696571D02*
X100656572Y-112753714D01*
X100592286Y-112810857D01*
X100542286Y-112753714D01*
X100606572Y-112696571D01*
X100592286Y-112810857D01*
X101542287Y-111610857D02*
X101656572Y-111610857D01*
X101763715Y-111668000D01*
X101813715Y-111725143D01*
X101856572Y-111839429D01*
X101885144Y-112068000D01*
X101849430Y-112353714D01*
X101763715Y-112582286D01*
X101692287Y-112696571D01*
X101628001Y-112753714D01*
X101506572Y-112810857D01*
X101392287Y-112810857D01*
X101285144Y-112753714D01*
X101235144Y-112696571D01*
X101192286Y-112582286D01*
X101163715Y-112353714D01*
X101199429Y-112068000D01*
X101285143Y-111839429D01*
X101356572Y-111725143D01*
X101420858Y-111668000D01*
X101542287Y-111610857D01*
X98091001Y-111032857D02*
X98191001Y-110232857D01*
X98176715Y-110347143D02*
X98241001Y-110290000D01*
X98362430Y-110232857D01*
X98533858Y-110232857D01*
X98641001Y-110290000D01*
X98683858Y-110404286D01*
X98605287Y-111032857D01*
X98683858Y-110404286D02*
X98755287Y-110290000D01*
X98876716Y-110232857D01*
X99048144Y-110232857D01*
X99155287Y-110290000D01*
X99198144Y-110404286D01*
X99119573Y-111032857D01*
X100205287Y-111032857D02*
X100283858Y-110404286D01*
X100241001Y-110290000D01*
X100133858Y-110232857D01*
X99905287Y-110232857D01*
X99783858Y-110290000D01*
X100212430Y-110975714D02*
X100091001Y-111032857D01*
X99805287Y-111032857D01*
X99698144Y-110975714D01*
X99655286Y-110861429D01*
X99669572Y-110747143D01*
X99741001Y-110632857D01*
X99862430Y-110575714D01*
X100148144Y-110575714D01*
X100269573Y-110518571D01*
X100705287Y-110232857D02*
X101162430Y-110232857D01*
X100926715Y-109832857D02*
X100798143Y-110861429D01*
X100841001Y-110975714D01*
X100948144Y-111032857D01*
X101062430Y-111032857D01*
X101926715Y-110975714D02*
X101805286Y-111032857D01*
X101576715Y-111032857D01*
X101469572Y-110975714D01*
X101426714Y-110861429D01*
X101483857Y-110404286D01*
X101555286Y-110290000D01*
X101676715Y-110232857D01*
X101905286Y-110232857D01*
X102012429Y-110290000D01*
X102055286Y-110404286D01*
X102041001Y-110518571D01*
X101455286Y-110632857D01*
X102491000Y-111032857D02*
X102641000Y-109832857D01*
X102583857Y-110290000D02*
X102705286Y-110232857D01*
X102933857Y-110232857D01*
X103041000Y-110290000D01*
X103091000Y-110347143D01*
X103133857Y-110461429D01*
X103091000Y-110804286D01*
X103019572Y-110918571D01*
X102955286Y-110975714D01*
X102833857Y-111032857D01*
X102605286Y-111032857D01*
X102498143Y-110975714D01*
X103748143Y-111032857D02*
X103641000Y-110975714D01*
X103591000Y-110918571D01*
X103548142Y-110804286D01*
X103590999Y-110461429D01*
X103662428Y-110347143D01*
X103726714Y-110290000D01*
X103848143Y-110232857D01*
X104019571Y-110232857D01*
X104126714Y-110290000D01*
X104176714Y-110347143D01*
X104219571Y-110461429D01*
X104176714Y-110804286D01*
X104105286Y-110918571D01*
X104041000Y-110975714D01*
X103919571Y-111032857D01*
X103748143Y-111032857D01*
X105176714Y-111032857D02*
X105255285Y-110404286D01*
X105212428Y-110290000D01*
X105105285Y-110232857D01*
X104876714Y-110232857D01*
X104755285Y-110290000D01*
X105183857Y-110975714D02*
X105062428Y-111032857D01*
X104776714Y-111032857D01*
X104669571Y-110975714D01*
X104626713Y-110861429D01*
X104640999Y-110747143D01*
X104712428Y-110632857D01*
X104833857Y-110575714D01*
X105119571Y-110575714D01*
X105241000Y-110518571D01*
X105748142Y-111032857D02*
X105848142Y-110232857D01*
X105819570Y-110461429D02*
X105890999Y-110347143D01*
X105955285Y-110290000D01*
X106076714Y-110232857D01*
X106190999Y-110232857D01*
X107005285Y-111032857D02*
X107155285Y-109832857D01*
X107012428Y-110975714D02*
X106890999Y-111032857D01*
X106662428Y-111032857D01*
X106555285Y-110975714D01*
X106505285Y-110918571D01*
X106462427Y-110804286D01*
X106505284Y-110461429D01*
X106576713Y-110347143D01*
X106640999Y-110290000D01*
X106762428Y-110232857D01*
X106990999Y-110232857D01*
X107098142Y-110290000D01*
X153775086Y-145862857D02*
X153775086Y-144662857D01*
X154060801Y-144662857D01*
X154232229Y-144720000D01*
X154346515Y-144834286D01*
X154403658Y-144948571D01*
X154460801Y-145177143D01*
X154460801Y-145348571D01*
X154403658Y-145577143D01*
X154346515Y-145691429D01*
X154232229Y-145805714D01*
X154060801Y-145862857D01*
X153775086Y-145862857D01*
X154975086Y-145862857D02*
X154975086Y-144662857D01*
X155432229Y-144662857D01*
X155546515Y-144720000D01*
X155603658Y-144777143D01*
X155660801Y-144891429D01*
X155660801Y-145062857D01*
X155603658Y-145177143D01*
X155546515Y-145234286D01*
X155432229Y-145291429D01*
X154975086Y-145291429D01*
X156746515Y-145862857D02*
X156175086Y-145862857D01*
X156175086Y-144662857D01*
X157660801Y-145862857D02*
X157660801Y-145234286D01*
X157603658Y-145120000D01*
X157489372Y-145062857D01*
X157260801Y-145062857D01*
X157146515Y-145120000D01*
X157660801Y-145805714D02*
X157546515Y-145862857D01*
X157260801Y-145862857D01*
X157146515Y-145805714D01*
X157089372Y-145691429D01*
X157089372Y-145577143D01*
X157146515Y-145462857D01*
X157260801Y-145405714D01*
X157546515Y-145405714D01*
X157660801Y-145348571D01*
X158232229Y-145862857D02*
X158232229Y-144662857D01*
X158232229Y-145120000D02*
X158346515Y-145062857D01*
X158575086Y-145062857D01*
X158689372Y-145120000D01*
X158746515Y-145177143D01*
X158803658Y-145291429D01*
X158803658Y-145634286D01*
X158746515Y-145748571D01*
X158689372Y-145805714D01*
X158575086Y-145862857D01*
X158346515Y-145862857D01*
X158232229Y-145805714D01*
X153432228Y-146662857D02*
X153432228Y-147634286D01*
X153489371Y-147748571D01*
X153546514Y-147805714D01*
X153660800Y-147862857D01*
X153889371Y-147862857D01*
X154003657Y-147805714D01*
X154060800Y-147748571D01*
X154117943Y-147634286D01*
X154117943Y-146662857D01*
X154517943Y-146662857D02*
X155203657Y-146662857D01*
X154860800Y-147862857D02*
X154860800Y-146662857D01*
X155603657Y-147862857D02*
X155603657Y-146662857D01*
X156289372Y-147862857D01*
X156289372Y-146662857D01*
X156860800Y-147748571D02*
X156917943Y-147805714D01*
X156860800Y-147862857D01*
X156803657Y-147805714D01*
X156860800Y-147748571D01*
X156860800Y-147862857D01*
X157832229Y-147234286D02*
X158003658Y-147291429D01*
X158060801Y-147348571D01*
X158117944Y-147462857D01*
X158117944Y-147634286D01*
X158060801Y-147748571D01*
X158003658Y-147805714D01*
X157889372Y-147862857D01*
X157432229Y-147862857D01*
X157432229Y-146662857D01*
X157832229Y-146662857D01*
X157946515Y-146720000D01*
X158003658Y-146777143D01*
X158060801Y-146891429D01*
X158060801Y-147005714D01*
X158003658Y-147120000D01*
X157946515Y-147177143D01*
X157832229Y-147234286D01*
X157432229Y-147234286D01*
X158575086Y-147520000D02*
X159146515Y-147520000D01*
X158460801Y-147862857D02*
X158860801Y-146662857D01*
X159260801Y-147862857D01*
X154203657Y-148777143D02*
X154260800Y-148720000D01*
X154375086Y-148662857D01*
X154660800Y-148662857D01*
X154775086Y-148720000D01*
X154832229Y-148777143D01*
X154889372Y-148891429D01*
X154889372Y-149005714D01*
X154832229Y-149177143D01*
X154146515Y-149862857D01*
X154889372Y-149862857D01*
X155632229Y-148662857D02*
X155746514Y-148662857D01*
X155860800Y-148720000D01*
X155917943Y-148777143D01*
X155975086Y-148891429D01*
X156032229Y-149120000D01*
X156032229Y-149405714D01*
X155975086Y-149634286D01*
X155917943Y-149748571D01*
X155860800Y-149805714D01*
X155746514Y-149862857D01*
X155632229Y-149862857D01*
X155517943Y-149805714D01*
X155460800Y-149748571D01*
X155403657Y-149634286D01*
X155346514Y-149405714D01*
X155346514Y-149120000D01*
X155403657Y-148891429D01*
X155460800Y-148777143D01*
X155517943Y-148720000D01*
X155632229Y-148662857D01*
X157175086Y-149862857D02*
X156489371Y-149862857D01*
X156832229Y-149862857D02*
X156832229Y-148662857D01*
X156717943Y-148834286D01*
X156603657Y-148948571D01*
X156489371Y-149005714D01*
X157575086Y-148662857D02*
X158375086Y-148662857D01*
X157860800Y-149862857D01*
X153355000Y-153500000D02*
G75*
G03X153355000Y-153500000I-250000J0D01*
G01*
D12*
X123860000Y-148980000D02*
X124360000Y-148980000D01*
X124360000Y-147920000D02*
X123860000Y-147920000D01*
D13*
X125567440Y-125567440D02*
X125567440Y-152562560D01*
X125567440Y-152562560D02*
X152562560Y-152562560D01*
X152562560Y-152562560D02*
X152562560Y-125567440D01*
X152562560Y-125567440D02*
X125567440Y-125567440D01*
D14*
X151861987Y-151864060D02*
G75*
G03X151861987Y-151864060I-96987J0D01*
G01*
D12*
X115005000Y-117000000D02*
X115005000Y-120300000D01*
X115005000Y-120300000D02*
X120405000Y-120300000D01*
X115005000Y-117000000D02*
X120405000Y-117000000D01*
D15*
X152940000Y-113280000D02*
X152815000Y-113280000D01*
X152940000Y-116530000D02*
X152725000Y-116530000D01*
X149690000Y-116530000D02*
X149905000Y-116530000D01*
X149690000Y-113280000D02*
X149905000Y-113280000D01*
X152940000Y-113280000D02*
X152940000Y-116530000D01*
X149690000Y-113280000D02*
X149690000Y-116530000D01*
X152815000Y-113280000D02*
X152815000Y-112355000D01*
X93205000Y-147610000D02*
X93205000Y-142610000D01*
X91205000Y-142610000D02*
X91205000Y-147610000D01*
D12*
X146185000Y-122650000D02*
X146185000Y-121950000D01*
X147385000Y-121950000D02*
X147385000Y-122650000D01*
X120005000Y-122050000D02*
X120005000Y-122750000D01*
X118805000Y-122750000D02*
X118805000Y-122050000D01*
X145650000Y-125060000D02*
X144950000Y-125060000D01*
X144950000Y-123860000D02*
X145650000Y-123860000D01*
X147890000Y-119075000D02*
X148390000Y-119075000D01*
X148390000Y-118135000D02*
X147890000Y-118135000D01*
X112435000Y-122850000D02*
X112435000Y-123350000D01*
X113375000Y-123350000D02*
X113375000Y-122850000D01*
X111005000Y-112050000D02*
X111005000Y-112750000D01*
X109805000Y-112750000D02*
X109805000Y-112050000D01*
X148290000Y-120475000D02*
X147590000Y-120475000D01*
X147590000Y-119275000D02*
X148290000Y-119275000D01*
X110805000Y-123250000D02*
X110805000Y-122550000D01*
X112005000Y-122550000D02*
X112005000Y-123250000D01*
X141370000Y-123860000D02*
X142070000Y-123860000D01*
X142070000Y-125060000D02*
X141370000Y-125060000D01*
X105937000Y-112430000D02*
X106637000Y-112430000D01*
X106637000Y-113630000D02*
X105937000Y-113630000D01*
X119515000Y-153130000D02*
X119515000Y-152430000D01*
X120715000Y-152430000D02*
X120715000Y-153130000D01*
X126405000Y-156080000D02*
X125905000Y-156080000D01*
X125905000Y-157020000D02*
X126405000Y-157020000D01*
X151290000Y-111760000D02*
X147040000Y-111760000D01*
X151290000Y-109660000D02*
X147040000Y-109660000D01*
X151290000Y-111760000D02*
X151290000Y-109660000D01*
X122135000Y-131850000D02*
X122135000Y-132350000D01*
X123075000Y-132350000D02*
X123075000Y-131850000D01*
X122135000Y-134050000D02*
X122135000Y-134550000D01*
X123075000Y-134550000D02*
X123075000Y-134050000D01*
X119635000Y-136200000D02*
X119635000Y-136700000D01*
X120575000Y-136700000D02*
X120575000Y-136200000D01*
X120575000Y-140900000D02*
X120575000Y-140400000D01*
X119635000Y-140400000D02*
X119635000Y-140900000D01*
X121105000Y-143120000D02*
X121605000Y-143120000D01*
X121605000Y-142180000D02*
X121105000Y-142180000D01*
X121055000Y-146120000D02*
X121555000Y-146120000D01*
X121555000Y-145180000D02*
X121055000Y-145180000D01*
X142405000Y-122280000D02*
X141905000Y-122280000D01*
X141905000Y-123220000D02*
X142405000Y-123220000D01*
X141755000Y-154650000D02*
X142455000Y-154650000D01*
X142455000Y-155850000D02*
X141755000Y-155850000D01*
X140105000Y-117950000D02*
X140805000Y-117950000D01*
X140805000Y-119150000D02*
X140105000Y-119150000D01*
X124205000Y-114250000D02*
X123505000Y-114250000D01*
X123505000Y-113050000D02*
X124205000Y-113050000D01*
X132605000Y-110450000D02*
X131905000Y-110450000D01*
X131905000Y-109250000D02*
X132605000Y-109250000D01*
X131605000Y-122400000D02*
X130605000Y-122400000D01*
X130605000Y-124100000D02*
X131605000Y-124100000D01*
X140505000Y-116880000D02*
X140005000Y-116880000D01*
X140005000Y-117820000D02*
X140505000Y-117820000D01*
X123805000Y-115420000D02*
X124305000Y-115420000D01*
X124305000Y-114480000D02*
X123805000Y-114480000D01*
X130905000Y-124280000D02*
X130405000Y-124280000D01*
X130405000Y-125220000D02*
X130905000Y-125220000D01*
X110405000Y-125620000D02*
X110905000Y-125620000D01*
X110905000Y-124680000D02*
X110405000Y-124680000D01*
X110405000Y-134020000D02*
X110905000Y-134020000D01*
X110905000Y-133080000D02*
X110405000Y-133080000D01*
X113105000Y-124680000D02*
X112605000Y-124680000D01*
X112605000Y-125620000D02*
X113105000Y-125620000D01*
X113105000Y-133080000D02*
X112605000Y-133080000D01*
X112605000Y-134020000D02*
X113105000Y-134020000D01*
X95575000Y-145400000D02*
X95575000Y-144900000D01*
X94635000Y-144900000D02*
X94635000Y-145400000D01*
X91335000Y-123500000D02*
X91335000Y-124000000D01*
X92275000Y-124000000D02*
X92275000Y-123500000D01*
X94575000Y-141850000D02*
X94575000Y-141350000D01*
X93635000Y-141350000D02*
X93635000Y-141850000D01*
X91735000Y-140382000D02*
X91735000Y-140882000D01*
X92675000Y-140882000D02*
X92675000Y-140382000D01*
X102805000Y-141650000D02*
X102805000Y-142350000D01*
X101605000Y-142350000D02*
X101605000Y-141650000D01*
X97355000Y-139680000D02*
X96855000Y-139680000D01*
X96855000Y-140620000D02*
X97355000Y-140620000D01*
X103975000Y-142050000D02*
X103975000Y-141550000D01*
X103035000Y-141550000D02*
X103035000Y-142050000D01*
X95980000Y-140800000D02*
X100230000Y-140800000D01*
X95980000Y-142900000D02*
X100230000Y-142900000D01*
X95980000Y-140800000D02*
X95980000Y-142900000D01*
X115005000Y-110000000D02*
X115005000Y-113300000D01*
X115005000Y-113300000D02*
X120405000Y-113300000D01*
X115005000Y-110000000D02*
X120405000Y-110000000D01*
X115005000Y-113500000D02*
X115005000Y-116800000D01*
X115005000Y-116800000D02*
X120405000Y-116800000D01*
X115005000Y-113500000D02*
X120405000Y-113500000D01*
X113665000Y-118180000D02*
X113665000Y-117250000D01*
X113665000Y-115020000D02*
X113665000Y-115950000D01*
X113665000Y-115020000D02*
X111505000Y-115020000D01*
X113665000Y-118180000D02*
X112205000Y-118180000D01*
X105905000Y-151450000D02*
X106905000Y-151450000D01*
X106905000Y-151450000D02*
X106905000Y-149350000D01*
X105905000Y-151450000D02*
X105905000Y-149350000D01*
X105905000Y-156550000D02*
X106905000Y-156550000D01*
X106905000Y-156550000D02*
X106905000Y-154450000D01*
X105905000Y-156550000D02*
X105905000Y-154450000D01*
X122735000Y-128540000D02*
X125275000Y-128540000D01*
X125275000Y-126760000D02*
X122735000Y-126760000D01*
X125275000Y-126760000D02*
X125275000Y-128540000D01*
X122735000Y-128540000D02*
X122735000Y-126760000D01*
D13*
X92607060Y-118651500D02*
X92607060Y-118052060D01*
X92607060Y-118052060D02*
X92635000Y-118052060D01*
X92607060Y-120048500D02*
X92607060Y-120647940D01*
X92607060Y-120647940D02*
X92635000Y-120647940D01*
X95175000Y-118052060D02*
X95202940Y-118052060D01*
X95202940Y-118052060D02*
X95202940Y-120647940D01*
X95202940Y-120647940D02*
X95175000Y-120647940D01*
X96298500Y-148502060D02*
X96897940Y-148502060D01*
X96897940Y-148502060D02*
X96897940Y-148530000D01*
X94901500Y-148502060D02*
X94302060Y-148502060D01*
X94302060Y-148502060D02*
X94302060Y-148530000D01*
X96897940Y-151070000D02*
X96897940Y-151097940D01*
X96897940Y-151097940D02*
X94302060Y-151097940D01*
X94302060Y-151097940D02*
X94302060Y-151070000D01*
D12*
X112255000Y-110770000D02*
X113455000Y-110770000D01*
X113455000Y-112530000D02*
X112255000Y-112530000D01*
X157120000Y-117410000D02*
X157120000Y-118610000D01*
X155360000Y-118610000D02*
X155360000Y-117410000D01*
X153360000Y-118610000D02*
X153360000Y-117410000D01*
X155120000Y-117410000D02*
X155120000Y-118610000D01*
X132775000Y-154200000D02*
X132775000Y-154700000D01*
X133835000Y-154700000D02*
X133835000Y-154200000D01*
X134075000Y-154200000D02*
X134075000Y-154700000D01*
X135135000Y-154700000D02*
X135135000Y-154200000D01*
X102220000Y-150710000D02*
X103150000Y-150710000D01*
X105380000Y-150710000D02*
X104450000Y-150710000D01*
X105380000Y-150710000D02*
X105380000Y-148550000D01*
X102220000Y-150710000D02*
X102220000Y-149250000D01*
X102270000Y-155810000D02*
X103200000Y-155810000D01*
X105430000Y-155810000D02*
X104500000Y-155810000D01*
X105430000Y-155810000D02*
X105430000Y-153650000D01*
X102270000Y-155810000D02*
X102270000Y-154350000D01*
X112435000Y-113850000D02*
X112435000Y-113350000D01*
X111375000Y-113350000D02*
X111375000Y-113850000D01*
X109435000Y-113400000D02*
X109435000Y-112900000D01*
X108375000Y-112900000D02*
X108375000Y-113400000D01*
X123860000Y-150250000D02*
X124360000Y-150250000D01*
X124360000Y-149190000D02*
X123860000Y-149190000D01*
X122720000Y-154905000D02*
X122220000Y-154905000D01*
X122220000Y-155965000D02*
X122720000Y-155965000D01*
X149370000Y-116060000D02*
X149370000Y-115560000D01*
X148310000Y-115560000D02*
X148310000Y-116060000D01*
X128505000Y-156020000D02*
X128005000Y-156020000D01*
X128005000Y-157080000D02*
X128505000Y-157080000D01*
X149370000Y-113560000D02*
X149370000Y-113060000D01*
X148310000Y-113060000D02*
X148310000Y-113560000D01*
X124355000Y-128920000D02*
X123855000Y-128920000D01*
X123855000Y-129980000D02*
X124355000Y-129980000D01*
X124355000Y-130120000D02*
X123855000Y-130120000D01*
X123855000Y-131180000D02*
X124355000Y-131180000D01*
X131475000Y-154200000D02*
X131475000Y-154700000D01*
X132535000Y-154700000D02*
X132535000Y-154200000D01*
X130175000Y-154200000D02*
X130175000Y-154700000D01*
X131235000Y-154700000D02*
X131235000Y-154200000D01*
X154605000Y-132920000D02*
X154105000Y-132920000D01*
X154105000Y-133980000D02*
X154605000Y-133980000D01*
X154605000Y-134120000D02*
X154105000Y-134120000D01*
X154105000Y-135180000D02*
X154605000Y-135180000D01*
X154605000Y-131720000D02*
X154105000Y-131720000D01*
X154105000Y-132780000D02*
X154605000Y-132780000D01*
X154605000Y-128120000D02*
X154105000Y-128120000D01*
X154105000Y-129180000D02*
X154605000Y-129180000D01*
X154605000Y-126920000D02*
X154105000Y-126920000D01*
X154105000Y-127980000D02*
X154605000Y-127980000D01*
X154605000Y-125720000D02*
X154105000Y-125720000D01*
X154105000Y-126780000D02*
X154605000Y-126780000D01*
X154105000Y-136380000D02*
X154605000Y-136380000D01*
X154605000Y-135320000D02*
X154105000Y-135320000D01*
X154605000Y-124520000D02*
X154105000Y-124520000D01*
X154105000Y-125580000D02*
X154605000Y-125580000D01*
X154105000Y-138780000D02*
X154605000Y-138780000D01*
X154605000Y-137720000D02*
X154105000Y-137720000D01*
X154605000Y-120920000D02*
X154105000Y-120920000D01*
X154105000Y-121980000D02*
X154605000Y-121980000D01*
X154105000Y-130380000D02*
X154605000Y-130380000D01*
X154605000Y-129320000D02*
X154105000Y-129320000D01*
X154605000Y-123320000D02*
X154105000Y-123320000D01*
X154105000Y-124380000D02*
X154605000Y-124380000D01*
X154105000Y-131580000D02*
X154605000Y-131580000D01*
X154605000Y-130520000D02*
X154105000Y-130520000D01*
X154605000Y-122120000D02*
X154105000Y-122120000D01*
X154105000Y-123180000D02*
X154605000Y-123180000D01*
X154105000Y-120780000D02*
X154605000Y-120780000D01*
X154605000Y-119720000D02*
X154105000Y-119720000D01*
X154605000Y-138920000D02*
X154105000Y-138920000D01*
X154105000Y-139980000D02*
X154605000Y-139980000D01*
X154105000Y-137580000D02*
X154605000Y-137580000D01*
X154605000Y-136520000D02*
X154105000Y-136520000D01*
X148655000Y-153320000D02*
X148155000Y-153320000D01*
X148155000Y-154380000D02*
X148655000Y-154380000D01*
X120635000Y-138750000D02*
X120635000Y-138250000D01*
X119575000Y-138250000D02*
X119575000Y-138750000D01*
X122435000Y-144350000D02*
X122435000Y-143850000D01*
X121375000Y-143850000D02*
X121375000Y-144350000D01*
X135375000Y-154200000D02*
X135375000Y-154700000D01*
X136435000Y-154700000D02*
X136435000Y-154200000D01*
X154105000Y-141180000D02*
X154605000Y-141180000D01*
X154605000Y-140120000D02*
X154105000Y-140120000D01*
X139755000Y-121780000D02*
X140255000Y-121780000D01*
X140255000Y-120720000D02*
X139755000Y-120720000D01*
X139755000Y-115280000D02*
X140255000Y-115280000D01*
X140255000Y-114220000D02*
X139755000Y-114220000D01*
X139755000Y-116480000D02*
X140255000Y-116480000D01*
X140255000Y-115420000D02*
X139755000Y-115420000D01*
X124505000Y-115720000D02*
X124005000Y-115720000D01*
X124005000Y-116780000D02*
X124505000Y-116780000D01*
X135640000Y-123720000D02*
X136140000Y-123720000D01*
X136140000Y-122660000D02*
X135640000Y-122660000D01*
X133735000Y-123720000D02*
X134235000Y-123720000D01*
X134235000Y-122660000D02*
X133735000Y-122660000D01*
X124505000Y-120520000D02*
X124005000Y-120520000D01*
X124005000Y-121580000D02*
X124505000Y-121580000D01*
X124505000Y-121720000D02*
X124005000Y-121720000D01*
X124005000Y-122780000D02*
X124505000Y-122780000D01*
X140255000Y-119520000D02*
X139755000Y-119520000D01*
X139755000Y-120580000D02*
X140255000Y-120580000D01*
X124505000Y-116920000D02*
X124005000Y-116920000D01*
X124005000Y-117980000D02*
X124505000Y-117980000D01*
X124505000Y-118120000D02*
X124005000Y-118120000D01*
X124005000Y-119180000D02*
X124505000Y-119180000D01*
X124505000Y-119320000D02*
X124005000Y-119320000D01*
X124005000Y-120380000D02*
X124505000Y-120380000D01*
X141455000Y-154380000D02*
X141955000Y-154380000D01*
X141955000Y-153320000D02*
X141455000Y-153320000D01*
X102935000Y-122350000D02*
X102935000Y-121850000D01*
X101875000Y-121850000D02*
X101875000Y-122350000D01*
X101735000Y-122350000D02*
X101735000Y-121850000D01*
X100675000Y-121850000D02*
X100675000Y-122350000D01*
X96834000Y-122340000D02*
X96834000Y-121840000D01*
X95774000Y-121840000D02*
X95774000Y-122340000D01*
X109005000Y-144167000D02*
X109505000Y-144167000D01*
X109505000Y-143107000D02*
X109005000Y-143107000D01*
X98078000Y-122350000D02*
X98078000Y-121850000D01*
X97018000Y-121850000D02*
X97018000Y-122350000D01*
X99278000Y-122350000D02*
X99278000Y-121850000D01*
X98218000Y-121850000D02*
X98218000Y-122350000D01*
X100478000Y-122350000D02*
X100478000Y-121850000D01*
X99418000Y-121850000D02*
X99418000Y-122350000D01*
X109505000Y-141620000D02*
X109005000Y-141620000D01*
X109005000Y-142680000D02*
X109505000Y-142680000D01*
X114105000Y-145080000D02*
X114605000Y-145080000D01*
X114605000Y-144020000D02*
X114105000Y-144020000D01*
X114105000Y-146280000D02*
X114605000Y-146280000D01*
X114605000Y-145220000D02*
X114105000Y-145220000D01*
X107705000Y-141620000D02*
X107205000Y-141620000D01*
X107205000Y-142680000D02*
X107705000Y-142680000D01*
X114105000Y-142680000D02*
X114605000Y-142680000D01*
X114605000Y-141620000D02*
X114105000Y-141620000D01*
X117305000Y-125980000D02*
X117805000Y-125980000D01*
X117805000Y-124920000D02*
X117305000Y-124920000D01*
X117305000Y-127180000D02*
X117805000Y-127180000D01*
X117805000Y-126120000D02*
X117305000Y-126120000D01*
X117305000Y-128380000D02*
X117805000Y-128380000D01*
X117805000Y-127320000D02*
X117305000Y-127320000D01*
X117305000Y-129580000D02*
X117805000Y-129580000D01*
X117805000Y-128520000D02*
X117305000Y-128520000D01*
X117305000Y-130780000D02*
X117805000Y-130780000D01*
X117805000Y-129720000D02*
X117305000Y-129720000D01*
X117305000Y-131980000D02*
X117805000Y-131980000D01*
X117805000Y-130920000D02*
X117305000Y-130920000D01*
X114105000Y-143880000D02*
X114605000Y-143880000D01*
X114605000Y-142820000D02*
X114105000Y-142820000D01*
X117205000Y-135020000D02*
X116705000Y-135020000D01*
X116705000Y-136080000D02*
X117205000Y-136080000D01*
X117205000Y-136220000D02*
X116705000Y-136220000D01*
X116705000Y-137280000D02*
X117205000Y-137280000D01*
X117205000Y-139520000D02*
X116705000Y-139520000D01*
X116705000Y-140580000D02*
X117205000Y-140580000D01*
X94255000Y-123380000D02*
X94755000Y-123380000D01*
X94755000Y-122320000D02*
X94255000Y-122320000D01*
X100675000Y-124250000D02*
X100675000Y-124750000D01*
X101735000Y-124750000D02*
X101735000Y-124250000D01*
X99475000Y-124250000D02*
X99475000Y-124750000D01*
X100535000Y-124750000D02*
X100535000Y-124250000D01*
X98275000Y-124250000D02*
X98275000Y-124750000D01*
X99335000Y-124750000D02*
X99335000Y-124250000D01*
X97075000Y-124250000D02*
X97075000Y-124750000D01*
X98135000Y-124750000D02*
X98135000Y-124250000D01*
X95875000Y-124250000D02*
X95875000Y-124750000D01*
X96935000Y-124750000D02*
X96935000Y-124250000D01*
X94675000Y-124250000D02*
X94675000Y-124750000D01*
X95735000Y-124750000D02*
X95735000Y-124250000D01*
X93350000Y-124930000D02*
X93850000Y-124930000D01*
X93850000Y-123870000D02*
X93350000Y-123870000D01*
X97755000Y-146620000D02*
X97255000Y-146620000D01*
X97255000Y-147680000D02*
X97755000Y-147680000D01*
X106305000Y-135380000D02*
X106805000Y-135380000D01*
X106805000Y-134320000D02*
X106305000Y-134320000D01*
X106305000Y-136580000D02*
X106805000Y-136580000D01*
X106805000Y-135520000D02*
X106305000Y-135520000D01*
X106305000Y-137780000D02*
X106805000Y-137780000D01*
X106805000Y-136720000D02*
X106305000Y-136720000D01*
X106305000Y-138980000D02*
X106805000Y-138980000D01*
X106805000Y-137920000D02*
X106305000Y-137920000D01*
X106935000Y-147950000D02*
X106935000Y-147450000D01*
X105875000Y-147450000D02*
X105875000Y-147950000D01*
X106935000Y-153050000D02*
X106935000Y-152550000D01*
X105875000Y-152550000D02*
X105875000Y-153050000D01*
X151200000Y-123970000D02*
X151200000Y-122210000D01*
X148130000Y-122210000D02*
X148130000Y-124640000D01*
X117095000Y-121140000D02*
X115335000Y-121140000D01*
X115335000Y-124210000D02*
X117765000Y-124210000D01*
X103395000Y-120860000D02*
X104655000Y-120860000D01*
X110215000Y-120860000D02*
X108955000Y-120860000D01*
X103395000Y-117100000D02*
X103395000Y-120860000D01*
X110215000Y-114850000D02*
X110215000Y-120860000D01*
X121365000Y-151530000D02*
X121365000Y-153330000D01*
X124585000Y-153330000D02*
X124585000Y-150880000D01*
D15*
X124905000Y-132900000D02*
X124905000Y-132500000D01*
X124605000Y-132900000D02*
X124905000Y-132900000D01*
X124605000Y-132900000D02*
X123605000Y-132900000D01*
X124615000Y-131400000D02*
X123615000Y-131400000D01*
X124905000Y-135100000D02*
X124905000Y-134700000D01*
X124605000Y-135100000D02*
X124905000Y-135100000D01*
X124605000Y-135100000D02*
X123605000Y-135100000D01*
X124615000Y-133600000D02*
X123615000Y-133600000D01*
D12*
X141855000Y-121860000D02*
X143755000Y-121860000D01*
X143255000Y-119540000D02*
X141855000Y-119540000D01*
X139505000Y-153390000D02*
X137605000Y-153390000D01*
X138105000Y-155710000D02*
X139505000Y-155710000D01*
D15*
X109580000Y-132800000D02*
X114030000Y-132800000D01*
X108055000Y-125900000D02*
X114030000Y-125900000D01*
X109580000Y-141200000D02*
X114030000Y-141200000D01*
X108055000Y-134300000D02*
X114030000Y-134300000D01*
D12*
X95805000Y-146500000D02*
X98605000Y-146500000D01*
X98605000Y-146500000D02*
X98605000Y-143200000D01*
X124905000Y-141350000D02*
X124905000Y-135600000D01*
X124905000Y-135600000D02*
X121305000Y-135600000D01*
X121305000Y-135600000D02*
X121305000Y-141350000D01*
X124780000Y-144725000D02*
X124780000Y-143375000D01*
X123030000Y-144725000D02*
X123030000Y-143375000D01*
X126055000Y-153600000D02*
X128255000Y-153600000D01*
X126055000Y-155800000D02*
X129055000Y-155800000D01*
D13*
X105312640Y-139318920D02*
X103882620Y-139318920D01*
X105312640Y-139318920D02*
X105312640Y-137937160D01*
X91916680Y-139318920D02*
X93346700Y-139318920D01*
X91916680Y-139318920D02*
X91916680Y-137937160D01*
X105312640Y-127401240D02*
X105312640Y-126019480D01*
X105312640Y-126019480D02*
X103882620Y-126019480D01*
X93346700Y-126019480D02*
X91916680Y-126019480D01*
X91916680Y-126019480D02*
X91916680Y-127401240D01*
D16*
X105597662Y-125790880D02*
G75*
G03X105597662Y-125790880I-53882J0D01*
G01*
D13*
X125753040Y-110753320D02*
X125753040Y-121624520D01*
X125753040Y-121624520D02*
X125753040Y-121748980D01*
X125753040Y-121748980D02*
X125753040Y-121875980D01*
X125753040Y-121875980D02*
X125753040Y-122000440D01*
X125753040Y-122000440D02*
X125753040Y-122124900D01*
X125753040Y-122124900D02*
X125753040Y-122249360D01*
X125753040Y-122249360D02*
X125880040Y-122249360D01*
X125880040Y-122249360D02*
X126004500Y-122249360D01*
X126004500Y-122249360D02*
X126128960Y-122249360D01*
X126128960Y-122249360D02*
X126253420Y-122249360D01*
X126253420Y-122249360D02*
X126380420Y-122249360D01*
X126380420Y-122249360D02*
X138752760Y-122249360D01*
X138752760Y-122249360D02*
X138752760Y-110753320D01*
X138752760Y-110753320D02*
X125753040Y-110753320D01*
X125880040Y-122249360D02*
X125753040Y-122124900D01*
X126004500Y-122249360D02*
X125753040Y-122000440D01*
X126128960Y-122249360D02*
X125753040Y-121875980D01*
X126253420Y-122249360D02*
X125753040Y-121748980D01*
X126380420Y-122249360D02*
X125753040Y-121624520D01*
D17*
X125590330Y-122500820D02*
G75*
G03X125590330Y-122500820I-86210J0D01*
G01*
D15*
X121845800Y-148789286D02*
X121595800Y-148432143D01*
X121417228Y-148789286D02*
X121417228Y-148039286D01*
X121702943Y-148039286D01*
X121774371Y-148075000D01*
X121810086Y-148110714D01*
X121845800Y-148182143D01*
X121845800Y-148289286D01*
X121810086Y-148360714D01*
X121774371Y-148396429D01*
X121702943Y-148432143D01*
X121417228Y-148432143D01*
X122488657Y-148289286D02*
X122488657Y-148789286D01*
X122310086Y-148003571D02*
X122131514Y-148539286D01*
X122595800Y-148539286D01*
X150702657Y-153564786D02*
X150702657Y-152814786D01*
X151488372Y-153493357D02*
X151452658Y-153529071D01*
X151345515Y-153564786D01*
X151274086Y-153564786D01*
X151166943Y-153529071D01*
X151095515Y-153457643D01*
X151059800Y-153386214D01*
X151024086Y-153243357D01*
X151024086Y-153136214D01*
X151059800Y-152993357D01*
X151095515Y-152921929D01*
X151166943Y-152850500D01*
X151274086Y-152814786D01*
X151345515Y-152814786D01*
X151452658Y-152850500D01*
X151488372Y-152886214D01*
X152202658Y-153564786D02*
X151774086Y-153564786D01*
X151988372Y-153564786D02*
X151988372Y-152814786D01*
X151916943Y-152921929D01*
X151845515Y-152993357D01*
X151774086Y-153029071D01*
X113619428Y-120608286D02*
X113619428Y-119858286D01*
X113798000Y-119858286D01*
X113905143Y-119894000D01*
X113976571Y-119965429D01*
X114012286Y-120036857D01*
X114048000Y-120179714D01*
X114048000Y-120286857D01*
X114012286Y-120429714D01*
X113976571Y-120501143D01*
X113905143Y-120572571D01*
X113798000Y-120608286D01*
X113619428Y-120608286D01*
X114298000Y-119858286D02*
X114762286Y-119858286D01*
X114512286Y-120144000D01*
X114619428Y-120144000D01*
X114690857Y-120179714D01*
X114726571Y-120215429D01*
X114762286Y-120286857D01*
X114762286Y-120465429D01*
X114726571Y-120536857D01*
X114690857Y-120572571D01*
X114619428Y-120608286D01*
X114405143Y-120608286D01*
X114333714Y-120572571D01*
X114298000Y-120536857D01*
X153157686Y-115989029D02*
X153764829Y-115989029D01*
X153836257Y-115953314D01*
X153871971Y-115917600D01*
X153907686Y-115846171D01*
X153907686Y-115703314D01*
X153871971Y-115631886D01*
X153836257Y-115596171D01*
X153764829Y-115560457D01*
X153157686Y-115560457D01*
X153157686Y-114846172D02*
X153157686Y-115203315D01*
X153514829Y-115239029D01*
X153479114Y-115203315D01*
X153443400Y-115131886D01*
X153443400Y-114953315D01*
X153479114Y-114881886D01*
X153514829Y-114846172D01*
X153586257Y-114810457D01*
X153764829Y-114810457D01*
X153836257Y-114846172D01*
X153871971Y-114881886D01*
X153907686Y-114953315D01*
X153907686Y-115131886D01*
X153871971Y-115203315D01*
X153836257Y-115239029D01*
X93279500Y-141591000D02*
X93279500Y-141233857D01*
X93493786Y-141662428D02*
X92743786Y-141412428D01*
X93493786Y-141162428D01*
X93100929Y-140912429D02*
X93100929Y-140662429D01*
X93493786Y-140555286D02*
X93493786Y-140912429D01*
X92743786Y-140912429D01*
X92743786Y-140555286D01*
X93493786Y-139841000D02*
X93493786Y-140269572D01*
X93493786Y-140055286D02*
X92743786Y-140055286D01*
X92850929Y-140126715D01*
X92922357Y-140198143D01*
X92958071Y-140269572D01*
X145911457Y-122146600D02*
X145947171Y-122182314D01*
X145982886Y-122289457D01*
X145982886Y-122360886D01*
X145947171Y-122468029D01*
X145875743Y-122539457D01*
X145804314Y-122575172D01*
X145661457Y-122610886D01*
X145554314Y-122610886D01*
X145411457Y-122575172D01*
X145340029Y-122539457D01*
X145268600Y-122468029D01*
X145232886Y-122360886D01*
X145232886Y-122289457D01*
X145268600Y-122182314D01*
X145304314Y-122146600D01*
X145982886Y-121432314D02*
X145982886Y-121860886D01*
X145982886Y-121646600D02*
X145232886Y-121646600D01*
X145340029Y-121718029D01*
X145411457Y-121789457D01*
X145447171Y-121860886D01*
X120816257Y-122553000D02*
X120851971Y-122588714D01*
X120887686Y-122695857D01*
X120887686Y-122767286D01*
X120851971Y-122874429D01*
X120780543Y-122945857D01*
X120709114Y-122981572D01*
X120566257Y-123017286D01*
X120459114Y-123017286D01*
X120316257Y-122981572D01*
X120244829Y-122945857D01*
X120173400Y-122874429D01*
X120137686Y-122767286D01*
X120137686Y-122695857D01*
X120173400Y-122588714D01*
X120209114Y-122553000D01*
X120209114Y-122267286D02*
X120173400Y-122231572D01*
X120137686Y-122160143D01*
X120137686Y-121981572D01*
X120173400Y-121910143D01*
X120209114Y-121874429D01*
X120280543Y-121838714D01*
X120351971Y-121838714D01*
X120459114Y-121874429D01*
X120887686Y-122303000D01*
X120887686Y-121838714D01*
X144401000Y-123661057D02*
X144365286Y-123696771D01*
X144258143Y-123732486D01*
X144186714Y-123732486D01*
X144079571Y-123696771D01*
X144008143Y-123625343D01*
X143972428Y-123553914D01*
X143936714Y-123411057D01*
X143936714Y-123303914D01*
X143972428Y-123161057D01*
X144008143Y-123089629D01*
X144079571Y-123018200D01*
X144186714Y-122982486D01*
X144258143Y-122982486D01*
X144365286Y-123018200D01*
X144401000Y-123053914D01*
X144651000Y-122982486D02*
X145115286Y-122982486D01*
X144865286Y-123268200D01*
X144972428Y-123268200D01*
X145043857Y-123303914D01*
X145079571Y-123339629D01*
X145115286Y-123411057D01*
X145115286Y-123589629D01*
X145079571Y-123661057D01*
X145043857Y-123696771D01*
X144972428Y-123732486D01*
X144758143Y-123732486D01*
X144686714Y-123696771D01*
X144651000Y-123661057D01*
X149735000Y-118872857D02*
X149699286Y-118908571D01*
X149592143Y-118944286D01*
X149520714Y-118944286D01*
X149413571Y-118908571D01*
X149342143Y-118837143D01*
X149306428Y-118765714D01*
X149270714Y-118622857D01*
X149270714Y-118515714D01*
X149306428Y-118372857D01*
X149342143Y-118301429D01*
X149413571Y-118230000D01*
X149520714Y-118194286D01*
X149592143Y-118194286D01*
X149699286Y-118230000D01*
X149735000Y-118265714D01*
X150377857Y-118444286D02*
X150377857Y-118944286D01*
X150199286Y-118158571D02*
X150020714Y-118694286D01*
X150485000Y-118694286D01*
X111902857Y-123225000D02*
X111938571Y-123260714D01*
X111974286Y-123367857D01*
X111974286Y-123439286D01*
X111938571Y-123546429D01*
X111867143Y-123617857D01*
X111795714Y-123653572D01*
X111652857Y-123689286D01*
X111545714Y-123689286D01*
X111402857Y-123653572D01*
X111331429Y-123617857D01*
X111260000Y-123546429D01*
X111224286Y-123439286D01*
X111224286Y-123367857D01*
X111260000Y-123260714D01*
X111295714Y-123225000D01*
X111224286Y-122546429D02*
X111224286Y-122903572D01*
X111581429Y-122939286D01*
X111545714Y-122903572D01*
X111510000Y-122832143D01*
X111510000Y-122653572D01*
X111545714Y-122582143D01*
X111581429Y-122546429D01*
X111652857Y-122510714D01*
X111831429Y-122510714D01*
X111902857Y-122546429D01*
X111938571Y-122582143D01*
X111974286Y-122653572D01*
X111974286Y-122832143D01*
X111938571Y-122903572D01*
X111902857Y-122939286D01*
X110238000Y-110694357D02*
X110202286Y-110730071D01*
X110095143Y-110765786D01*
X110023714Y-110765786D01*
X109916571Y-110730071D01*
X109845143Y-110658643D01*
X109809428Y-110587214D01*
X109773714Y-110444357D01*
X109773714Y-110337214D01*
X109809428Y-110194357D01*
X109845143Y-110122929D01*
X109916571Y-110051500D01*
X110023714Y-110015786D01*
X110095143Y-110015786D01*
X110202286Y-110051500D01*
X110238000Y-110087214D01*
X110880857Y-110015786D02*
X110738000Y-110015786D01*
X110666571Y-110051500D01*
X110630857Y-110087214D01*
X110559428Y-110194357D01*
X110523714Y-110337214D01*
X110523714Y-110622929D01*
X110559428Y-110694357D01*
X110595143Y-110730071D01*
X110666571Y-110765786D01*
X110809428Y-110765786D01*
X110880857Y-110730071D01*
X110916571Y-110694357D01*
X110952286Y-110622929D01*
X110952286Y-110444357D01*
X110916571Y-110372929D01*
X110880857Y-110337214D01*
X110809428Y-110301500D01*
X110666571Y-110301500D01*
X110595143Y-110337214D01*
X110559428Y-110372929D01*
X110523714Y-110444357D01*
X149989000Y-120206657D02*
X149953286Y-120242371D01*
X149846143Y-120278086D01*
X149774714Y-120278086D01*
X149667571Y-120242371D01*
X149596143Y-120170943D01*
X149560428Y-120099514D01*
X149524714Y-119956657D01*
X149524714Y-119849514D01*
X149560428Y-119706657D01*
X149596143Y-119635229D01*
X149667571Y-119563800D01*
X149774714Y-119528086D01*
X149846143Y-119528086D01*
X149953286Y-119563800D01*
X149989000Y-119599514D01*
X150239000Y-119528086D02*
X150739000Y-119528086D01*
X150417571Y-120278086D01*
X110172857Y-123025000D02*
X110208571Y-123060714D01*
X110244286Y-123167857D01*
X110244286Y-123239286D01*
X110208571Y-123346429D01*
X110137143Y-123417857D01*
X110065714Y-123453572D01*
X109922857Y-123489286D01*
X109815714Y-123489286D01*
X109672857Y-123453572D01*
X109601429Y-123417857D01*
X109530000Y-123346429D01*
X109494286Y-123239286D01*
X109494286Y-123167857D01*
X109530000Y-123060714D01*
X109565714Y-123025000D01*
X109815714Y-122596429D02*
X109780000Y-122667857D01*
X109744286Y-122703572D01*
X109672857Y-122739286D01*
X109637143Y-122739286D01*
X109565714Y-122703572D01*
X109530000Y-122667857D01*
X109494286Y-122596429D01*
X109494286Y-122453572D01*
X109530000Y-122382143D01*
X109565714Y-122346429D01*
X109637143Y-122310714D01*
X109672857Y-122310714D01*
X109744286Y-122346429D01*
X109780000Y-122382143D01*
X109815714Y-122453572D01*
X109815714Y-122596429D01*
X109851429Y-122667857D01*
X109887143Y-122703572D01*
X109958571Y-122739286D01*
X110101429Y-122739286D01*
X110172857Y-122703572D01*
X110208571Y-122667857D01*
X110244286Y-122596429D01*
X110244286Y-122453572D01*
X110208571Y-122382143D01*
X110172857Y-122346429D01*
X110101429Y-122310714D01*
X109958571Y-122310714D01*
X109887143Y-122346429D01*
X109851429Y-122382143D01*
X109815714Y-122453572D01*
X139345000Y-124727857D02*
X139309286Y-124763571D01*
X139202143Y-124799286D01*
X139130714Y-124799286D01*
X139023571Y-124763571D01*
X138952143Y-124692143D01*
X138916428Y-124620714D01*
X138880714Y-124477857D01*
X138880714Y-124370714D01*
X138916428Y-124227857D01*
X138952143Y-124156429D01*
X139023571Y-124085000D01*
X139130714Y-124049286D01*
X139202143Y-124049286D01*
X139309286Y-124085000D01*
X139345000Y-124120714D01*
X139702143Y-124799286D02*
X139845000Y-124799286D01*
X139916428Y-124763571D01*
X139952143Y-124727857D01*
X140023571Y-124620714D01*
X140059286Y-124477857D01*
X140059286Y-124192143D01*
X140023571Y-124120714D01*
X139987857Y-124085000D01*
X139916428Y-124049286D01*
X139773571Y-124049286D01*
X139702143Y-124085000D01*
X139666428Y-124120714D01*
X139630714Y-124192143D01*
X139630714Y-124370714D01*
X139666428Y-124442143D01*
X139702143Y-124477857D01*
X139773571Y-124513571D01*
X139916428Y-124513571D01*
X139987857Y-124477857D01*
X140023571Y-124442143D01*
X140059286Y-124370714D01*
X103340357Y-113361357D02*
X103304643Y-113397071D01*
X103197500Y-113432786D01*
X103126071Y-113432786D01*
X103018928Y-113397071D01*
X102947500Y-113325643D01*
X102911785Y-113254214D01*
X102876071Y-113111357D01*
X102876071Y-113004214D01*
X102911785Y-112861357D01*
X102947500Y-112789929D01*
X103018928Y-112718500D01*
X103126071Y-112682786D01*
X103197500Y-112682786D01*
X103304643Y-112718500D01*
X103340357Y-112754214D01*
X104054643Y-113432786D02*
X103626071Y-113432786D01*
X103840357Y-113432786D02*
X103840357Y-112682786D01*
X103768928Y-112789929D01*
X103697500Y-112861357D01*
X103626071Y-112897071D01*
X104518929Y-112682786D02*
X104590357Y-112682786D01*
X104661786Y-112718500D01*
X104697500Y-112754214D01*
X104733214Y-112825643D01*
X104768929Y-112968500D01*
X104768929Y-113147071D01*
X104733214Y-113289929D01*
X104697500Y-113361357D01*
X104661786Y-113397071D01*
X104590357Y-113432786D01*
X104518929Y-113432786D01*
X104447500Y-113397071D01*
X104411786Y-113361357D01*
X104376071Y-113289929D01*
X104340357Y-113147071D01*
X104340357Y-112968500D01*
X104376071Y-112825643D01*
X104411786Y-112754214D01*
X104447500Y-112718500D01*
X104518929Y-112682786D01*
X117881857Y-153048857D02*
X117846143Y-153084571D01*
X117739000Y-153120286D01*
X117667571Y-153120286D01*
X117560428Y-153084571D01*
X117489000Y-153013143D01*
X117453285Y-152941714D01*
X117417571Y-152798857D01*
X117417571Y-152691714D01*
X117453285Y-152548857D01*
X117489000Y-152477429D01*
X117560428Y-152406000D01*
X117667571Y-152370286D01*
X117739000Y-152370286D01*
X117846143Y-152406000D01*
X117881857Y-152441714D01*
X118596143Y-153120286D02*
X118167571Y-153120286D01*
X118381857Y-153120286D02*
X118381857Y-152370286D01*
X118310428Y-152477429D01*
X118239000Y-152548857D01*
X118167571Y-152584571D01*
X119310429Y-153120286D02*
X118881857Y-153120286D01*
X119096143Y-153120286D02*
X119096143Y-152370286D01*
X119024714Y-152477429D01*
X118953286Y-152548857D01*
X118881857Y-152584571D01*
X125247857Y-157874857D02*
X125212143Y-157910571D01*
X125105000Y-157946286D01*
X125033571Y-157946286D01*
X124926428Y-157910571D01*
X124855000Y-157839143D01*
X124819285Y-157767714D01*
X124783571Y-157624857D01*
X124783571Y-157517714D01*
X124819285Y-157374857D01*
X124855000Y-157303429D01*
X124926428Y-157232000D01*
X125033571Y-157196286D01*
X125105000Y-157196286D01*
X125212143Y-157232000D01*
X125247857Y-157267714D01*
X125962143Y-157946286D02*
X125533571Y-157946286D01*
X125747857Y-157946286D02*
X125747857Y-157196286D01*
X125676428Y-157303429D01*
X125605000Y-157374857D01*
X125533571Y-157410571D01*
X126247857Y-157267714D02*
X126283571Y-157232000D01*
X126355000Y-157196286D01*
X126533571Y-157196286D01*
X126605000Y-157232000D01*
X126640714Y-157267714D01*
X126676429Y-157339143D01*
X126676429Y-157410571D01*
X126640714Y-157517714D01*
X126212143Y-157946286D01*
X126676429Y-157946286D01*
X144247057Y-111723057D02*
X144211343Y-111758771D01*
X144104200Y-111794486D01*
X144032771Y-111794486D01*
X143925628Y-111758771D01*
X143854200Y-111687343D01*
X143818485Y-111615914D01*
X143782771Y-111473057D01*
X143782771Y-111365914D01*
X143818485Y-111223057D01*
X143854200Y-111151629D01*
X143925628Y-111080200D01*
X144032771Y-111044486D01*
X144104200Y-111044486D01*
X144211343Y-111080200D01*
X144247057Y-111115914D01*
X144961343Y-111794486D02*
X144532771Y-111794486D01*
X144747057Y-111794486D02*
X144747057Y-111044486D01*
X144675628Y-111151629D01*
X144604200Y-111223057D01*
X144532771Y-111258771D01*
X145211343Y-111044486D02*
X145675629Y-111044486D01*
X145425629Y-111330200D01*
X145532771Y-111330200D01*
X145604200Y-111365914D01*
X145639914Y-111401629D01*
X145675629Y-111473057D01*
X145675629Y-111651629D01*
X145639914Y-111723057D01*
X145604200Y-111758771D01*
X145532771Y-111794486D01*
X145318486Y-111794486D01*
X145247057Y-111758771D01*
X145211343Y-111723057D01*
X119659857Y-132982857D02*
X119624143Y-133018571D01*
X119517000Y-133054286D01*
X119445571Y-133054286D01*
X119338428Y-133018571D01*
X119267000Y-132947143D01*
X119231285Y-132875714D01*
X119195571Y-132732857D01*
X119195571Y-132625714D01*
X119231285Y-132482857D01*
X119267000Y-132411429D01*
X119338428Y-132340000D01*
X119445571Y-132304286D01*
X119517000Y-132304286D01*
X119624143Y-132340000D01*
X119659857Y-132375714D01*
X120374143Y-133054286D02*
X119945571Y-133054286D01*
X120159857Y-133054286D02*
X120159857Y-132304286D01*
X120088428Y-132411429D01*
X120017000Y-132482857D01*
X119945571Y-132518571D01*
X121017000Y-132554286D02*
X121017000Y-133054286D01*
X120838429Y-132268571D02*
X120659857Y-132804286D01*
X121124143Y-132804286D01*
X119659857Y-134379857D02*
X119624143Y-134415571D01*
X119517000Y-134451286D01*
X119445571Y-134451286D01*
X119338428Y-134415571D01*
X119267000Y-134344143D01*
X119231285Y-134272714D01*
X119195571Y-134129857D01*
X119195571Y-134022714D01*
X119231285Y-133879857D01*
X119267000Y-133808429D01*
X119338428Y-133737000D01*
X119445571Y-133701286D01*
X119517000Y-133701286D01*
X119624143Y-133737000D01*
X119659857Y-133772714D01*
X120374143Y-134451286D02*
X119945571Y-134451286D01*
X120159857Y-134451286D02*
X120159857Y-133701286D01*
X120088428Y-133808429D01*
X120017000Y-133879857D01*
X119945571Y-133915571D01*
X121052714Y-133701286D02*
X120695571Y-133701286D01*
X120659857Y-134058429D01*
X120695571Y-134022714D01*
X120767000Y-133987000D01*
X120945571Y-133987000D01*
X121017000Y-134022714D01*
X121052714Y-134058429D01*
X121088429Y-134129857D01*
X121088429Y-134308429D01*
X121052714Y-134379857D01*
X121017000Y-134415571D01*
X120945571Y-134451286D01*
X120767000Y-134451286D01*
X120695571Y-134415571D01*
X120659857Y-134379857D01*
X119393857Y-136932143D02*
X119429571Y-136967857D01*
X119465286Y-137075000D01*
X119465286Y-137146429D01*
X119429571Y-137253572D01*
X119358143Y-137325000D01*
X119286714Y-137360715D01*
X119143857Y-137396429D01*
X119036714Y-137396429D01*
X118893857Y-137360715D01*
X118822429Y-137325000D01*
X118751000Y-137253572D01*
X118715286Y-137146429D01*
X118715286Y-137075000D01*
X118751000Y-136967857D01*
X118786714Y-136932143D01*
X119465286Y-136217857D02*
X119465286Y-136646429D01*
X119465286Y-136432143D02*
X118715286Y-136432143D01*
X118822429Y-136503572D01*
X118893857Y-136575000D01*
X118929571Y-136646429D01*
X118715286Y-135575000D02*
X118715286Y-135717857D01*
X118751000Y-135789286D01*
X118786714Y-135825000D01*
X118893857Y-135896429D01*
X119036714Y-135932143D01*
X119322429Y-135932143D01*
X119393857Y-135896429D01*
X119429571Y-135860714D01*
X119465286Y-135789286D01*
X119465286Y-135646429D01*
X119429571Y-135575000D01*
X119393857Y-135539286D01*
X119322429Y-135503571D01*
X119143857Y-135503571D01*
X119072429Y-135539286D01*
X119036714Y-135575000D01*
X119001000Y-135646429D01*
X119001000Y-135789286D01*
X119036714Y-135860714D01*
X119072429Y-135896429D01*
X119143857Y-135932143D01*
X119393857Y-141134643D02*
X119429571Y-141170357D01*
X119465286Y-141277500D01*
X119465286Y-141348929D01*
X119429571Y-141456072D01*
X119358143Y-141527500D01*
X119286714Y-141563215D01*
X119143857Y-141598929D01*
X119036714Y-141598929D01*
X118893857Y-141563215D01*
X118822429Y-141527500D01*
X118751000Y-141456072D01*
X118715286Y-141348929D01*
X118715286Y-141277500D01*
X118751000Y-141170357D01*
X118786714Y-141134643D01*
X119465286Y-140420357D02*
X119465286Y-140848929D01*
X119465286Y-140634643D02*
X118715286Y-140634643D01*
X118822429Y-140706072D01*
X118893857Y-140777500D01*
X118929571Y-140848929D01*
X118715286Y-140170357D02*
X118715286Y-139670357D01*
X119465286Y-139991786D01*
X118770857Y-143015857D02*
X118735143Y-143051571D01*
X118628000Y-143087286D01*
X118556571Y-143087286D01*
X118449428Y-143051571D01*
X118378000Y-142980143D01*
X118342285Y-142908714D01*
X118306571Y-142765857D01*
X118306571Y-142658714D01*
X118342285Y-142515857D01*
X118378000Y-142444429D01*
X118449428Y-142373000D01*
X118556571Y-142337286D01*
X118628000Y-142337286D01*
X118735143Y-142373000D01*
X118770857Y-142408714D01*
X119485143Y-143087286D02*
X119056571Y-143087286D01*
X119270857Y-143087286D02*
X119270857Y-142337286D01*
X119199428Y-142444429D01*
X119128000Y-142515857D01*
X119056571Y-142551571D01*
X119913714Y-142658714D02*
X119842286Y-142623000D01*
X119806571Y-142587286D01*
X119770857Y-142515857D01*
X119770857Y-142480143D01*
X119806571Y-142408714D01*
X119842286Y-142373000D01*
X119913714Y-142337286D01*
X120056571Y-142337286D01*
X120128000Y-142373000D01*
X120163714Y-142408714D01*
X120199429Y-142480143D01*
X120199429Y-142515857D01*
X120163714Y-142587286D01*
X120128000Y-142623000D01*
X120056571Y-142658714D01*
X119913714Y-142658714D01*
X119842286Y-142694429D01*
X119806571Y-142730143D01*
X119770857Y-142801571D01*
X119770857Y-142944429D01*
X119806571Y-143015857D01*
X119842286Y-143051571D01*
X119913714Y-143087286D01*
X120056571Y-143087286D01*
X120128000Y-143051571D01*
X120163714Y-143015857D01*
X120199429Y-142944429D01*
X120199429Y-142801571D01*
X120163714Y-142730143D01*
X120128000Y-142694429D01*
X120056571Y-142658714D01*
X120866357Y-146889357D02*
X120830643Y-146925071D01*
X120723500Y-146960786D01*
X120652071Y-146960786D01*
X120544928Y-146925071D01*
X120473500Y-146853643D01*
X120437785Y-146782214D01*
X120402071Y-146639357D01*
X120402071Y-146532214D01*
X120437785Y-146389357D01*
X120473500Y-146317929D01*
X120544928Y-146246500D01*
X120652071Y-146210786D01*
X120723500Y-146210786D01*
X120830643Y-146246500D01*
X120866357Y-146282214D01*
X121580643Y-146960786D02*
X121152071Y-146960786D01*
X121366357Y-146960786D02*
X121366357Y-146210786D01*
X121294928Y-146317929D01*
X121223500Y-146389357D01*
X121152071Y-146425071D01*
X121937786Y-146960786D02*
X122080643Y-146960786D01*
X122152071Y-146925071D01*
X122187786Y-146889357D01*
X122259214Y-146782214D01*
X122294929Y-146639357D01*
X122294929Y-146353643D01*
X122259214Y-146282214D01*
X122223500Y-146246500D01*
X122152071Y-146210786D01*
X122009214Y-146210786D01*
X121937786Y-146246500D01*
X121902071Y-146282214D01*
X121866357Y-146353643D01*
X121866357Y-146532214D01*
X121902071Y-146603643D01*
X121937786Y-146639357D01*
X122009214Y-146675071D01*
X122152071Y-146675071D01*
X122223500Y-146639357D01*
X122259214Y-146603643D01*
X122294929Y-146532214D01*
X139624257Y-123661057D02*
X139588543Y-123696771D01*
X139481400Y-123732486D01*
X139409971Y-123732486D01*
X139302828Y-123696771D01*
X139231400Y-123625343D01*
X139195685Y-123553914D01*
X139159971Y-123411057D01*
X139159971Y-123303914D01*
X139195685Y-123161057D01*
X139231400Y-123089629D01*
X139302828Y-123018200D01*
X139409971Y-122982486D01*
X139481400Y-122982486D01*
X139588543Y-123018200D01*
X139624257Y-123053914D01*
X139909971Y-123053914D02*
X139945685Y-123018200D01*
X140017114Y-122982486D01*
X140195685Y-122982486D01*
X140267114Y-123018200D01*
X140302828Y-123053914D01*
X140338543Y-123125343D01*
X140338543Y-123196771D01*
X140302828Y-123303914D01*
X139874257Y-123732486D01*
X140338543Y-123732486D01*
X140802829Y-122982486D02*
X140874257Y-122982486D01*
X140945686Y-123018200D01*
X140981400Y-123053914D01*
X141017114Y-123125343D01*
X141052829Y-123268200D01*
X141052829Y-123446771D01*
X141017114Y-123589629D01*
X140981400Y-123661057D01*
X140945686Y-123696771D01*
X140874257Y-123732486D01*
X140802829Y-123732486D01*
X140731400Y-123696771D01*
X140695686Y-123661057D01*
X140659971Y-123589629D01*
X140624257Y-123446771D01*
X140624257Y-123268200D01*
X140659971Y-123125343D01*
X140695686Y-123053914D01*
X140731400Y-123018200D01*
X140802829Y-122982486D01*
X141249857Y-156668357D02*
X141214143Y-156704071D01*
X141107000Y-156739786D01*
X141035571Y-156739786D01*
X140928428Y-156704071D01*
X140857000Y-156632643D01*
X140821285Y-156561214D01*
X140785571Y-156418357D01*
X140785571Y-156311214D01*
X140821285Y-156168357D01*
X140857000Y-156096929D01*
X140928428Y-156025500D01*
X141035571Y-155989786D01*
X141107000Y-155989786D01*
X141214143Y-156025500D01*
X141249857Y-156061214D01*
X141535571Y-156061214D02*
X141571285Y-156025500D01*
X141642714Y-155989786D01*
X141821285Y-155989786D01*
X141892714Y-156025500D01*
X141928428Y-156061214D01*
X141964143Y-156132643D01*
X141964143Y-156204071D01*
X141928428Y-156311214D01*
X141499857Y-156739786D01*
X141964143Y-156739786D01*
X142678429Y-156739786D02*
X142249857Y-156739786D01*
X142464143Y-156739786D02*
X142464143Y-155989786D01*
X142392714Y-156096929D01*
X142321286Y-156168357D01*
X142249857Y-156204071D01*
X142469057Y-118276257D02*
X142433343Y-118311971D01*
X142326200Y-118347686D01*
X142254771Y-118347686D01*
X142147628Y-118311971D01*
X142076200Y-118240543D01*
X142040485Y-118169114D01*
X142004771Y-118026257D01*
X142004771Y-117919114D01*
X142040485Y-117776257D01*
X142076200Y-117704829D01*
X142147628Y-117633400D01*
X142254771Y-117597686D01*
X142326200Y-117597686D01*
X142433343Y-117633400D01*
X142469057Y-117669114D01*
X142754771Y-117669114D02*
X142790485Y-117633400D01*
X142861914Y-117597686D01*
X143040485Y-117597686D01*
X143111914Y-117633400D01*
X143147628Y-117669114D01*
X143183343Y-117740543D01*
X143183343Y-117811971D01*
X143147628Y-117919114D01*
X142719057Y-118347686D01*
X143183343Y-118347686D01*
X143469057Y-117669114D02*
X143504771Y-117633400D01*
X143576200Y-117597686D01*
X143754771Y-117597686D01*
X143826200Y-117633400D01*
X143861914Y-117669114D01*
X143897629Y-117740543D01*
X143897629Y-117811971D01*
X143861914Y-117919114D01*
X143433343Y-118347686D01*
X143897629Y-118347686D01*
X123723857Y-111773857D02*
X123688143Y-111809571D01*
X123581000Y-111845286D01*
X123509571Y-111845286D01*
X123402428Y-111809571D01*
X123331000Y-111738143D01*
X123295285Y-111666714D01*
X123259571Y-111523857D01*
X123259571Y-111416714D01*
X123295285Y-111273857D01*
X123331000Y-111202429D01*
X123402428Y-111131000D01*
X123509571Y-111095286D01*
X123581000Y-111095286D01*
X123688143Y-111131000D01*
X123723857Y-111166714D01*
X124009571Y-111166714D02*
X124045285Y-111131000D01*
X124116714Y-111095286D01*
X124295285Y-111095286D01*
X124366714Y-111131000D01*
X124402428Y-111166714D01*
X124438143Y-111238143D01*
X124438143Y-111309571D01*
X124402428Y-111416714D01*
X123973857Y-111845286D01*
X124438143Y-111845286D01*
X124688143Y-111095286D02*
X125152429Y-111095286D01*
X124902429Y-111381000D01*
X125009571Y-111381000D01*
X125081000Y-111416714D01*
X125116714Y-111452429D01*
X125152429Y-111523857D01*
X125152429Y-111702429D01*
X125116714Y-111773857D01*
X125081000Y-111809571D01*
X125009571Y-111845286D01*
X124795286Y-111845286D01*
X124723857Y-111809571D01*
X124688143Y-111773857D01*
X129311857Y-110376857D02*
X129276143Y-110412571D01*
X129169000Y-110448286D01*
X129097571Y-110448286D01*
X128990428Y-110412571D01*
X128919000Y-110341143D01*
X128883285Y-110269714D01*
X128847571Y-110126857D01*
X128847571Y-110019714D01*
X128883285Y-109876857D01*
X128919000Y-109805429D01*
X128990428Y-109734000D01*
X129097571Y-109698286D01*
X129169000Y-109698286D01*
X129276143Y-109734000D01*
X129311857Y-109769714D01*
X129597571Y-109769714D02*
X129633285Y-109734000D01*
X129704714Y-109698286D01*
X129883285Y-109698286D01*
X129954714Y-109734000D01*
X129990428Y-109769714D01*
X130026143Y-109841143D01*
X130026143Y-109912571D01*
X129990428Y-110019714D01*
X129561857Y-110448286D01*
X130026143Y-110448286D01*
X130669000Y-109948286D02*
X130669000Y-110448286D01*
X130490429Y-109662571D02*
X130311857Y-110198286D01*
X130776143Y-110198286D01*
X127838657Y-124118257D02*
X127802943Y-124153971D01*
X127695800Y-124189686D01*
X127624371Y-124189686D01*
X127517228Y-124153971D01*
X127445800Y-124082543D01*
X127410085Y-124011114D01*
X127374371Y-123868257D01*
X127374371Y-123761114D01*
X127410085Y-123618257D01*
X127445800Y-123546829D01*
X127517228Y-123475400D01*
X127624371Y-123439686D01*
X127695800Y-123439686D01*
X127802943Y-123475400D01*
X127838657Y-123511114D01*
X128124371Y-123511114D02*
X128160085Y-123475400D01*
X128231514Y-123439686D01*
X128410085Y-123439686D01*
X128481514Y-123475400D01*
X128517228Y-123511114D01*
X128552943Y-123582543D01*
X128552943Y-123653971D01*
X128517228Y-123761114D01*
X128088657Y-124189686D01*
X128552943Y-124189686D01*
X129231514Y-123439686D02*
X128874371Y-123439686D01*
X128838657Y-123796829D01*
X128874371Y-123761114D01*
X128945800Y-123725400D01*
X129124371Y-123725400D01*
X129195800Y-123761114D01*
X129231514Y-123796829D01*
X129267229Y-123868257D01*
X129267229Y-124046829D01*
X129231514Y-124118257D01*
X129195800Y-124153971D01*
X129124371Y-124189686D01*
X128945800Y-124189686D01*
X128874371Y-124153971D01*
X128838657Y-124118257D01*
X141910257Y-117260257D02*
X141874543Y-117295971D01*
X141767400Y-117331686D01*
X141695971Y-117331686D01*
X141588828Y-117295971D01*
X141517400Y-117224543D01*
X141481685Y-117153114D01*
X141445971Y-117010257D01*
X141445971Y-116903114D01*
X141481685Y-116760257D01*
X141517400Y-116688829D01*
X141588828Y-116617400D01*
X141695971Y-116581686D01*
X141767400Y-116581686D01*
X141874543Y-116617400D01*
X141910257Y-116653114D01*
X142195971Y-116653114D02*
X142231685Y-116617400D01*
X142303114Y-116581686D01*
X142481685Y-116581686D01*
X142553114Y-116617400D01*
X142588828Y-116653114D01*
X142624543Y-116724543D01*
X142624543Y-116795971D01*
X142588828Y-116903114D01*
X142160257Y-117331686D01*
X142624543Y-117331686D01*
X143267400Y-116581686D02*
X143124543Y-116581686D01*
X143053114Y-116617400D01*
X143017400Y-116653114D01*
X142945971Y-116760257D01*
X142910257Y-116903114D01*
X142910257Y-117188829D01*
X142945971Y-117260257D01*
X142981686Y-117295971D01*
X143053114Y-117331686D01*
X143195971Y-117331686D01*
X143267400Y-117295971D01*
X143303114Y-117260257D01*
X143338829Y-117188829D01*
X143338829Y-117010257D01*
X143303114Y-116938829D01*
X143267400Y-116903114D01*
X143195971Y-116867400D01*
X143053114Y-116867400D01*
X142981686Y-116903114D01*
X142945971Y-116938829D01*
X142910257Y-117010257D01*
X124041357Y-112789857D02*
X124005643Y-112825571D01*
X123898500Y-112861286D01*
X123827071Y-112861286D01*
X123719928Y-112825571D01*
X123648500Y-112754143D01*
X123612785Y-112682714D01*
X123577071Y-112539857D01*
X123577071Y-112432714D01*
X123612785Y-112289857D01*
X123648500Y-112218429D01*
X123719928Y-112147000D01*
X123827071Y-112111286D01*
X123898500Y-112111286D01*
X124005643Y-112147000D01*
X124041357Y-112182714D01*
X124327071Y-112182714D02*
X124362785Y-112147000D01*
X124434214Y-112111286D01*
X124612785Y-112111286D01*
X124684214Y-112147000D01*
X124719928Y-112182714D01*
X124755643Y-112254143D01*
X124755643Y-112325571D01*
X124719928Y-112432714D01*
X124291357Y-112861286D01*
X124755643Y-112861286D01*
X125005643Y-112111286D02*
X125505643Y-112111286D01*
X125184214Y-112861286D01*
X127889457Y-125185057D02*
X127853743Y-125220771D01*
X127746600Y-125256486D01*
X127675171Y-125256486D01*
X127568028Y-125220771D01*
X127496600Y-125149343D01*
X127460885Y-125077914D01*
X127425171Y-124935057D01*
X127425171Y-124827914D01*
X127460885Y-124685057D01*
X127496600Y-124613629D01*
X127568028Y-124542200D01*
X127675171Y-124506486D01*
X127746600Y-124506486D01*
X127853743Y-124542200D01*
X127889457Y-124577914D01*
X128175171Y-124577914D02*
X128210885Y-124542200D01*
X128282314Y-124506486D01*
X128460885Y-124506486D01*
X128532314Y-124542200D01*
X128568028Y-124577914D01*
X128603743Y-124649343D01*
X128603743Y-124720771D01*
X128568028Y-124827914D01*
X128139457Y-125256486D01*
X128603743Y-125256486D01*
X129032314Y-124827914D02*
X128960886Y-124792200D01*
X128925171Y-124756486D01*
X128889457Y-124685057D01*
X128889457Y-124649343D01*
X128925171Y-124577914D01*
X128960886Y-124542200D01*
X129032314Y-124506486D01*
X129175171Y-124506486D01*
X129246600Y-124542200D01*
X129282314Y-124577914D01*
X129318029Y-124649343D01*
X129318029Y-124685057D01*
X129282314Y-124756486D01*
X129246600Y-124792200D01*
X129175171Y-124827914D01*
X129032314Y-124827914D01*
X128960886Y-124863629D01*
X128925171Y-124899343D01*
X128889457Y-124970771D01*
X128889457Y-125113629D01*
X128925171Y-125185057D01*
X128960886Y-125220771D01*
X129032314Y-125256486D01*
X129175171Y-125256486D01*
X129246600Y-125220771D01*
X129282314Y-125185057D01*
X129318029Y-125113629D01*
X129318029Y-124970771D01*
X129282314Y-124899343D01*
X129246600Y-124863629D01*
X129175171Y-124827914D01*
X108229857Y-124537357D02*
X108194143Y-124573071D01*
X108087000Y-124608786D01*
X108015571Y-124608786D01*
X107908428Y-124573071D01*
X107837000Y-124501643D01*
X107801285Y-124430214D01*
X107765571Y-124287357D01*
X107765571Y-124180214D01*
X107801285Y-124037357D01*
X107837000Y-123965929D01*
X107908428Y-123894500D01*
X108015571Y-123858786D01*
X108087000Y-123858786D01*
X108194143Y-123894500D01*
X108229857Y-123930214D01*
X108515571Y-123930214D02*
X108551285Y-123894500D01*
X108622714Y-123858786D01*
X108801285Y-123858786D01*
X108872714Y-123894500D01*
X108908428Y-123930214D01*
X108944143Y-124001643D01*
X108944143Y-124073071D01*
X108908428Y-124180214D01*
X108479857Y-124608786D01*
X108944143Y-124608786D01*
X109301286Y-124608786D02*
X109444143Y-124608786D01*
X109515571Y-124573071D01*
X109551286Y-124537357D01*
X109622714Y-124430214D01*
X109658429Y-124287357D01*
X109658429Y-124001643D01*
X109622714Y-123930214D01*
X109587000Y-123894500D01*
X109515571Y-123858786D01*
X109372714Y-123858786D01*
X109301286Y-123894500D01*
X109265571Y-123930214D01*
X109229857Y-124001643D01*
X109229857Y-124180214D01*
X109265571Y-124251643D01*
X109301286Y-124287357D01*
X109372714Y-124323071D01*
X109515571Y-124323071D01*
X109587000Y-124287357D01*
X109622714Y-124251643D01*
X109658429Y-124180214D01*
X110172857Y-135087857D02*
X110137143Y-135123571D01*
X110030000Y-135159286D01*
X109958571Y-135159286D01*
X109851428Y-135123571D01*
X109780000Y-135052143D01*
X109744285Y-134980714D01*
X109708571Y-134837857D01*
X109708571Y-134730714D01*
X109744285Y-134587857D01*
X109780000Y-134516429D01*
X109851428Y-134445000D01*
X109958571Y-134409286D01*
X110030000Y-134409286D01*
X110137143Y-134445000D01*
X110172857Y-134480714D01*
X110422857Y-134409286D02*
X110887143Y-134409286D01*
X110637143Y-134695000D01*
X110744285Y-134695000D01*
X110815714Y-134730714D01*
X110851428Y-134766429D01*
X110887143Y-134837857D01*
X110887143Y-135016429D01*
X110851428Y-135087857D01*
X110815714Y-135123571D01*
X110744285Y-135159286D01*
X110530000Y-135159286D01*
X110458571Y-135123571D01*
X110422857Y-135087857D01*
X111351429Y-134409286D02*
X111422857Y-134409286D01*
X111494286Y-134445000D01*
X111530000Y-134480714D01*
X111565714Y-134552143D01*
X111601429Y-134695000D01*
X111601429Y-134873571D01*
X111565714Y-135016429D01*
X111530000Y-135087857D01*
X111494286Y-135123571D01*
X111422857Y-135159286D01*
X111351429Y-135159286D01*
X111280000Y-135123571D01*
X111244286Y-135087857D01*
X111208571Y-135016429D01*
X111172857Y-134873571D01*
X111172857Y-134695000D01*
X111208571Y-134552143D01*
X111244286Y-134480714D01*
X111280000Y-134445000D01*
X111351429Y-134409286D01*
X114389357Y-125489857D02*
X114353643Y-125525571D01*
X114246500Y-125561286D01*
X114175071Y-125561286D01*
X114067928Y-125525571D01*
X113996500Y-125454143D01*
X113960785Y-125382714D01*
X113925071Y-125239857D01*
X113925071Y-125132714D01*
X113960785Y-124989857D01*
X113996500Y-124918429D01*
X114067928Y-124847000D01*
X114175071Y-124811286D01*
X114246500Y-124811286D01*
X114353643Y-124847000D01*
X114389357Y-124882714D01*
X114639357Y-124811286D02*
X115103643Y-124811286D01*
X114853643Y-125097000D01*
X114960785Y-125097000D01*
X115032214Y-125132714D01*
X115067928Y-125168429D01*
X115103643Y-125239857D01*
X115103643Y-125418429D01*
X115067928Y-125489857D01*
X115032214Y-125525571D01*
X114960785Y-125561286D01*
X114746500Y-125561286D01*
X114675071Y-125525571D01*
X114639357Y-125489857D01*
X115817929Y-125561286D02*
X115389357Y-125561286D01*
X115603643Y-125561286D02*
X115603643Y-124811286D01*
X115532214Y-124918429D01*
X115460786Y-124989857D01*
X115389357Y-125025571D01*
X112372857Y-132547857D02*
X112337143Y-132583571D01*
X112230000Y-132619286D01*
X112158571Y-132619286D01*
X112051428Y-132583571D01*
X111980000Y-132512143D01*
X111944285Y-132440714D01*
X111908571Y-132297857D01*
X111908571Y-132190714D01*
X111944285Y-132047857D01*
X111980000Y-131976429D01*
X112051428Y-131905000D01*
X112158571Y-131869286D01*
X112230000Y-131869286D01*
X112337143Y-131905000D01*
X112372857Y-131940714D01*
X112622857Y-131869286D02*
X113087143Y-131869286D01*
X112837143Y-132155000D01*
X112944285Y-132155000D01*
X113015714Y-132190714D01*
X113051428Y-132226429D01*
X113087143Y-132297857D01*
X113087143Y-132476429D01*
X113051428Y-132547857D01*
X113015714Y-132583571D01*
X112944285Y-132619286D01*
X112730000Y-132619286D01*
X112658571Y-132583571D01*
X112622857Y-132547857D01*
X113372857Y-131940714D02*
X113408571Y-131905000D01*
X113480000Y-131869286D01*
X113658571Y-131869286D01*
X113730000Y-131905000D01*
X113765714Y-131940714D01*
X113801429Y-132012143D01*
X113801429Y-132083571D01*
X113765714Y-132190714D01*
X113337143Y-132619286D01*
X113801429Y-132619286D01*
X94005857Y-147079857D02*
X93970143Y-147115571D01*
X93863000Y-147151286D01*
X93791571Y-147151286D01*
X93684428Y-147115571D01*
X93613000Y-147044143D01*
X93577285Y-146972714D01*
X93541571Y-146829857D01*
X93541571Y-146722714D01*
X93577285Y-146579857D01*
X93613000Y-146508429D01*
X93684428Y-146437000D01*
X93791571Y-146401286D01*
X93863000Y-146401286D01*
X93970143Y-146437000D01*
X94005857Y-146472714D01*
X94255857Y-146401286D02*
X94720143Y-146401286D01*
X94470143Y-146687000D01*
X94577285Y-146687000D01*
X94648714Y-146722714D01*
X94684428Y-146758429D01*
X94720143Y-146829857D01*
X94720143Y-147008429D01*
X94684428Y-147079857D01*
X94648714Y-147115571D01*
X94577285Y-147151286D01*
X94363000Y-147151286D01*
X94291571Y-147115571D01*
X94255857Y-147079857D01*
X94970143Y-146401286D02*
X95434429Y-146401286D01*
X95184429Y-146687000D01*
X95291571Y-146687000D01*
X95363000Y-146722714D01*
X95398714Y-146758429D01*
X95434429Y-146829857D01*
X95434429Y-147008429D01*
X95398714Y-147079857D01*
X95363000Y-147115571D01*
X95291571Y-147151286D01*
X95077286Y-147151286D01*
X95005857Y-147115571D01*
X94970143Y-147079857D01*
X92088857Y-122148143D02*
X92124571Y-122183857D01*
X92160286Y-122291000D01*
X92160286Y-122362429D01*
X92124571Y-122469572D01*
X92053143Y-122541000D01*
X91981714Y-122576715D01*
X91838857Y-122612429D01*
X91731714Y-122612429D01*
X91588857Y-122576715D01*
X91517429Y-122541000D01*
X91446000Y-122469572D01*
X91410286Y-122362429D01*
X91410286Y-122291000D01*
X91446000Y-122183857D01*
X91481714Y-122148143D01*
X91410286Y-121898143D02*
X91410286Y-121433857D01*
X91696000Y-121683857D01*
X91696000Y-121576715D01*
X91731714Y-121505286D01*
X91767429Y-121469572D01*
X91838857Y-121433857D01*
X92017429Y-121433857D01*
X92088857Y-121469572D01*
X92124571Y-121505286D01*
X92160286Y-121576715D01*
X92160286Y-121791000D01*
X92124571Y-121862429D01*
X92088857Y-121898143D01*
X91660286Y-120791000D02*
X92160286Y-120791000D01*
X91374571Y-120969571D02*
X91910286Y-121148143D01*
X91910286Y-120683857D01*
X95327357Y-142082143D02*
X95363071Y-142117857D01*
X95398786Y-142225000D01*
X95398786Y-142296429D01*
X95363071Y-142403572D01*
X95291643Y-142475000D01*
X95220214Y-142510715D01*
X95077357Y-142546429D01*
X94970214Y-142546429D01*
X94827357Y-142510715D01*
X94755929Y-142475000D01*
X94684500Y-142403572D01*
X94648786Y-142296429D01*
X94648786Y-142225000D01*
X94684500Y-142117857D01*
X94720214Y-142082143D01*
X94648786Y-141832143D02*
X94648786Y-141367857D01*
X94934500Y-141617857D01*
X94934500Y-141510715D01*
X94970214Y-141439286D01*
X95005929Y-141403572D01*
X95077357Y-141367857D01*
X95255929Y-141367857D01*
X95327357Y-141403572D01*
X95363071Y-141439286D01*
X95398786Y-141510715D01*
X95398786Y-141725000D01*
X95363071Y-141796429D01*
X95327357Y-141832143D01*
X94648786Y-140689286D02*
X94648786Y-141046429D01*
X95005929Y-141082143D01*
X94970214Y-141046429D01*
X94934500Y-140975000D01*
X94934500Y-140796429D01*
X94970214Y-140725000D01*
X95005929Y-140689286D01*
X95077357Y-140653571D01*
X95255929Y-140653571D01*
X95327357Y-140689286D01*
X95363071Y-140725000D01*
X95398786Y-140796429D01*
X95398786Y-140975000D01*
X95363071Y-141046429D01*
X95327357Y-141082143D01*
X91644357Y-141134643D02*
X91680071Y-141170357D01*
X91715786Y-141277500D01*
X91715786Y-141348929D01*
X91680071Y-141456072D01*
X91608643Y-141527500D01*
X91537214Y-141563215D01*
X91394357Y-141598929D01*
X91287214Y-141598929D01*
X91144357Y-141563215D01*
X91072929Y-141527500D01*
X91001500Y-141456072D01*
X90965786Y-141348929D01*
X90965786Y-141277500D01*
X91001500Y-141170357D01*
X91037214Y-141134643D01*
X90965786Y-140884643D02*
X90965786Y-140420357D01*
X91251500Y-140670357D01*
X91251500Y-140563215D01*
X91287214Y-140491786D01*
X91322929Y-140456072D01*
X91394357Y-140420357D01*
X91572929Y-140420357D01*
X91644357Y-140456072D01*
X91680071Y-140491786D01*
X91715786Y-140563215D01*
X91715786Y-140777500D01*
X91680071Y-140848929D01*
X91644357Y-140884643D01*
X90965786Y-139777500D02*
X90965786Y-139920357D01*
X91001500Y-139991786D01*
X91037214Y-140027500D01*
X91144357Y-140098929D01*
X91287214Y-140134643D01*
X91572929Y-140134643D01*
X91644357Y-140098929D01*
X91680071Y-140063214D01*
X91715786Y-139991786D01*
X91715786Y-139848929D01*
X91680071Y-139777500D01*
X91644357Y-139741786D01*
X91572929Y-139706071D01*
X91394357Y-139706071D01*
X91322929Y-139741786D01*
X91287214Y-139777500D01*
X91251500Y-139848929D01*
X91251500Y-139991786D01*
X91287214Y-140063214D01*
X91322929Y-140098929D01*
X91394357Y-140134643D01*
X101244857Y-144158857D02*
X101209143Y-144194571D01*
X101102000Y-144230286D01*
X101030571Y-144230286D01*
X100923428Y-144194571D01*
X100852000Y-144123143D01*
X100816285Y-144051714D01*
X100780571Y-143908857D01*
X100780571Y-143801714D01*
X100816285Y-143658857D01*
X100852000Y-143587429D01*
X100923428Y-143516000D01*
X101030571Y-143480286D01*
X101102000Y-143480286D01*
X101209143Y-143516000D01*
X101244857Y-143551714D01*
X101494857Y-143480286D02*
X101959143Y-143480286D01*
X101709143Y-143766000D01*
X101816285Y-143766000D01*
X101887714Y-143801714D01*
X101923428Y-143837429D01*
X101959143Y-143908857D01*
X101959143Y-144087429D01*
X101923428Y-144158857D01*
X101887714Y-144194571D01*
X101816285Y-144230286D01*
X101602000Y-144230286D01*
X101530571Y-144194571D01*
X101494857Y-144158857D01*
X102209143Y-143480286D02*
X102709143Y-143480286D01*
X102387714Y-144230286D01*
X94577357Y-140475857D02*
X94541643Y-140511571D01*
X94434500Y-140547286D01*
X94363071Y-140547286D01*
X94255928Y-140511571D01*
X94184500Y-140440143D01*
X94148785Y-140368714D01*
X94113071Y-140225857D01*
X94113071Y-140118714D01*
X94148785Y-139975857D01*
X94184500Y-139904429D01*
X94255928Y-139833000D01*
X94363071Y-139797286D01*
X94434500Y-139797286D01*
X94541643Y-139833000D01*
X94577357Y-139868714D01*
X94827357Y-139797286D02*
X95291643Y-139797286D01*
X95041643Y-140083000D01*
X95148785Y-140083000D01*
X95220214Y-140118714D01*
X95255928Y-140154429D01*
X95291643Y-140225857D01*
X95291643Y-140404429D01*
X95255928Y-140475857D01*
X95220214Y-140511571D01*
X95148785Y-140547286D01*
X94934500Y-140547286D01*
X94863071Y-140511571D01*
X94827357Y-140475857D01*
X95720214Y-140118714D02*
X95648786Y-140083000D01*
X95613071Y-140047286D01*
X95577357Y-139975857D01*
X95577357Y-139940143D01*
X95613071Y-139868714D01*
X95648786Y-139833000D01*
X95720214Y-139797286D01*
X95863071Y-139797286D01*
X95934500Y-139833000D01*
X95970214Y-139868714D01*
X96005929Y-139940143D01*
X96005929Y-139975857D01*
X95970214Y-140047286D01*
X95934500Y-140083000D01*
X95863071Y-140118714D01*
X95720214Y-140118714D01*
X95648786Y-140154429D01*
X95613071Y-140190143D01*
X95577357Y-140261571D01*
X95577357Y-140404429D01*
X95613071Y-140475857D01*
X95648786Y-140511571D01*
X95720214Y-140547286D01*
X95863071Y-140547286D01*
X95934500Y-140511571D01*
X95970214Y-140475857D01*
X96005929Y-140404429D01*
X96005929Y-140261571D01*
X95970214Y-140190143D01*
X95934500Y-140154429D01*
X95863071Y-140118714D01*
X103530857Y-143650857D02*
X103495143Y-143686571D01*
X103388000Y-143722286D01*
X103316571Y-143722286D01*
X103209428Y-143686571D01*
X103138000Y-143615143D01*
X103102285Y-143543714D01*
X103066571Y-143400857D01*
X103066571Y-143293714D01*
X103102285Y-143150857D01*
X103138000Y-143079429D01*
X103209428Y-143008000D01*
X103316571Y-142972286D01*
X103388000Y-142972286D01*
X103495143Y-143008000D01*
X103530857Y-143043714D01*
X103780857Y-142972286D02*
X104245143Y-142972286D01*
X103995143Y-143258000D01*
X104102285Y-143258000D01*
X104173714Y-143293714D01*
X104209428Y-143329429D01*
X104245143Y-143400857D01*
X104245143Y-143579429D01*
X104209428Y-143650857D01*
X104173714Y-143686571D01*
X104102285Y-143722286D01*
X103888000Y-143722286D01*
X103816571Y-143686571D01*
X103780857Y-143650857D01*
X104602286Y-143722286D02*
X104745143Y-143722286D01*
X104816571Y-143686571D01*
X104852286Y-143650857D01*
X104923714Y-143543714D01*
X104959429Y-143400857D01*
X104959429Y-143115143D01*
X104923714Y-143043714D01*
X104888000Y-143008000D01*
X104816571Y-142972286D01*
X104673714Y-142972286D01*
X104602286Y-143008000D01*
X104566571Y-143043714D01*
X104530857Y-143115143D01*
X104530857Y-143293714D01*
X104566571Y-143365143D01*
X104602286Y-143400857D01*
X104673714Y-143436571D01*
X104816571Y-143436571D01*
X104888000Y-143400857D01*
X104923714Y-143365143D01*
X104959429Y-143293714D01*
X98704857Y-140666357D02*
X98669143Y-140702071D01*
X98562000Y-140737786D01*
X98490571Y-140737786D01*
X98383428Y-140702071D01*
X98312000Y-140630643D01*
X98276285Y-140559214D01*
X98240571Y-140416357D01*
X98240571Y-140309214D01*
X98276285Y-140166357D01*
X98312000Y-140094929D01*
X98383428Y-140023500D01*
X98490571Y-139987786D01*
X98562000Y-139987786D01*
X98669143Y-140023500D01*
X98704857Y-140059214D01*
X99347714Y-140237786D02*
X99347714Y-140737786D01*
X99169143Y-139952071D02*
X98990571Y-140487786D01*
X99454857Y-140487786D01*
X99883429Y-139987786D02*
X99954857Y-139987786D01*
X100026286Y-140023500D01*
X100062000Y-140059214D01*
X100097714Y-140130643D01*
X100133429Y-140273500D01*
X100133429Y-140452071D01*
X100097714Y-140594929D01*
X100062000Y-140666357D01*
X100026286Y-140702071D01*
X99954857Y-140737786D01*
X99883429Y-140737786D01*
X99812000Y-140702071D01*
X99776286Y-140666357D01*
X99740571Y-140594929D01*
X99704857Y-140452071D01*
X99704857Y-140273500D01*
X99740571Y-140130643D01*
X99776286Y-140059214D01*
X99812000Y-140023500D01*
X99883429Y-139987786D01*
X114889428Y-109813286D02*
X114889428Y-109063286D01*
X115068000Y-109063286D01*
X115175143Y-109099000D01*
X115246571Y-109170429D01*
X115282286Y-109241857D01*
X115318000Y-109384714D01*
X115318000Y-109491857D01*
X115282286Y-109634714D01*
X115246571Y-109706143D01*
X115175143Y-109777571D01*
X115068000Y-109813286D01*
X114889428Y-109813286D01*
X116032286Y-109813286D02*
X115603714Y-109813286D01*
X115818000Y-109813286D02*
X115818000Y-109063286D01*
X115746571Y-109170429D01*
X115675143Y-109241857D01*
X115603714Y-109277571D01*
X114829786Y-115361572D02*
X114079786Y-115361572D01*
X114079786Y-115183000D01*
X114115500Y-115075857D01*
X114186929Y-115004429D01*
X114258357Y-114968714D01*
X114401214Y-114933000D01*
X114508357Y-114933000D01*
X114651214Y-114968714D01*
X114722643Y-115004429D01*
X114794071Y-115075857D01*
X114829786Y-115183000D01*
X114829786Y-115361572D01*
X114151214Y-114647286D02*
X114115500Y-114611572D01*
X114079786Y-114540143D01*
X114079786Y-114361572D01*
X114115500Y-114290143D01*
X114151214Y-114254429D01*
X114222643Y-114218714D01*
X114294071Y-114218714D01*
X114401214Y-114254429D01*
X114829786Y-114683000D01*
X114829786Y-114218714D01*
X112285928Y-119211286D02*
X112285928Y-118461286D01*
X112464500Y-118461286D01*
X112571643Y-118497000D01*
X112643071Y-118568429D01*
X112678786Y-118639857D01*
X112714500Y-118782714D01*
X112714500Y-118889857D01*
X112678786Y-119032714D01*
X112643071Y-119104143D01*
X112571643Y-119175571D01*
X112464500Y-119211286D01*
X112285928Y-119211286D01*
X113357357Y-118711286D02*
X113357357Y-119211286D01*
X113178786Y-118425571D02*
X113000214Y-118961286D01*
X113464500Y-118961286D01*
X107205928Y-150453286D02*
X107205928Y-149703286D01*
X107384500Y-149703286D01*
X107491643Y-149739000D01*
X107563071Y-149810429D01*
X107598786Y-149881857D01*
X107634500Y-150024714D01*
X107634500Y-150131857D01*
X107598786Y-150274714D01*
X107563071Y-150346143D01*
X107491643Y-150417571D01*
X107384500Y-150453286D01*
X107205928Y-150453286D01*
X108313071Y-149703286D02*
X107955928Y-149703286D01*
X107920214Y-150060429D01*
X107955928Y-150024714D01*
X108027357Y-149989000D01*
X108205928Y-149989000D01*
X108277357Y-150024714D01*
X108313071Y-150060429D01*
X108348786Y-150131857D01*
X108348786Y-150310429D01*
X108313071Y-150381857D01*
X108277357Y-150417571D01*
X108205928Y-150453286D01*
X108027357Y-150453286D01*
X107955928Y-150417571D01*
X107920214Y-150381857D01*
X107205928Y-155533286D02*
X107205928Y-154783286D01*
X107384500Y-154783286D01*
X107491643Y-154819000D01*
X107563071Y-154890429D01*
X107598786Y-154961857D01*
X107634500Y-155104714D01*
X107634500Y-155211857D01*
X107598786Y-155354714D01*
X107563071Y-155426143D01*
X107491643Y-155497571D01*
X107384500Y-155533286D01*
X107205928Y-155533286D01*
X108277357Y-154783286D02*
X108134500Y-154783286D01*
X108063071Y-154819000D01*
X108027357Y-154854714D01*
X107955928Y-154961857D01*
X107920214Y-155104714D01*
X107920214Y-155390429D01*
X107955928Y-155461857D01*
X107991643Y-155497571D01*
X108063071Y-155533286D01*
X108205928Y-155533286D01*
X108277357Y-155497571D01*
X108313071Y-155461857D01*
X108348786Y-155390429D01*
X108348786Y-155211857D01*
X108313071Y-155140429D01*
X108277357Y-155104714D01*
X108205928Y-155069000D01*
X108063071Y-155069000D01*
X107991643Y-155104714D01*
X107955928Y-155140429D01*
X107920214Y-155211857D01*
X123765500Y-125827286D02*
X123765500Y-126363000D01*
X123729786Y-126470143D01*
X123658357Y-126541571D01*
X123551214Y-126577286D01*
X123479786Y-126577286D01*
X124051215Y-125827286D02*
X124515501Y-125827286D01*
X124265501Y-126113000D01*
X124372643Y-126113000D01*
X124444072Y-126148714D01*
X124479786Y-126184429D01*
X124515501Y-126255857D01*
X124515501Y-126434429D01*
X124479786Y-126505857D01*
X124444072Y-126541571D01*
X124372643Y-126577286D01*
X124158358Y-126577286D01*
X124086929Y-126541571D01*
X124051215Y-126505857D01*
X92396500Y-116238786D02*
X92396500Y-116774500D01*
X92360786Y-116881643D01*
X92289357Y-116953071D01*
X92182214Y-116988786D01*
X92110786Y-116988786D01*
X93075072Y-116488786D02*
X93075072Y-116988786D01*
X92896501Y-116203071D02*
X92717929Y-116738786D01*
X93182215Y-116738786D01*
X98198857Y-150211286D02*
X98198857Y-150747000D01*
X98163143Y-150854143D01*
X98091714Y-150925571D01*
X97984571Y-150961286D01*
X97913143Y-150961286D01*
X98948858Y-150961286D02*
X98520286Y-150961286D01*
X98734572Y-150961286D02*
X98734572Y-150211286D01*
X98663143Y-150318429D01*
X98591715Y-150389857D01*
X98520286Y-150425571D01*
X99234572Y-150282714D02*
X99270286Y-150247000D01*
X99341715Y-150211286D01*
X99520286Y-150211286D01*
X99591715Y-150247000D01*
X99627429Y-150282714D01*
X99663144Y-150354143D01*
X99663144Y-150425571D01*
X99627429Y-150532714D01*
X99198858Y-150961286D01*
X99663144Y-150961286D01*
X112714500Y-110638786D02*
X112357357Y-110638786D01*
X112357357Y-109888786D01*
X113357358Y-110638786D02*
X112928786Y-110638786D01*
X113143072Y-110638786D02*
X113143072Y-109888786D01*
X113071643Y-109995929D01*
X113000215Y-110067357D01*
X112928786Y-110103071D01*
X157971686Y-118235000D02*
X157971686Y-118592143D01*
X157221686Y-118592143D01*
X157293114Y-118020714D02*
X157257400Y-117985000D01*
X157221686Y-117913571D01*
X157221686Y-117735000D01*
X157257400Y-117663571D01*
X157293114Y-117627857D01*
X157364543Y-117592142D01*
X157435971Y-117592142D01*
X157543114Y-117627857D01*
X157971686Y-118056428D01*
X157971686Y-117592142D01*
X153145686Y-118336600D02*
X153145686Y-118693743D01*
X152395686Y-118693743D01*
X152395686Y-118158028D02*
X152395686Y-117693742D01*
X152681400Y-117943742D01*
X152681400Y-117836600D01*
X152717114Y-117765171D01*
X152752829Y-117729457D01*
X152824257Y-117693742D01*
X153002829Y-117693742D01*
X153074257Y-117729457D01*
X153109971Y-117765171D01*
X153145686Y-117836600D01*
X153145686Y-118050885D01*
X153109971Y-118122314D01*
X153074257Y-118158028D01*
X133625786Y-156081000D02*
X133625786Y-156438143D01*
X132875786Y-156438143D01*
X133125786Y-155509571D02*
X133625786Y-155509571D01*
X132840071Y-155688142D02*
X133375786Y-155866714D01*
X133375786Y-155402428D01*
X134959286Y-156081000D02*
X134959286Y-156438143D01*
X134209286Y-156438143D01*
X134209286Y-155473857D02*
X134209286Y-155831000D01*
X134566429Y-155866714D01*
X134530714Y-155831000D01*
X134495000Y-155759571D01*
X134495000Y-155581000D01*
X134530714Y-155509571D01*
X134566429Y-155473857D01*
X134637857Y-155438142D01*
X134816429Y-155438142D01*
X134887857Y-155473857D01*
X134923571Y-155509571D01*
X134959286Y-155581000D01*
X134959286Y-155759571D01*
X134923571Y-155831000D01*
X134887857Y-155866714D01*
X101274571Y-150524714D02*
X101203143Y-150489000D01*
X101131714Y-150417571D01*
X101024571Y-150310429D01*
X100953143Y-150274714D01*
X100881714Y-150274714D01*
X100917429Y-150453286D02*
X100846000Y-150417571D01*
X100774571Y-150346143D01*
X100738857Y-150203286D01*
X100738857Y-149953286D01*
X100774571Y-149810429D01*
X100846000Y-149739000D01*
X100917429Y-149703286D01*
X101060286Y-149703286D01*
X101131714Y-149739000D01*
X101203143Y-149810429D01*
X101238857Y-149953286D01*
X101238857Y-150203286D01*
X101203143Y-150346143D01*
X101131714Y-150417571D01*
X101060286Y-150453286D01*
X100917429Y-150453286D01*
X101953143Y-150453286D02*
X101524571Y-150453286D01*
X101738857Y-150453286D02*
X101738857Y-149703286D01*
X101667428Y-149810429D01*
X101596000Y-149881857D01*
X101524571Y-149917571D01*
X101274571Y-155604714D02*
X101203143Y-155569000D01*
X101131714Y-155497571D01*
X101024571Y-155390429D01*
X100953143Y-155354714D01*
X100881714Y-155354714D01*
X100917429Y-155533286D02*
X100846000Y-155497571D01*
X100774571Y-155426143D01*
X100738857Y-155283286D01*
X100738857Y-155033286D01*
X100774571Y-154890429D01*
X100846000Y-154819000D01*
X100917429Y-154783286D01*
X101060286Y-154783286D01*
X101131714Y-154819000D01*
X101203143Y-154890429D01*
X101238857Y-155033286D01*
X101238857Y-155283286D01*
X101203143Y-155426143D01*
X101131714Y-155497571D01*
X101060286Y-155533286D01*
X100917429Y-155533286D01*
X101524571Y-154854714D02*
X101560285Y-154819000D01*
X101631714Y-154783286D01*
X101810285Y-154783286D01*
X101881714Y-154819000D01*
X101917428Y-154854714D01*
X101953143Y-154926143D01*
X101953143Y-154997571D01*
X101917428Y-155104714D01*
X101488857Y-155533286D01*
X101953143Y-155533286D01*
X113095500Y-113940786D02*
X112845500Y-113583643D01*
X112666928Y-113940786D02*
X112666928Y-113190786D01*
X112952643Y-113190786D01*
X113024071Y-113226500D01*
X113059786Y-113262214D01*
X113095500Y-113333643D01*
X113095500Y-113440786D01*
X113059786Y-113512214D01*
X113024071Y-113547929D01*
X112952643Y-113583643D01*
X112666928Y-113583643D01*
X113809786Y-113940786D02*
X113381214Y-113940786D01*
X113595500Y-113940786D02*
X113595500Y-113190786D01*
X113524071Y-113297929D01*
X113452643Y-113369357D01*
X113381214Y-113405071D01*
X108714000Y-112226286D02*
X108464000Y-111869143D01*
X108285428Y-112226286D02*
X108285428Y-111476286D01*
X108571143Y-111476286D01*
X108642571Y-111512000D01*
X108678286Y-111547714D01*
X108714000Y-111619143D01*
X108714000Y-111726286D01*
X108678286Y-111797714D01*
X108642571Y-111833429D01*
X108571143Y-111869143D01*
X108285428Y-111869143D01*
X108999714Y-111547714D02*
X109035428Y-111512000D01*
X109106857Y-111476286D01*
X109285428Y-111476286D01*
X109356857Y-111512000D01*
X109392571Y-111547714D01*
X109428286Y-111619143D01*
X109428286Y-111690571D01*
X109392571Y-111797714D01*
X108964000Y-112226286D01*
X109428286Y-112226286D01*
X121858500Y-150059286D02*
X121608500Y-149702143D01*
X121429928Y-150059286D02*
X121429928Y-149309286D01*
X121715643Y-149309286D01*
X121787071Y-149345000D01*
X121822786Y-149380714D01*
X121858500Y-149452143D01*
X121858500Y-149559286D01*
X121822786Y-149630714D01*
X121787071Y-149666429D01*
X121715643Y-149702143D01*
X121429928Y-149702143D01*
X122108500Y-149309286D02*
X122572786Y-149309286D01*
X122322786Y-149595000D01*
X122429928Y-149595000D01*
X122501357Y-149630714D01*
X122537071Y-149666429D01*
X122572786Y-149737857D01*
X122572786Y-149916429D01*
X122537071Y-149987857D01*
X122501357Y-150023571D01*
X122429928Y-150059286D01*
X122215643Y-150059286D01*
X122144214Y-150023571D01*
X122108500Y-149987857D01*
X120842500Y-155850786D02*
X120592500Y-155493643D01*
X120413928Y-155850786D02*
X120413928Y-155100786D01*
X120699643Y-155100786D01*
X120771071Y-155136500D01*
X120806786Y-155172214D01*
X120842500Y-155243643D01*
X120842500Y-155350786D01*
X120806786Y-155422214D01*
X120771071Y-155457929D01*
X120699643Y-155493643D01*
X120413928Y-155493643D01*
X121521071Y-155100786D02*
X121163928Y-155100786D01*
X121128214Y-155457929D01*
X121163928Y-155422214D01*
X121235357Y-155386500D01*
X121413928Y-155386500D01*
X121485357Y-155422214D01*
X121521071Y-155457929D01*
X121556786Y-155529357D01*
X121556786Y-155707929D01*
X121521071Y-155779357D01*
X121485357Y-155815071D01*
X121413928Y-155850786D01*
X121235357Y-155850786D01*
X121163928Y-155815071D01*
X121128214Y-155779357D01*
X148268886Y-115935000D02*
X147911743Y-116185000D01*
X148268886Y-116363572D02*
X147518886Y-116363572D01*
X147518886Y-116077857D01*
X147554600Y-116006429D01*
X147590314Y-115970714D01*
X147661743Y-115935000D01*
X147768886Y-115935000D01*
X147840314Y-115970714D01*
X147876029Y-116006429D01*
X147911743Y-116077857D01*
X147911743Y-116363572D01*
X147518886Y-115292143D02*
X147518886Y-115435000D01*
X147554600Y-115506429D01*
X147590314Y-115542143D01*
X147697457Y-115613572D01*
X147840314Y-115649286D01*
X148126029Y-115649286D01*
X148197457Y-115613572D01*
X148233171Y-115577857D01*
X148268886Y-115506429D01*
X148268886Y-115363572D01*
X148233171Y-115292143D01*
X148197457Y-115256429D01*
X148126029Y-115220714D01*
X147947457Y-115220714D01*
X147876029Y-115256429D01*
X147840314Y-115292143D01*
X147804600Y-115363572D01*
X147804600Y-115506429D01*
X147840314Y-115577857D01*
X147876029Y-115613572D01*
X147947457Y-115649286D01*
X128130000Y-157946286D02*
X127880000Y-157589143D01*
X127701428Y-157946286D02*
X127701428Y-157196286D01*
X127987143Y-157196286D01*
X128058571Y-157232000D01*
X128094286Y-157267714D01*
X128130000Y-157339143D01*
X128130000Y-157446286D01*
X128094286Y-157517714D01*
X128058571Y-157553429D01*
X127987143Y-157589143D01*
X127701428Y-157589143D01*
X128380000Y-157196286D02*
X128880000Y-157196286D01*
X128558571Y-157946286D01*
X148268886Y-113358200D02*
X147911743Y-113608200D01*
X148268886Y-113786772D02*
X147518886Y-113786772D01*
X147518886Y-113501057D01*
X147554600Y-113429629D01*
X147590314Y-113393914D01*
X147661743Y-113358200D01*
X147768886Y-113358200D01*
X147840314Y-113393914D01*
X147876029Y-113429629D01*
X147911743Y-113501057D01*
X147911743Y-113786772D01*
X147840314Y-112929629D02*
X147804600Y-113001057D01*
X147768886Y-113036772D01*
X147697457Y-113072486D01*
X147661743Y-113072486D01*
X147590314Y-113036772D01*
X147554600Y-113001057D01*
X147518886Y-112929629D01*
X147518886Y-112786772D01*
X147554600Y-112715343D01*
X147590314Y-112679629D01*
X147661743Y-112643914D01*
X147697457Y-112643914D01*
X147768886Y-112679629D01*
X147804600Y-112715343D01*
X147840314Y-112786772D01*
X147840314Y-112929629D01*
X147876029Y-113001057D01*
X147911743Y-113036772D01*
X147983171Y-113072486D01*
X148126029Y-113072486D01*
X148197457Y-113036772D01*
X148233171Y-113001057D01*
X148268886Y-112929629D01*
X148268886Y-112786772D01*
X148233171Y-112715343D01*
X148197457Y-112679629D01*
X148126029Y-112643914D01*
X147983171Y-112643914D01*
X147911743Y-112679629D01*
X147876029Y-112715343D01*
X147840314Y-112786772D01*
X122049000Y-129434786D02*
X121799000Y-129077643D01*
X121620428Y-129434786D02*
X121620428Y-128684786D01*
X121906143Y-128684786D01*
X121977571Y-128720500D01*
X122013286Y-128756214D01*
X122049000Y-128827643D01*
X122049000Y-128934786D01*
X122013286Y-129006214D01*
X121977571Y-129041929D01*
X121906143Y-129077643D01*
X121620428Y-129077643D01*
X122406143Y-129434786D02*
X122549000Y-129434786D01*
X122620428Y-129399071D01*
X122656143Y-129363357D01*
X122727571Y-129256214D01*
X122763286Y-129113357D01*
X122763286Y-128827643D01*
X122727571Y-128756214D01*
X122691857Y-128720500D01*
X122620428Y-128684786D01*
X122477571Y-128684786D01*
X122406143Y-128720500D01*
X122370428Y-128756214D01*
X122334714Y-128827643D01*
X122334714Y-129006214D01*
X122370428Y-129077643D01*
X122406143Y-129113357D01*
X122477571Y-129149071D01*
X122620428Y-129149071D01*
X122691857Y-129113357D01*
X122727571Y-129077643D01*
X122763286Y-129006214D01*
X121755357Y-130387286D02*
X121505357Y-130030143D01*
X121326785Y-130387286D02*
X121326785Y-129637286D01*
X121612500Y-129637286D01*
X121683928Y-129673000D01*
X121719643Y-129708714D01*
X121755357Y-129780143D01*
X121755357Y-129887286D01*
X121719643Y-129958714D01*
X121683928Y-129994429D01*
X121612500Y-130030143D01*
X121326785Y-130030143D01*
X122469643Y-130387286D02*
X122041071Y-130387286D01*
X122255357Y-130387286D02*
X122255357Y-129637286D01*
X122183928Y-129744429D01*
X122112500Y-129815857D01*
X122041071Y-129851571D01*
X122933929Y-129637286D02*
X123005357Y-129637286D01*
X123076786Y-129673000D01*
X123112500Y-129708714D01*
X123148214Y-129780143D01*
X123183929Y-129923000D01*
X123183929Y-130101571D01*
X123148214Y-130244429D01*
X123112500Y-130315857D01*
X123076786Y-130351571D01*
X123005357Y-130387286D01*
X122933929Y-130387286D01*
X122862500Y-130351571D01*
X122826786Y-130315857D01*
X122791071Y-130244429D01*
X122755357Y-130101571D01*
X122755357Y-129923000D01*
X122791071Y-129780143D01*
X122826786Y-129708714D01*
X122862500Y-129673000D01*
X122933929Y-129637286D01*
X132292286Y-156755643D02*
X131935143Y-157005643D01*
X132292286Y-157184215D02*
X131542286Y-157184215D01*
X131542286Y-156898500D01*
X131578000Y-156827072D01*
X131613714Y-156791357D01*
X131685143Y-156755643D01*
X131792286Y-156755643D01*
X131863714Y-156791357D01*
X131899429Y-156827072D01*
X131935143Y-156898500D01*
X131935143Y-157184215D01*
X132292286Y-156041357D02*
X132292286Y-156469929D01*
X132292286Y-156255643D02*
X131542286Y-156255643D01*
X131649429Y-156327072D01*
X131720857Y-156398500D01*
X131756571Y-156469929D01*
X132292286Y-155327071D02*
X132292286Y-155755643D01*
X132292286Y-155541357D02*
X131542286Y-155541357D01*
X131649429Y-155612786D01*
X131720857Y-155684214D01*
X131756571Y-155755643D01*
X131022286Y-156819143D02*
X130665143Y-157069143D01*
X131022286Y-157247715D02*
X130272286Y-157247715D01*
X130272286Y-156962000D01*
X130308000Y-156890572D01*
X130343714Y-156854857D01*
X130415143Y-156819143D01*
X130522286Y-156819143D01*
X130593714Y-156854857D01*
X130629429Y-156890572D01*
X130665143Y-156962000D01*
X130665143Y-157247715D01*
X131022286Y-156104857D02*
X131022286Y-156533429D01*
X131022286Y-156319143D02*
X130272286Y-156319143D01*
X130379429Y-156390572D01*
X130450857Y-156462000D01*
X130486571Y-156533429D01*
X130343714Y-155819143D02*
X130308000Y-155783429D01*
X130272286Y-155712000D01*
X130272286Y-155533429D01*
X130308000Y-155462000D01*
X130343714Y-155426286D01*
X130415143Y-155390571D01*
X130486571Y-155390571D01*
X130593714Y-155426286D01*
X131022286Y-155854857D01*
X131022286Y-155390571D01*
X156743857Y-133689286D02*
X156493857Y-133332143D01*
X156315285Y-133689286D02*
X156315285Y-132939286D01*
X156601000Y-132939286D01*
X156672428Y-132975000D01*
X156708143Y-133010714D01*
X156743857Y-133082143D01*
X156743857Y-133189286D01*
X156708143Y-133260714D01*
X156672428Y-133296429D01*
X156601000Y-133332143D01*
X156315285Y-133332143D01*
X157458143Y-133689286D02*
X157029571Y-133689286D01*
X157243857Y-133689286D02*
X157243857Y-132939286D01*
X157172428Y-133046429D01*
X157101000Y-133117857D01*
X157029571Y-133153571D01*
X157708143Y-132939286D02*
X158172429Y-132939286D01*
X157922429Y-133225000D01*
X158029571Y-133225000D01*
X158101000Y-133260714D01*
X158136714Y-133296429D01*
X158172429Y-133367857D01*
X158172429Y-133546429D01*
X158136714Y-133617857D01*
X158101000Y-133653571D01*
X158029571Y-133689286D01*
X157815286Y-133689286D01*
X157743857Y-133653571D01*
X157708143Y-133617857D01*
X156489857Y-134832286D02*
X156239857Y-134475143D01*
X156061285Y-134832286D02*
X156061285Y-134082286D01*
X156347000Y-134082286D01*
X156418428Y-134118000D01*
X156454143Y-134153714D01*
X156489857Y-134225143D01*
X156489857Y-134332286D01*
X156454143Y-134403714D01*
X156418428Y-134439429D01*
X156347000Y-134475143D01*
X156061285Y-134475143D01*
X157204143Y-134832286D02*
X156775571Y-134832286D01*
X156989857Y-134832286D02*
X156989857Y-134082286D01*
X156918428Y-134189429D01*
X156847000Y-134260857D01*
X156775571Y-134296571D01*
X157847000Y-134332286D02*
X157847000Y-134832286D01*
X157668429Y-134046571D02*
X157489857Y-134582286D01*
X157954143Y-134582286D01*
X156743857Y-132609786D02*
X156493857Y-132252643D01*
X156315285Y-132609786D02*
X156315285Y-131859786D01*
X156601000Y-131859786D01*
X156672428Y-131895500D01*
X156708143Y-131931214D01*
X156743857Y-132002643D01*
X156743857Y-132109786D01*
X156708143Y-132181214D01*
X156672428Y-132216929D01*
X156601000Y-132252643D01*
X156315285Y-132252643D01*
X157458143Y-132609786D02*
X157029571Y-132609786D01*
X157243857Y-132609786D02*
X157243857Y-131859786D01*
X157172428Y-131966929D01*
X157101000Y-132038357D01*
X157029571Y-132074071D01*
X158136714Y-131859786D02*
X157779571Y-131859786D01*
X157743857Y-132216929D01*
X157779571Y-132181214D01*
X157851000Y-132145500D01*
X158029571Y-132145500D01*
X158101000Y-132181214D01*
X158136714Y-132216929D01*
X158172429Y-132288357D01*
X158172429Y-132466929D01*
X158136714Y-132538357D01*
X158101000Y-132574071D01*
X158029571Y-132609786D01*
X157851000Y-132609786D01*
X157779571Y-132574071D01*
X157743857Y-132538357D01*
X156743857Y-128990286D02*
X156493857Y-128633143D01*
X156315285Y-128990286D02*
X156315285Y-128240286D01*
X156601000Y-128240286D01*
X156672428Y-128276000D01*
X156708143Y-128311714D01*
X156743857Y-128383143D01*
X156743857Y-128490286D01*
X156708143Y-128561714D01*
X156672428Y-128597429D01*
X156601000Y-128633143D01*
X156315285Y-128633143D01*
X157458143Y-128990286D02*
X157029571Y-128990286D01*
X157243857Y-128990286D02*
X157243857Y-128240286D01*
X157172428Y-128347429D01*
X157101000Y-128418857D01*
X157029571Y-128454571D01*
X158101000Y-128240286D02*
X157958143Y-128240286D01*
X157886714Y-128276000D01*
X157851000Y-128311714D01*
X157779571Y-128418857D01*
X157743857Y-128561714D01*
X157743857Y-128847429D01*
X157779571Y-128918857D01*
X157815286Y-128954571D01*
X157886714Y-128990286D01*
X158029571Y-128990286D01*
X158101000Y-128954571D01*
X158136714Y-128918857D01*
X158172429Y-128847429D01*
X158172429Y-128668857D01*
X158136714Y-128597429D01*
X158101000Y-128561714D01*
X158029571Y-128526000D01*
X157886714Y-128526000D01*
X157815286Y-128561714D01*
X157779571Y-128597429D01*
X157743857Y-128668857D01*
X156743857Y-127656786D02*
X156493857Y-127299643D01*
X156315285Y-127656786D02*
X156315285Y-126906786D01*
X156601000Y-126906786D01*
X156672428Y-126942500D01*
X156708143Y-126978214D01*
X156743857Y-127049643D01*
X156743857Y-127156786D01*
X156708143Y-127228214D01*
X156672428Y-127263929D01*
X156601000Y-127299643D01*
X156315285Y-127299643D01*
X157458143Y-127656786D02*
X157029571Y-127656786D01*
X157243857Y-127656786D02*
X157243857Y-126906786D01*
X157172428Y-127013929D01*
X157101000Y-127085357D01*
X157029571Y-127121071D01*
X157708143Y-126906786D02*
X158208143Y-126906786D01*
X157886714Y-127656786D01*
X156743857Y-126450286D02*
X156493857Y-126093143D01*
X156315285Y-126450286D02*
X156315285Y-125700286D01*
X156601000Y-125700286D01*
X156672428Y-125736000D01*
X156708143Y-125771714D01*
X156743857Y-125843143D01*
X156743857Y-125950286D01*
X156708143Y-126021714D01*
X156672428Y-126057429D01*
X156601000Y-126093143D01*
X156315285Y-126093143D01*
X157458143Y-126450286D02*
X157029571Y-126450286D01*
X157243857Y-126450286D02*
X157243857Y-125700286D01*
X157172428Y-125807429D01*
X157101000Y-125878857D01*
X157029571Y-125914571D01*
X157886714Y-126021714D02*
X157815286Y-125986000D01*
X157779571Y-125950286D01*
X157743857Y-125878857D01*
X157743857Y-125843143D01*
X157779571Y-125771714D01*
X157815286Y-125736000D01*
X157886714Y-125700286D01*
X158029571Y-125700286D01*
X158101000Y-125736000D01*
X158136714Y-125771714D01*
X158172429Y-125843143D01*
X158172429Y-125878857D01*
X158136714Y-125950286D01*
X158101000Y-125986000D01*
X158029571Y-126021714D01*
X157886714Y-126021714D01*
X157815286Y-126057429D01*
X157779571Y-126093143D01*
X157743857Y-126164571D01*
X157743857Y-126307429D01*
X157779571Y-126378857D01*
X157815286Y-126414571D01*
X157886714Y-126450286D01*
X158029571Y-126450286D01*
X158101000Y-126414571D01*
X158136714Y-126378857D01*
X158172429Y-126307429D01*
X158172429Y-126164571D01*
X158136714Y-126093143D01*
X158101000Y-126057429D01*
X158029571Y-126021714D01*
X156489857Y-136165786D02*
X156239857Y-135808643D01*
X156061285Y-136165786D02*
X156061285Y-135415786D01*
X156347000Y-135415786D01*
X156418428Y-135451500D01*
X156454143Y-135487214D01*
X156489857Y-135558643D01*
X156489857Y-135665786D01*
X156454143Y-135737214D01*
X156418428Y-135772929D01*
X156347000Y-135808643D01*
X156061285Y-135808643D01*
X157204143Y-136165786D02*
X156775571Y-136165786D01*
X156989857Y-136165786D02*
X156989857Y-135415786D01*
X156918428Y-135522929D01*
X156847000Y-135594357D01*
X156775571Y-135630071D01*
X157561286Y-136165786D02*
X157704143Y-136165786D01*
X157775571Y-136130071D01*
X157811286Y-136094357D01*
X157882714Y-135987214D01*
X157918429Y-135844357D01*
X157918429Y-135558643D01*
X157882714Y-135487214D01*
X157847000Y-135451500D01*
X157775571Y-135415786D01*
X157632714Y-135415786D01*
X157561286Y-135451500D01*
X157525571Y-135487214D01*
X157489857Y-135558643D01*
X157489857Y-135737214D01*
X157525571Y-135808643D01*
X157561286Y-135844357D01*
X157632714Y-135880071D01*
X157775571Y-135880071D01*
X157847000Y-135844357D01*
X157882714Y-135808643D01*
X157918429Y-135737214D01*
X156743857Y-125307286D02*
X156493857Y-124950143D01*
X156315285Y-125307286D02*
X156315285Y-124557286D01*
X156601000Y-124557286D01*
X156672428Y-124593000D01*
X156708143Y-124628714D01*
X156743857Y-124700143D01*
X156743857Y-124807286D01*
X156708143Y-124878714D01*
X156672428Y-124914429D01*
X156601000Y-124950143D01*
X156315285Y-124950143D01*
X157029571Y-124628714D02*
X157065285Y-124593000D01*
X157136714Y-124557286D01*
X157315285Y-124557286D01*
X157386714Y-124593000D01*
X157422428Y-124628714D01*
X157458143Y-124700143D01*
X157458143Y-124771571D01*
X157422428Y-124878714D01*
X156993857Y-125307286D01*
X157458143Y-125307286D01*
X157922429Y-124557286D02*
X157993857Y-124557286D01*
X158065286Y-124593000D01*
X158101000Y-124628714D01*
X158136714Y-124700143D01*
X158172429Y-124843000D01*
X158172429Y-125021571D01*
X158136714Y-125164429D01*
X158101000Y-125235857D01*
X158065286Y-125271571D01*
X157993857Y-125307286D01*
X157922429Y-125307286D01*
X157851000Y-125271571D01*
X157815286Y-125235857D01*
X157779571Y-125164429D01*
X157743857Y-125021571D01*
X157743857Y-124843000D01*
X157779571Y-124700143D01*
X157815286Y-124628714D01*
X157851000Y-124593000D01*
X157922429Y-124557286D01*
X156489857Y-138769286D02*
X156239857Y-138412143D01*
X156061285Y-138769286D02*
X156061285Y-138019286D01*
X156347000Y-138019286D01*
X156418428Y-138055000D01*
X156454143Y-138090714D01*
X156489857Y-138162143D01*
X156489857Y-138269286D01*
X156454143Y-138340714D01*
X156418428Y-138376429D01*
X156347000Y-138412143D01*
X156061285Y-138412143D01*
X156775571Y-138090714D02*
X156811285Y-138055000D01*
X156882714Y-138019286D01*
X157061285Y-138019286D01*
X157132714Y-138055000D01*
X157168428Y-138090714D01*
X157204143Y-138162143D01*
X157204143Y-138233571D01*
X157168428Y-138340714D01*
X156739857Y-138769286D01*
X157204143Y-138769286D01*
X157918429Y-138769286D02*
X157489857Y-138769286D01*
X157704143Y-138769286D02*
X157704143Y-138019286D01*
X157632714Y-138126429D01*
X157561286Y-138197857D01*
X157489857Y-138233571D01*
X156743857Y-121751286D02*
X156493857Y-121394143D01*
X156315285Y-121751286D02*
X156315285Y-121001286D01*
X156601000Y-121001286D01*
X156672428Y-121037000D01*
X156708143Y-121072714D01*
X156743857Y-121144143D01*
X156743857Y-121251286D01*
X156708143Y-121322714D01*
X156672428Y-121358429D01*
X156601000Y-121394143D01*
X156315285Y-121394143D01*
X157029571Y-121072714D02*
X157065285Y-121037000D01*
X157136714Y-121001286D01*
X157315285Y-121001286D01*
X157386714Y-121037000D01*
X157422428Y-121072714D01*
X157458143Y-121144143D01*
X157458143Y-121215571D01*
X157422428Y-121322714D01*
X156993857Y-121751286D01*
X157458143Y-121751286D01*
X157743857Y-121072714D02*
X157779571Y-121037000D01*
X157851000Y-121001286D01*
X158029571Y-121001286D01*
X158101000Y-121037000D01*
X158136714Y-121072714D01*
X158172429Y-121144143D01*
X158172429Y-121215571D01*
X158136714Y-121322714D01*
X157708143Y-121751286D01*
X158172429Y-121751286D01*
X156680357Y-130260286D02*
X156430357Y-129903143D01*
X156251785Y-130260286D02*
X156251785Y-129510286D01*
X156537500Y-129510286D01*
X156608928Y-129546000D01*
X156644643Y-129581714D01*
X156680357Y-129653143D01*
X156680357Y-129760286D01*
X156644643Y-129831714D01*
X156608928Y-129867429D01*
X156537500Y-129903143D01*
X156251785Y-129903143D01*
X156966071Y-129581714D02*
X157001785Y-129546000D01*
X157073214Y-129510286D01*
X157251785Y-129510286D01*
X157323214Y-129546000D01*
X157358928Y-129581714D01*
X157394643Y-129653143D01*
X157394643Y-129724571D01*
X157358928Y-129831714D01*
X156930357Y-130260286D01*
X157394643Y-130260286D01*
X157644643Y-129510286D02*
X158108929Y-129510286D01*
X157858929Y-129796000D01*
X157966071Y-129796000D01*
X158037500Y-129831714D01*
X158073214Y-129867429D01*
X158108929Y-129938857D01*
X158108929Y-130117429D01*
X158073214Y-130188857D01*
X158037500Y-130224571D01*
X157966071Y-130260286D01*
X157751786Y-130260286D01*
X157680357Y-130224571D01*
X157644643Y-130188857D01*
X156743857Y-124164286D02*
X156493857Y-123807143D01*
X156315285Y-124164286D02*
X156315285Y-123414286D01*
X156601000Y-123414286D01*
X156672428Y-123450000D01*
X156708143Y-123485714D01*
X156743857Y-123557143D01*
X156743857Y-123664286D01*
X156708143Y-123735714D01*
X156672428Y-123771429D01*
X156601000Y-123807143D01*
X156315285Y-123807143D01*
X157029571Y-123485714D02*
X157065285Y-123450000D01*
X157136714Y-123414286D01*
X157315285Y-123414286D01*
X157386714Y-123450000D01*
X157422428Y-123485714D01*
X157458143Y-123557143D01*
X157458143Y-123628571D01*
X157422428Y-123735714D01*
X156993857Y-124164286D01*
X157458143Y-124164286D01*
X158101000Y-123664286D02*
X158101000Y-124164286D01*
X157922429Y-123378571D02*
X157743857Y-123914286D01*
X158208143Y-123914286D01*
X156743857Y-131403286D02*
X156493857Y-131046143D01*
X156315285Y-131403286D02*
X156315285Y-130653286D01*
X156601000Y-130653286D01*
X156672428Y-130689000D01*
X156708143Y-130724714D01*
X156743857Y-130796143D01*
X156743857Y-130903286D01*
X156708143Y-130974714D01*
X156672428Y-131010429D01*
X156601000Y-131046143D01*
X156315285Y-131046143D01*
X157029571Y-130724714D02*
X157065285Y-130689000D01*
X157136714Y-130653286D01*
X157315285Y-130653286D01*
X157386714Y-130689000D01*
X157422428Y-130724714D01*
X157458143Y-130796143D01*
X157458143Y-130867571D01*
X157422428Y-130974714D01*
X156993857Y-131403286D01*
X157458143Y-131403286D01*
X158136714Y-130653286D02*
X157779571Y-130653286D01*
X157743857Y-131010429D01*
X157779571Y-130974714D01*
X157851000Y-130939000D01*
X158029571Y-130939000D01*
X158101000Y-130974714D01*
X158136714Y-131010429D01*
X158172429Y-131081857D01*
X158172429Y-131260429D01*
X158136714Y-131331857D01*
X158101000Y-131367571D01*
X158029571Y-131403286D01*
X157851000Y-131403286D01*
X157779571Y-131367571D01*
X157743857Y-131331857D01*
X156743857Y-123021286D02*
X156493857Y-122664143D01*
X156315285Y-123021286D02*
X156315285Y-122271286D01*
X156601000Y-122271286D01*
X156672428Y-122307000D01*
X156708143Y-122342714D01*
X156743857Y-122414143D01*
X156743857Y-122521286D01*
X156708143Y-122592714D01*
X156672428Y-122628429D01*
X156601000Y-122664143D01*
X156315285Y-122664143D01*
X157029571Y-122342714D02*
X157065285Y-122307000D01*
X157136714Y-122271286D01*
X157315285Y-122271286D01*
X157386714Y-122307000D01*
X157422428Y-122342714D01*
X157458143Y-122414143D01*
X157458143Y-122485571D01*
X157422428Y-122592714D01*
X156993857Y-123021286D01*
X157458143Y-123021286D01*
X158101000Y-122271286D02*
X157958143Y-122271286D01*
X157886714Y-122307000D01*
X157851000Y-122342714D01*
X157779571Y-122449857D01*
X157743857Y-122592714D01*
X157743857Y-122878429D01*
X157779571Y-122949857D01*
X157815286Y-122985571D01*
X157886714Y-123021286D01*
X158029571Y-123021286D01*
X158101000Y-122985571D01*
X158136714Y-122949857D01*
X158172429Y-122878429D01*
X158172429Y-122699857D01*
X158136714Y-122628429D01*
X158101000Y-122592714D01*
X158029571Y-122557000D01*
X157886714Y-122557000D01*
X157815286Y-122592714D01*
X157779571Y-122628429D01*
X157743857Y-122699857D01*
X156235857Y-120608286D02*
X155985857Y-120251143D01*
X155807285Y-120608286D02*
X155807285Y-119858286D01*
X156093000Y-119858286D01*
X156164428Y-119894000D01*
X156200143Y-119929714D01*
X156235857Y-120001143D01*
X156235857Y-120108286D01*
X156200143Y-120179714D01*
X156164428Y-120215429D01*
X156093000Y-120251143D01*
X155807285Y-120251143D01*
X156521571Y-119929714D02*
X156557285Y-119894000D01*
X156628714Y-119858286D01*
X156807285Y-119858286D01*
X156878714Y-119894000D01*
X156914428Y-119929714D01*
X156950143Y-120001143D01*
X156950143Y-120072571D01*
X156914428Y-120179714D01*
X156485857Y-120608286D01*
X156950143Y-120608286D01*
X157200143Y-119858286D02*
X157700143Y-119858286D01*
X157378714Y-120608286D01*
X156489857Y-139912286D02*
X156239857Y-139555143D01*
X156061285Y-139912286D02*
X156061285Y-139162286D01*
X156347000Y-139162286D01*
X156418428Y-139198000D01*
X156454143Y-139233714D01*
X156489857Y-139305143D01*
X156489857Y-139412286D01*
X156454143Y-139483714D01*
X156418428Y-139519429D01*
X156347000Y-139555143D01*
X156061285Y-139555143D01*
X156775571Y-139233714D02*
X156811285Y-139198000D01*
X156882714Y-139162286D01*
X157061285Y-139162286D01*
X157132714Y-139198000D01*
X157168428Y-139233714D01*
X157204143Y-139305143D01*
X157204143Y-139376571D01*
X157168428Y-139483714D01*
X156739857Y-139912286D01*
X157204143Y-139912286D01*
X157632714Y-139483714D02*
X157561286Y-139448000D01*
X157525571Y-139412286D01*
X157489857Y-139340857D01*
X157489857Y-139305143D01*
X157525571Y-139233714D01*
X157561286Y-139198000D01*
X157632714Y-139162286D01*
X157775571Y-139162286D01*
X157847000Y-139198000D01*
X157882714Y-139233714D01*
X157918429Y-139305143D01*
X157918429Y-139340857D01*
X157882714Y-139412286D01*
X157847000Y-139448000D01*
X157775571Y-139483714D01*
X157632714Y-139483714D01*
X157561286Y-139519429D01*
X157525571Y-139555143D01*
X157489857Y-139626571D01*
X157489857Y-139769429D01*
X157525571Y-139840857D01*
X157561286Y-139876571D01*
X157632714Y-139912286D01*
X157775571Y-139912286D01*
X157847000Y-139876571D01*
X157882714Y-139840857D01*
X157918429Y-139769429D01*
X157918429Y-139626571D01*
X157882714Y-139555143D01*
X157847000Y-139519429D01*
X157775571Y-139483714D01*
X156489857Y-137308786D02*
X156239857Y-136951643D01*
X156061285Y-137308786D02*
X156061285Y-136558786D01*
X156347000Y-136558786D01*
X156418428Y-136594500D01*
X156454143Y-136630214D01*
X156489857Y-136701643D01*
X156489857Y-136808786D01*
X156454143Y-136880214D01*
X156418428Y-136915929D01*
X156347000Y-136951643D01*
X156061285Y-136951643D01*
X156775571Y-136630214D02*
X156811285Y-136594500D01*
X156882714Y-136558786D01*
X157061285Y-136558786D01*
X157132714Y-136594500D01*
X157168428Y-136630214D01*
X157204143Y-136701643D01*
X157204143Y-136773071D01*
X157168428Y-136880214D01*
X156739857Y-137308786D01*
X157204143Y-137308786D01*
X157561286Y-137308786D02*
X157704143Y-137308786D01*
X157775571Y-137273071D01*
X157811286Y-137237357D01*
X157882714Y-137130214D01*
X157918429Y-136987357D01*
X157918429Y-136701643D01*
X157882714Y-136630214D01*
X157847000Y-136594500D01*
X157775571Y-136558786D01*
X157632714Y-136558786D01*
X157561286Y-136594500D01*
X157525571Y-136630214D01*
X157489857Y-136701643D01*
X157489857Y-136880214D01*
X157525571Y-136951643D01*
X157561286Y-136987357D01*
X157632714Y-137023071D01*
X157775571Y-137023071D01*
X157847000Y-136987357D01*
X157882714Y-136951643D01*
X157918429Y-136880214D01*
X147922857Y-155342786D02*
X147672857Y-154985643D01*
X147494285Y-155342786D02*
X147494285Y-154592786D01*
X147780000Y-154592786D01*
X147851428Y-154628500D01*
X147887143Y-154664214D01*
X147922857Y-154735643D01*
X147922857Y-154842786D01*
X147887143Y-154914214D01*
X147851428Y-154949929D01*
X147780000Y-154985643D01*
X147494285Y-154985643D01*
X148172857Y-154592786D02*
X148637143Y-154592786D01*
X148387143Y-154878500D01*
X148494285Y-154878500D01*
X148565714Y-154914214D01*
X148601428Y-154949929D01*
X148637143Y-155021357D01*
X148637143Y-155199929D01*
X148601428Y-155271357D01*
X148565714Y-155307071D01*
X148494285Y-155342786D01*
X148280000Y-155342786D01*
X148208571Y-155307071D01*
X148172857Y-155271357D01*
X149101429Y-154592786D02*
X149172857Y-154592786D01*
X149244286Y-154628500D01*
X149280000Y-154664214D01*
X149315714Y-154735643D01*
X149351429Y-154878500D01*
X149351429Y-155057071D01*
X149315714Y-155199929D01*
X149280000Y-155271357D01*
X149244286Y-155307071D01*
X149172857Y-155342786D01*
X149101429Y-155342786D01*
X149030000Y-155307071D01*
X148994286Y-155271357D01*
X148958571Y-155199929D01*
X148922857Y-155057071D01*
X148922857Y-154878500D01*
X148958571Y-154735643D01*
X148994286Y-154664214D01*
X149030000Y-154628500D01*
X149101429Y-154592786D01*
X119528786Y-138848643D02*
X119171643Y-139098643D01*
X119528786Y-139277215D02*
X118778786Y-139277215D01*
X118778786Y-138991500D01*
X118814500Y-138920072D01*
X118850214Y-138884357D01*
X118921643Y-138848643D01*
X119028786Y-138848643D01*
X119100214Y-138884357D01*
X119135929Y-138920072D01*
X119171643Y-138991500D01*
X119171643Y-139277215D01*
X118778786Y-138598643D02*
X118778786Y-138134357D01*
X119064500Y-138384357D01*
X119064500Y-138277215D01*
X119100214Y-138205786D01*
X119135929Y-138170072D01*
X119207357Y-138134357D01*
X119385929Y-138134357D01*
X119457357Y-138170072D01*
X119493071Y-138205786D01*
X119528786Y-138277215D01*
X119528786Y-138491500D01*
X119493071Y-138562929D01*
X119457357Y-138598643D01*
X119528786Y-137420071D02*
X119528786Y-137848643D01*
X119528786Y-137634357D02*
X118778786Y-137634357D01*
X118885929Y-137705786D01*
X118957357Y-137777214D01*
X118993071Y-137848643D01*
X119850357Y-144992286D02*
X119600357Y-144635143D01*
X119421785Y-144992286D02*
X119421785Y-144242286D01*
X119707500Y-144242286D01*
X119778928Y-144278000D01*
X119814643Y-144313714D01*
X119850357Y-144385143D01*
X119850357Y-144492286D01*
X119814643Y-144563714D01*
X119778928Y-144599429D01*
X119707500Y-144635143D01*
X119421785Y-144635143D01*
X120100357Y-144242286D02*
X120564643Y-144242286D01*
X120314643Y-144528000D01*
X120421785Y-144528000D01*
X120493214Y-144563714D01*
X120528928Y-144599429D01*
X120564643Y-144670857D01*
X120564643Y-144849429D01*
X120528928Y-144920857D01*
X120493214Y-144956571D01*
X120421785Y-144992286D01*
X120207500Y-144992286D01*
X120136071Y-144956571D01*
X120100357Y-144920857D01*
X120850357Y-144313714D02*
X120886071Y-144278000D01*
X120957500Y-144242286D01*
X121136071Y-144242286D01*
X121207500Y-144278000D01*
X121243214Y-144313714D01*
X121278929Y-144385143D01*
X121278929Y-144456571D01*
X121243214Y-144563714D01*
X120814643Y-144992286D01*
X121278929Y-144992286D01*
X136038786Y-156755643D02*
X135681643Y-157005643D01*
X136038786Y-157184215D02*
X135288786Y-157184215D01*
X135288786Y-156898500D01*
X135324500Y-156827072D01*
X135360214Y-156791357D01*
X135431643Y-156755643D01*
X135538786Y-156755643D01*
X135610214Y-156791357D01*
X135645929Y-156827072D01*
X135681643Y-156898500D01*
X135681643Y-157184215D01*
X135288786Y-156505643D02*
X135288786Y-156041357D01*
X135574500Y-156291357D01*
X135574500Y-156184215D01*
X135610214Y-156112786D01*
X135645929Y-156077072D01*
X135717357Y-156041357D01*
X135895929Y-156041357D01*
X135967357Y-156077072D01*
X136003071Y-156112786D01*
X136038786Y-156184215D01*
X136038786Y-156398500D01*
X136003071Y-156469929D01*
X135967357Y-156505643D01*
X135288786Y-155791357D02*
X135288786Y-155327071D01*
X135574500Y-155577071D01*
X135574500Y-155469929D01*
X135610214Y-155398500D01*
X135645929Y-155362786D01*
X135717357Y-155327071D01*
X135895929Y-155327071D01*
X135967357Y-155362786D01*
X136003071Y-155398500D01*
X136038786Y-155469929D01*
X136038786Y-155684214D01*
X136003071Y-155755643D01*
X135967357Y-155791357D01*
X156489857Y-141055286D02*
X156239857Y-140698143D01*
X156061285Y-141055286D02*
X156061285Y-140305286D01*
X156347000Y-140305286D01*
X156418428Y-140341000D01*
X156454143Y-140376714D01*
X156489857Y-140448143D01*
X156489857Y-140555286D01*
X156454143Y-140626714D01*
X156418428Y-140662429D01*
X156347000Y-140698143D01*
X156061285Y-140698143D01*
X156739857Y-140305286D02*
X157204143Y-140305286D01*
X156954143Y-140591000D01*
X157061285Y-140591000D01*
X157132714Y-140626714D01*
X157168428Y-140662429D01*
X157204143Y-140733857D01*
X157204143Y-140912429D01*
X157168428Y-140983857D01*
X157132714Y-141019571D01*
X157061285Y-141055286D01*
X156847000Y-141055286D01*
X156775571Y-141019571D01*
X156739857Y-140983857D01*
X157847000Y-140555286D02*
X157847000Y-141055286D01*
X157668429Y-140269571D02*
X157489857Y-140805286D01*
X157954143Y-140805286D01*
X139573457Y-122818086D02*
X139323457Y-122460943D01*
X139144885Y-122818086D02*
X139144885Y-122068086D01*
X139430600Y-122068086D01*
X139502028Y-122103800D01*
X139537743Y-122139514D01*
X139573457Y-122210943D01*
X139573457Y-122318086D01*
X139537743Y-122389514D01*
X139502028Y-122425229D01*
X139430600Y-122460943D01*
X139144885Y-122460943D01*
X139823457Y-122068086D02*
X140287743Y-122068086D01*
X140037743Y-122353800D01*
X140144885Y-122353800D01*
X140216314Y-122389514D01*
X140252028Y-122425229D01*
X140287743Y-122496657D01*
X140287743Y-122675229D01*
X140252028Y-122746657D01*
X140216314Y-122782371D01*
X140144885Y-122818086D01*
X139930600Y-122818086D01*
X139859171Y-122782371D01*
X139823457Y-122746657D01*
X140966314Y-122068086D02*
X140609171Y-122068086D01*
X140573457Y-122425229D01*
X140609171Y-122389514D01*
X140680600Y-122353800D01*
X140859171Y-122353800D01*
X140930600Y-122389514D01*
X140966314Y-122425229D01*
X141002029Y-122496657D01*
X141002029Y-122675229D01*
X140966314Y-122746657D01*
X140930600Y-122782371D01*
X140859171Y-122818086D01*
X140680600Y-122818086D01*
X140609171Y-122782371D01*
X140573457Y-122746657D01*
X141503857Y-114944086D02*
X141253857Y-114586943D01*
X141075285Y-114944086D02*
X141075285Y-114194086D01*
X141361000Y-114194086D01*
X141432428Y-114229800D01*
X141468143Y-114265514D01*
X141503857Y-114336943D01*
X141503857Y-114444086D01*
X141468143Y-114515514D01*
X141432428Y-114551229D01*
X141361000Y-114586943D01*
X141075285Y-114586943D01*
X141753857Y-114194086D02*
X142218143Y-114194086D01*
X141968143Y-114479800D01*
X142075285Y-114479800D01*
X142146714Y-114515514D01*
X142182428Y-114551229D01*
X142218143Y-114622657D01*
X142218143Y-114801229D01*
X142182428Y-114872657D01*
X142146714Y-114908371D01*
X142075285Y-114944086D01*
X141861000Y-114944086D01*
X141789571Y-114908371D01*
X141753857Y-114872657D01*
X142861000Y-114194086D02*
X142718143Y-114194086D01*
X142646714Y-114229800D01*
X142611000Y-114265514D01*
X142539571Y-114372657D01*
X142503857Y-114515514D01*
X142503857Y-114801229D01*
X142539571Y-114872657D01*
X142575286Y-114908371D01*
X142646714Y-114944086D01*
X142789571Y-114944086D01*
X142861000Y-114908371D01*
X142896714Y-114872657D01*
X142932429Y-114801229D01*
X142932429Y-114622657D01*
X142896714Y-114551229D01*
X142861000Y-114515514D01*
X142789571Y-114479800D01*
X142646714Y-114479800D01*
X142575286Y-114515514D01*
X142539571Y-114551229D01*
X142503857Y-114622657D01*
X141554657Y-116112486D02*
X141304657Y-115755343D01*
X141126085Y-116112486D02*
X141126085Y-115362486D01*
X141411800Y-115362486D01*
X141483228Y-115398200D01*
X141518943Y-115433914D01*
X141554657Y-115505343D01*
X141554657Y-115612486D01*
X141518943Y-115683914D01*
X141483228Y-115719629D01*
X141411800Y-115755343D01*
X141126085Y-115755343D01*
X141804657Y-115362486D02*
X142268943Y-115362486D01*
X142018943Y-115648200D01*
X142126085Y-115648200D01*
X142197514Y-115683914D01*
X142233228Y-115719629D01*
X142268943Y-115791057D01*
X142268943Y-115969629D01*
X142233228Y-116041057D01*
X142197514Y-116076771D01*
X142126085Y-116112486D01*
X141911800Y-116112486D01*
X141840371Y-116076771D01*
X141804657Y-116041057D01*
X142518943Y-115362486D02*
X143018943Y-115362486D01*
X142697514Y-116112486D01*
X121641057Y-120709886D02*
X121391057Y-120352743D01*
X121212485Y-120709886D02*
X121212485Y-119959886D01*
X121498200Y-119959886D01*
X121569628Y-119995600D01*
X121605343Y-120031314D01*
X121641057Y-120102743D01*
X121641057Y-120209886D01*
X121605343Y-120281314D01*
X121569628Y-120317029D01*
X121498200Y-120352743D01*
X121212485Y-120352743D01*
X121891057Y-119959886D02*
X122355343Y-119959886D01*
X122105343Y-120245600D01*
X122212485Y-120245600D01*
X122283914Y-120281314D01*
X122319628Y-120317029D01*
X122355343Y-120388457D01*
X122355343Y-120567029D01*
X122319628Y-120638457D01*
X122283914Y-120674171D01*
X122212485Y-120709886D01*
X121998200Y-120709886D01*
X121926771Y-120674171D01*
X121891057Y-120638457D01*
X122783914Y-120281314D02*
X122712486Y-120245600D01*
X122676771Y-120209886D01*
X122641057Y-120138457D01*
X122641057Y-120102743D01*
X122676771Y-120031314D01*
X122712486Y-119995600D01*
X122783914Y-119959886D01*
X122926771Y-119959886D01*
X122998200Y-119995600D01*
X123033914Y-120031314D01*
X123069629Y-120102743D01*
X123069629Y-120138457D01*
X123033914Y-120209886D01*
X122998200Y-120245600D01*
X122926771Y-120281314D01*
X122783914Y-120281314D01*
X122712486Y-120317029D01*
X122676771Y-120352743D01*
X122641057Y-120424171D01*
X122641057Y-120567029D01*
X122676771Y-120638457D01*
X122712486Y-120674171D01*
X122783914Y-120709886D01*
X122926771Y-120709886D01*
X122998200Y-120674171D01*
X123033914Y-120638457D01*
X123069629Y-120567029D01*
X123069629Y-120424171D01*
X123033914Y-120352743D01*
X122998200Y-120317029D01*
X122926771Y-120281314D01*
X135611057Y-124545286D02*
X135361057Y-124188143D01*
X135182485Y-124545286D02*
X135182485Y-123795286D01*
X135468200Y-123795286D01*
X135539628Y-123831000D01*
X135575343Y-123866714D01*
X135611057Y-123938143D01*
X135611057Y-124045286D01*
X135575343Y-124116714D01*
X135539628Y-124152429D01*
X135468200Y-124188143D01*
X135182485Y-124188143D01*
X135861057Y-123795286D02*
X136325343Y-123795286D01*
X136075343Y-124081000D01*
X136182485Y-124081000D01*
X136253914Y-124116714D01*
X136289628Y-124152429D01*
X136325343Y-124223857D01*
X136325343Y-124402429D01*
X136289628Y-124473857D01*
X136253914Y-124509571D01*
X136182485Y-124545286D01*
X135968200Y-124545286D01*
X135896771Y-124509571D01*
X135861057Y-124473857D01*
X136682486Y-124545286D02*
X136825343Y-124545286D01*
X136896771Y-124509571D01*
X136932486Y-124473857D01*
X137003914Y-124366714D01*
X137039629Y-124223857D01*
X137039629Y-123938143D01*
X137003914Y-123866714D01*
X136968200Y-123831000D01*
X136896771Y-123795286D01*
X136753914Y-123795286D01*
X136682486Y-123831000D01*
X136646771Y-123866714D01*
X136611057Y-123938143D01*
X136611057Y-124116714D01*
X136646771Y-124188143D01*
X136682486Y-124223857D01*
X136753914Y-124259571D01*
X136896771Y-124259571D01*
X136968200Y-124223857D01*
X137003914Y-124188143D01*
X137039629Y-124116714D01*
X133502857Y-124494486D02*
X133252857Y-124137343D01*
X133074285Y-124494486D02*
X133074285Y-123744486D01*
X133360000Y-123744486D01*
X133431428Y-123780200D01*
X133467143Y-123815914D01*
X133502857Y-123887343D01*
X133502857Y-123994486D01*
X133467143Y-124065914D01*
X133431428Y-124101629D01*
X133360000Y-124137343D01*
X133074285Y-124137343D01*
X134145714Y-123994486D02*
X134145714Y-124494486D01*
X133967143Y-123708771D02*
X133788571Y-124244486D01*
X134252857Y-124244486D01*
X134681429Y-123744486D02*
X134752857Y-123744486D01*
X134824286Y-123780200D01*
X134860000Y-123815914D01*
X134895714Y-123887343D01*
X134931429Y-124030200D01*
X134931429Y-124208771D01*
X134895714Y-124351629D01*
X134860000Y-124423057D01*
X134824286Y-124458771D01*
X134752857Y-124494486D01*
X134681429Y-124494486D01*
X134610000Y-124458771D01*
X134574286Y-124423057D01*
X134538571Y-124351629D01*
X134502857Y-124208771D01*
X134502857Y-124030200D01*
X134538571Y-123887343D01*
X134574286Y-123815914D01*
X134610000Y-123780200D01*
X134681429Y-123744486D01*
X121641057Y-124545286D02*
X121391057Y-124188143D01*
X121212485Y-124545286D02*
X121212485Y-123795286D01*
X121498200Y-123795286D01*
X121569628Y-123831000D01*
X121605343Y-123866714D01*
X121641057Y-123938143D01*
X121641057Y-124045286D01*
X121605343Y-124116714D01*
X121569628Y-124152429D01*
X121498200Y-124188143D01*
X121212485Y-124188143D01*
X122283914Y-124045286D02*
X122283914Y-124545286D01*
X122105343Y-123759571D02*
X121926771Y-124295286D01*
X122391057Y-124295286D01*
X123069629Y-124545286D02*
X122641057Y-124545286D01*
X122855343Y-124545286D02*
X122855343Y-123795286D01*
X122783914Y-123902429D01*
X122712486Y-123973857D01*
X122641057Y-124009571D01*
X124799286Y-124281743D02*
X124442143Y-124531743D01*
X124799286Y-124710315D02*
X124049286Y-124710315D01*
X124049286Y-124424600D01*
X124085000Y-124353172D01*
X124120714Y-124317457D01*
X124192143Y-124281743D01*
X124299286Y-124281743D01*
X124370714Y-124317457D01*
X124406429Y-124353172D01*
X124442143Y-124424600D01*
X124442143Y-124710315D01*
X124299286Y-123638886D02*
X124799286Y-123638886D01*
X124013571Y-123817457D02*
X124549286Y-123996029D01*
X124549286Y-123531743D01*
X124120714Y-123281743D02*
X124085000Y-123246029D01*
X124049286Y-123174600D01*
X124049286Y-122996029D01*
X124085000Y-122924600D01*
X124120714Y-122888886D01*
X124192143Y-122853171D01*
X124263571Y-122853171D01*
X124370714Y-122888886D01*
X124799286Y-123317457D01*
X124799286Y-122853171D01*
X142570657Y-119312886D02*
X142320657Y-118955743D01*
X142142085Y-119312886D02*
X142142085Y-118562886D01*
X142427800Y-118562886D01*
X142499228Y-118598600D01*
X142534943Y-118634314D01*
X142570657Y-118705743D01*
X142570657Y-118812886D01*
X142534943Y-118884314D01*
X142499228Y-118920029D01*
X142427800Y-118955743D01*
X142142085Y-118955743D01*
X143213514Y-118812886D02*
X143213514Y-119312886D01*
X143034943Y-118527171D02*
X142856371Y-119062886D01*
X143320657Y-119062886D01*
X143534943Y-118562886D02*
X143999229Y-118562886D01*
X143749229Y-118848600D01*
X143856371Y-118848600D01*
X143927800Y-118884314D01*
X143963514Y-118920029D01*
X143999229Y-118991457D01*
X143999229Y-119170029D01*
X143963514Y-119241457D01*
X143927800Y-119277171D01*
X143856371Y-119312886D01*
X143642086Y-119312886D01*
X143570657Y-119277171D01*
X143534943Y-119241457D01*
X121641057Y-121662386D02*
X121391057Y-121305243D01*
X121212485Y-121662386D02*
X121212485Y-120912386D01*
X121498200Y-120912386D01*
X121569628Y-120948100D01*
X121605343Y-120983814D01*
X121641057Y-121055243D01*
X121641057Y-121162386D01*
X121605343Y-121233814D01*
X121569628Y-121269529D01*
X121498200Y-121305243D01*
X121212485Y-121305243D01*
X122283914Y-121162386D02*
X122283914Y-121662386D01*
X122105343Y-120876671D02*
X121926771Y-121412386D01*
X122391057Y-121412386D01*
X122998200Y-121162386D02*
X122998200Y-121662386D01*
X122819629Y-120876671D02*
X122641057Y-121412386D01*
X123105343Y-121412386D01*
X121641057Y-122665686D02*
X121391057Y-122308543D01*
X121212485Y-122665686D02*
X121212485Y-121915686D01*
X121498200Y-121915686D01*
X121569628Y-121951400D01*
X121605343Y-121987114D01*
X121641057Y-122058543D01*
X121641057Y-122165686D01*
X121605343Y-122237114D01*
X121569628Y-122272829D01*
X121498200Y-122308543D01*
X121212485Y-122308543D01*
X122283914Y-122165686D02*
X122283914Y-122665686D01*
X122105343Y-121879971D02*
X121926771Y-122415686D01*
X122391057Y-122415686D01*
X123033914Y-121915686D02*
X122676771Y-121915686D01*
X122641057Y-122272829D01*
X122676771Y-122237114D01*
X122748200Y-122201400D01*
X122926771Y-122201400D01*
X122998200Y-122237114D01*
X123033914Y-122272829D01*
X123069629Y-122344257D01*
X123069629Y-122522829D01*
X123033914Y-122594257D01*
X122998200Y-122629971D01*
X122926771Y-122665686D01*
X122748200Y-122665686D01*
X122676771Y-122629971D01*
X122641057Y-122594257D01*
X121641057Y-123580086D02*
X121391057Y-123222943D01*
X121212485Y-123580086D02*
X121212485Y-122830086D01*
X121498200Y-122830086D01*
X121569628Y-122865800D01*
X121605343Y-122901514D01*
X121641057Y-122972943D01*
X121641057Y-123080086D01*
X121605343Y-123151514D01*
X121569628Y-123187229D01*
X121498200Y-123222943D01*
X121212485Y-123222943D01*
X122283914Y-123080086D02*
X122283914Y-123580086D01*
X122105343Y-122794371D02*
X121926771Y-123330086D01*
X122391057Y-123330086D01*
X122998200Y-122830086D02*
X122855343Y-122830086D01*
X122783914Y-122865800D01*
X122748200Y-122901514D01*
X122676771Y-123008657D01*
X122641057Y-123151514D01*
X122641057Y-123437229D01*
X122676771Y-123508657D01*
X122712486Y-123544371D01*
X122783914Y-123580086D01*
X122926771Y-123580086D01*
X122998200Y-123544371D01*
X123033914Y-123508657D01*
X123069629Y-123437229D01*
X123069629Y-123258657D01*
X123033914Y-123187229D01*
X122998200Y-123151514D01*
X122926771Y-123115800D01*
X122783914Y-123115800D01*
X122712486Y-123151514D01*
X122676771Y-123187229D01*
X122641057Y-123258657D01*
X143535857Y-154326786D02*
X143285857Y-153969643D01*
X143107285Y-154326786D02*
X143107285Y-153576786D01*
X143393000Y-153576786D01*
X143464428Y-153612500D01*
X143500143Y-153648214D01*
X143535857Y-153719643D01*
X143535857Y-153826786D01*
X143500143Y-153898214D01*
X143464428Y-153933929D01*
X143393000Y-153969643D01*
X143107285Y-153969643D01*
X144178714Y-153826786D02*
X144178714Y-154326786D01*
X144000143Y-153541071D02*
X143821571Y-154076786D01*
X144285857Y-154076786D01*
X144500143Y-153576786D02*
X145000143Y-153576786D01*
X144678714Y-154326786D01*
X102764786Y-120687643D02*
X102407643Y-120937643D01*
X102764786Y-121116215D02*
X102014786Y-121116215D01*
X102014786Y-120830500D01*
X102050500Y-120759072D01*
X102086214Y-120723357D01*
X102157643Y-120687643D01*
X102264786Y-120687643D01*
X102336214Y-120723357D01*
X102371929Y-120759072D01*
X102407643Y-120830500D01*
X102407643Y-121116215D01*
X102264786Y-120044786D02*
X102764786Y-120044786D01*
X101979071Y-120223357D02*
X102514786Y-120401929D01*
X102514786Y-119937643D01*
X102336214Y-119544786D02*
X102300500Y-119616214D01*
X102264786Y-119651929D01*
X102193357Y-119687643D01*
X102157643Y-119687643D01*
X102086214Y-119651929D01*
X102050500Y-119616214D01*
X102014786Y-119544786D01*
X102014786Y-119401929D01*
X102050500Y-119330500D01*
X102086214Y-119294786D01*
X102157643Y-119259071D01*
X102193357Y-119259071D01*
X102264786Y-119294786D01*
X102300500Y-119330500D01*
X102336214Y-119401929D01*
X102336214Y-119544786D01*
X102371929Y-119616214D01*
X102407643Y-119651929D01*
X102479071Y-119687643D01*
X102621929Y-119687643D01*
X102693357Y-119651929D01*
X102729071Y-119616214D01*
X102764786Y-119544786D01*
X102764786Y-119401929D01*
X102729071Y-119330500D01*
X102693357Y-119294786D01*
X102621929Y-119259071D01*
X102479071Y-119259071D01*
X102407643Y-119294786D01*
X102371929Y-119330500D01*
X102336214Y-119401929D01*
X101558286Y-117449143D02*
X101201143Y-117699143D01*
X101558286Y-117877715D02*
X100808286Y-117877715D01*
X100808286Y-117592000D01*
X100844000Y-117520572D01*
X100879714Y-117484857D01*
X100951143Y-117449143D01*
X101058286Y-117449143D01*
X101129714Y-117484857D01*
X101165429Y-117520572D01*
X101201143Y-117592000D01*
X101201143Y-117877715D01*
X101058286Y-116806286D02*
X101558286Y-116806286D01*
X100772571Y-116984857D02*
X101308286Y-117163429D01*
X101308286Y-116699143D01*
X101558286Y-116377714D02*
X101558286Y-116234857D01*
X101522571Y-116163429D01*
X101486857Y-116127714D01*
X101379714Y-116056286D01*
X101236857Y-116020571D01*
X100951143Y-116020571D01*
X100879714Y-116056286D01*
X100844000Y-116092000D01*
X100808286Y-116163429D01*
X100808286Y-116306286D01*
X100844000Y-116377714D01*
X100879714Y-116413429D01*
X100951143Y-116449143D01*
X101129714Y-116449143D01*
X101201143Y-116413429D01*
X101236857Y-116377714D01*
X101272571Y-116306286D01*
X101272571Y-116163429D01*
X101236857Y-116092000D01*
X101201143Y-116056286D01*
X101129714Y-116020571D01*
X96859286Y-117385643D02*
X96502143Y-117635643D01*
X96859286Y-117814215D02*
X96109286Y-117814215D01*
X96109286Y-117528500D01*
X96145000Y-117457072D01*
X96180714Y-117421357D01*
X96252143Y-117385643D01*
X96359286Y-117385643D01*
X96430714Y-117421357D01*
X96466429Y-117457072D01*
X96502143Y-117528500D01*
X96502143Y-117814215D01*
X96109286Y-116707072D02*
X96109286Y-117064215D01*
X96466429Y-117099929D01*
X96430714Y-117064215D01*
X96395000Y-116992786D01*
X96395000Y-116814215D01*
X96430714Y-116742786D01*
X96466429Y-116707072D01*
X96537857Y-116671357D01*
X96716429Y-116671357D01*
X96787857Y-116707072D01*
X96823571Y-116742786D01*
X96859286Y-116814215D01*
X96859286Y-116992786D01*
X96823571Y-117064215D01*
X96787857Y-117099929D01*
X96109286Y-116207071D02*
X96109286Y-116135643D01*
X96145000Y-116064214D01*
X96180714Y-116028500D01*
X96252143Y-115992786D01*
X96395000Y-115957071D01*
X96573571Y-115957071D01*
X96716429Y-115992786D01*
X96787857Y-116028500D01*
X96823571Y-116064214D01*
X96859286Y-116135643D01*
X96859286Y-116207071D01*
X96823571Y-116278500D01*
X96787857Y-116314214D01*
X96716429Y-116349929D01*
X96573571Y-116385643D01*
X96395000Y-116385643D01*
X96252143Y-116349929D01*
X96180714Y-116314214D01*
X96145000Y-116278500D01*
X96109286Y-116207071D01*
X108801357Y-145119286D02*
X108551357Y-144762143D01*
X108372785Y-145119286D02*
X108372785Y-144369286D01*
X108658500Y-144369286D01*
X108729928Y-144405000D01*
X108765643Y-144440714D01*
X108801357Y-144512143D01*
X108801357Y-144619286D01*
X108765643Y-144690714D01*
X108729928Y-144726429D01*
X108658500Y-144762143D01*
X108372785Y-144762143D01*
X109479928Y-144369286D02*
X109122785Y-144369286D01*
X109087071Y-144726429D01*
X109122785Y-144690714D01*
X109194214Y-144655000D01*
X109372785Y-144655000D01*
X109444214Y-144690714D01*
X109479928Y-144726429D01*
X109515643Y-144797857D01*
X109515643Y-144976429D01*
X109479928Y-145047857D01*
X109444214Y-145083571D01*
X109372785Y-145119286D01*
X109194214Y-145119286D01*
X109122785Y-145083571D01*
X109087071Y-145047857D01*
X110229929Y-145119286D02*
X109801357Y-145119286D01*
X110015643Y-145119286D02*
X110015643Y-144369286D01*
X109944214Y-144476429D01*
X109872786Y-144547857D01*
X109801357Y-144583571D01*
X98065786Y-117385643D02*
X97708643Y-117635643D01*
X98065786Y-117814215D02*
X97315786Y-117814215D01*
X97315786Y-117528500D01*
X97351500Y-117457072D01*
X97387214Y-117421357D01*
X97458643Y-117385643D01*
X97565786Y-117385643D01*
X97637214Y-117421357D01*
X97672929Y-117457072D01*
X97708643Y-117528500D01*
X97708643Y-117814215D01*
X97315786Y-116707072D02*
X97315786Y-117064215D01*
X97672929Y-117099929D01*
X97637214Y-117064215D01*
X97601500Y-116992786D01*
X97601500Y-116814215D01*
X97637214Y-116742786D01*
X97672929Y-116707072D01*
X97744357Y-116671357D01*
X97922929Y-116671357D01*
X97994357Y-116707072D01*
X98030071Y-116742786D01*
X98065786Y-116814215D01*
X98065786Y-116992786D01*
X98030071Y-117064215D01*
X97994357Y-117099929D01*
X97387214Y-116385643D02*
X97351500Y-116349929D01*
X97315786Y-116278500D01*
X97315786Y-116099929D01*
X97351500Y-116028500D01*
X97387214Y-115992786D01*
X97458643Y-115957071D01*
X97530071Y-115957071D01*
X97637214Y-115992786D01*
X98065786Y-116421357D01*
X98065786Y-115957071D01*
X99272286Y-117385643D02*
X98915143Y-117635643D01*
X99272286Y-117814215D02*
X98522286Y-117814215D01*
X98522286Y-117528500D01*
X98558000Y-117457072D01*
X98593714Y-117421357D01*
X98665143Y-117385643D01*
X98772286Y-117385643D01*
X98843714Y-117421357D01*
X98879429Y-117457072D01*
X98915143Y-117528500D01*
X98915143Y-117814215D01*
X98522286Y-116707072D02*
X98522286Y-117064215D01*
X98879429Y-117099929D01*
X98843714Y-117064215D01*
X98808000Y-116992786D01*
X98808000Y-116814215D01*
X98843714Y-116742786D01*
X98879429Y-116707072D01*
X98950857Y-116671357D01*
X99129429Y-116671357D01*
X99200857Y-116707072D01*
X99236571Y-116742786D01*
X99272286Y-116814215D01*
X99272286Y-116992786D01*
X99236571Y-117064215D01*
X99200857Y-117099929D01*
X98522286Y-116421357D02*
X98522286Y-115957071D01*
X98808000Y-116207071D01*
X98808000Y-116099929D01*
X98843714Y-116028500D01*
X98879429Y-115992786D01*
X98950857Y-115957071D01*
X99129429Y-115957071D01*
X99200857Y-115992786D01*
X99236571Y-116028500D01*
X99272286Y-116099929D01*
X99272286Y-116314214D01*
X99236571Y-116385643D01*
X99200857Y-116421357D01*
X100415286Y-117449143D02*
X100058143Y-117699143D01*
X100415286Y-117877715D02*
X99665286Y-117877715D01*
X99665286Y-117592000D01*
X99701000Y-117520572D01*
X99736714Y-117484857D01*
X99808143Y-117449143D01*
X99915286Y-117449143D01*
X99986714Y-117484857D01*
X100022429Y-117520572D01*
X100058143Y-117592000D01*
X100058143Y-117877715D01*
X99665286Y-116770572D02*
X99665286Y-117127715D01*
X100022429Y-117163429D01*
X99986714Y-117127715D01*
X99951000Y-117056286D01*
X99951000Y-116877715D01*
X99986714Y-116806286D01*
X100022429Y-116770572D01*
X100093857Y-116734857D01*
X100272429Y-116734857D01*
X100343857Y-116770572D01*
X100379571Y-116806286D01*
X100415286Y-116877715D01*
X100415286Y-117056286D01*
X100379571Y-117127715D01*
X100343857Y-117163429D01*
X99915286Y-116092000D02*
X100415286Y-116092000D01*
X99629571Y-116270571D02*
X100165286Y-116449143D01*
X100165286Y-115984857D01*
X110642857Y-142642786D02*
X110392857Y-142285643D01*
X110214285Y-142642786D02*
X110214285Y-141892786D01*
X110500000Y-141892786D01*
X110571428Y-141928500D01*
X110607143Y-141964214D01*
X110642857Y-142035643D01*
X110642857Y-142142786D01*
X110607143Y-142214214D01*
X110571428Y-142249929D01*
X110500000Y-142285643D01*
X110214285Y-142285643D01*
X111321428Y-141892786D02*
X110964285Y-141892786D01*
X110928571Y-142249929D01*
X110964285Y-142214214D01*
X111035714Y-142178500D01*
X111214285Y-142178500D01*
X111285714Y-142214214D01*
X111321428Y-142249929D01*
X111357143Y-142321357D01*
X111357143Y-142499929D01*
X111321428Y-142571357D01*
X111285714Y-142607071D01*
X111214285Y-142642786D01*
X111035714Y-142642786D01*
X110964285Y-142607071D01*
X110928571Y-142571357D01*
X112035714Y-141892786D02*
X111678571Y-141892786D01*
X111642857Y-142249929D01*
X111678571Y-142214214D01*
X111750000Y-142178500D01*
X111928571Y-142178500D01*
X112000000Y-142214214D01*
X112035714Y-142249929D01*
X112071429Y-142321357D01*
X112071429Y-142499929D01*
X112035714Y-142571357D01*
X112000000Y-142607071D01*
X111928571Y-142642786D01*
X111750000Y-142642786D01*
X111678571Y-142607071D01*
X111642857Y-142571357D01*
X115786357Y-144928786D02*
X115536357Y-144571643D01*
X115357785Y-144928786D02*
X115357785Y-144178786D01*
X115643500Y-144178786D01*
X115714928Y-144214500D01*
X115750643Y-144250214D01*
X115786357Y-144321643D01*
X115786357Y-144428786D01*
X115750643Y-144500214D01*
X115714928Y-144535929D01*
X115643500Y-144571643D01*
X115357785Y-144571643D01*
X116464928Y-144178786D02*
X116107785Y-144178786D01*
X116072071Y-144535929D01*
X116107785Y-144500214D01*
X116179214Y-144464500D01*
X116357785Y-144464500D01*
X116429214Y-144500214D01*
X116464928Y-144535929D01*
X116500643Y-144607357D01*
X116500643Y-144785929D01*
X116464928Y-144857357D01*
X116429214Y-144893071D01*
X116357785Y-144928786D01*
X116179214Y-144928786D01*
X116107785Y-144893071D01*
X116072071Y-144857357D01*
X117143500Y-144178786D02*
X117000643Y-144178786D01*
X116929214Y-144214500D01*
X116893500Y-144250214D01*
X116822071Y-144357357D01*
X116786357Y-144500214D01*
X116786357Y-144785929D01*
X116822071Y-144857357D01*
X116857786Y-144893071D01*
X116929214Y-144928786D01*
X117072071Y-144928786D01*
X117143500Y-144893071D01*
X117179214Y-144857357D01*
X117214929Y-144785929D01*
X117214929Y-144607357D01*
X117179214Y-144535929D01*
X117143500Y-144500214D01*
X117072071Y-144464500D01*
X116929214Y-144464500D01*
X116857786Y-144500214D01*
X116822071Y-144535929D01*
X116786357Y-144607357D01*
X116103857Y-146135286D02*
X115853857Y-145778143D01*
X115675285Y-146135286D02*
X115675285Y-145385286D01*
X115961000Y-145385286D01*
X116032428Y-145421000D01*
X116068143Y-145456714D01*
X116103857Y-145528143D01*
X116103857Y-145635286D01*
X116068143Y-145706714D01*
X116032428Y-145742429D01*
X115961000Y-145778143D01*
X115675285Y-145778143D01*
X116782428Y-145385286D02*
X116425285Y-145385286D01*
X116389571Y-145742429D01*
X116425285Y-145706714D01*
X116496714Y-145671000D01*
X116675285Y-145671000D01*
X116746714Y-145706714D01*
X116782428Y-145742429D01*
X116818143Y-145813857D01*
X116818143Y-145992429D01*
X116782428Y-146063857D01*
X116746714Y-146099571D01*
X116675285Y-146135286D01*
X116496714Y-146135286D01*
X116425285Y-146099571D01*
X116389571Y-146063857D01*
X117068143Y-145385286D02*
X117568143Y-145385286D01*
X117246714Y-146135286D01*
X106324857Y-143595286D02*
X106074857Y-143238143D01*
X105896285Y-143595286D02*
X105896285Y-142845286D01*
X106182000Y-142845286D01*
X106253428Y-142881000D01*
X106289143Y-142916714D01*
X106324857Y-142988143D01*
X106324857Y-143095286D01*
X106289143Y-143166714D01*
X106253428Y-143202429D01*
X106182000Y-143238143D01*
X105896285Y-143238143D01*
X107003428Y-142845286D02*
X106646285Y-142845286D01*
X106610571Y-143202429D01*
X106646285Y-143166714D01*
X106717714Y-143131000D01*
X106896285Y-143131000D01*
X106967714Y-143166714D01*
X107003428Y-143202429D01*
X107039143Y-143273857D01*
X107039143Y-143452429D01*
X107003428Y-143523857D01*
X106967714Y-143559571D01*
X106896285Y-143595286D01*
X106717714Y-143595286D01*
X106646285Y-143559571D01*
X106610571Y-143523857D01*
X107467714Y-143166714D02*
X107396286Y-143131000D01*
X107360571Y-143095286D01*
X107324857Y-143023857D01*
X107324857Y-142988143D01*
X107360571Y-142916714D01*
X107396286Y-142881000D01*
X107467714Y-142845286D01*
X107610571Y-142845286D01*
X107682000Y-142881000D01*
X107717714Y-142916714D01*
X107753429Y-142988143D01*
X107753429Y-143023857D01*
X107717714Y-143095286D01*
X107682000Y-143131000D01*
X107610571Y-143166714D01*
X107467714Y-143166714D01*
X107396286Y-143202429D01*
X107360571Y-143238143D01*
X107324857Y-143309571D01*
X107324857Y-143452429D01*
X107360571Y-143523857D01*
X107396286Y-143559571D01*
X107467714Y-143595286D01*
X107610571Y-143595286D01*
X107682000Y-143559571D01*
X107717714Y-143523857D01*
X107753429Y-143452429D01*
X107753429Y-143309571D01*
X107717714Y-143238143D01*
X107682000Y-143202429D01*
X107610571Y-143166714D01*
X115659357Y-142515786D02*
X115409357Y-142158643D01*
X115230785Y-142515786D02*
X115230785Y-141765786D01*
X115516500Y-141765786D01*
X115587928Y-141801500D01*
X115623643Y-141837214D01*
X115659357Y-141908643D01*
X115659357Y-142015786D01*
X115623643Y-142087214D01*
X115587928Y-142122929D01*
X115516500Y-142158643D01*
X115230785Y-142158643D01*
X116337928Y-141765786D02*
X115980785Y-141765786D01*
X115945071Y-142122929D01*
X115980785Y-142087214D01*
X116052214Y-142051500D01*
X116230785Y-142051500D01*
X116302214Y-142087214D01*
X116337928Y-142122929D01*
X116373643Y-142194357D01*
X116373643Y-142372929D01*
X116337928Y-142444357D01*
X116302214Y-142480071D01*
X116230785Y-142515786D01*
X116052214Y-142515786D01*
X115980785Y-142480071D01*
X115945071Y-142444357D01*
X116730786Y-142515786D02*
X116873643Y-142515786D01*
X116945071Y-142480071D01*
X116980786Y-142444357D01*
X117052214Y-142337214D01*
X117087929Y-142194357D01*
X117087929Y-141908643D01*
X117052214Y-141837214D01*
X117016500Y-141801500D01*
X116945071Y-141765786D01*
X116802214Y-141765786D01*
X116730786Y-141801500D01*
X116695071Y-141837214D01*
X116659357Y-141908643D01*
X116659357Y-142087214D01*
X116695071Y-142158643D01*
X116730786Y-142194357D01*
X116802214Y-142230071D01*
X116945071Y-142230071D01*
X117016500Y-142194357D01*
X117052214Y-142158643D01*
X117087929Y-142087214D01*
X119405857Y-125815286D02*
X119155857Y-125458143D01*
X118977285Y-125815286D02*
X118977285Y-125065286D01*
X119263000Y-125065286D01*
X119334428Y-125101000D01*
X119370143Y-125136714D01*
X119405857Y-125208143D01*
X119405857Y-125315286D01*
X119370143Y-125386714D01*
X119334428Y-125422429D01*
X119263000Y-125458143D01*
X118977285Y-125458143D01*
X120048714Y-125065286D02*
X119905857Y-125065286D01*
X119834428Y-125101000D01*
X119798714Y-125136714D01*
X119727285Y-125243857D01*
X119691571Y-125386714D01*
X119691571Y-125672429D01*
X119727285Y-125743857D01*
X119763000Y-125779571D01*
X119834428Y-125815286D01*
X119977285Y-125815286D01*
X120048714Y-125779571D01*
X120084428Y-125743857D01*
X120120143Y-125672429D01*
X120120143Y-125493857D01*
X120084428Y-125422429D01*
X120048714Y-125386714D01*
X119977285Y-125351000D01*
X119834428Y-125351000D01*
X119763000Y-125386714D01*
X119727285Y-125422429D01*
X119691571Y-125493857D01*
X120584429Y-125065286D02*
X120655857Y-125065286D01*
X120727286Y-125101000D01*
X120763000Y-125136714D01*
X120798714Y-125208143D01*
X120834429Y-125351000D01*
X120834429Y-125529571D01*
X120798714Y-125672429D01*
X120763000Y-125743857D01*
X120727286Y-125779571D01*
X120655857Y-125815286D01*
X120584429Y-125815286D01*
X120513000Y-125779571D01*
X120477286Y-125743857D01*
X120441571Y-125672429D01*
X120405857Y-125529571D01*
X120405857Y-125351000D01*
X120441571Y-125208143D01*
X120477286Y-125136714D01*
X120513000Y-125101000D01*
X120584429Y-125065286D01*
X119405857Y-127021786D02*
X119155857Y-126664643D01*
X118977285Y-127021786D02*
X118977285Y-126271786D01*
X119263000Y-126271786D01*
X119334428Y-126307500D01*
X119370143Y-126343214D01*
X119405857Y-126414643D01*
X119405857Y-126521786D01*
X119370143Y-126593214D01*
X119334428Y-126628929D01*
X119263000Y-126664643D01*
X118977285Y-126664643D01*
X120048714Y-126271786D02*
X119905857Y-126271786D01*
X119834428Y-126307500D01*
X119798714Y-126343214D01*
X119727285Y-126450357D01*
X119691571Y-126593214D01*
X119691571Y-126878929D01*
X119727285Y-126950357D01*
X119763000Y-126986071D01*
X119834428Y-127021786D01*
X119977285Y-127021786D01*
X120048714Y-126986071D01*
X120084428Y-126950357D01*
X120120143Y-126878929D01*
X120120143Y-126700357D01*
X120084428Y-126628929D01*
X120048714Y-126593214D01*
X119977285Y-126557500D01*
X119834428Y-126557500D01*
X119763000Y-126593214D01*
X119727285Y-126628929D01*
X119691571Y-126700357D01*
X120834429Y-127021786D02*
X120405857Y-127021786D01*
X120620143Y-127021786D02*
X120620143Y-126271786D01*
X120548714Y-126378929D01*
X120477286Y-126450357D01*
X120405857Y-126486071D01*
X119405857Y-128164786D02*
X119155857Y-127807643D01*
X118977285Y-128164786D02*
X118977285Y-127414786D01*
X119263000Y-127414786D01*
X119334428Y-127450500D01*
X119370143Y-127486214D01*
X119405857Y-127557643D01*
X119405857Y-127664786D01*
X119370143Y-127736214D01*
X119334428Y-127771929D01*
X119263000Y-127807643D01*
X118977285Y-127807643D01*
X120048714Y-127414786D02*
X119905857Y-127414786D01*
X119834428Y-127450500D01*
X119798714Y-127486214D01*
X119727285Y-127593357D01*
X119691571Y-127736214D01*
X119691571Y-128021929D01*
X119727285Y-128093357D01*
X119763000Y-128129071D01*
X119834428Y-128164786D01*
X119977285Y-128164786D01*
X120048714Y-128129071D01*
X120084428Y-128093357D01*
X120120143Y-128021929D01*
X120120143Y-127843357D01*
X120084428Y-127771929D01*
X120048714Y-127736214D01*
X119977285Y-127700500D01*
X119834428Y-127700500D01*
X119763000Y-127736214D01*
X119727285Y-127771929D01*
X119691571Y-127843357D01*
X120405857Y-127486214D02*
X120441571Y-127450500D01*
X120513000Y-127414786D01*
X120691571Y-127414786D01*
X120763000Y-127450500D01*
X120798714Y-127486214D01*
X120834429Y-127557643D01*
X120834429Y-127629071D01*
X120798714Y-127736214D01*
X120370143Y-128164786D01*
X120834429Y-128164786D01*
X119405857Y-129371286D02*
X119155857Y-129014143D01*
X118977285Y-129371286D02*
X118977285Y-128621286D01*
X119263000Y-128621286D01*
X119334428Y-128657000D01*
X119370143Y-128692714D01*
X119405857Y-128764143D01*
X119405857Y-128871286D01*
X119370143Y-128942714D01*
X119334428Y-128978429D01*
X119263000Y-129014143D01*
X118977285Y-129014143D01*
X120048714Y-128621286D02*
X119905857Y-128621286D01*
X119834428Y-128657000D01*
X119798714Y-128692714D01*
X119727285Y-128799857D01*
X119691571Y-128942714D01*
X119691571Y-129228429D01*
X119727285Y-129299857D01*
X119763000Y-129335571D01*
X119834428Y-129371286D01*
X119977285Y-129371286D01*
X120048714Y-129335571D01*
X120084428Y-129299857D01*
X120120143Y-129228429D01*
X120120143Y-129049857D01*
X120084428Y-128978429D01*
X120048714Y-128942714D01*
X119977285Y-128907000D01*
X119834428Y-128907000D01*
X119763000Y-128942714D01*
X119727285Y-128978429D01*
X119691571Y-129049857D01*
X120370143Y-128621286D02*
X120834429Y-128621286D01*
X120584429Y-128907000D01*
X120691571Y-128907000D01*
X120763000Y-128942714D01*
X120798714Y-128978429D01*
X120834429Y-129049857D01*
X120834429Y-129228429D01*
X120798714Y-129299857D01*
X120763000Y-129335571D01*
X120691571Y-129371286D01*
X120477286Y-129371286D01*
X120405857Y-129335571D01*
X120370143Y-129299857D01*
X119405857Y-130577786D02*
X119155857Y-130220643D01*
X118977285Y-130577786D02*
X118977285Y-129827786D01*
X119263000Y-129827786D01*
X119334428Y-129863500D01*
X119370143Y-129899214D01*
X119405857Y-129970643D01*
X119405857Y-130077786D01*
X119370143Y-130149214D01*
X119334428Y-130184929D01*
X119263000Y-130220643D01*
X118977285Y-130220643D01*
X120048714Y-129827786D02*
X119905857Y-129827786D01*
X119834428Y-129863500D01*
X119798714Y-129899214D01*
X119727285Y-130006357D01*
X119691571Y-130149214D01*
X119691571Y-130434929D01*
X119727285Y-130506357D01*
X119763000Y-130542071D01*
X119834428Y-130577786D01*
X119977285Y-130577786D01*
X120048714Y-130542071D01*
X120084428Y-130506357D01*
X120120143Y-130434929D01*
X120120143Y-130256357D01*
X120084428Y-130184929D01*
X120048714Y-130149214D01*
X119977285Y-130113500D01*
X119834428Y-130113500D01*
X119763000Y-130149214D01*
X119727285Y-130184929D01*
X119691571Y-130256357D01*
X120763000Y-130077786D02*
X120763000Y-130577786D01*
X120584429Y-129792071D02*
X120405857Y-130327786D01*
X120870143Y-130327786D01*
X119405857Y-131847786D02*
X119155857Y-131490643D01*
X118977285Y-131847786D02*
X118977285Y-131097786D01*
X119263000Y-131097786D01*
X119334428Y-131133500D01*
X119370143Y-131169214D01*
X119405857Y-131240643D01*
X119405857Y-131347786D01*
X119370143Y-131419214D01*
X119334428Y-131454929D01*
X119263000Y-131490643D01*
X118977285Y-131490643D01*
X120048714Y-131097786D02*
X119905857Y-131097786D01*
X119834428Y-131133500D01*
X119798714Y-131169214D01*
X119727285Y-131276357D01*
X119691571Y-131419214D01*
X119691571Y-131704929D01*
X119727285Y-131776357D01*
X119763000Y-131812071D01*
X119834428Y-131847786D01*
X119977285Y-131847786D01*
X120048714Y-131812071D01*
X120084428Y-131776357D01*
X120120143Y-131704929D01*
X120120143Y-131526357D01*
X120084428Y-131454929D01*
X120048714Y-131419214D01*
X119977285Y-131383500D01*
X119834428Y-131383500D01*
X119763000Y-131419214D01*
X119727285Y-131454929D01*
X119691571Y-131526357D01*
X120798714Y-131097786D02*
X120441571Y-131097786D01*
X120405857Y-131454929D01*
X120441571Y-131419214D01*
X120513000Y-131383500D01*
X120691571Y-131383500D01*
X120763000Y-131419214D01*
X120798714Y-131454929D01*
X120834429Y-131526357D01*
X120834429Y-131704929D01*
X120798714Y-131776357D01*
X120763000Y-131812071D01*
X120691571Y-131847786D01*
X120513000Y-131847786D01*
X120441571Y-131812071D01*
X120405857Y-131776357D01*
X115722857Y-143722286D02*
X115472857Y-143365143D01*
X115294285Y-143722286D02*
X115294285Y-142972286D01*
X115580000Y-142972286D01*
X115651428Y-143008000D01*
X115687143Y-143043714D01*
X115722857Y-143115143D01*
X115722857Y-143222286D01*
X115687143Y-143293714D01*
X115651428Y-143329429D01*
X115580000Y-143365143D01*
X115294285Y-143365143D01*
X116365714Y-142972286D02*
X116222857Y-142972286D01*
X116151428Y-143008000D01*
X116115714Y-143043714D01*
X116044285Y-143150857D01*
X116008571Y-143293714D01*
X116008571Y-143579429D01*
X116044285Y-143650857D01*
X116080000Y-143686571D01*
X116151428Y-143722286D01*
X116294285Y-143722286D01*
X116365714Y-143686571D01*
X116401428Y-143650857D01*
X116437143Y-143579429D01*
X116437143Y-143400857D01*
X116401428Y-143329429D01*
X116365714Y-143293714D01*
X116294285Y-143258000D01*
X116151428Y-143258000D01*
X116080000Y-143293714D01*
X116044285Y-143329429D01*
X116008571Y-143400857D01*
X117080000Y-142972286D02*
X116937143Y-142972286D01*
X116865714Y-143008000D01*
X116830000Y-143043714D01*
X116758571Y-143150857D01*
X116722857Y-143293714D01*
X116722857Y-143579429D01*
X116758571Y-143650857D01*
X116794286Y-143686571D01*
X116865714Y-143722286D01*
X117008571Y-143722286D01*
X117080000Y-143686571D01*
X117115714Y-143650857D01*
X117151429Y-143579429D01*
X117151429Y-143400857D01*
X117115714Y-143329429D01*
X117080000Y-143293714D01*
X117008571Y-143258000D01*
X116865714Y-143258000D01*
X116794286Y-143293714D01*
X116758571Y-143329429D01*
X116722857Y-143400857D01*
X116865857Y-134895786D02*
X116615857Y-134538643D01*
X116437285Y-134895786D02*
X116437285Y-134145786D01*
X116723000Y-134145786D01*
X116794428Y-134181500D01*
X116830143Y-134217214D01*
X116865857Y-134288643D01*
X116865857Y-134395786D01*
X116830143Y-134467214D01*
X116794428Y-134502929D01*
X116723000Y-134538643D01*
X116437285Y-134538643D01*
X117508714Y-134145786D02*
X117365857Y-134145786D01*
X117294428Y-134181500D01*
X117258714Y-134217214D01*
X117187285Y-134324357D01*
X117151571Y-134467214D01*
X117151571Y-134752929D01*
X117187285Y-134824357D01*
X117223000Y-134860071D01*
X117294428Y-134895786D01*
X117437285Y-134895786D01*
X117508714Y-134860071D01*
X117544428Y-134824357D01*
X117580143Y-134752929D01*
X117580143Y-134574357D01*
X117544428Y-134502929D01*
X117508714Y-134467214D01*
X117437285Y-134431500D01*
X117294428Y-134431500D01*
X117223000Y-134467214D01*
X117187285Y-134502929D01*
X117151571Y-134574357D01*
X117830143Y-134145786D02*
X118330143Y-134145786D01*
X118008714Y-134895786D01*
X116738857Y-138134286D02*
X116488857Y-137777143D01*
X116310285Y-138134286D02*
X116310285Y-137384286D01*
X116596000Y-137384286D01*
X116667428Y-137420000D01*
X116703143Y-137455714D01*
X116738857Y-137527143D01*
X116738857Y-137634286D01*
X116703143Y-137705714D01*
X116667428Y-137741429D01*
X116596000Y-137777143D01*
X116310285Y-137777143D01*
X117381714Y-137384286D02*
X117238857Y-137384286D01*
X117167428Y-137420000D01*
X117131714Y-137455714D01*
X117060285Y-137562857D01*
X117024571Y-137705714D01*
X117024571Y-137991429D01*
X117060285Y-138062857D01*
X117096000Y-138098571D01*
X117167428Y-138134286D01*
X117310285Y-138134286D01*
X117381714Y-138098571D01*
X117417428Y-138062857D01*
X117453143Y-137991429D01*
X117453143Y-137812857D01*
X117417428Y-137741429D01*
X117381714Y-137705714D01*
X117310285Y-137670000D01*
X117167428Y-137670000D01*
X117096000Y-137705714D01*
X117060285Y-137741429D01*
X117024571Y-137812857D01*
X117881714Y-137705714D02*
X117810286Y-137670000D01*
X117774571Y-137634286D01*
X117738857Y-137562857D01*
X117738857Y-137527143D01*
X117774571Y-137455714D01*
X117810286Y-137420000D01*
X117881714Y-137384286D01*
X118024571Y-137384286D01*
X118096000Y-137420000D01*
X118131714Y-137455714D01*
X118167429Y-137527143D01*
X118167429Y-137562857D01*
X118131714Y-137634286D01*
X118096000Y-137670000D01*
X118024571Y-137705714D01*
X117881714Y-137705714D01*
X117810286Y-137741429D01*
X117774571Y-137777143D01*
X117738857Y-137848571D01*
X117738857Y-137991429D01*
X117774571Y-138062857D01*
X117810286Y-138098571D01*
X117881714Y-138134286D01*
X118024571Y-138134286D01*
X118096000Y-138098571D01*
X118131714Y-138062857D01*
X118167429Y-137991429D01*
X118167429Y-137848571D01*
X118131714Y-137777143D01*
X118096000Y-137741429D01*
X118024571Y-137705714D01*
X116484857Y-141436286D02*
X116234857Y-141079143D01*
X116056285Y-141436286D02*
X116056285Y-140686286D01*
X116342000Y-140686286D01*
X116413428Y-140722000D01*
X116449143Y-140757714D01*
X116484857Y-140829143D01*
X116484857Y-140936286D01*
X116449143Y-141007714D01*
X116413428Y-141043429D01*
X116342000Y-141079143D01*
X116056285Y-141079143D01*
X117127714Y-140686286D02*
X116984857Y-140686286D01*
X116913428Y-140722000D01*
X116877714Y-140757714D01*
X116806285Y-140864857D01*
X116770571Y-141007714D01*
X116770571Y-141293429D01*
X116806285Y-141364857D01*
X116842000Y-141400571D01*
X116913428Y-141436286D01*
X117056285Y-141436286D01*
X117127714Y-141400571D01*
X117163428Y-141364857D01*
X117199143Y-141293429D01*
X117199143Y-141114857D01*
X117163428Y-141043429D01*
X117127714Y-141007714D01*
X117056285Y-140972000D01*
X116913428Y-140972000D01*
X116842000Y-141007714D01*
X116806285Y-141043429D01*
X116770571Y-141114857D01*
X117556286Y-141436286D02*
X117699143Y-141436286D01*
X117770571Y-141400571D01*
X117806286Y-141364857D01*
X117877714Y-141257714D01*
X117913429Y-141114857D01*
X117913429Y-140829143D01*
X117877714Y-140757714D01*
X117842000Y-140722000D01*
X117770571Y-140686286D01*
X117627714Y-140686286D01*
X117556286Y-140722000D01*
X117520571Y-140757714D01*
X117484857Y-140829143D01*
X117484857Y-141007714D01*
X117520571Y-141079143D01*
X117556286Y-141114857D01*
X117627714Y-141150571D01*
X117770571Y-141150571D01*
X117842000Y-141114857D01*
X117877714Y-141079143D01*
X117913429Y-141007714D01*
X93942357Y-122259286D02*
X93692357Y-121902143D01*
X93513785Y-122259286D02*
X93513785Y-121509286D01*
X93799500Y-121509286D01*
X93870928Y-121545000D01*
X93906643Y-121580714D01*
X93942357Y-121652143D01*
X93942357Y-121759286D01*
X93906643Y-121830714D01*
X93870928Y-121866429D01*
X93799500Y-121902143D01*
X93513785Y-121902143D01*
X94192357Y-121509286D02*
X94692357Y-121509286D01*
X94370928Y-122259286D01*
X95120929Y-121509286D02*
X95192357Y-121509286D01*
X95263786Y-121545000D01*
X95299500Y-121580714D01*
X95335214Y-121652143D01*
X95370929Y-121795000D01*
X95370929Y-121973571D01*
X95335214Y-122116429D01*
X95299500Y-122187857D01*
X95263786Y-122223571D01*
X95192357Y-122259286D01*
X95120929Y-122259286D01*
X95049500Y-122223571D01*
X95013786Y-122187857D01*
X94978071Y-122116429D01*
X94942357Y-121973571D01*
X94942357Y-121795000D01*
X94978071Y-121652143D01*
X95013786Y-121580714D01*
X95049500Y-121545000D01*
X95120929Y-121509286D01*
X101558286Y-119862143D02*
X101201143Y-120112143D01*
X101558286Y-120290715D02*
X100808286Y-120290715D01*
X100808286Y-120005000D01*
X100844000Y-119933572D01*
X100879714Y-119897857D01*
X100951143Y-119862143D01*
X101058286Y-119862143D01*
X101129714Y-119897857D01*
X101165429Y-119933572D01*
X101201143Y-120005000D01*
X101201143Y-120290715D01*
X100808286Y-119612143D02*
X100808286Y-119112143D01*
X101558286Y-119433572D01*
X101558286Y-118433571D02*
X101558286Y-118862143D01*
X101558286Y-118647857D02*
X100808286Y-118647857D01*
X100915429Y-118719286D01*
X100986857Y-118790714D01*
X101022571Y-118862143D01*
X100415286Y-119925643D02*
X100058143Y-120175643D01*
X100415286Y-120354215D02*
X99665286Y-120354215D01*
X99665286Y-120068500D01*
X99701000Y-119997072D01*
X99736714Y-119961357D01*
X99808143Y-119925643D01*
X99915286Y-119925643D01*
X99986714Y-119961357D01*
X100022429Y-119997072D01*
X100058143Y-120068500D01*
X100058143Y-120354215D01*
X99665286Y-119675643D02*
X99665286Y-119175643D01*
X100415286Y-119497072D01*
X99736714Y-118925643D02*
X99701000Y-118889929D01*
X99665286Y-118818500D01*
X99665286Y-118639929D01*
X99701000Y-118568500D01*
X99736714Y-118532786D01*
X99808143Y-118497071D01*
X99879571Y-118497071D01*
X99986714Y-118532786D01*
X100415286Y-118961357D01*
X100415286Y-118497071D01*
X99208786Y-119862143D02*
X98851643Y-120112143D01*
X99208786Y-120290715D02*
X98458786Y-120290715D01*
X98458786Y-120005000D01*
X98494500Y-119933572D01*
X98530214Y-119897857D01*
X98601643Y-119862143D01*
X98708786Y-119862143D01*
X98780214Y-119897857D01*
X98815929Y-119933572D01*
X98851643Y-120005000D01*
X98851643Y-120290715D01*
X98458786Y-119612143D02*
X98458786Y-119112143D01*
X99208786Y-119433572D01*
X98458786Y-118897857D02*
X98458786Y-118433571D01*
X98744500Y-118683571D01*
X98744500Y-118576429D01*
X98780214Y-118505000D01*
X98815929Y-118469286D01*
X98887357Y-118433571D01*
X99065929Y-118433571D01*
X99137357Y-118469286D01*
X99173071Y-118505000D01*
X99208786Y-118576429D01*
X99208786Y-118790714D01*
X99173071Y-118862143D01*
X99137357Y-118897857D01*
X98002286Y-119862143D02*
X97645143Y-120112143D01*
X98002286Y-120290715D02*
X97252286Y-120290715D01*
X97252286Y-120005000D01*
X97288000Y-119933572D01*
X97323714Y-119897857D01*
X97395143Y-119862143D01*
X97502286Y-119862143D01*
X97573714Y-119897857D01*
X97609429Y-119933572D01*
X97645143Y-120005000D01*
X97645143Y-120290715D01*
X97252286Y-119612143D02*
X97252286Y-119112143D01*
X98002286Y-119433572D01*
X97502286Y-118505000D02*
X98002286Y-118505000D01*
X97216571Y-118683571D02*
X97752286Y-118862143D01*
X97752286Y-118397857D01*
X96859286Y-119798643D02*
X96502143Y-120048643D01*
X96859286Y-120227215D02*
X96109286Y-120227215D01*
X96109286Y-119941500D01*
X96145000Y-119870072D01*
X96180714Y-119834357D01*
X96252143Y-119798643D01*
X96359286Y-119798643D01*
X96430714Y-119834357D01*
X96466429Y-119870072D01*
X96502143Y-119941500D01*
X96502143Y-120227215D01*
X96109286Y-119548643D02*
X96109286Y-119048643D01*
X96859286Y-119370072D01*
X96109286Y-118405786D02*
X96109286Y-118762929D01*
X96466429Y-118798643D01*
X96430714Y-118762929D01*
X96395000Y-118691500D01*
X96395000Y-118512929D01*
X96430714Y-118441500D01*
X96466429Y-118405786D01*
X96537857Y-118370071D01*
X96716429Y-118370071D01*
X96787857Y-118405786D01*
X96823571Y-118441500D01*
X96859286Y-118512929D01*
X96859286Y-118691500D01*
X96823571Y-118762929D01*
X96787857Y-118798643D01*
X93307357Y-125815286D02*
X93057357Y-125458143D01*
X92878785Y-125815286D02*
X92878785Y-125065286D01*
X93164500Y-125065286D01*
X93235928Y-125101000D01*
X93271643Y-125136714D01*
X93307357Y-125208143D01*
X93307357Y-125315286D01*
X93271643Y-125386714D01*
X93235928Y-125422429D01*
X93164500Y-125458143D01*
X92878785Y-125458143D01*
X93557357Y-125065286D02*
X94057357Y-125065286D01*
X93735928Y-125815286D01*
X94664500Y-125065286D02*
X94521643Y-125065286D01*
X94450214Y-125101000D01*
X94414500Y-125136714D01*
X94343071Y-125243857D01*
X94307357Y-125386714D01*
X94307357Y-125672429D01*
X94343071Y-125743857D01*
X94378786Y-125779571D01*
X94450214Y-125815286D01*
X94593071Y-125815286D01*
X94664500Y-125779571D01*
X94700214Y-125743857D01*
X94735929Y-125672429D01*
X94735929Y-125493857D01*
X94700214Y-125422429D01*
X94664500Y-125386714D01*
X94593071Y-125351000D01*
X94450214Y-125351000D01*
X94378786Y-125386714D01*
X94343071Y-125422429D01*
X94307357Y-125493857D01*
X93366786Y-123354643D02*
X93009643Y-123604643D01*
X93366786Y-123783215D02*
X92616786Y-123783215D01*
X92616786Y-123497500D01*
X92652500Y-123426072D01*
X92688214Y-123390357D01*
X92759643Y-123354643D01*
X92866786Y-123354643D01*
X92938214Y-123390357D01*
X92973929Y-123426072D01*
X93009643Y-123497500D01*
X93009643Y-123783215D01*
X92616786Y-123104643D02*
X92616786Y-122604643D01*
X93366786Y-122926072D01*
X92616786Y-122390357D02*
X92616786Y-121890357D01*
X93366786Y-122211786D01*
X98895357Y-147913286D02*
X98645357Y-147556143D01*
X98466785Y-147913286D02*
X98466785Y-147163286D01*
X98752500Y-147163286D01*
X98823928Y-147199000D01*
X98859643Y-147234714D01*
X98895357Y-147306143D01*
X98895357Y-147413286D01*
X98859643Y-147484714D01*
X98823928Y-147520429D01*
X98752500Y-147556143D01*
X98466785Y-147556143D01*
X99145357Y-147163286D02*
X99645357Y-147163286D01*
X99323928Y-147913286D01*
X100038214Y-147484714D02*
X99966786Y-147449000D01*
X99931071Y-147413286D01*
X99895357Y-147341857D01*
X99895357Y-147306143D01*
X99931071Y-147234714D01*
X99966786Y-147199000D01*
X100038214Y-147163286D01*
X100181071Y-147163286D01*
X100252500Y-147199000D01*
X100288214Y-147234714D01*
X100323929Y-147306143D01*
X100323929Y-147341857D01*
X100288214Y-147413286D01*
X100252500Y-147449000D01*
X100181071Y-147484714D01*
X100038214Y-147484714D01*
X99966786Y-147520429D01*
X99931071Y-147556143D01*
X99895357Y-147627571D01*
X99895357Y-147770429D01*
X99931071Y-147841857D01*
X99966786Y-147877571D01*
X100038214Y-147913286D01*
X100181071Y-147913286D01*
X100252500Y-147877571D01*
X100288214Y-147841857D01*
X100323929Y-147770429D01*
X100323929Y-147627571D01*
X100288214Y-147556143D01*
X100252500Y-147520429D01*
X100181071Y-147484714D01*
X106070857Y-131339786D02*
X105820857Y-130982643D01*
X105642285Y-131339786D02*
X105642285Y-130589786D01*
X105928000Y-130589786D01*
X105999428Y-130625500D01*
X106035143Y-130661214D01*
X106070857Y-130732643D01*
X106070857Y-130839786D01*
X106035143Y-130911214D01*
X105999428Y-130946929D01*
X105928000Y-130982643D01*
X105642285Y-130982643D01*
X106320857Y-130589786D02*
X106820857Y-130589786D01*
X106499428Y-131339786D01*
X107142286Y-131339786D02*
X107285143Y-131339786D01*
X107356571Y-131304071D01*
X107392286Y-131268357D01*
X107463714Y-131161214D01*
X107499429Y-131018357D01*
X107499429Y-130732643D01*
X107463714Y-130661214D01*
X107428000Y-130625500D01*
X107356571Y-130589786D01*
X107213714Y-130589786D01*
X107142286Y-130625500D01*
X107106571Y-130661214D01*
X107070857Y-130732643D01*
X107070857Y-130911214D01*
X107106571Y-130982643D01*
X107142286Y-131018357D01*
X107213714Y-131054071D01*
X107356571Y-131054071D01*
X107428000Y-131018357D01*
X107463714Y-130982643D01*
X107499429Y-130911214D01*
X106070857Y-132292286D02*
X105820857Y-131935143D01*
X105642285Y-132292286D02*
X105642285Y-131542286D01*
X105928000Y-131542286D01*
X105999428Y-131578000D01*
X106035143Y-131613714D01*
X106070857Y-131685143D01*
X106070857Y-131792286D01*
X106035143Y-131863714D01*
X105999428Y-131899429D01*
X105928000Y-131935143D01*
X105642285Y-131935143D01*
X106499428Y-131863714D02*
X106428000Y-131828000D01*
X106392285Y-131792286D01*
X106356571Y-131720857D01*
X106356571Y-131685143D01*
X106392285Y-131613714D01*
X106428000Y-131578000D01*
X106499428Y-131542286D01*
X106642285Y-131542286D01*
X106713714Y-131578000D01*
X106749428Y-131613714D01*
X106785143Y-131685143D01*
X106785143Y-131720857D01*
X106749428Y-131792286D01*
X106713714Y-131828000D01*
X106642285Y-131863714D01*
X106499428Y-131863714D01*
X106428000Y-131899429D01*
X106392285Y-131935143D01*
X106356571Y-132006571D01*
X106356571Y-132149429D01*
X106392285Y-132220857D01*
X106428000Y-132256571D01*
X106499428Y-132292286D01*
X106642285Y-132292286D01*
X106713714Y-132256571D01*
X106749428Y-132220857D01*
X106785143Y-132149429D01*
X106785143Y-132006571D01*
X106749428Y-131935143D01*
X106713714Y-131899429D01*
X106642285Y-131863714D01*
X107249429Y-131542286D02*
X107320857Y-131542286D01*
X107392286Y-131578000D01*
X107428000Y-131613714D01*
X107463714Y-131685143D01*
X107499429Y-131828000D01*
X107499429Y-132006571D01*
X107463714Y-132149429D01*
X107428000Y-132220857D01*
X107392286Y-132256571D01*
X107320857Y-132292286D01*
X107249429Y-132292286D01*
X107178000Y-132256571D01*
X107142286Y-132220857D01*
X107106571Y-132149429D01*
X107070857Y-132006571D01*
X107070857Y-131828000D01*
X107106571Y-131685143D01*
X107142286Y-131613714D01*
X107178000Y-131578000D01*
X107249429Y-131542286D01*
X106070857Y-133308286D02*
X105820857Y-132951143D01*
X105642285Y-133308286D02*
X105642285Y-132558286D01*
X105928000Y-132558286D01*
X105999428Y-132594000D01*
X106035143Y-132629714D01*
X106070857Y-132701143D01*
X106070857Y-132808286D01*
X106035143Y-132879714D01*
X105999428Y-132915429D01*
X105928000Y-132951143D01*
X105642285Y-132951143D01*
X106499428Y-132879714D02*
X106428000Y-132844000D01*
X106392285Y-132808286D01*
X106356571Y-132736857D01*
X106356571Y-132701143D01*
X106392285Y-132629714D01*
X106428000Y-132594000D01*
X106499428Y-132558286D01*
X106642285Y-132558286D01*
X106713714Y-132594000D01*
X106749428Y-132629714D01*
X106785143Y-132701143D01*
X106785143Y-132736857D01*
X106749428Y-132808286D01*
X106713714Y-132844000D01*
X106642285Y-132879714D01*
X106499428Y-132879714D01*
X106428000Y-132915429D01*
X106392285Y-132951143D01*
X106356571Y-133022571D01*
X106356571Y-133165429D01*
X106392285Y-133236857D01*
X106428000Y-133272571D01*
X106499428Y-133308286D01*
X106642285Y-133308286D01*
X106713714Y-133272571D01*
X106749428Y-133236857D01*
X106785143Y-133165429D01*
X106785143Y-133022571D01*
X106749428Y-132951143D01*
X106713714Y-132915429D01*
X106642285Y-132879714D01*
X107499429Y-133308286D02*
X107070857Y-133308286D01*
X107285143Y-133308286D02*
X107285143Y-132558286D01*
X107213714Y-132665429D01*
X107142286Y-132736857D01*
X107070857Y-132772571D01*
X106007357Y-134260786D02*
X105757357Y-133903643D01*
X105578785Y-134260786D02*
X105578785Y-133510786D01*
X105864500Y-133510786D01*
X105935928Y-133546500D01*
X105971643Y-133582214D01*
X106007357Y-133653643D01*
X106007357Y-133760786D01*
X105971643Y-133832214D01*
X105935928Y-133867929D01*
X105864500Y-133903643D01*
X105578785Y-133903643D01*
X106435928Y-133832214D02*
X106364500Y-133796500D01*
X106328785Y-133760786D01*
X106293071Y-133689357D01*
X106293071Y-133653643D01*
X106328785Y-133582214D01*
X106364500Y-133546500D01*
X106435928Y-133510786D01*
X106578785Y-133510786D01*
X106650214Y-133546500D01*
X106685928Y-133582214D01*
X106721643Y-133653643D01*
X106721643Y-133689357D01*
X106685928Y-133760786D01*
X106650214Y-133796500D01*
X106578785Y-133832214D01*
X106435928Y-133832214D01*
X106364500Y-133867929D01*
X106328785Y-133903643D01*
X106293071Y-133975071D01*
X106293071Y-134117929D01*
X106328785Y-134189357D01*
X106364500Y-134225071D01*
X106435928Y-134260786D01*
X106578785Y-134260786D01*
X106650214Y-134225071D01*
X106685928Y-134189357D01*
X106721643Y-134117929D01*
X106721643Y-133975071D01*
X106685928Y-133903643D01*
X106650214Y-133867929D01*
X106578785Y-133832214D01*
X107007357Y-133582214D02*
X107043071Y-133546500D01*
X107114500Y-133510786D01*
X107293071Y-133510786D01*
X107364500Y-133546500D01*
X107400214Y-133582214D01*
X107435929Y-133653643D01*
X107435929Y-133725071D01*
X107400214Y-133832214D01*
X106971643Y-134260786D01*
X107435929Y-134260786D01*
X105943857Y-146770286D02*
X105693857Y-146413143D01*
X105515285Y-146770286D02*
X105515285Y-146020286D01*
X105801000Y-146020286D01*
X105872428Y-146056000D01*
X105908143Y-146091714D01*
X105943857Y-146163143D01*
X105943857Y-146270286D01*
X105908143Y-146341714D01*
X105872428Y-146377429D01*
X105801000Y-146413143D01*
X105515285Y-146413143D01*
X106372428Y-146341714D02*
X106301000Y-146306000D01*
X106265285Y-146270286D01*
X106229571Y-146198857D01*
X106229571Y-146163143D01*
X106265285Y-146091714D01*
X106301000Y-146056000D01*
X106372428Y-146020286D01*
X106515285Y-146020286D01*
X106586714Y-146056000D01*
X106622428Y-146091714D01*
X106658143Y-146163143D01*
X106658143Y-146198857D01*
X106622428Y-146270286D01*
X106586714Y-146306000D01*
X106515285Y-146341714D01*
X106372428Y-146341714D01*
X106301000Y-146377429D01*
X106265285Y-146413143D01*
X106229571Y-146484571D01*
X106229571Y-146627429D01*
X106265285Y-146698857D01*
X106301000Y-146734571D01*
X106372428Y-146770286D01*
X106515285Y-146770286D01*
X106586714Y-146734571D01*
X106622428Y-146698857D01*
X106658143Y-146627429D01*
X106658143Y-146484571D01*
X106622428Y-146413143D01*
X106586714Y-146377429D01*
X106515285Y-146341714D01*
X106908143Y-146020286D02*
X107372429Y-146020286D01*
X107122429Y-146306000D01*
X107229571Y-146306000D01*
X107301000Y-146341714D01*
X107336714Y-146377429D01*
X107372429Y-146448857D01*
X107372429Y-146627429D01*
X107336714Y-146698857D01*
X107301000Y-146734571D01*
X107229571Y-146770286D01*
X107015286Y-146770286D01*
X106943857Y-146734571D01*
X106908143Y-146698857D01*
X107467857Y-153120286D02*
X107217857Y-152763143D01*
X107039285Y-153120286D02*
X107039285Y-152370286D01*
X107325000Y-152370286D01*
X107396428Y-152406000D01*
X107432143Y-152441714D01*
X107467857Y-152513143D01*
X107467857Y-152620286D01*
X107432143Y-152691714D01*
X107396428Y-152727429D01*
X107325000Y-152763143D01*
X107039285Y-152763143D01*
X107896428Y-152691714D02*
X107825000Y-152656000D01*
X107789285Y-152620286D01*
X107753571Y-152548857D01*
X107753571Y-152513143D01*
X107789285Y-152441714D01*
X107825000Y-152406000D01*
X107896428Y-152370286D01*
X108039285Y-152370286D01*
X108110714Y-152406000D01*
X108146428Y-152441714D01*
X108182143Y-152513143D01*
X108182143Y-152548857D01*
X108146428Y-152620286D01*
X108110714Y-152656000D01*
X108039285Y-152691714D01*
X107896428Y-152691714D01*
X107825000Y-152727429D01*
X107789285Y-152763143D01*
X107753571Y-152834571D01*
X107753571Y-152977429D01*
X107789285Y-153048857D01*
X107825000Y-153084571D01*
X107896428Y-153120286D01*
X108039285Y-153120286D01*
X108110714Y-153084571D01*
X108146428Y-153048857D01*
X108182143Y-152977429D01*
X108182143Y-152834571D01*
X108146428Y-152763143D01*
X108110714Y-152727429D01*
X108039285Y-152691714D01*
X108825000Y-152620286D02*
X108825000Y-153120286D01*
X108646429Y-152334571D02*
X108467857Y-152870286D01*
X108932143Y-152870286D01*
X147010886Y-125387029D02*
X147618029Y-125387029D01*
X147689457Y-125351314D01*
X147725171Y-125315600D01*
X147760886Y-125244171D01*
X147760886Y-125101314D01*
X147725171Y-125029886D01*
X147689457Y-124994171D01*
X147618029Y-124958457D01*
X147010886Y-124958457D01*
X147760886Y-124208457D02*
X147760886Y-124637029D01*
X147760886Y-124422743D02*
X147010886Y-124422743D01*
X147118029Y-124494172D01*
X147189457Y-124565600D01*
X147225171Y-124637029D01*
X118491071Y-123922286D02*
X118491071Y-124529429D01*
X118526786Y-124600857D01*
X118562500Y-124636571D01*
X118633929Y-124672286D01*
X118776786Y-124672286D01*
X118848214Y-124636571D01*
X118883929Y-124600857D01*
X118919643Y-124529429D01*
X118919643Y-123922286D01*
X119241071Y-123993714D02*
X119276785Y-123958000D01*
X119348214Y-123922286D01*
X119526785Y-123922286D01*
X119598214Y-123958000D01*
X119633928Y-123993714D01*
X119669643Y-124065143D01*
X119669643Y-124136571D01*
X119633928Y-124243714D01*
X119205357Y-124672286D01*
X119669643Y-124672286D01*
X101917571Y-114587786D02*
X101917571Y-115194929D01*
X101953286Y-115266357D01*
X101989000Y-115302071D01*
X102060429Y-115337786D01*
X102203286Y-115337786D01*
X102274714Y-115302071D01*
X102310429Y-115266357D01*
X102346143Y-115194929D01*
X102346143Y-114587786D01*
X102631857Y-114587786D02*
X103096143Y-114587786D01*
X102846143Y-114873500D01*
X102953285Y-114873500D01*
X103024714Y-114909214D01*
X103060428Y-114944929D01*
X103096143Y-115016357D01*
X103096143Y-115194929D01*
X103060428Y-115266357D01*
X103024714Y-115302071D01*
X102953285Y-115337786D01*
X102739000Y-115337786D01*
X102667571Y-115302071D01*
X102631857Y-115266357D01*
X120269071Y-150147786D02*
X120269071Y-150754929D01*
X120304786Y-150826357D01*
X120340500Y-150862071D01*
X120411929Y-150897786D01*
X120554786Y-150897786D01*
X120626214Y-150862071D01*
X120661929Y-150826357D01*
X120697643Y-150754929D01*
X120697643Y-150147786D01*
X121376214Y-150397786D02*
X121376214Y-150897786D01*
X121197643Y-150112071D02*
X121019071Y-150647786D01*
X121483357Y-150647786D01*
X121255286Y-132651429D02*
X121862429Y-132651429D01*
X121933857Y-132615714D01*
X121969571Y-132580000D01*
X122005286Y-132508571D01*
X122005286Y-132365714D01*
X121969571Y-132294286D01*
X121933857Y-132258571D01*
X121862429Y-132222857D01*
X121255286Y-132222857D01*
X121255286Y-131544286D02*
X121255286Y-131687143D01*
X121291000Y-131758572D01*
X121326714Y-131794286D01*
X121433857Y-131865715D01*
X121576714Y-131901429D01*
X121862429Y-131901429D01*
X121933857Y-131865715D01*
X121969571Y-131830000D01*
X122005286Y-131758572D01*
X122005286Y-131615715D01*
X121969571Y-131544286D01*
X121933857Y-131508572D01*
X121862429Y-131472857D01*
X121683857Y-131472857D01*
X121612429Y-131508572D01*
X121576714Y-131544286D01*
X121541000Y-131615715D01*
X121541000Y-131758572D01*
X121576714Y-131830000D01*
X121612429Y-131865715D01*
X121683857Y-131901429D01*
X121255286Y-134429429D02*
X121862429Y-134429429D01*
X121933857Y-134393714D01*
X121969571Y-134358000D01*
X122005286Y-134286571D01*
X122005286Y-134143714D01*
X121969571Y-134072286D01*
X121933857Y-134036571D01*
X121862429Y-134000857D01*
X121255286Y-134000857D01*
X121255286Y-133715143D02*
X121255286Y-133215143D01*
X122005286Y-133536572D01*
X144360971Y-118613686D02*
X144360971Y-119220829D01*
X144396686Y-119292257D01*
X144432400Y-119327971D01*
X144503829Y-119363686D01*
X144646686Y-119363686D01*
X144718114Y-119327971D01*
X144753829Y-119292257D01*
X144789543Y-119220829D01*
X144789543Y-118613686D01*
X145253828Y-118935114D02*
X145182400Y-118899400D01*
X145146685Y-118863686D01*
X145110971Y-118792257D01*
X145110971Y-118756543D01*
X145146685Y-118685114D01*
X145182400Y-118649400D01*
X145253828Y-118613686D01*
X145396685Y-118613686D01*
X145468114Y-118649400D01*
X145503828Y-118685114D01*
X145539543Y-118756543D01*
X145539543Y-118792257D01*
X145503828Y-118863686D01*
X145468114Y-118899400D01*
X145396685Y-118935114D01*
X145253828Y-118935114D01*
X145182400Y-118970829D01*
X145146685Y-119006543D01*
X145110971Y-119077971D01*
X145110971Y-119220829D01*
X145146685Y-119292257D01*
X145182400Y-119327971D01*
X145253828Y-119363686D01*
X145396685Y-119363686D01*
X145468114Y-119327971D01*
X145503828Y-119292257D01*
X145539543Y-119220829D01*
X145539543Y-119077971D01*
X145503828Y-119006543D01*
X145468114Y-118970829D01*
X145396685Y-118935114D01*
X138176071Y-155862786D02*
X138176071Y-156469929D01*
X138211786Y-156541357D01*
X138247500Y-156577071D01*
X138318929Y-156612786D01*
X138461786Y-156612786D01*
X138533214Y-156577071D01*
X138568929Y-156541357D01*
X138604643Y-156469929D01*
X138604643Y-155862786D01*
X138997500Y-156612786D02*
X139140357Y-156612786D01*
X139211785Y-156577071D01*
X139247500Y-156541357D01*
X139318928Y-156434214D01*
X139354643Y-156291357D01*
X139354643Y-156005643D01*
X139318928Y-155934214D01*
X139283214Y-155898500D01*
X139211785Y-155862786D01*
X139068928Y-155862786D01*
X138997500Y-155898500D01*
X138961785Y-155934214D01*
X138926071Y-156005643D01*
X138926071Y-156184214D01*
X138961785Y-156255643D01*
X138997500Y-156291357D01*
X139068928Y-156327071D01*
X139211785Y-156327071D01*
X139283214Y-156291357D01*
X139318928Y-156255643D01*
X139354643Y-156184214D01*
X107592928Y-124938286D02*
X107592928Y-125545429D01*
X107628643Y-125616857D01*
X107664357Y-125652571D01*
X107735786Y-125688286D01*
X107878643Y-125688286D01*
X107950071Y-125652571D01*
X107985786Y-125616857D01*
X108021500Y-125545429D01*
X108021500Y-124938286D01*
X108771500Y-125688286D02*
X108342928Y-125688286D01*
X108557214Y-125688286D02*
X108557214Y-124938286D01*
X108485785Y-125045429D01*
X108414357Y-125116857D01*
X108342928Y-125152571D01*
X109235786Y-124938286D02*
X109307214Y-124938286D01*
X109378643Y-124974000D01*
X109414357Y-125009714D01*
X109450071Y-125081143D01*
X109485786Y-125224000D01*
X109485786Y-125402571D01*
X109450071Y-125545429D01*
X109414357Y-125616857D01*
X109378643Y-125652571D01*
X109307214Y-125688286D01*
X109235786Y-125688286D01*
X109164357Y-125652571D01*
X109128643Y-125616857D01*
X109092928Y-125545429D01*
X109057214Y-125402571D01*
X109057214Y-125224000D01*
X109092928Y-125081143D01*
X109128643Y-125009714D01*
X109164357Y-124974000D01*
X109235786Y-124938286D01*
X107529428Y-133320286D02*
X107529428Y-133927429D01*
X107565143Y-133998857D01*
X107600857Y-134034571D01*
X107672286Y-134070286D01*
X107815143Y-134070286D01*
X107886571Y-134034571D01*
X107922286Y-133998857D01*
X107958000Y-133927429D01*
X107958000Y-133320286D01*
X108708000Y-134070286D02*
X108279428Y-134070286D01*
X108493714Y-134070286D02*
X108493714Y-133320286D01*
X108422285Y-133427429D01*
X108350857Y-133498857D01*
X108279428Y-133534571D01*
X109422286Y-134070286D02*
X108993714Y-134070286D01*
X109208000Y-134070286D02*
X109208000Y-133320286D01*
X109136571Y-133427429D01*
X109065143Y-133498857D01*
X108993714Y-133534571D01*
X98770357Y-143607286D02*
X99270357Y-144357286D01*
X99270357Y-143607286D02*
X98770357Y-144357286D01*
X99948929Y-144357286D02*
X99520357Y-144357286D01*
X99734643Y-144357286D02*
X99734643Y-143607286D01*
X99663214Y-143714429D01*
X99591786Y-143785857D01*
X99520357Y-143821571D01*
X120673858Y-135110143D02*
X120673858Y-135467286D01*
X120423858Y-134717286D02*
X120673858Y-135110143D01*
X120923858Y-134717286D01*
X121566715Y-135467286D02*
X121138143Y-135467286D01*
X121352429Y-135467286D02*
X121352429Y-134717286D01*
X121281000Y-134824429D01*
X121209572Y-134895857D01*
X121138143Y-134931571D01*
X123531358Y-146540143D02*
X123531358Y-146897286D01*
X123281358Y-146147286D02*
X123531358Y-146540143D01*
X123781358Y-146147286D01*
X123995643Y-146218714D02*
X124031357Y-146183000D01*
X124102786Y-146147286D01*
X124281357Y-146147286D01*
X124352786Y-146183000D01*
X124388500Y-146218714D01*
X124424215Y-146290143D01*
X124424215Y-146361571D01*
X124388500Y-146468714D01*
X123959929Y-146897286D01*
X124424215Y-146897286D01*
X130006286Y-157069143D02*
X129256286Y-157069143D01*
X129934857Y-156283428D02*
X129970571Y-156319142D01*
X130006286Y-156426285D01*
X130006286Y-156497714D01*
X129970571Y-156604857D01*
X129899143Y-156676285D01*
X129827714Y-156712000D01*
X129684857Y-156747714D01*
X129577714Y-156747714D01*
X129434857Y-156712000D01*
X129363429Y-156676285D01*
X129292000Y-156604857D01*
X129256286Y-156497714D01*
X129256286Y-156426285D01*
X129292000Y-156319142D01*
X129327714Y-156283428D01*
X129327714Y-155997714D02*
X129292000Y-155962000D01*
X129256286Y-155890571D01*
X129256286Y-155712000D01*
X129292000Y-155640571D01*
X129327714Y-155604857D01*
X129399143Y-155569142D01*
X129470571Y-155569142D01*
X129577714Y-155604857D01*
X130006286Y-156033428D01*
X130006286Y-155569142D01*
X103788857Y-125561286D02*
X103788857Y-124811286D01*
X104574572Y-125489857D02*
X104538858Y-125525571D01*
X104431715Y-125561286D01*
X104360286Y-125561286D01*
X104253143Y-125525571D01*
X104181715Y-125454143D01*
X104146000Y-125382714D01*
X104110286Y-125239857D01*
X104110286Y-125132714D01*
X104146000Y-124989857D01*
X104181715Y-124918429D01*
X104253143Y-124847000D01*
X104360286Y-124811286D01*
X104431715Y-124811286D01*
X104538858Y-124847000D01*
X104574572Y-124882714D01*
X105217429Y-125061286D02*
X105217429Y-125561286D01*
X105038858Y-124775571D02*
X104860286Y-125311286D01*
X105324572Y-125311286D01*
X125912257Y-123275286D02*
X125912257Y-122525286D01*
X126697972Y-123203857D02*
X126662258Y-123239571D01*
X126555115Y-123275286D01*
X126483686Y-123275286D01*
X126376543Y-123239571D01*
X126305115Y-123168143D01*
X126269400Y-123096714D01*
X126233686Y-122953857D01*
X126233686Y-122846714D01*
X126269400Y-122703857D01*
X126305115Y-122632429D01*
X126376543Y-122561000D01*
X126483686Y-122525286D01*
X126555115Y-122525286D01*
X126662258Y-122561000D01*
X126697972Y-122596714D01*
X126947972Y-122525286D02*
X127412258Y-122525286D01*
X127162258Y-122811000D01*
X127269400Y-122811000D01*
X127340829Y-122846714D01*
X127376543Y-122882429D01*
X127412258Y-122953857D01*
X127412258Y-123132429D01*
X127376543Y-123203857D01*
X127340829Y-123239571D01*
X127269400Y-123275286D01*
X127055115Y-123275286D01*
X126983686Y-123239571D01*
X126947972Y-123203857D01*
D18*
X128545226Y-118716220D02*
X128545226Y-118593574D01*
X128620700Y-118659614D01*
X128620700Y-118631312D01*
X128630134Y-118612443D01*
X128639569Y-118603009D01*
X128658437Y-118593574D01*
X128705609Y-118593574D01*
X128724477Y-118603009D01*
X128733911Y-118612443D01*
X128743346Y-118631312D01*
X128743346Y-118687917D01*
X128733911Y-118706786D01*
X128724477Y-118716220D01*
X128611266Y-118112063D02*
X128743346Y-118112063D01*
X128535791Y-118159234D02*
X128677306Y-118206406D01*
X128677306Y-118083760D01*
X128545226Y-117602249D02*
X128545226Y-117696592D01*
X128639569Y-117706026D01*
X128630134Y-117696592D01*
X128620700Y-117677723D01*
X128620700Y-117630552D01*
X128630134Y-117611683D01*
X128639569Y-117602249D01*
X128658437Y-117592814D01*
X128705609Y-117592814D01*
X128724477Y-117602249D01*
X128733911Y-117611683D01*
X128743346Y-117630552D01*
X128743346Y-117677723D01*
X128733911Y-117696592D01*
X128724477Y-117706026D01*
X128545226Y-117111303D02*
X128545226Y-117149040D01*
X128554660Y-117167909D01*
X128564094Y-117177343D01*
X128592397Y-117196212D01*
X128630134Y-117205646D01*
X128705609Y-117205646D01*
X128724477Y-117196212D01*
X128733911Y-117186777D01*
X128743346Y-117167909D01*
X128743346Y-117130172D01*
X128733911Y-117111303D01*
X128724477Y-117101869D01*
X128705609Y-117092434D01*
X128658437Y-117092434D01*
X128639569Y-117101869D01*
X128630134Y-117111303D01*
X128620700Y-117130172D01*
X128620700Y-117167909D01*
X128630134Y-117186777D01*
X128639569Y-117196212D01*
X128658437Y-117205646D01*
X128545226Y-116717240D02*
X128545226Y-116585160D01*
X128743346Y-116670069D01*
X128630134Y-116172229D02*
X128620700Y-116191097D01*
X128611266Y-116200532D01*
X128592397Y-116209966D01*
X128582963Y-116209966D01*
X128564094Y-116200532D01*
X128554660Y-116191097D01*
X128545226Y-116172229D01*
X128545226Y-116134492D01*
X128554660Y-116115623D01*
X128564094Y-116106189D01*
X128582963Y-116096754D01*
X128592397Y-116096754D01*
X128611266Y-116106189D01*
X128620700Y-116115623D01*
X128630134Y-116134492D01*
X128630134Y-116172229D01*
X128639569Y-116191097D01*
X128649003Y-116200532D01*
X128667871Y-116209966D01*
X128705609Y-116209966D01*
X128724477Y-116200532D01*
X128733911Y-116191097D01*
X128743346Y-116172229D01*
X128743346Y-116134492D01*
X128733911Y-116115623D01*
X128724477Y-116106189D01*
X128705609Y-116096754D01*
X128667871Y-116096754D01*
X128649003Y-116106189D01*
X128639569Y-116115623D01*
X128630134Y-116134492D01*
X128743346Y-115690717D02*
X128743346Y-115652980D01*
X128733911Y-115634112D01*
X128724477Y-115624677D01*
X128696174Y-115605809D01*
X128658437Y-115596374D01*
X128582963Y-115596374D01*
X128564094Y-115605809D01*
X128554660Y-115615243D01*
X128545226Y-115634112D01*
X128545226Y-115671849D01*
X128554660Y-115690717D01*
X128564094Y-115700152D01*
X128582963Y-115709586D01*
X128630134Y-115709586D01*
X128649003Y-115700152D01*
X128658437Y-115690717D01*
X128667871Y-115671849D01*
X128667871Y-115634112D01*
X128658437Y-115615243D01*
X128649003Y-115605809D01*
X128630134Y-115596374D01*
X128743346Y-115091277D02*
X128743346Y-115204489D01*
X128743346Y-115147883D02*
X128545226Y-115147883D01*
X128573529Y-115166752D01*
X128592397Y-115185620D01*
X128601831Y-115204489D01*
X128545226Y-114968631D02*
X128545226Y-114949763D01*
X128554660Y-114930894D01*
X128564094Y-114921460D01*
X128582963Y-114912026D01*
X128620700Y-114902591D01*
X128667871Y-114902591D01*
X128705609Y-114912026D01*
X128724477Y-114921460D01*
X128733911Y-114930894D01*
X128743346Y-114949763D01*
X128743346Y-114968631D01*
X128733911Y-114987500D01*
X128724477Y-114996934D01*
X128705609Y-115006369D01*
X128667871Y-115015803D01*
X128620700Y-115015803D01*
X128582963Y-115006369D01*
X128564094Y-114996934D01*
X128554660Y-114987500D01*
X128545226Y-114968631D01*
X128743346Y-114590897D02*
X128743346Y-114704109D01*
X128743346Y-114647503D02*
X128545226Y-114647503D01*
X128573529Y-114666372D01*
X128592397Y-114685240D01*
X128601831Y-114704109D01*
X128743346Y-114402211D02*
X128743346Y-114515423D01*
X128743346Y-114458817D02*
X128545226Y-114458817D01*
X128573529Y-114477686D01*
X128592397Y-114496554D01*
X128601831Y-114515423D01*
X128743346Y-114090517D02*
X128743346Y-114203729D01*
X128743346Y-114147123D02*
X128545226Y-114147123D01*
X128573529Y-114165992D01*
X128592397Y-114184860D01*
X128601831Y-114203729D01*
X128564094Y-114015043D02*
X128554660Y-114005609D01*
X128545226Y-113986740D01*
X128545226Y-113939569D01*
X128554660Y-113920700D01*
X128564094Y-113911266D01*
X128582963Y-113901831D01*
X128601831Y-113901831D01*
X128630134Y-113911266D01*
X128743346Y-114024477D01*
X128743346Y-113901831D01*
X128743346Y-113590137D02*
X128743346Y-113703349D01*
X128743346Y-113646743D02*
X128545226Y-113646743D01*
X128573529Y-113665612D01*
X128592397Y-113684480D01*
X128601831Y-113703349D01*
X128545226Y-113524097D02*
X128545226Y-113401451D01*
X128620700Y-113467491D01*
X128620700Y-113439189D01*
X128630134Y-113420320D01*
X128639569Y-113410886D01*
X128658437Y-113401451D01*
X128705609Y-113401451D01*
X128724477Y-113410886D01*
X128733911Y-113420320D01*
X128743346Y-113439189D01*
X128743346Y-113495794D01*
X128733911Y-113514663D01*
X128724477Y-113524097D01*
X128743346Y-113089757D02*
X128743346Y-113202969D01*
X128743346Y-113146363D02*
X128545226Y-113146363D01*
X128573529Y-113165232D01*
X128592397Y-113184100D01*
X128601831Y-113202969D01*
X128611266Y-112919940D02*
X128743346Y-112919940D01*
X128535791Y-112967111D02*
X128677306Y-113014283D01*
X128677306Y-112891637D01*
X128938200Y-119947031D02*
X128938200Y-119852688D01*
X128994806Y-119965899D02*
X128796686Y-119899859D01*
X128994806Y-119833819D01*
X129388869Y-119885709D02*
X129398303Y-119857406D01*
X129407737Y-119847971D01*
X129426606Y-119838537D01*
X129454909Y-119838537D01*
X129473777Y-119847971D01*
X129483211Y-119857406D01*
X129492646Y-119876274D01*
X129492646Y-119951749D01*
X129294526Y-119951749D01*
X129294526Y-119885709D01*
X129303960Y-119866840D01*
X129313394Y-119857406D01*
X129332263Y-119847971D01*
X129351131Y-119847971D01*
X129370000Y-119857406D01*
X129379434Y-119866840D01*
X129388869Y-119885709D01*
X129388869Y-119951749D01*
X129974157Y-119838537D02*
X129983591Y-119847971D01*
X129993026Y-119876274D01*
X129993026Y-119895143D01*
X129983591Y-119923446D01*
X129964723Y-119942314D01*
X129945854Y-119951749D01*
X129908117Y-119961183D01*
X129879814Y-119961183D01*
X129842077Y-119951749D01*
X129823209Y-119942314D01*
X129804340Y-119923446D01*
X129794906Y-119895143D01*
X129794906Y-119876274D01*
X129804340Y-119847971D01*
X129813774Y-119838537D01*
X130493406Y-119951749D02*
X130295286Y-119951749D01*
X130295286Y-119904577D01*
X130304720Y-119876274D01*
X130323589Y-119857406D01*
X130342457Y-119847971D01*
X130380194Y-119838537D01*
X130408497Y-119838537D01*
X130446234Y-119847971D01*
X130465103Y-119857406D01*
X130483971Y-119876274D01*
X130493406Y-119904577D01*
X130493406Y-119951749D01*
X130890009Y-119942314D02*
X130890009Y-119876274D01*
X130993786Y-119847971D02*
X130993786Y-119942314D01*
X130795666Y-119942314D01*
X130795666Y-119847971D01*
X131390389Y-119871557D02*
X131390389Y-119937597D01*
X131494166Y-119937597D02*
X131296046Y-119937597D01*
X131296046Y-119843254D01*
X131805860Y-119847971D02*
X131796426Y-119866840D01*
X131796426Y-119895143D01*
X131805860Y-119923446D01*
X131824729Y-119942314D01*
X131843597Y-119951749D01*
X131881334Y-119961183D01*
X131909637Y-119961183D01*
X131947374Y-119951749D01*
X131966243Y-119942314D01*
X131985111Y-119923446D01*
X131994546Y-119895143D01*
X131994546Y-119876274D01*
X131985111Y-119847971D01*
X131975677Y-119838537D01*
X131909637Y-119838537D01*
X131909637Y-119876274D01*
X132492386Y-119956466D02*
X132294266Y-119956466D01*
X132388609Y-119956466D02*
X132388609Y-119843254D01*
X132492386Y-119843254D02*
X132294266Y-119843254D01*
X132792106Y-119871557D02*
X132933620Y-119871557D01*
X132961923Y-119880991D01*
X132980791Y-119899860D01*
X132990226Y-119928163D01*
X132990226Y-119947031D01*
X133490606Y-119951749D02*
X133292486Y-119951749D01*
X133490606Y-119838537D02*
X133377394Y-119923446D01*
X133292486Y-119838537D02*
X133405697Y-119951749D01*
X133990986Y-119838537D02*
X133990986Y-119932880D01*
X133792866Y-119932880D01*
X134491366Y-119965900D02*
X134293246Y-119965900D01*
X134434760Y-119899860D01*
X134293246Y-119833820D01*
X134491366Y-119833820D01*
X134991746Y-119956466D02*
X134793626Y-119956466D01*
X134991746Y-119843254D01*
X134793626Y-119843254D01*
X135492126Y-119951749D02*
X135294006Y-119951749D01*
X135294006Y-119876274D01*
X135303440Y-119857406D01*
X135312874Y-119847971D01*
X135331743Y-119838537D01*
X135360046Y-119838537D01*
X135378914Y-119847971D01*
X135388349Y-119857406D01*
X135397783Y-119876274D01*
X135397783Y-119951749D01*
M02*
