G04 #@! TF.FileFunction,Legend,Bot*
%FSLAX46Y46*%
G04 Gerber Fmt 4.6, Leading zero omitted, Abs format (unit mm)*
G04 Created by KiCad (PCBNEW 4.0.6-e0-6349~53~ubuntu16.04.1) date Tue May  2 19:00:15 2017*
%MOMM*%
%LPD*%
G01*
G04 APERTURE LIST*
%ADD10C,0.100000*%
%ADD11C,0.203200*%
%ADD12C,0.304800*%
%ADD13C,0.150000*%
G04 APERTURE END LIST*
D10*
D11*
X104942760Y-153254100D02*
X104142560Y-153254100D01*
X104142560Y-153254100D02*
X104142560Y-156129380D01*
X120942120Y-156129380D02*
X120942120Y-153254100D01*
D12*
X105841820Y-152373480D02*
G75*
G03X105841820Y-152373480I-99060J0D01*
G01*
D11*
X120942120Y-153254100D02*
X120142760Y-153254100D01*
X120942120Y-156129380D02*
X120142760Y-156129380D01*
X104942760Y-156129380D02*
X104142560Y-156129380D01*
X157091380Y-119664580D02*
X157091380Y-118864380D01*
X157091380Y-118864380D02*
X154216100Y-118864380D01*
X154216100Y-135663940D02*
X157091380Y-135663940D01*
D12*
X158071060Y-120464580D02*
G75*
G03X158071060Y-120464580I-99060J0D01*
G01*
D11*
X157091380Y-135663940D02*
X157091380Y-134864580D01*
X154216100Y-135663940D02*
X154216100Y-134864580D01*
X154216100Y-119664580D02*
X154216100Y-118864380D01*
D13*
X102053200Y-128570486D02*
X102053200Y-129106200D01*
X102088914Y-129213343D01*
X102160343Y-129284771D01*
X102267486Y-129320486D01*
X102338914Y-129320486D01*
X101338914Y-128570486D02*
X101696057Y-128570486D01*
X101731771Y-128927629D01*
X101696057Y-128891914D01*
X101624628Y-128856200D01*
X101446057Y-128856200D01*
X101374628Y-128891914D01*
X101338914Y-128927629D01*
X101303199Y-128999057D01*
X101303199Y-129177629D01*
X101338914Y-129249057D01*
X101374628Y-129284771D01*
X101446057Y-129320486D01*
X101624628Y-129320486D01*
X101696057Y-129284771D01*
X101731771Y-129249057D01*
X102104000Y-130399286D02*
X102104000Y-130935000D01*
X102139714Y-131042143D01*
X102211143Y-131113571D01*
X102318286Y-131149286D01*
X102389714Y-131149286D01*
X101425428Y-130399286D02*
X101568285Y-130399286D01*
X101639714Y-130435000D01*
X101675428Y-130470714D01*
X101746857Y-130577857D01*
X101782571Y-130720714D01*
X101782571Y-131006429D01*
X101746857Y-131077857D01*
X101711142Y-131113571D01*
X101639714Y-131149286D01*
X101496857Y-131149286D01*
X101425428Y-131113571D01*
X101389714Y-131077857D01*
X101353999Y-131006429D01*
X101353999Y-130827857D01*
X101389714Y-130756429D01*
X101425428Y-130720714D01*
X101496857Y-130685000D01*
X101639714Y-130685000D01*
X101711142Y-130720714D01*
X101746857Y-130756429D01*
X101782571Y-130827857D01*
X102104000Y-132532886D02*
X102104000Y-133068600D01*
X102139714Y-133175743D01*
X102211143Y-133247171D01*
X102318286Y-133282886D01*
X102389714Y-133282886D01*
X101818285Y-132532886D02*
X101318285Y-132532886D01*
X101639714Y-133282886D01*
X92350400Y-142692886D02*
X92350400Y-143228600D01*
X92386114Y-143335743D01*
X92457543Y-143407171D01*
X92564686Y-143442886D01*
X92636114Y-143442886D01*
X91886114Y-143014314D02*
X91957542Y-142978600D01*
X91993257Y-142942886D01*
X92028971Y-142871457D01*
X92028971Y-142835743D01*
X91993257Y-142764314D01*
X91957542Y-142728600D01*
X91886114Y-142692886D01*
X91743257Y-142692886D01*
X91671828Y-142728600D01*
X91636114Y-142764314D01*
X91600399Y-142835743D01*
X91600399Y-142871457D01*
X91636114Y-142942886D01*
X91671828Y-142978600D01*
X91743257Y-143014314D01*
X91886114Y-143014314D01*
X91957542Y-143050029D01*
X91993257Y-143085743D01*
X92028971Y-143157171D01*
X92028971Y-143300029D01*
X91993257Y-143371457D01*
X91957542Y-143407171D01*
X91886114Y-143442886D01*
X91743257Y-143442886D01*
X91671828Y-143407171D01*
X91636114Y-143371457D01*
X91600399Y-143300029D01*
X91600399Y-143157171D01*
X91636114Y-143085743D01*
X91671828Y-143050029D01*
X91743257Y-143014314D01*
X107793600Y-131364486D02*
X107793600Y-131900200D01*
X107829314Y-132007343D01*
X107900743Y-132078771D01*
X108007886Y-132114486D01*
X108079314Y-132114486D01*
X107400742Y-132114486D02*
X107257885Y-132114486D01*
X107186457Y-132078771D01*
X107150742Y-132043057D01*
X107079314Y-131935914D01*
X107043599Y-131793057D01*
X107043599Y-131507343D01*
X107079314Y-131435914D01*
X107115028Y-131400200D01*
X107186457Y-131364486D01*
X107329314Y-131364486D01*
X107400742Y-131400200D01*
X107436457Y-131435914D01*
X107472171Y-131507343D01*
X107472171Y-131685914D01*
X107436457Y-131757343D01*
X107400742Y-131793057D01*
X107329314Y-131828771D01*
X107186457Y-131828771D01*
X107115028Y-131793057D01*
X107079314Y-131757343D01*
X107043599Y-131685914D01*
X94650643Y-142591286D02*
X94650643Y-143127000D01*
X94686357Y-143234143D01*
X94757786Y-143305571D01*
X94864929Y-143341286D01*
X94936357Y-143341286D01*
X93900642Y-143341286D02*
X94329214Y-143341286D01*
X94114928Y-143341286D02*
X94114928Y-142591286D01*
X94186357Y-142698429D01*
X94257785Y-142769857D01*
X94329214Y-142805571D01*
X93436356Y-142591286D02*
X93364928Y-142591286D01*
X93293499Y-142627000D01*
X93257785Y-142662714D01*
X93222071Y-142734143D01*
X93186356Y-142877000D01*
X93186356Y-143055571D01*
X93222071Y-143198429D01*
X93257785Y-143269857D01*
X93293499Y-143305571D01*
X93364928Y-143341286D01*
X93436356Y-143341286D01*
X93507785Y-143305571D01*
X93543499Y-143269857D01*
X93579214Y-143198429D01*
X93614928Y-143055571D01*
X93614928Y-142877000D01*
X93579214Y-142734143D01*
X93543499Y-142662714D01*
X93507785Y-142627000D01*
X93436356Y-142591286D01*
X97990743Y-142540486D02*
X97990743Y-143076200D01*
X98026457Y-143183343D01*
X98097886Y-143254771D01*
X98205029Y-143290486D01*
X98276457Y-143290486D01*
X97240742Y-143290486D02*
X97669314Y-143290486D01*
X97455028Y-143290486D02*
X97455028Y-142540486D01*
X97526457Y-142647629D01*
X97597885Y-142719057D01*
X97669314Y-142754771D01*
X96526456Y-143290486D02*
X96955028Y-143290486D01*
X96740742Y-143290486D02*
X96740742Y-142540486D01*
X96812171Y-142647629D01*
X96883599Y-142719057D01*
X96955028Y-142754771D01*
X102412143Y-146845786D02*
X102412143Y-147381500D01*
X102447857Y-147488643D01*
X102519286Y-147560071D01*
X102626429Y-147595786D01*
X102697857Y-147595786D01*
X101662142Y-147595786D02*
X102090714Y-147595786D01*
X101876428Y-147595786D02*
X101876428Y-146845786D01*
X101947857Y-146952929D01*
X102019285Y-147024357D01*
X102090714Y-147060071D01*
X101412142Y-146845786D02*
X100947856Y-146845786D01*
X101197856Y-147131500D01*
X101090714Y-147131500D01*
X101019285Y-147167214D01*
X100983571Y-147202929D01*
X100947856Y-147274357D01*
X100947856Y-147452929D01*
X100983571Y-147524357D01*
X101019285Y-147560071D01*
X101090714Y-147595786D01*
X101304999Y-147595786D01*
X101376428Y-147560071D01*
X101412142Y-147524357D01*
X100429143Y-145893286D02*
X100429143Y-146429000D01*
X100464857Y-146536143D01*
X100536286Y-146607571D01*
X100643429Y-146643286D01*
X100714857Y-146643286D01*
X99679142Y-146643286D02*
X100107714Y-146643286D01*
X99893428Y-146643286D02*
X99893428Y-145893286D01*
X99964857Y-146000429D01*
X100036285Y-146071857D01*
X100107714Y-146107571D01*
X99036285Y-146143286D02*
X99036285Y-146643286D01*
X99214856Y-145857571D02*
X99393428Y-146393286D01*
X98929142Y-146393286D01*
X150670343Y-147620486D02*
X150670343Y-148156200D01*
X150706057Y-148263343D01*
X150777486Y-148334771D01*
X150884629Y-148370486D01*
X150956057Y-148370486D01*
X149920342Y-148370486D02*
X150348914Y-148370486D01*
X150134628Y-148370486D02*
X150134628Y-147620486D01*
X150206057Y-147727629D01*
X150277485Y-147799057D01*
X150348914Y-147834771D01*
X149241771Y-147620486D02*
X149598914Y-147620486D01*
X149634628Y-147977629D01*
X149598914Y-147941914D01*
X149527485Y-147906200D01*
X149348914Y-147906200D01*
X149277485Y-147941914D01*
X149241771Y-147977629D01*
X149206056Y-148049057D01*
X149206056Y-148227629D01*
X149241771Y-148299057D01*
X149277485Y-148334771D01*
X149348914Y-148370486D01*
X149527485Y-148370486D01*
X149598914Y-148334771D01*
X149634628Y-148299057D01*
X150670343Y-143150086D02*
X150670343Y-143685800D01*
X150706057Y-143792943D01*
X150777486Y-143864371D01*
X150884629Y-143900086D01*
X150956057Y-143900086D01*
X149920342Y-143900086D02*
X150348914Y-143900086D01*
X150134628Y-143900086D02*
X150134628Y-143150086D01*
X150206057Y-143257229D01*
X150277485Y-143328657D01*
X150348914Y-143364371D01*
X149277485Y-143150086D02*
X149420342Y-143150086D01*
X149491771Y-143185800D01*
X149527485Y-143221514D01*
X149598914Y-143328657D01*
X149634628Y-143471514D01*
X149634628Y-143757229D01*
X149598914Y-143828657D01*
X149563199Y-143864371D01*
X149491771Y-143900086D01*
X149348914Y-143900086D01*
X149277485Y-143864371D01*
X149241771Y-143828657D01*
X149206056Y-143757229D01*
X149206056Y-143578657D01*
X149241771Y-143507229D01*
X149277485Y-143471514D01*
X149348914Y-143435800D01*
X149491771Y-143435800D01*
X149563199Y-143471514D01*
X149598914Y-143507229D01*
X149634628Y-143578657D01*
X139748343Y-145283686D02*
X139748343Y-145819400D01*
X139784057Y-145926543D01*
X139855486Y-145997971D01*
X139962629Y-146033686D01*
X140034057Y-146033686D01*
X138998342Y-146033686D02*
X139426914Y-146033686D01*
X139212628Y-146033686D02*
X139212628Y-145283686D01*
X139284057Y-145390829D01*
X139355485Y-145462257D01*
X139426914Y-145497971D01*
X138748342Y-145283686D02*
X138248342Y-145283686D01*
X138569771Y-146033686D01*
X150721143Y-145436086D02*
X150721143Y-145971800D01*
X150756857Y-146078943D01*
X150828286Y-146150371D01*
X150935429Y-146186086D01*
X151006857Y-146186086D01*
X149971142Y-146186086D02*
X150399714Y-146186086D01*
X150185428Y-146186086D02*
X150185428Y-145436086D01*
X150256857Y-145543229D01*
X150328285Y-145614657D01*
X150399714Y-145650371D01*
X149542571Y-145757514D02*
X149613999Y-145721800D01*
X149649714Y-145686086D01*
X149685428Y-145614657D01*
X149685428Y-145578943D01*
X149649714Y-145507514D01*
X149613999Y-145471800D01*
X149542571Y-145436086D01*
X149399714Y-145436086D01*
X149328285Y-145471800D01*
X149292571Y-145507514D01*
X149256856Y-145578943D01*
X149256856Y-145614657D01*
X149292571Y-145686086D01*
X149328285Y-145721800D01*
X149399714Y-145757514D01*
X149542571Y-145757514D01*
X149613999Y-145793229D01*
X149649714Y-145828943D01*
X149685428Y-145900371D01*
X149685428Y-146043229D01*
X149649714Y-146114657D01*
X149613999Y-146150371D01*
X149542571Y-146186086D01*
X149399714Y-146186086D01*
X149328285Y-146150371D01*
X149292571Y-146114657D01*
X149256856Y-146043229D01*
X149256856Y-145900371D01*
X149292571Y-145828943D01*
X149328285Y-145793229D01*
X149399714Y-145757514D01*
X103577200Y-154275286D02*
X103577200Y-154811000D01*
X103612914Y-154918143D01*
X103684343Y-154989571D01*
X103791486Y-155025286D01*
X103862914Y-155025286D01*
X103255771Y-154346714D02*
X103220057Y-154311000D01*
X103148628Y-154275286D01*
X102970057Y-154275286D01*
X102898628Y-154311000D01*
X102862914Y-154346714D01*
X102827199Y-154418143D01*
X102827199Y-154489571D01*
X102862914Y-154596714D01*
X103291485Y-155025286D01*
X102827199Y-155025286D01*
X155850400Y-117851686D02*
X155850400Y-118387400D01*
X155886114Y-118494543D01*
X155957543Y-118565971D01*
X156064686Y-118601686D01*
X156136114Y-118601686D01*
X155100399Y-118601686D02*
X155528971Y-118601686D01*
X155314685Y-118601686D02*
X155314685Y-117851686D01*
X155386114Y-117958829D01*
X155457542Y-118030257D01*
X155528971Y-118065971D01*
X139443543Y-126386086D02*
X139443543Y-126921800D01*
X139479257Y-127028943D01*
X139550686Y-127100371D01*
X139657829Y-127136086D01*
X139729257Y-127136086D01*
X138693542Y-127136086D02*
X139122114Y-127136086D01*
X138907828Y-127136086D02*
X138907828Y-126386086D01*
X138979257Y-126493229D01*
X139050685Y-126564657D01*
X139122114Y-126600371D01*
X138336399Y-127136086D02*
X138193542Y-127136086D01*
X138122114Y-127100371D01*
X138086399Y-127064657D01*
X138014971Y-126957514D01*
X137979256Y-126814657D01*
X137979256Y-126528943D01*
X138014971Y-126457514D01*
X138050685Y-126421800D01*
X138122114Y-126386086D01*
X138264971Y-126386086D01*
X138336399Y-126421800D01*
X138372114Y-126457514D01*
X138407828Y-126528943D01*
X138407828Y-126707514D01*
X138372114Y-126778943D01*
X138336399Y-126814657D01*
X138264971Y-126850371D01*
X138122114Y-126850371D01*
X138050685Y-126814657D01*
X138014971Y-126778943D01*
X137979256Y-126707514D01*
M02*
