G04 #@! TF.FileFunction,Soldermask,Top*
%FSLAX46Y46*%
G04 Gerber Fmt 4.6, Leading zero omitted, Abs format (unit mm)*
G04 Created by KiCad (PCBNEW 4.0.6-e0-6349~53~ubuntu16.04.1) date Sat May  6 10:48:23 2017*
%MOMM*%
%LPD*%
G01*
G04 APERTURE LIST*
%ADD10C,0.100000*%
%ADD11R,0.600000X0.800000*%
%ADD12C,0.949300*%
%ADD13R,2.700000X2.000000*%
%ADD14R,0.620000X1.090000*%
%ADD15R,1.140000X1.040000*%
%ADD16C,3.400000*%
%ADD17R,2.000000X1.200000*%
%ADD18R,2.000000X4.200000*%
%ADD19R,0.950000X1.000000*%
%ADD20R,1.000000X0.950000*%
%ADD21R,0.800000X0.700000*%
%ADD22R,0.700000X0.800000*%
%ADD23R,2.150000X1.700000*%
%ADD24R,1.200000X1.450000*%
%ADD25R,1.100000X1.000000*%
%ADD26R,1.000000X1.000000*%
%ADD27R,1.170000X1.470000*%
%ADD28R,2.399640X1.249020*%
%ADD29R,1.198220X1.249020*%
%ADD30R,1.249020X2.399640*%
%ADD31R,1.249020X1.198220*%
%ADD32R,0.900000X1.500000*%
%ADD33R,1.500000X0.900000*%
%ADD34R,0.800000X0.600000*%
%ADD35R,1.000000X1.100000*%
%ADD36R,0.850000X1.420000*%
%ADD37R,1.420000X0.850000*%
%ADD38R,4.000000X2.400000*%
%ADD39R,0.800000X2.400000*%
%ADD40R,0.850000X1.260000*%
%ADD41R,0.720000X0.500000*%
%ADD42R,0.850000X0.600000*%
%ADD43R,1.650000X0.650000*%
%ADD44R,1.200000X1.350000*%
%ADD45R,2.600000X2.200000*%
%ADD46R,1.000000X0.500000*%
%ADD47R,0.949300X0.949300*%
%ADD48R,0.598780X0.949300*%
%ADD49R,0.949300X0.598780*%
%ADD50R,1.198220X1.198220*%
%ADD51C,0.443840*%
G04 APERTURE END LIST*
D10*
D11*
X124560000Y-148450000D03*
X123660000Y-148450000D03*
D12*
X151130000Y-151130000D03*
X149860000Y-151130000D03*
X148590000Y-151130000D03*
X147320000Y-151130000D03*
X146050000Y-151130000D03*
X144780000Y-151130000D03*
X143510000Y-151130000D03*
X142240000Y-151130000D03*
X140970000Y-151130000D03*
X139700000Y-151130000D03*
X138430000Y-151130000D03*
X137160000Y-151130000D03*
X135890000Y-151130000D03*
X134620000Y-151130000D03*
X133350000Y-151130000D03*
X132080000Y-151130000D03*
X130810000Y-151130000D03*
X129540000Y-151130000D03*
X128270000Y-151130000D03*
X127000000Y-151130000D03*
X151130000Y-149860000D03*
X149860000Y-149860000D03*
X148590000Y-149860000D03*
X147320000Y-149860000D03*
X146050000Y-149860000D03*
X144780000Y-149860000D03*
X143510000Y-149860000D03*
X142240000Y-149860000D03*
X140970000Y-149860000D03*
X139700000Y-149860000D03*
X138430000Y-149860000D03*
X137160000Y-149860000D03*
X135890000Y-149860000D03*
X134620000Y-149860000D03*
X133350000Y-149860000D03*
X132080000Y-149860000D03*
X130810000Y-149860000D03*
X129540000Y-149860000D03*
X128270000Y-149860000D03*
X127000000Y-149860000D03*
X151130000Y-148590000D03*
X149860000Y-148590000D03*
X148590000Y-148590000D03*
X147320000Y-148590000D03*
X146050000Y-148590000D03*
X144780000Y-148590000D03*
X143510000Y-148590000D03*
X142240000Y-148590000D03*
X140970000Y-148590000D03*
X139700000Y-148590000D03*
X138430000Y-148590000D03*
X137160000Y-148590000D03*
X135890000Y-148590000D03*
X134620000Y-148590000D03*
X133350000Y-148590000D03*
X132080000Y-148590000D03*
X130810000Y-148590000D03*
X129540000Y-148590000D03*
X128270000Y-148590000D03*
X127000000Y-148590000D03*
X151130000Y-147320000D03*
X149860000Y-147320000D03*
X148590000Y-147320000D03*
X147320000Y-147320000D03*
X146050000Y-147320000D03*
X144780000Y-147320000D03*
X143510000Y-147320000D03*
X142240000Y-147320000D03*
X140970000Y-147320000D03*
X139700000Y-147320000D03*
X138430000Y-147320000D03*
X137160000Y-147320000D03*
X135890000Y-147320000D03*
X134620000Y-147320000D03*
X133350000Y-147320000D03*
X132080000Y-147320000D03*
X130810000Y-147320000D03*
X129540000Y-147320000D03*
X128270000Y-147320000D03*
X127000000Y-147320000D03*
X151130000Y-146050000D03*
X149860000Y-146050000D03*
X148590000Y-146050000D03*
X147320000Y-146050000D03*
X146050000Y-146050000D03*
X144780000Y-146050000D03*
X143510000Y-146050000D03*
X142240000Y-146050000D03*
X140970000Y-146050000D03*
X139700000Y-146050000D03*
X138430000Y-146050000D03*
X137160000Y-146050000D03*
X135890000Y-146050000D03*
X134620000Y-146050000D03*
X133350000Y-146050000D03*
X132080000Y-146050000D03*
X130810000Y-146050000D03*
X129540000Y-146050000D03*
X128270000Y-146050000D03*
X127000000Y-146050000D03*
X151130000Y-144780000D03*
X149860000Y-144780000D03*
X148590000Y-144780000D03*
X147320000Y-144780000D03*
X146050000Y-144780000D03*
X144780000Y-144780000D03*
X143510000Y-144780000D03*
X142240000Y-144780000D03*
X140970000Y-144780000D03*
X139700000Y-144780000D03*
X138430000Y-144780000D03*
X137160000Y-144780000D03*
X135890000Y-144780000D03*
X134620000Y-144780000D03*
X133350000Y-144780000D03*
X132080000Y-144780000D03*
X130810000Y-144780000D03*
X129540000Y-144780000D03*
X128270000Y-144780000D03*
X127000000Y-144780000D03*
X151130000Y-143510000D03*
X149860000Y-143510000D03*
X148590000Y-143510000D03*
X147320000Y-143510000D03*
X146050000Y-143510000D03*
X144780000Y-143510000D03*
X143510000Y-143510000D03*
X142240000Y-143510000D03*
X140970000Y-143510000D03*
X139700000Y-143510000D03*
X138430000Y-143510000D03*
X137160000Y-143510000D03*
X135890000Y-143510000D03*
X134620000Y-143510000D03*
X133350000Y-143510000D03*
X132080000Y-143510000D03*
X130810000Y-143510000D03*
X129540000Y-143510000D03*
X128270000Y-143510000D03*
X127000000Y-143510000D03*
X151130000Y-142240000D03*
X149860000Y-142240000D03*
X148590000Y-142240000D03*
X147320000Y-142240000D03*
X146050000Y-142240000D03*
X144780000Y-142240000D03*
X143510000Y-142240000D03*
X142240000Y-142240000D03*
X140970000Y-142240000D03*
X139700000Y-142240000D03*
X138430000Y-142240000D03*
X137160000Y-142240000D03*
X135890000Y-142240000D03*
X134620000Y-142240000D03*
X133350000Y-142240000D03*
X132080000Y-142240000D03*
X130810000Y-142240000D03*
X129540000Y-142240000D03*
X128270000Y-142240000D03*
X127000000Y-142240000D03*
X151130000Y-140970000D03*
X149860000Y-140970000D03*
X148590000Y-140970000D03*
X147320000Y-140970000D03*
X146050000Y-140970000D03*
X144780000Y-140970000D03*
X143510000Y-140970000D03*
X142240000Y-140970000D03*
X140970000Y-140970000D03*
X139700000Y-140970000D03*
X138430000Y-140970000D03*
X137160000Y-140970000D03*
X135890000Y-140970000D03*
X134620000Y-140970000D03*
X133350000Y-140970000D03*
X132080000Y-140970000D03*
X130810000Y-140970000D03*
X129540000Y-140970000D03*
X128270000Y-140970000D03*
X127000000Y-140970000D03*
X151130000Y-139700000D03*
X149860000Y-139700000D03*
X148590000Y-139700000D03*
X147320000Y-139700000D03*
X146050000Y-139700000D03*
X144780000Y-139700000D03*
X143510000Y-139700000D03*
X142240000Y-139700000D03*
X140970000Y-139700000D03*
X139700000Y-139700000D03*
X138430000Y-139700000D03*
X137160000Y-139700000D03*
X135890000Y-139700000D03*
X134620000Y-139700000D03*
X133350000Y-139700000D03*
X132080000Y-139700000D03*
X130810000Y-139700000D03*
X129540000Y-139700000D03*
X128270000Y-139700000D03*
X127000000Y-139700000D03*
X151130000Y-138430000D03*
X149860000Y-138430000D03*
X148590000Y-138430000D03*
X147320000Y-138430000D03*
X146050000Y-138430000D03*
X144780000Y-138430000D03*
X143510000Y-138430000D03*
X142240000Y-138430000D03*
X140970000Y-138430000D03*
X139700000Y-138430000D03*
X138430000Y-138430000D03*
X137160000Y-138430000D03*
X135890000Y-138430000D03*
X134620000Y-138430000D03*
X133350000Y-138430000D03*
X132080000Y-138430000D03*
X130810000Y-138430000D03*
X129540000Y-138430000D03*
X128270000Y-138430000D03*
X127000000Y-138430000D03*
X151130000Y-137160000D03*
X149860000Y-137160000D03*
X148590000Y-137160000D03*
X147320000Y-137160000D03*
X146050000Y-137160000D03*
X144780000Y-137160000D03*
X143510000Y-137160000D03*
X142240000Y-137160000D03*
X140970000Y-137160000D03*
X139700000Y-137160000D03*
X138430000Y-137160000D03*
X137160000Y-137160000D03*
X135890000Y-137160000D03*
X134620000Y-137160000D03*
X133350000Y-137160000D03*
X132080000Y-137160000D03*
X130810000Y-137160000D03*
X129540000Y-137160000D03*
X128270000Y-137160000D03*
X127000000Y-137160000D03*
X151130000Y-135890000D03*
X149860000Y-135890000D03*
X148590000Y-135890000D03*
X147320000Y-135890000D03*
X146050000Y-135890000D03*
X144780000Y-135890000D03*
X143510000Y-135890000D03*
X142240000Y-135890000D03*
X140970000Y-135890000D03*
X139700000Y-135890000D03*
X138430000Y-135890000D03*
X137160000Y-135890000D03*
X135890000Y-135890000D03*
X134620000Y-135890000D03*
X133350000Y-135890000D03*
X132080000Y-135890000D03*
X130810000Y-135890000D03*
X129540000Y-135890000D03*
X128270000Y-135890000D03*
X127000000Y-135890000D03*
X151130000Y-134620000D03*
X149860000Y-134620000D03*
X148590000Y-134620000D03*
X147320000Y-134620000D03*
X146050000Y-134620000D03*
X144780000Y-134620000D03*
X143510000Y-134620000D03*
X142240000Y-134620000D03*
X140970000Y-134620000D03*
X139700000Y-134620000D03*
X138430000Y-134620000D03*
X137160000Y-134620000D03*
X135890000Y-134620000D03*
X134620000Y-134620000D03*
X133350000Y-134620000D03*
X132080000Y-134620000D03*
X130810000Y-134620000D03*
X129540000Y-134620000D03*
X128270000Y-134620000D03*
X127000000Y-134620000D03*
X151130000Y-133350000D03*
X149860000Y-133350000D03*
X148590000Y-133350000D03*
X147320000Y-133350000D03*
X146050000Y-133350000D03*
X144780000Y-133350000D03*
X143510000Y-133350000D03*
X142240000Y-133350000D03*
X140970000Y-133350000D03*
X139700000Y-133350000D03*
X138430000Y-133350000D03*
X137160000Y-133350000D03*
X135890000Y-133350000D03*
X134620000Y-133350000D03*
X133350000Y-133350000D03*
X132080000Y-133350000D03*
X130810000Y-133350000D03*
X129540000Y-133350000D03*
X128270000Y-133350000D03*
X127000000Y-133350000D03*
X151130000Y-132080000D03*
X149860000Y-132080000D03*
X148590000Y-132080000D03*
X147320000Y-132080000D03*
X146050000Y-132080000D03*
X144780000Y-132080000D03*
X143510000Y-132080000D03*
X142240000Y-132080000D03*
X140970000Y-132080000D03*
X139700000Y-132080000D03*
X138430000Y-132080000D03*
X137160000Y-132080000D03*
X135890000Y-132080000D03*
X134620000Y-132080000D03*
X133350000Y-132080000D03*
X132080000Y-132080000D03*
X130810000Y-132080000D03*
X129540000Y-132080000D03*
X128270000Y-132080000D03*
X127000000Y-132080000D03*
X151130000Y-130810000D03*
X149860000Y-130810000D03*
X148590000Y-130810000D03*
X147320000Y-130810000D03*
X146050000Y-130810000D03*
X144780000Y-130810000D03*
X143510000Y-130810000D03*
X142240000Y-130810000D03*
X140970000Y-130810000D03*
X139700000Y-130810000D03*
X138430000Y-130810000D03*
X137160000Y-130810000D03*
X135890000Y-130810000D03*
X134620000Y-130810000D03*
X133350000Y-130810000D03*
X132080000Y-130810000D03*
X130810000Y-130810000D03*
X129540000Y-130810000D03*
X128270000Y-130810000D03*
X127000000Y-130810000D03*
X151130000Y-129540000D03*
X149860000Y-129540000D03*
X148590000Y-129540000D03*
X147320000Y-129540000D03*
X146050000Y-129540000D03*
X144780000Y-129540000D03*
X143510000Y-129540000D03*
X142240000Y-129540000D03*
X140970000Y-129540000D03*
X139700000Y-129540000D03*
X138430000Y-129540000D03*
X137160000Y-129540000D03*
X135890000Y-129540000D03*
X134620000Y-129540000D03*
X133350000Y-129540000D03*
X132080000Y-129540000D03*
X130810000Y-129540000D03*
X129540000Y-129540000D03*
X128270000Y-129540000D03*
X127000000Y-129540000D03*
X151130000Y-128270000D03*
X149860000Y-128270000D03*
X148590000Y-128270000D03*
X147320000Y-128270000D03*
X146050000Y-128270000D03*
X144780000Y-128270000D03*
X143510000Y-128270000D03*
X142240000Y-128270000D03*
X140970000Y-128270000D03*
X139700000Y-128270000D03*
X138430000Y-128270000D03*
X137160000Y-128270000D03*
X135890000Y-128270000D03*
X134620000Y-128270000D03*
X133350000Y-128270000D03*
X132080000Y-128270000D03*
X130810000Y-128270000D03*
X129540000Y-128270000D03*
X128270000Y-128270000D03*
X127000000Y-128270000D03*
X151130000Y-127000000D03*
X149860000Y-127000000D03*
X148590000Y-127000000D03*
X147320000Y-127000000D03*
X146050000Y-127000000D03*
X144780000Y-127000000D03*
X143510000Y-127000000D03*
X142240000Y-127000000D03*
X140970000Y-127000000D03*
X139700000Y-127000000D03*
X138430000Y-127000000D03*
X137160000Y-127000000D03*
X135890000Y-127000000D03*
X134620000Y-127000000D03*
X133350000Y-127000000D03*
X132080000Y-127000000D03*
X130810000Y-127000000D03*
X129540000Y-127000000D03*
X128270000Y-127000000D03*
X127000000Y-127000000D03*
D13*
X116405000Y-118650000D03*
X120405000Y-118650000D03*
D14*
X152290000Y-112800000D03*
X151640000Y-112800000D03*
X150990000Y-112800000D03*
X150340000Y-112800000D03*
X150340000Y-117010000D03*
X150990000Y-117010000D03*
X151640000Y-117010000D03*
X152290000Y-117010000D03*
D15*
X150845000Y-115325000D03*
X151785000Y-115325000D03*
X150845000Y-114485000D03*
X151785000Y-114485000D03*
D16*
X156805000Y-112750000D03*
X156805000Y-154750000D03*
X94805000Y-154750000D03*
D17*
X92205000Y-142410000D03*
D18*
X92205000Y-149310000D03*
D19*
X146785000Y-123050000D03*
X146785000Y-121550000D03*
X119405000Y-121650000D03*
X119405000Y-123150000D03*
D20*
X146050000Y-124460000D03*
X144550000Y-124460000D03*
D21*
X148690000Y-118605000D03*
X147590000Y-118605000D03*
D22*
X112905000Y-123650000D03*
X112905000Y-122550000D03*
D19*
X110405000Y-111650000D03*
X110405000Y-113150000D03*
D20*
X148690000Y-119875000D03*
X147190000Y-119875000D03*
D19*
X111405000Y-123650000D03*
X111405000Y-122150000D03*
D20*
X140970000Y-124460000D03*
X142470000Y-124460000D03*
X105537000Y-113030000D03*
X107037000Y-113030000D03*
D19*
X120115000Y-153530000D03*
X120115000Y-152030000D03*
D21*
X125605000Y-156550000D03*
X126705000Y-156550000D03*
D23*
X150575000Y-110710000D03*
X147825000Y-110710000D03*
D22*
X122605000Y-132650000D03*
X122605000Y-131550000D03*
X122605000Y-134850000D03*
X122605000Y-133750000D03*
X120105000Y-137000000D03*
X120105000Y-135900000D03*
X120105000Y-140100000D03*
X120105000Y-141200000D03*
D21*
X121905000Y-142650000D03*
X120805000Y-142650000D03*
X121855000Y-145650000D03*
X120755000Y-145650000D03*
X141605000Y-122750000D03*
X142705000Y-122750000D03*
D20*
X141355000Y-155250000D03*
X142855000Y-155250000D03*
X139705000Y-118550000D03*
X141205000Y-118550000D03*
X124605000Y-113650000D03*
X123105000Y-113650000D03*
X133005000Y-109850000D03*
X131505000Y-109850000D03*
D24*
X130105000Y-123250000D03*
X132105000Y-123250000D03*
D21*
X139705000Y-117350000D03*
X140805000Y-117350000D03*
X124605000Y-114950000D03*
X123505000Y-114950000D03*
X130105000Y-124750000D03*
X131205000Y-124750000D03*
X111205000Y-125150000D03*
X110105000Y-125150000D03*
X111205000Y-133550000D03*
X110105000Y-133550000D03*
X112305000Y-125150000D03*
X113405000Y-125150000D03*
X112305000Y-133550000D03*
X113405000Y-133550000D03*
D22*
X95105000Y-144600000D03*
X95105000Y-145700000D03*
X91805000Y-124300000D03*
X91805000Y-123200000D03*
X94105000Y-141050000D03*
X94105000Y-142150000D03*
X92205000Y-141182000D03*
X92205000Y-140082000D03*
D19*
X102205000Y-141250000D03*
X102205000Y-142750000D03*
D21*
X96555000Y-140150000D03*
X97655000Y-140150000D03*
D22*
X103505000Y-141250000D03*
X103505000Y-142350000D03*
D23*
X97255000Y-141850000D03*
X100005000Y-141850000D03*
D13*
X116405000Y-111650000D03*
X120405000Y-111650000D03*
X116405000Y-115150000D03*
X120405000Y-115150000D03*
D25*
X111905000Y-115650000D03*
X111905000Y-117550000D03*
X113905000Y-116600000D03*
D26*
X106405000Y-149350000D03*
X106405000Y-150950000D03*
X106405000Y-154450000D03*
X106405000Y-156050000D03*
D27*
X123365000Y-127650000D03*
X124645000Y-127650000D03*
D28*
X93905000Y-117876800D03*
X93905000Y-120823200D03*
D29*
X92381000Y-119350000D03*
D30*
X97073200Y-149800000D03*
X94126800Y-149800000D03*
D31*
X95600000Y-148276000D03*
D32*
X113805000Y-111650000D03*
X111905000Y-111650000D03*
D33*
X156240000Y-118960000D03*
X156240000Y-117060000D03*
X154240000Y-117060000D03*
X154240000Y-118960000D03*
D34*
X133305000Y-154900000D03*
X133305000Y-154000000D03*
X134605000Y-154900000D03*
X134605000Y-154000000D03*
D35*
X104750000Y-148950000D03*
X102850000Y-148950000D03*
X103800000Y-150950000D03*
X104800000Y-154050000D03*
X102900000Y-154050000D03*
X103850000Y-156050000D03*
D34*
X111905000Y-113150000D03*
X111905000Y-114050000D03*
X108905000Y-112700000D03*
X108905000Y-113600000D03*
D11*
X124560000Y-149720000D03*
X123660000Y-149720000D03*
X122020000Y-155435000D03*
X122920000Y-155435000D03*
D34*
X148840000Y-115360000D03*
X148840000Y-116260000D03*
D11*
X127805000Y-156550000D03*
X128705000Y-156550000D03*
D34*
X148840000Y-112860000D03*
X148840000Y-113760000D03*
D11*
X123655000Y-129450000D03*
X124555000Y-129450000D03*
X123655000Y-130650000D03*
X124555000Y-130650000D03*
D34*
X132005000Y-154900000D03*
X132005000Y-154000000D03*
X130705000Y-154900000D03*
X130705000Y-154000000D03*
D11*
X153905000Y-133450000D03*
X154805000Y-133450000D03*
X153905000Y-134650000D03*
X154805000Y-134650000D03*
X153905000Y-132250000D03*
X154805000Y-132250000D03*
X153905000Y-128650000D03*
X154805000Y-128650000D03*
X153905000Y-127450000D03*
X154805000Y-127450000D03*
X153905000Y-126250000D03*
X154805000Y-126250000D03*
X154805000Y-135850000D03*
X153905000Y-135850000D03*
X153905000Y-125050000D03*
X154805000Y-125050000D03*
X154805000Y-138250000D03*
X153905000Y-138250000D03*
X153905000Y-121450000D03*
X154805000Y-121450000D03*
X154805000Y-129850000D03*
X153905000Y-129850000D03*
X153905000Y-123850000D03*
X154805000Y-123850000D03*
X154805000Y-131050000D03*
X153905000Y-131050000D03*
X153905000Y-122650000D03*
X154805000Y-122650000D03*
X154805000Y-120250000D03*
X153905000Y-120250000D03*
X153905000Y-139450000D03*
X154805000Y-139450000D03*
X154805000Y-137050000D03*
X153905000Y-137050000D03*
X147955000Y-153850000D03*
X148855000Y-153850000D03*
D34*
X120105000Y-138050000D03*
X120105000Y-138950000D03*
X121905000Y-143650000D03*
X121905000Y-144550000D03*
X135905000Y-154900000D03*
X135905000Y-154000000D03*
D11*
X154805000Y-140650000D03*
X153905000Y-140650000D03*
X140455000Y-121250000D03*
X139555000Y-121250000D03*
X140455000Y-114750000D03*
X139555000Y-114750000D03*
X140455000Y-115950000D03*
X139555000Y-115950000D03*
X123805000Y-116250000D03*
X124705000Y-116250000D03*
X136340000Y-123190000D03*
X135440000Y-123190000D03*
X134435000Y-123190000D03*
X133535000Y-123190000D03*
X123805000Y-121050000D03*
X124705000Y-121050000D03*
X123805000Y-122250000D03*
X124705000Y-122250000D03*
X139555000Y-120050000D03*
X140455000Y-120050000D03*
X123805000Y-117450000D03*
X124705000Y-117450000D03*
X123805000Y-118650000D03*
X124705000Y-118650000D03*
X123805000Y-119850000D03*
X124705000Y-119850000D03*
X142155000Y-153850000D03*
X141255000Y-153850000D03*
D34*
X102405000Y-121650000D03*
X102405000Y-122550000D03*
X101205000Y-121650000D03*
X101205000Y-122550000D03*
X96304000Y-121640000D03*
X96304000Y-122540000D03*
D11*
X109705000Y-143637000D03*
X108805000Y-143637000D03*
D34*
X97548000Y-121650000D03*
X97548000Y-122550000D03*
X98748000Y-121650000D03*
X98748000Y-122550000D03*
X99948000Y-121650000D03*
X99948000Y-122550000D03*
D11*
X108805000Y-142150000D03*
X109705000Y-142150000D03*
X114805000Y-144550000D03*
X113905000Y-144550000D03*
X114805000Y-145750000D03*
X113905000Y-145750000D03*
X107005000Y-142150000D03*
X107905000Y-142150000D03*
X114805000Y-142150000D03*
X113905000Y-142150000D03*
X118005000Y-125450000D03*
X117105000Y-125450000D03*
X118005000Y-126650000D03*
X117105000Y-126650000D03*
X118005000Y-127850000D03*
X117105000Y-127850000D03*
X118005000Y-129050000D03*
X117105000Y-129050000D03*
X118005000Y-130250000D03*
X117105000Y-130250000D03*
X118005000Y-131450000D03*
X117105000Y-131450000D03*
X114805000Y-143350000D03*
X113905000Y-143350000D03*
X116505000Y-135550000D03*
X117405000Y-135550000D03*
X116505000Y-136750000D03*
X117405000Y-136750000D03*
X116505000Y-140050000D03*
X117405000Y-140050000D03*
X94955000Y-122850000D03*
X94055000Y-122850000D03*
D34*
X101205000Y-124950000D03*
X101205000Y-124050000D03*
X100005000Y-124950000D03*
X100005000Y-124050000D03*
X98805000Y-124950000D03*
X98805000Y-124050000D03*
X97605000Y-124950000D03*
X97605000Y-124050000D03*
X96405000Y-124950000D03*
X96405000Y-124050000D03*
X95205000Y-124950000D03*
X95205000Y-124050000D03*
D11*
X94050000Y-124400000D03*
X93150000Y-124400000D03*
X97055000Y-147150000D03*
X97955000Y-147150000D03*
X107005000Y-134850000D03*
X106105000Y-134850000D03*
X107005000Y-136050000D03*
X106105000Y-136050000D03*
X107005000Y-137250000D03*
X106105000Y-137250000D03*
X107005000Y-138450000D03*
X106105000Y-138450000D03*
D34*
X106405000Y-147250000D03*
X106405000Y-148150000D03*
X106405000Y-152350000D03*
X106405000Y-153250000D03*
D36*
X148690000Y-124400000D03*
X149640000Y-124400000D03*
X150590000Y-124400000D03*
X150590000Y-121780000D03*
X148690000Y-121780000D03*
D37*
X117525000Y-123650000D03*
X117525000Y-122700000D03*
X117525000Y-121750000D03*
X114905000Y-121750000D03*
X114905000Y-123650000D03*
D38*
X106805000Y-122100000D03*
D39*
X109345000Y-115800000D03*
X108075000Y-115800000D03*
X106805000Y-115800000D03*
X105535000Y-115800000D03*
X104265000Y-115800000D03*
D40*
X123925000Y-151330000D03*
X122975000Y-151330000D03*
X122025000Y-151330000D03*
X122025000Y-153530000D03*
X123925000Y-153530000D03*
D41*
X124505000Y-132650000D03*
X124505000Y-132150000D03*
X124505000Y-131650000D03*
X123735000Y-132650000D03*
X123735000Y-132150000D03*
X123735000Y-131650000D03*
X124505000Y-134850000D03*
X124505000Y-134350000D03*
X124505000Y-133850000D03*
X123735000Y-134850000D03*
X123735000Y-134350000D03*
X123735000Y-133850000D03*
D42*
X143505000Y-121350000D03*
X143505000Y-120050000D03*
X143505000Y-120700000D03*
X141605000Y-120050000D03*
X141605000Y-121350000D03*
X137855000Y-153900000D03*
X137855000Y-155200000D03*
X137855000Y-154550000D03*
X139755000Y-155200000D03*
X139755000Y-153900000D03*
D43*
X108855000Y-126425000D03*
X108855000Y-127075000D03*
X108855000Y-127725000D03*
X108855000Y-128375000D03*
X108855000Y-129025000D03*
X108855000Y-129675000D03*
X108855000Y-130325000D03*
X108855000Y-130975000D03*
X108855000Y-131625000D03*
X108855000Y-132275000D03*
X114755000Y-132275000D03*
X114755000Y-131625000D03*
X114755000Y-130975000D03*
X114755000Y-130325000D03*
X114755000Y-129675000D03*
X114755000Y-129025000D03*
X114755000Y-128375000D03*
X114755000Y-127725000D03*
X114755000Y-127075000D03*
X114755000Y-126425000D03*
X108855000Y-134825000D03*
X108855000Y-135475000D03*
X108855000Y-136125000D03*
X108855000Y-136775000D03*
X108855000Y-137425000D03*
X108855000Y-138075000D03*
X108855000Y-138725000D03*
X108855000Y-139375000D03*
X108855000Y-140025000D03*
X108855000Y-140675000D03*
X114755000Y-140675000D03*
X114755000Y-140025000D03*
X114755000Y-139375000D03*
X114755000Y-138725000D03*
X114755000Y-138075000D03*
X114755000Y-137425000D03*
X114755000Y-136775000D03*
X114755000Y-136125000D03*
X114755000Y-135475000D03*
X114755000Y-134825000D03*
D44*
X97905000Y-145725000D03*
X97905000Y-143975000D03*
X96505000Y-143975000D03*
X96505000Y-145725000D03*
D45*
X123105000Y-136800000D03*
X123105000Y-140500000D03*
D17*
X123905000Y-142800000D03*
X123905000Y-145300000D03*
D16*
X94805000Y-112750000D03*
D46*
X128705000Y-155450000D03*
X128705000Y-154950000D03*
X128705000Y-154450000D03*
X128705000Y-153950000D03*
X125605000Y-153950000D03*
X125605000Y-154450000D03*
X125605000Y-154950000D03*
X125605000Y-155450000D03*
D47*
X104639540Y-126695120D03*
D48*
X103514320Y-126370000D03*
X102813280Y-126370000D03*
X102112240Y-126370000D03*
X101413740Y-126370000D03*
X100712700Y-126370000D03*
X100014200Y-126370000D03*
X99313160Y-126370000D03*
X98614660Y-126370000D03*
X97916160Y-126370000D03*
X97215120Y-126370000D03*
X96516620Y-126370000D03*
X95815580Y-126370000D03*
X95117080Y-126370000D03*
X94416040Y-126370000D03*
X93715000Y-126370000D03*
D47*
X92589780Y-126695120D03*
D49*
X92315460Y-127769540D03*
X92315460Y-128470580D03*
X92315460Y-129171620D03*
X92315460Y-129870120D03*
X92315460Y-130571160D03*
X92315460Y-131269660D03*
X92315460Y-131970700D03*
X92315460Y-132669200D03*
X92315460Y-133367700D03*
X92315460Y-134068740D03*
X92315460Y-134767240D03*
X92315460Y-135468280D03*
X92315460Y-136166780D03*
X92315460Y-136867820D03*
X92315460Y-137568860D03*
D47*
X92589780Y-138643280D03*
D48*
X93715000Y-138968400D03*
X94416040Y-138968400D03*
X95117080Y-138968400D03*
X95815580Y-138968400D03*
X96516620Y-138968400D03*
X97215120Y-138968400D03*
X97916160Y-138968400D03*
X98614660Y-138968400D03*
X99313160Y-138968400D03*
X100014200Y-138968400D03*
X100712700Y-138968400D03*
X101413740Y-138968400D03*
X102112240Y-138968400D03*
X102813280Y-138968400D03*
X103514320Y-138968400D03*
D47*
X104639540Y-138643280D03*
D49*
X104913860Y-137568860D03*
X104913860Y-136867820D03*
X104913860Y-136166780D03*
X104913860Y-135468280D03*
X104913860Y-134767240D03*
X104913860Y-134068740D03*
X104913860Y-133367700D03*
X104913860Y-132669200D03*
X104913860Y-131970700D03*
X104913860Y-131269660D03*
X104913860Y-130571160D03*
X104913860Y-129870120D03*
X104913860Y-129171620D03*
X104913860Y-128470580D03*
X104913860Y-127769540D03*
D50*
X102462760Y-128821100D03*
X101063220Y-128821100D03*
X99663680Y-128821100D03*
X97565640Y-128821100D03*
X96166100Y-128821100D03*
X94766560Y-128821100D03*
X102462760Y-130220640D03*
X101063220Y-130220640D03*
X99663680Y-130220640D03*
X97565640Y-130220640D03*
X96166100Y-130220640D03*
X94766560Y-130220640D03*
X102462760Y-131620180D03*
X101063220Y-131620180D03*
X99663680Y-131620180D03*
X97565640Y-131620180D03*
X96166100Y-131620180D03*
X94766560Y-131620180D03*
X102462760Y-133718220D03*
X101063220Y-133718220D03*
X99663680Y-133718220D03*
X97565640Y-133718220D03*
X96166100Y-133718220D03*
X94766560Y-133718220D03*
X102462760Y-135117760D03*
X101063220Y-135117760D03*
X99663680Y-135117760D03*
X97565640Y-135117760D03*
X96166100Y-135117760D03*
X94766560Y-135117760D03*
X102462760Y-136517300D03*
X101063220Y-136517300D03*
X99663680Y-136517300D03*
X97565640Y-136517300D03*
X96166100Y-136517300D03*
X94766560Y-136517300D03*
D51*
X129004240Y-119750000D03*
X129004240Y-119249620D03*
X129004240Y-118749240D03*
X129004240Y-118248860D03*
X129004240Y-117751020D03*
X129004240Y-117250640D03*
X129004240Y-116750260D03*
X129004240Y-116252420D03*
X129004240Y-115752040D03*
X129004240Y-115251660D03*
X129004240Y-114753820D03*
X129004240Y-114253440D03*
X129004240Y-113753060D03*
X129004240Y-113252680D03*
X129504620Y-119750000D03*
X129504620Y-119249620D03*
X129504620Y-118749240D03*
X129504620Y-118248860D03*
X129504620Y-117751020D03*
X129504620Y-117250640D03*
X129504620Y-116750260D03*
X129504620Y-116252420D03*
X129504620Y-115752040D03*
X129504620Y-115251660D03*
X129504620Y-114753820D03*
X129504620Y-114253440D03*
X129504620Y-113753060D03*
X129504620Y-113252680D03*
X130005000Y-119750000D03*
X130005000Y-119249620D03*
X130005000Y-118749240D03*
X130005000Y-118248860D03*
X130005000Y-117751020D03*
X130005000Y-117250640D03*
X130005000Y-116750260D03*
X130005000Y-116252420D03*
X130005000Y-115752040D03*
X130005000Y-115251660D03*
X130005000Y-114753820D03*
X130005000Y-114253440D03*
X130005000Y-113753060D03*
X130005000Y-113252680D03*
X130505380Y-119750000D03*
X130505380Y-119249620D03*
X130505380Y-118749240D03*
X130505380Y-118248860D03*
X130505380Y-114253440D03*
X130505380Y-113753060D03*
X130505380Y-113252680D03*
X131003220Y-119750000D03*
X131003220Y-119249620D03*
X131003220Y-118749240D03*
X131003220Y-117751020D03*
X131003220Y-117250640D03*
X131003220Y-116750260D03*
X131003220Y-116252420D03*
X131003220Y-115752040D03*
X131003220Y-115251660D03*
X131003220Y-114253440D03*
X131003220Y-113753060D03*
X131003220Y-113252680D03*
X131503600Y-119750000D03*
X131503600Y-119249620D03*
X131503600Y-118749240D03*
X131503600Y-117751020D03*
X131503600Y-115251660D03*
X131503600Y-114253440D03*
X131503600Y-113753060D03*
X131503600Y-113252680D03*
X132003980Y-119750000D03*
X132003980Y-119249620D03*
X132003980Y-118749240D03*
X132003980Y-117751020D03*
X132003980Y-115251660D03*
X132003980Y-114253440D03*
X132003980Y-113753060D03*
X132003980Y-113252680D03*
X132501820Y-119750000D03*
X132501820Y-119249620D03*
X132501820Y-118749240D03*
X132501820Y-117751020D03*
X132501820Y-115251660D03*
X132501820Y-114253440D03*
X132501820Y-113753060D03*
X132501820Y-113252680D03*
X133002200Y-119750000D03*
X133002200Y-119249620D03*
X133002200Y-118749240D03*
X133002200Y-117751020D03*
X133002200Y-115251660D03*
X133002200Y-114253440D03*
X133002200Y-113753060D03*
X133002200Y-113252680D03*
X133502580Y-119750000D03*
X133502580Y-119249620D03*
X133502580Y-118749240D03*
X133502580Y-117751020D03*
X133502580Y-117250640D03*
X133502580Y-116750260D03*
X133502580Y-116252420D03*
X133502580Y-115752040D03*
X133502580Y-115251660D03*
X133502580Y-114253440D03*
X133502580Y-113753060D03*
X133502580Y-113252680D03*
X134000420Y-119750000D03*
X134000420Y-119249620D03*
X134000420Y-118749240D03*
X134000420Y-114253440D03*
X134000420Y-113753060D03*
X134000420Y-113252680D03*
X134500800Y-119750000D03*
X134500800Y-119249620D03*
X134500800Y-118749240D03*
X134500800Y-118248860D03*
X134500800Y-117751020D03*
X134500800Y-117250640D03*
X134500800Y-116750260D03*
X134500800Y-116252420D03*
X134500800Y-115752040D03*
X134500800Y-115251660D03*
X134500800Y-114753820D03*
X134500800Y-114253440D03*
X134500800Y-113753060D03*
X134500800Y-113252680D03*
X135001180Y-119750000D03*
X135001180Y-119249620D03*
X135001180Y-118749240D03*
X135001180Y-118248860D03*
X135001180Y-117751020D03*
X135001180Y-117250640D03*
X135001180Y-116750260D03*
X135001180Y-116252420D03*
X135001180Y-115752040D03*
X135001180Y-115251660D03*
X135001180Y-114753820D03*
X135001180Y-114253440D03*
X135001180Y-113753060D03*
X135001180Y-113252680D03*
X135501560Y-119750000D03*
X135501560Y-119249620D03*
X135501560Y-118749240D03*
X135501560Y-118248860D03*
X135501560Y-117751020D03*
X135501560Y-117250640D03*
X135501560Y-116750260D03*
X135501560Y-116252420D03*
X135501560Y-115752040D03*
X135501560Y-115251660D03*
X135501560Y-114753820D03*
X135501560Y-114253440D03*
X135501560Y-113753060D03*
X135501560Y-113252680D03*
D35*
X157550000Y-144900000D03*
X155650000Y-144900000D03*
X156600000Y-146900000D03*
D25*
X145500000Y-112650000D03*
X145500000Y-110750000D03*
X143500000Y-111700000D03*
D34*
X154200000Y-144950000D03*
X154200000Y-145850000D03*
X159000000Y-149550000D03*
X159000000Y-150450000D03*
X159000000Y-144950000D03*
X159000000Y-145850000D03*
X154200000Y-150450000D03*
X154200000Y-149550000D03*
D11*
X144550000Y-114000000D03*
X145450000Y-114000000D03*
X143700000Y-115000000D03*
X144600000Y-115000000D03*
X143650000Y-114000000D03*
X142750000Y-114000000D03*
X138650000Y-109600000D03*
X137750000Y-109600000D03*
D35*
X155650000Y-150400000D03*
X157550000Y-150400000D03*
X156600000Y-148400000D03*
D25*
X140000000Y-110750000D03*
X140000000Y-112650000D03*
X142000000Y-111700000D03*
M02*
