M48
;DRILL file {KiCad no-vcs-found-2237de0~58~ubuntu16.04.1} date Thu Jun 29 19:32:23 2017
;FORMAT={-:-/ absolute / inch / decimal}
FMAT,2
INCH,TZ
T1C0.010
%
G90
G05
M72
T1
X3.5633Y-5.5055
X3.5648Y-5.2618
X3.5648Y-5.1811
X3.565Y-5.2213
X3.5983Y-4.913
X3.651Y-5.0284
X3.651Y-5.056
X3.651Y-5.1386
X3.651Y-5.1662
X3.651Y-5.359
X3.6692Y-4.5744
X3.6762Y-5.8036
X3.6833Y-5.6804
X3.6848Y-5.6437
X3.7131Y-5.6052
X3.7323Y-4.5748
X3.7383Y-4.7955
X3.7383Y-5.4955
X3.7383Y-5.7067
X3.7558Y-4.7162
X3.7682Y-5.4705
X3.7948Y-4.8255
X3.8267Y-5.4012
X3.8345Y-5.8658
X3.8416Y-4.8255
X3.8503Y-5.043
X3.8503Y-5.0961
X3.8503Y-5.1532
X3.8503Y-5.2339
X3.8503Y-5.289
X3.8503Y-5.3461
X3.8503Y-5.3855
X3.8508Y-4.9906
X3.8739Y-5.4721
X3.8898Y-4.8255
X3.9054Y-5.4642
X3.9055Y-5.5965
X3.9059Y-4.9906
X3.9349Y-5.3973
X3.9433Y-4.8255
X3.961Y-5.3976
X3.9841Y-5.8343
X3.9841Y-6.039
X3.9885Y-5.4913
X4.Y-4.8272
X4.0161Y-5.4905
X4.0486Y-5.2488
X4.0486Y-5.2763
X4.0683Y-5.5805
X4.0944Y-5.7949
X4.0944Y-5.9996
X4.1058Y-6.178
X4.1183Y-5.6605
X4.1208Y-5.948
X4.1233Y-4.3605
X4.1233Y-4.3905
X4.1258Y-5.1655
X4.1308Y-5.1105
X4.1308Y-5.193
X4.1358Y-5.2205
X4.1383Y-6.153
X4.1633Y-5.5655
X4.1732Y-4.8554
X4.1733Y-4.7005
X4.1783Y-6.1805
X4.1833Y-4.3805
X4.1833Y-4.3555
X4.1933Y-5.0505
X4.1983Y-5.0255
X4.2025Y-5.4847
X4.2033Y-4.9455
X4.2033Y-5.0005
X4.2033Y-5.0755
X4.2033Y-5.1055
X4.2061Y-5.3283
X4.2083Y-5.3855
X4.2108Y-6.183
X4.2233Y-5.6255
X4.2333Y-5.9155
X4.2433Y-5.8505
X4.2458Y-6.0605
X4.2508Y-6.1855
X4.2548Y-4.2953
X4.2558Y-6.158
X4.2758Y-5.8955
X4.2758Y-6.188
X4.2783Y-5.2255
X4.2808Y-5.8505
X4.2858Y-6.0605
X4.2898Y-4.7795
X4.2961Y-6.1701
X4.3031Y-4.9305
X4.3033Y-5.4655
X4.3041Y-5.4363
X4.307Y-5.1807
X4.307Y-5.5115
X4.3071Y-5.9213
X4.311Y-5.9567
X4.3148Y-5.565
X4.3198Y-4.452
X4.3208Y-6.1905
X4.3283Y-6.0555
X4.3583Y-6.0555
X4.3648Y-4.9172
X4.374Y-6.1693
X4.3833Y-6.0605
X4.4002Y-5.3605
X4.4078Y-6.071
X4.4083Y-5.7855
X4.4125Y-4.7722
X4.4125Y-5.1781
X4.4183Y-6.1755
X4.4233Y-6.0555
X4.4251Y-5.6611
X4.4251Y-5.7083
X4.4283Y-5.8005
X4.4331Y-4.9205
X4.4383Y-5.8705
X4.4433Y-5.8205
X4.4533Y-5.8455
X4.4561Y-5.9639
X4.4583Y-5.9055
X4.4583Y-6.1705
X4.4683Y-5.2305
X4.4683Y-5.8655
X4.4739Y-5.9461
X4.4764Y-6.1555
X4.4882Y-5.5374
X4.4883Y-6.0505
X4.4983Y-6.1855
X4.5117Y-5.7083
X4.5233Y-6.1805
X4.5352Y-5.2657
X4.537Y-6.1551
X4.5552Y-5.4075
X4.5583Y-5.9155
X4.5628Y-5.4311
X4.5635Y-5.4562
X4.5637Y-6.1818
X4.5783Y-5.8955
X4.5833Y-6.071
X4.5948Y-4.7222
X4.6033Y-6.1855
X4.6049Y-6.1592
X4.614Y-5.3051
X4.614Y-5.3524
X4.6179Y-5.4823
X4.6376Y-4.9075
X4.6376Y-4.9547
X4.6376Y-5.002
X4.6376Y-5.0492
X4.6376Y-5.0965
X4.6376Y-5.1437
X4.6614Y-5.4252
X4.7244Y-5.6378
X4.7308Y-5.9155
X4.736Y-5.8602
X4.7733Y-6.153
X4.7776Y-4.5039
X4.7783Y-4.5305
X4.7783Y-4.5555
X4.7783Y-5.1153
X4.7795Y-4.6378
X4.7933Y-4.3305
X4.803Y-5.8602
X4.8083Y-5.9655
X4.8133Y-4.3805
X4.8133Y-4.4055
X4.8133Y-5.0655
X4.8283Y-4.3305
X4.8425Y-4.8305
X4.8583Y-4.3305
X4.8783Y-6.0905
X4.8976Y-5.0709
X4.8976Y-5.1102
X4.8983Y-5.7855
X4.9033Y-5.2255
X4.9048Y-4.2953
X4.9133Y-4.5455
X4.9133Y-5.9355
X4.9213Y-5.4252
X4.9238Y-5.865
X4.9291Y-5.6378
X4.9333Y-4.6055
X4.9383Y-5.9455
X4.9583Y-4.4072
X4.9583Y-4.4355
X4.9583Y-5.9605
X4.9833Y-5.9655
X4.9933Y-4.6456
X4.9933Y-5.1955
X4.9933Y-5.2955
X4.9933Y-5.4955
X4.9933Y-5.8455
X5.0084Y-4.6653
X5.0096Y-5.9652
X5.0168Y-4.7155
X5.0183Y-4.6259
X5.0383Y-6.1055
X5.0433Y-5.0455
X5.0433Y-5.4455
X5.0433Y-5.7455
X5.0433Y-5.7955
X5.0433Y-5.8955
X5.0933Y-4.9955
X5.0933Y-5.0955
X5.0933Y-5.1455
X5.0933Y-5.1955
X5.0933Y-5.2955
X5.0933Y-5.3455
X5.0933Y-5.3955
X5.0933Y-5.4455
X5.0933Y-5.4955
X5.0933Y-5.5455
X5.0933Y-5.5955
X5.0933Y-5.6455
X5.0933Y-5.7455
X5.0933Y-5.7955
X5.0933Y-5.8955
X5.1102Y-6.
X5.1108Y-6.108
X5.1183Y-4.7355
X5.1417Y-5.2441
X5.1433Y-5.0455
X5.1433Y-5.0955
X5.1433Y-5.1455
X5.1433Y-5.1955
X5.1433Y-5.2955
X5.1433Y-5.3455
X5.1433Y-5.3955
X5.1433Y-5.4455
X5.1433Y-5.4955
X5.1433Y-5.5955
X5.1433Y-5.6455
X5.1433Y-5.7455
X5.1433Y-5.7955
X5.1433Y-5.8455
X5.1433Y-5.8955
X5.1535Y-4.5787
X5.1628Y-4.715
X5.1658Y-6.0005
X5.1693Y-4.8661
X5.1833Y-4.5555
X5.1933Y-4.9955
X5.1933Y-5.0955
X5.1933Y-5.1455
X5.1933Y-5.1955
X5.1933Y-5.2455
X5.1933Y-5.2955
X5.1933Y-5.3955
X5.1933Y-5.4955
X5.1933Y-5.5455
X5.1933Y-5.5955
X5.1933Y-5.6955
X5.1933Y-5.7455
X5.1933Y-5.7955
X5.1933Y-5.8455
X5.1933Y-5.8955
X5.1952Y-5.0435
X5.2033Y-4.3955
X5.2047Y-4.4883
X5.2158Y-4.933
X5.2383Y-4.6205
X5.2433Y-4.943
X5.2433Y-5.0455
X5.2433Y-5.0955
X5.2433Y-5.1455
X5.2433Y-5.3955
X5.2433Y-5.4455
X5.2433Y-5.5955
X5.2433Y-5.6455
X5.2433Y-5.6955
X5.2433Y-5.7455
X5.2433Y-5.7955
X5.2441Y-5.2441
X5.2683Y-5.9805
X5.2733Y-4.8655
X5.2798Y-4.2953
X5.2933Y-4.9955
X5.2933Y-5.0455
X5.2933Y-5.0955
X5.2933Y-5.1455
X5.2933Y-5.1955
X5.2933Y-5.3955
X5.2933Y-5.7455
X5.2933Y-5.7955
X5.2933Y-5.8455
X5.2933Y-5.8955
X5.3148Y-4.2953
X5.3183Y-5.9805
X5.3307Y-4.5866
X5.3307Y-4.6673
X5.3333Y-6.108
X5.3414Y-5.1455
X5.3433Y-5.0455
X5.3433Y-5.0955
X5.3433Y-5.1955
X5.3433Y-5.7455
X5.3433Y-5.7955
X5.3433Y-5.8455
X5.3433Y-5.8955
X5.3531Y-4.2953
X5.3633Y-6.0434
X5.3892Y-4.5268
X5.3932Y-4.9956
X5.3933Y-5.0455
X5.3933Y-5.0955
X5.3933Y-5.1455
X5.3933Y-5.1955
X5.3933Y-5.3955
X5.3933Y-5.7455
X5.3933Y-5.7955
X5.3933Y-5.8455
X5.3933Y-5.8955
X5.3974Y-6.1122
X5.4015Y-4.5473
X5.4093Y-4.4035
X5.437Y-4.7441
X5.4433Y-5.1455
X5.4433Y-5.2955
X5.4433Y-5.5955
X5.4433Y-5.7955
X5.4433Y-5.8455
X5.4433Y-5.8955
X5.4683Y-4.9305
X5.4683Y-5.998
X5.4775Y-6.1646
X5.4783Y-6.1355
X5.4933Y-5.0955
X5.4933Y-5.1455
X5.4933Y-5.3455
X5.4933Y-5.4955
X5.4933Y-5.6455
X5.4933Y-5.8455
X5.498Y-4.561
X5.498Y-4.7857
X5.4983Y-6.1505
X5.5233Y-6.2005
X5.5433Y-4.7795
X5.5433Y-4.9455
X5.5433Y-5.0455
X5.5433Y-5.0955
X5.5433Y-5.1455
X5.5433Y-5.1955
X5.5433Y-5.3455
X5.5433Y-5.5455
X5.5433Y-5.6955
X5.5433Y-5.7955
X5.5433Y-5.8455
X5.5433Y-5.8955
X5.5883Y-4.7205
X5.5883Y-6.0255
X5.5933Y-5.0455
X5.5933Y-5.0955
X5.5933Y-5.1455
X5.5933Y-5.1955
X5.5933Y-5.4955
X5.5933Y-5.5455
X5.5933Y-5.6955
X5.5933Y-5.7455
X5.5933Y-5.7955
X5.5933Y-6.1205
X5.6148Y-4.812
X5.6148Y-4.8705
X5.6433Y-4.9955
X5.6433Y-5.0455
X5.6433Y-5.0955
X5.6433Y-5.1455
X5.6433Y-5.1955
X5.6433Y-5.2455
X5.6433Y-5.3455
X5.6433Y-5.5455
X5.6433Y-5.6955
X5.6433Y-5.7955
X5.6753Y-4.7224
X5.6933Y-4.9955
X5.6933Y-5.0455
X5.6933Y-5.0955
X5.6933Y-5.1455
X5.6933Y-5.1955
X5.6933Y-5.2455
X5.6933Y-5.3955
X5.6933Y-5.6455
X5.6933Y-5.7955
X5.6933Y-5.8455
X5.6933Y-5.8955
X5.7183Y-4.9055
X5.7183Y-4.9255
X5.7183Y-5.9655
X5.7433Y-5.0455
X5.7433Y-5.0955
X5.7433Y-5.1455
X5.7433Y-5.1955
X5.7433Y-5.2955
X5.7433Y-5.5455
X5.7433Y-5.7955
X5.7433Y-5.8455
X5.7433Y-5.8955
X5.7652Y-4.4118
X5.7661Y-4.3843
X5.7933Y-5.0955
X5.7933Y-5.1455
X5.7933Y-5.1955
X5.8078Y-4.815
X5.84Y-4.3882
X5.8433Y-4.8105
X5.8433Y-4.9455
X5.8433Y-4.9955
X5.8433Y-5.0455
X5.8433Y-5.0955
X5.8433Y-5.1455
X5.8433Y-5.1955
X5.8557Y-6.026
X5.8633Y-4.8005
X5.8633Y-4.8205
X5.8933Y-4.9455
X5.8983Y-4.6255
X5.9071Y-4.4778
X5.9071Y-4.5108
X5.9211Y-4.8642
X5.9283Y-4.7155
X5.9406Y-5.2955
X5.9423Y-5.1441
X5.9433Y-4.9455
X5.9433Y-4.9955
X5.9433Y-5.8955
X5.9441Y-4.5108
X5.9481Y-5.2428
X5.9486Y-5.1949
X5.9523Y-5.0804
X5.9526Y-4.3248
X5.9562Y-5.1205
X5.9564Y-5.0457
X5.9574Y-5.4317
X5.9583Y-5.4005
X5.9688Y-5.1836
X5.9742Y-5.2937
X5.9742Y-5.3252
X5.9758Y-4.7005
X5.9762Y-4.3248
X5.9817Y-4.7776
X5.9844Y-4.8335
X5.9883Y-4.938
X5.9933Y-5.4305
X5.9986Y-4.7968
X5.9998Y-4.3248
X6.0033Y-4.7244
X6.0033Y-5.2705
X6.0041Y-4.7506
X6.0392Y-5.813
X6.0833Y-5.2905
X6.0864Y-5.4626
X6.0949Y-4.8212
X6.0983Y-5.5005
X6.0984Y-4.7953
X6.1022Y-4.7379
X6.1024Y-4.7677
X6.1024Y-4.7047
X6.1059Y-5.0412
X6.1078Y-4.8842
X6.1078Y-4.95
X6.108Y-4.9939
X6.1082Y-4.9719
X6.1083Y-5.3855
X6.1083Y-4.9061
X6.1087Y-4.9281
X6.1088Y-5.537
X6.1095Y-5.189
X6.1102Y-5.122
X6.1104Y-4.8624
X6.1105Y-5.1473
X6.1127Y-5.2107
X6.113Y-5.0997
X6.1142Y-5.0157
X6.1168Y-5.1683
X6.1188Y-5.0785
X6.1199Y-5.6319
X6.1333Y-5.2955
X6.1344Y-5.5388
X6.1573Y-5.5453
X6.1833Y-4.7199
X6.1833Y-4.7705
X6.1908Y-4.5805
X6.2083Y-4.7355
X6.2083Y-5.0428
X6.2183Y-4.7555
X6.2233Y-5.2286
X6.2264Y-5.1905
X6.2325Y-5.009
X6.2345Y-4.8215
X6.2373Y-4.9339
X6.2422Y-4.8883
X6.2433Y-4.7655
X6.2483Y-5.1505
X6.2523Y-4.8392
X6.2533Y-5.0573
X6.2544Y-4.9821
X6.2583Y-5.1005
X6.263Y-4.9342
X6.2783Y-4.9555
X6.2783Y-5.0155
X6.2783Y-5.0405
X6.2783Y-5.0655
X6.2783Y-5.1205
X6.2783Y-5.1955
X6.2783Y-5.2255
X6.2783Y-5.2555
X6.2808Y-4.9905
T0
M30
